<?xml version="1.0" encoding="UTF-8" standalone="no"?>
<svg
   xmlns:osb="http://www.openswatchbook.org/uri/2009/osb"
   xmlns:dc="http://purl.org/dc/elements/1.1/"
   xmlns:cc="http://creativecommons.org/ns#"
   xmlns:rdf="http://www.w3.org/1999/02/22-rdf-syntax-ns#"
   xmlns:svg="http://www.w3.org/2000/svg"
   xmlns="http://www.w3.org/2000/svg"
   xmlns:sodipodi="http://sodipodi.sourceforge.net/DTD/sodipodi-0.dtd"
   xmlns:inkscape="http://www.inkscape.org/namespaces/inkscape"
   version="1.0"
   width="100%"
   height="100%"
   preserveAspectRatio="keep"
   id="svg2"
   inkscape:version="0.91 r13725"
   viewBox="0 0 347.40427 212.20854"
   sodipodi:docname="Finnmark_kommuner.svg">
  <metadata
     id="metadata750">
    <rdf:RDF>
      <cc:Work
         rdf:about="">
        <dc:format>image/svg+xml</dc:format>
        <dc:type
           rdf:resource="http://purl.org/dc/dcmitype/StillImage" />
        <dc:title></dc:title>
      </cc:Work>
    </rdf:RDF>
  </metadata>
  <sodipodi:namedview
     pagecolor="#ffffff"
     bordercolor="#666666"
     borderopacity="1"
     objecttolerance="10"
     gridtolerance="10"
     guidetolerance="10"
     inkscape:pageopacity="0"
     inkscape:pageshadow="2"
     inkscape:window-width="1440"
     inkscape:window-height="851"
     id="namedview748"
     inkscape:document-units="mm"
     showgrid="false"
     inkscape:zoom="0.97798018"
     inkscape:cx="655.68244"
     inkscape:cy="457.9398"
     inkscape:window-x="0"
     inkscape:window-y="0"
     inkscape:window-maximized="1"
     inkscape:current-layer="svg2"
     inkscape:snap-text-baseline="false" />
  <defs
     id="defs4">
    <linearGradient
       id="linearGradient5735"
       osb:paint="solid">
      <stop
         
         offset="0"
         id="stop5737" />
    </linearGradient>
    <clipPath
       clipPathUnits="userSpaceOnUse"
       id="clipEmfPath1">
      <path
         d="m 0.3125,-0.3125 0,752.1875 1230.6275,0 0,-752.1875 z"
         id="path7"
         class="land" />
    </clipPath>
    <pattern
       id="EMFhbasepattern"
       patternUnits="userSpaceOnUse"
       width="6"
       height="6"
       x="0"
       y="0" />
  </defs>
  <g
     id="gfinnmark"
     inkscape:label="f20">
    <path
       class="land"
       id="path10"
       d=""
       clip-path="url(#clipEmfPath1)"
        />
    <path
       inkscape:label="kn2004"
       transform="matrix(0.28222222,0,0,0.28222222,0,-6.1820329e-6)"
       class="land"
       id="hammerfest"
       d="m 377.813,247.188 -1.563,7.5 -6.562,5.312 -9.063,6.563 -5,4.062 -6.875,-1.562 -6.562,-1.25 -1.563,-0.313 -2.187,6.875 -1.25,4.688 -0.938,1.562 0,0.625 -11.875,1.563 0,-0.313 0,-1.875 0,-1.562 -4.375,-8.125 2.813,-5.938 7.812,-7.812 3.438,-3.75 3.125,1.562 3.75,1.875 1.562,-2.812 0.938,-1.875 -5.313,-5.313 4.063,-5.312 6.25,10.625 1.875,-9.375 15,-8.125 -10.938,-10.626 12.813,-3.437 5.312,14.688 -0.625,8.125 5.938,3.75 z m 7.812,-18.438 -2.812,0.938 -6.25,-14.688 3.437,-7.5 -4.062,-4.375 -0.938,-7.5 1.563,-7.812 12.5,-4.063 3.125,6.562 16.875,5.938 4.375,9.375 -1.563,0.938 -12.812,17.499 -13.438,4.688 z m -40,-65.312 15.313,14.687 -7.813,6.25 -15.937,33.125 -10.938,22.5 -8.125,1.563 3.438,6.562 -15.938,6.25 -0.625,-7.812 5.938,-11.563 3.437,0.313 4.688,-5.625 -3.125,-6.875 -3.125,0 2.187,-5.625 -4.375,-6.875 2.5,-5.313 -10.312,-7.5 0,-3.75 10.625,6.875 1.25,7.813 5.312,3.437 13.438,-14.687 -10.625,-11.563 5.312,-7.5 5.313,3.438 1.875,-5.938 1.875,0.313 4.375,0.937 4.062,-13.437 z"
       clip-path="url(#clipEmfPath1)"
        />
    <path
       inkscape:label="kn2003"
       transform="matrix(0.28222222,0,0,0.28222222,0,-6.1820329e-6)"
       class="land"
       id="vadso"
       d="m 925,192.5 20.625,7.5 15,5 1.563,0.938 0.625,3.437 0.312,0 -9.062,4.688 1.875,8.75 -5,8.749 -5.625,5.313 -6.563,5 6.25,3.75 -12.5,4.375 -17.187,6.875 -4.688,-0.312 -15,-0.938 L 880,255 l -1.562,-0.312 -11.563,-0.938 -4.687,0 0.312,-2.5 0.625,-4.687 -5.625,-14.375 -1.25,-3.438 -0.312,-0.938 2.5,-20.624 -3.75,-16.876 -10,1.251 -5.313,0.937 -10.625,-4.687 5.938,-1.875 1.562,-11.25 8.438,-9.063 0.625,0 20.625,7.813 13.437,10.312 8.125,0.938 -4.375,7.5 22.5,-2.188 19.375,2.5 z"
       clip-path="url(#clipEmfPath1)"
        />
    <path
       inkscape:label="kn2028"
       transform="matrix(0.28222222,0,0,0.28222222,0,-6.1820329e-6)"
       class="land"
       id="batsfjord"
       d="M 966.875,136.875 957.188,149.688 925,192.5 905.625,190 l -22.5,2.188 4.375,-7.5 -8.125,-0.938 -13.437,-10.312 -20.625,-7.813 -0.625,0 -1.875,-4.687 6.25,-11.876 11.25,-19.687 -0.625,-7.812 12.5,-27.188 3.437,-0.625 3.438,10.312 -6.25,20.001 10.312,-6.563 1.875,-7.187 6.25,-9.688 1.563,-7.5 11.562,2.8125 7.5,2.8125 -6.562,6.563 8.75,0 8.125,3.437 5,3.75 -6.563,10 -7.187,7.5 -7.188,5 4.375,3.75 4.375,1.25 22.188,-11.562 13.437,-6.25 3.75,5.312 0.313,3.75 8.125,1.875 3.75,3.438 0.312,0.312 z"
       clip-path="url(#clipEmfPath1)"
        />
    <path
       inkscape:label="kn2012"
       transform="matrix(0.28222222,0,0,0.28222222,0,-7.25e-6)"
       class="land"
       id="alta"
       d="m 331.875,308.125 5.313,9.375 -23.75,2.813 -18.438,-5.625 0.938,-2.188 5.937,1.875 7.188,-5 -1.25,-20 5,-1.562 5.937,10.312 8.75,1.25 0.625,0.938 3.75,7.812 z m 65.625,-19.062 7.188,26.25 6.562,9.375 14.063,19.375 0,3.437 -0.625,20 14.375,3.438 3.437,-2.188 15.625,43.438 3.438,25.937 1.25,8.438 -12.188,-0.313 -21.875,-0.625 -2.812,0 -6.563,-0.312 -20.625,-0.625 -5.937,1.25 -4.063,0.937 -4.062,0.938 -4.063,2.187 -4.375,2.5 -5,2.813 -22.812,0.937 -4.375,7.5 -6.25,6.25 -0.625,-0.625 -16.875,-10 -5.313,-17.812 -7.812,-4.375 6.562,-14.688 -9.375,-5.625 5.938,-7.812 -3.125,-4.063 -8.438,-0.625 -14.687,-7.5 -6.25,-11.562 0.312,-2.188 1.25,-4.687 0.313,-0.625 1.25,-5.313 2.187,-8.437 14.063,-5.313 3.437,-1.25 3.125,2.188 1.25,1.25 0.938,-0.313 4.687,-1.562 -4.375,-4.063 -0.312,-1.25 -0.938,-6.25 -0.312,-4.062 -12.188,-9.688 0.938,-4.375 -4.063,-2.5 2.188,-5.312 1.25,0.312 13.437,7.188 6.875,0.312 10.938,0.938 12.187,0 -1.875,8.75 -0.312,1.875 -4.688,6.562 -1.875,2.813 -2.812,2.187 -5.938,4.688 -4.062,1.875 -3.438,1.562 -5.312,2.5 -1.875,0.625 -9.063,4.688 -1.25,1.25 -7.5,4.375 -0.312,5.937 10.937,-9.062 8.125,-1.875 11.25,-4.688 7.813,-4.687 4.375,-1.25 8.75,-6.25 0,-0.313 0.625,-1.25 1.25,-3.125 0.312,-0.625 1.563,0.625 4.062,1.875 -0.937,6.875 0,7.5 -0.938,5.938 6.563,5.312 3.437,-4.375 3.75,8.125 -0.312,6.25 -0.313,0 -3.437,5 -0.938,0.938 -2.187,7.187 7.812,-4.375 8.438,-7.5 6.25,-7.812 0.937,0.312 6.875,1.563 1.563,0 3.437,0 5,-8.75 -0.937,-5.313 -12.5,3.438 -1.563,-0.625 -12.187,-5 -3.125,-4.375 -2.5,-3.438 8.437,-5 7.813,-1.562 0.937,-2.188 1.25,-2.5 -8.75,-6.562 -1.875,-1.25 -0.625,-4.375 3.438,-2.5 -8.125,-1.875 -3.125,-3.75 5.937,-3.75 7.5,-2.813 1.875,-1.25 4.688,-2.187 -0.938,-1.875 -11.875,2.187 -4.375,-0.312 12.813,-10 10,-1.875 4.062,-4.375 -0.625,-0.313 -6.875,-1.875 -0.625,0 -4.375,-4.062 1.875,-3.125 3.125,-5.625 1.563,-1.875 17.187,7.5 z m -28.125,-12.5 -12.812,15.312 4.687,5 -2.5,2.188 -10,10 -7.812,-4.375 2.812,-23.438 -6.562,6.563 -4.688,4.687 -8.125,-4.687 0,-5 11.875,-1.563 0,-0.625 0.938,-1.562 1.25,-4.688 2.187,-6.875 1.563,0.313 6.562,1.25 6.875,1.562 7.5,3.438 6.25,2.5 z"
       clip-path="url(#clipEmfPath1)"
        />
    <path
       inkscape:label="kn2018"
       transform="matrix(0.28222222,0,0,0.28222222,0,-6.1820329e-6)"
       class="land"
       id="masoy"
       d="m 398.438,124.375 0,5.313 10.625,-3.438 2.812,6.875 -8.437,3.75 -3.75,5.938 -13.125,-7.813 5.312,-6.25 -8.125,-5.312 4.688,-7.188 7.187,-1.562 10.313,4.687 -7.5,5 z m 62.5,-1.563 5,8.126 7.187,-2.5 2.5,-13.126 4.063,5.626 -4.688,16.562 5.938,2.188 3.437,-15 7.5,2.812 6.875,12.5 3.438,12.188 5.937,-5.313 4.375,-8.125 -3.437,-8.438 -4.688,-13.437 -2.187,-8.125 6.25,2.188 7.187,5.937 2.5,3.438 -0.937,10.312 -5.313,5.938 4.063,8.437 -4.375,18.125 -21.875,38.437 -19.063,-5.624 -5,0.625 -2.812,0.625 -4.375,-6.876 -1.25,-4.374 -9.375,-7.5 -3.75,-4.063 -10,0.625 -8.438,-3.125 -1.875,-11.875 -1.25,-5.625 7.188,-6.562 7.187,6.875 6.25,5.624 9.375,6.251 0.313,0.312 0,-0.937 1.562,-8.75 -8.125,-5.938 -0.312,-6.562 9.375,0.624 1.25,-4.062 -12.5,-4.687 -0.938,-14.375 2.188,-5.625 -4.063,-5.625 2.5,-4.063 4.688,0.625 2.187,4.375 0,0.938 -0.312,1.25 7.5,0 3.125,8.749 z m -3.75,-37.187 -1.875,17.5 -13.125,-5.9375 7.187,-15 7.813,3.4375 z"
       clip-path="url(#clipEmfPath1)"
        />
    <path
       inkscape:label="kn2027"
       transform="matrix(0.28222222,0,0,0.28222222,0,-6.1820329e-6)"
       class="land"
       id="nesseby"
       d="m 862.188,253.75 -1.875,0 -7.5,0 -16.563,-0.625 -12.812,-4.375 -2.188,-0.937 -1.562,0.625 -6.25,1.25 -1.25,0.312 -4.375,2.188 1.25,3.437 2.812,-0.312 5.938,-1.25 5.625,-0.938 -3.438,6.25 -6.562,5 2.187,4.063 5.625,0.937 6.563,-4.062 5.625,-0.625 1.25,2.5 -6.563,2.812 3.125,2.188 5.313,-0.625 10.625,-1.25 9.687,0.937 6.875,0.938 2.5,5.937 10.313,-0.312 4.375,-0.625 1.875,11.25 -4.063,1.562 -2.5,1.25 -1.562,0.625 -40.313,16.875 -28.75,27.813 0,-4.375 0,-0.938 -0.312,-2.812 -0.313,-7.813 0,-6.25 -3.125,-8.125 -11.25,-28.125 -3.125,-22.187 0,-1.563 -0.312,-2.5 2.5,-10.625 3.437,-13.438 3.75,-15.624 21.25,-4.063 10.625,-20.312 10.625,4.687 5.313,-0.937 10,-1.251 3.75,16.876 -2.5,20.624 0.312,0.938 1.25,3.438 5.625,14.375 -0.625,4.687 -0.312,2.5 z"
       clip-path="url(#clipEmfPath1)"
        />
    <path
       inkscape:label="kn2023"
       transform="matrix(0.28222222,0,0,0.28222222,0,-6.1820329e-6)"
       class="land"
       id="gamvik"
       d="m 754.375,126.562 -0.312,12.188 -20.625,30.625 -17.813,14.375 -8.125,25 -1.25,4.062 -5,4.688 -4.375,-11.875 -1.25,-2.812 -8.437,-22.5 0,-7.813 -0.313,-10.625 18.75,-45.312 -0.937,-2.813 L 691.25,69.375 684.063,56.25 687.188,44.6875 682.813,35 l 9.687,2.1875 -3.125,13.4375 7.813,-4.0625 3.125,3.75 1.875,2.5 L 713.75,40 l 5,5.3125 6.563,-9.6875 0.937,-1.875 8.75,3.4375 -0.625,1.5625 -0.312,0.3125 -2.813,9.0625 0.313,14.0625 8.75,-8.4375 16.875,-0.3125 3.125,12.1875 -6.25,15 4.375,2.8125 -2.5,11.875 -10.938,2.5 4.063,5.0005 -16.25,6.875 -8.438,-3.438 -10.937,5.625 -1.563,6.563 -1.25,5.312 11.875,-4.688 14.375,0.938 1.875,4.063 -7.812,11.562 -6.875,9.063 -8.75,9.687 -9.375,5 -0.625,0.625 3.125,-0.312 6.25,0 19.062,-12.813 12.5,-11.875 7.188,-10.937 0.937,2.499 z"
       clip-path="url(#clipEmfPath1)"
        />
    <path
       inkscape:label="kn2024"
       transform="matrix(0.28222222,0,0,0.28222222,0,-6.1820329e-6)"
       class="land"
       id="berlevag"
       d="m 872.188,94.375 -12.5,27.188 0.625,7.812 -11.25,19.687 -6.25,11.876 1.875,4.687 -8.438,1.875 -6.25,-3.438 -4.687,-2.187 -17.5,5.313 -10.313,-18.438 -11.875,-7.812 -0.312,-0.313 -2.5,-5.937 -7.813,-3.438 0,-1.25 6.563,-1.562 0.937,-0.313 1.563,-0.625 -2.188,-1.562 -4.687,-4.375 -0.938,-10.313 3.438,-12.8125 5.937,-17.8125 0.938,-2.1875 17.812,-7.1875 9.375,3.125 8.438,0.3125 1.875,0.3125 4.687,8.75 10.313,2.5 -5.625,12.1875 9.687,1.25 -5.937,12.1875 -1.563,9.063 10.625,-10 10.313,-5.938 10.937,-10 4.688,-0.625 z"
       clip-path="url(#clipEmfPath1)"
        />
    <path
       inkscape:label="kn2011"
       transform="matrix(0.28222222,0,0,0.28222222,0,-6.1820329e-6)"
       class="land"
       id="kautokeino"
       d="m 462.813,446.563 9.062,15 1.25,-1.875 0.625,-0.625 3.125,6.875 1.25,2.5 1.875,0.937 3.125,1.25 -0.625,1.25 -5.312,25.313 0.312,1.25 2.813,6.562 -2.813,8.75 -0.625,0 -4.062,1.563 0.312,3.437 0,2.188 8.125,4.375 11.25,27.5 23.125,15 4.063,2.812 1.875,1.25 6.25,16.875 4.062,11.25 4.375,2.188 16.25,7.5 8.125,4.062 1.25,0.313 6.25,13.125 11.875,0.625 17.813,-5 0,0 0,0.937 -2.813,3.125 -6.25,6.25 -0.937,0.938 -2.188,3.437 -0.312,1.875 -0.625,2.188 0,0.625 -1.563,3.125 -2.812,2.812 -0.313,0.313 -0.937,12.812 0.625,4.688 0.312,0.625 0,0.312 1.25,3.125 -1.25,2.5 0,0.625 0.313,2.813 0,0.625 0.312,2.812 0.313,0.313 0,0.312 0.312,1.25 0.313,0 0,0.313 0,0.312 0,0.313 0,0.312 0,0 0,0.313 1.562,5 -0.312,0.625 -2.188,2.812 0,0.313 0,0.312 -0.312,0.313 -0.313,0.312 0.313,0 -0.625,0.938 -0.313,0 0,0.625 -0.937,-0.313 -0.313,0 -0.625,-0.625 -2.5,0.938 -0.312,1.562 0,0.313 0,0 -0.625,0.625 -0.313,0.312 0,0 -0.625,0 -0.312,0 -0.625,0 -0.625,-0.625 -0.625,0.313 -0.625,0.312 -0.938,-0.312 0,0.625 -0.625,0.312 -0.937,0.625 -0.313,0.625 -0.625,0.625 0,0.313 -0.625,0.625 0,5.625 0.313,1.25 0.312,1.875 0,3.75 -4.375,-1.25 -3.437,-6.875 -2.188,-3.438 -1.562,-2.812 -0.313,-0.313 -0.625,-1.562 -0.937,-0.938 -0.313,-1.25 -6.562,-3.125 -0.313,0 -1.562,-0.937 -2.813,-1.563 -5,-2.5 -1.25,-0.625 -3.437,-0.625 -6.25,-1.25 -1.563,-0.312 -2.187,0 -3.438,-0.625 -2.812,-0.313 -7.188,-1.25 -2.187,0 -2.188,-0.937 -2.812,-0.938 -2.813,-2.5 -1.562,-1.25 -3.125,-0.937 -0.625,-0.313 -1.563,-0.312 -0.937,-8.75 -6.875,3.437 -6.563,-6.875 -3.437,-3.75 -3.438,-0.312 -7.187,-0.313 -4.688,3.125 -3.125,2.5 -0.937,8.125 -0.313,4.375 -0.625,4.688 -3.125,12.187 -3.75,0.938 -4.062,1.25 -3.75,1.25 -2.813,0.625 -0.312,0.312 -6.25,1.875 -4.063,3.438 -2.187,1.562 -1.875,1.875 -1.563,1.25 -0.312,0 -0.625,0.625 -0.938,0.938 -5.312,4.375 -1.25,1.25 -0.938,0.937 -3.437,2.813 -3.438,-3.75 -3.75,-3.75 -3.437,-3.75 -0.938,-0.625 -0.312,-0.938 -0.938,-0.937 -0.937,0.312 -2.188,0.313 -5.312,0.625 -7.188,1.25 -6.562,0.937 -5.313,-2.187 -1.562,-0.625 -1.25,-0.313 -1.563,-0.625 -1.562,-0.625 -0.625,-0.312 -1.875,-0.625 -0.625,-0.313 -1.563,-0.625 -2.812,-0.937 -1.25,-0.938 -5.938,-3.125 -3.437,2.5 -5,3.125 -0.625,0.625 -1.875,0.938 -2.5,1.562 -1.25,-5.312 -0.938,-3.125 -1.875,-8.75 -0.937,-4.375 -1.25,-4.375 -0.313,-1.25 -7.812,-10.625 -0.938,-0.938 -6.875,-9.687 -0.937,-2.188 -0.313,-1.562 -1.562,-5.313 -1.563,-1.875 -7.5,-10 -1.562,-1.875 -2.188,-3.437 -3.437,-4.063 -1.563,-2.187 -2.812,-3.438 30,-5.312 13.125,-9.063 2.5,-11.562 0.312,-1.875 -0.937,-6.563 -0.938,-8.125 -0.625,-4.375 -17.812,-29.375 -3.75,-0.937 -7.5,-27.813 19.062,-10.312 16.563,-0.938 2.187,0 -2.187,-6.875 -0.625,-1.25 0.625,-0.312 2.5,-1.875 1.25,-14.688 8.75,-11.25 -5.625,-4.375 4.375,-7.5 22.812,-0.937 5,-2.813 4.375,-2.5 4.063,-2.187 4.062,-0.938 4.063,-0.937 5.937,-1.25 20.625,0.625 6.563,0.312 2.812,0 21.875,0.625 12.188,0.313 z"
       clip-path="url(#clipEmfPath1)"
        />
    <path
       inkscape:label="kn2030"
       transform="matrix(0.28222222,0,0,0.28222222,0,-6.1820329e-6)"
       class="land"
       id="sor-varanger"
       d="m 945.313,300.938 -1.875,4.687 L 950,305 l 2.813,5.313 -16.875,16.875 0.625,0.625 -9.375,0.625 5.312,-15.313 -4.687,-20.312 13.437,-1.875 4.063,10 z m -51.875,6.562 -0.313,7.188 5.313,-2.188 1.25,-0.312 4.062,-15 6.875,-2.5 6.875,-0.313 5.313,4.375 2.5,10.313 -0.938,8.75 -1.25,3.75 -1.25,4.375 -0.937,4.687 -2.188,9.063 -1.25,4.375 -1.25,0.625 -5,2.812 -5.312,3.125 5.937,1.563 0.313,0.312 0.937,0 1.25,8.125 0.313,0.938 3.125,-4.063 2.812,-3.437 0.625,-2.188 1.875,-4.375 2.5,-6.562 5.313,-7.188 6.562,0.625 5,0.313 4.063,-5.313 6.25,-8.125 4.062,-0.625 -4.375,11.25 -1.562,2.813 -3.75,5 -0.625,0.937 -0.938,1.25 1.25,5.625 1.875,8.438 4.375,9.375 3.125,-3.438 -2.812,-11.25 -1.25,-3.125 -0.938,-4.062 0.938,-1.875 1.25,-1.563 4.375,-9.062 6.25,9.687 2.5,3.75 0.312,-2.812 0,-5.938 0,-1.875 -2.187,-4.375 -3.438,-7.812 1.563,-0.938 4.375,-2.5 0,-0.937 -4.375,-10.313 -5.313,-8.75 2.813,-6.25 11.25,-0.312 -2.813,8.75 8.125,-1.25 5.625,10 4.375,10 0.313,5 0.625,3.75 -1.563,7.5 -0.312,0.312 -0.313,0.313 -3.125,3.437 5.625,1.25 7.5,-5.937 -3.75,-6.875 -0.625,-6.563 0,-0.937 -3.125,-7.813 -3.437,-9.062 6.875,-5 7.5,2.812 0.625,-2.5 9.692,0.313 2.18,0 -3.12,11.25 8.44,-9.375 2.81,-0.313 0.94,0.625 2.18,2.813 0.63,1.875 0.31,-0.625 1.25,0.937 0,1.563 0.63,-0.938 0.62,3.438 2.19,0.625 0.94,4.062 -0.94,1.875 2.19,2.188 1.25,1.25 3.12,2.5 0.31,-0.625 0.94,0.625 0.94,2.187 -0.31,0 -0.94,0 -0.63,1.875 3.13,4.688 2.19,3.437 1.25,7.5 -0.32,1.563 1.25,3.437 0.63,1.25 -0.31,4.375 -7.5,10 -0.32,0 -5.93,0.625 -2.5,0 -2.5,0 -6.25,1.563 -8.75,1.875 -11.567,-9.688 -5.625,-3.437 -11.875,-6.563 -2.188,-0.937 -8.125,-2.813 -2.5,2.188 -1.875,1.562 -0.312,0.313 1.562,3.75 3.75,-1.25 0,0.312 3.438,7.813 0.937,1.562 2.813,4.688 1.562,2.812 0.625,3.438 0.313,1.562 0,2.813 -2.5,5 -0.625,0.937 0,0.625 0.625,3.438 0.937,5 0.938,2.812 -3.75,9.688 -1.875,5 -0.625,0.625 -4.375,3.75 -0.313,0 -0.937,0 -0.313,-0.313 -1.875,-1.875 -5.625,0 -0.312,0.625 -3.75,4.688 -0.313,2.5 -4.687,3.125 0,0.312 -0.625,2.188 -0.313,1.875 0,2.812 -8.125,13.75 -3.125,0.625 -1.25,-1.562 -0.625,-0.938 -2.5,2.5 -5.937,2.188 -1.875,-0.938 -4.375,5 -3.438,4.063 0.938,9.375 1.875,2.812 0.625,0.625 1.875,1.25 0.937,2.188 0.313,5 -0.313,0 -0.625,0.625 0.625,3.125 0,0.937 0.313,3.75 0,0.313 -0.313,1.875 -0.312,0.312 -1.563,1.563 1.25,1.875 -0.625,4.375 0.625,4.375 0.313,0.625 0.625,0.625 0,0 -4.375,13.125 -1.25,1.25 -3.125,6.875 -0.313,1.562 -1.562,5 0,0.313 -0.938,1.25 -1.562,-1.875 -0.313,-0.313 -0.937,-0.937 -0.313,-0.313 -1.562,-0.625 -0.625,-0.312 -0.625,-0.313 -1.563,-0.937 -1.562,-0.625 -1.563,-0.625 -0.312,-0.313 -1.25,-0.625 -5.313,-3.125 -2.5,-1.562 -2.5,-2.813 -4.062,-4.687 0,-2.813 -0.938,-9.375 0,-3.125 -1.25,-4.062 -1.25,-5.625 -0.625,-3.125 0.313,0 3.437,-7.5 2.5,-5 3.75,-8.125 4.063,-8.75 3.125,-6.25 0.312,-1.25 2.5,-5.313 3.75,-8.125 2.188,-8.75 0.625,-3.125 0.625,-2.187 1.875,-7.813 -2.813,-4.375 -3.75,-5.937 -0.312,-0.625 -1.25,-2.188 -1.875,-2.187 -1.563,-2.5 -7.812,-11.875 -0.625,-0.938 -0.313,-0.312 -1.875,-2.813 -1.25,-2.187 -2.187,-4.375 -1.25,-2.813 -0.625,-1.25 -0.313,-0.312 -1.875,-4.375 -0.312,0 -0.625,0 -1.563,-0.313 -7.187,-1.562 -4.063,-0.625 -6.875,-1.563 -1.875,-0.312 -6.25,-1.875 -2.5,-0.313 -0.312,0 -3.125,-1.25 -7.5,-1.875 -4.063,-0.937 -1.562,-0.313 -2.188,-0.312 -8.437,-2.188 -2.5,-0.625 -4.063,-0.937 -4.062,-0.625 -1.875,-1.875 -5.938,-4.375 28.75,-27.813 40.313,-16.875 1.562,-0.625 2.5,-1.25 4.063,-1.562 -1.875,-11.25 8.75,-0.625 8.437,1.875 10.625,3.437 -6.25,9.063 -7.187,8.125 -1.25,6.562 -0.625,1.875 z"
       clip-path="url(#clipEmfPath1)"
        />
    <path
       inkscape:label="kn2021"
       transform="matrix(0.28222222,0,0,0.28222222,0,-6.1820329e-6)"
       class="land"
       id="karasjok"
       d="m 631.875,379.688 -0.625,0.625 -0.937,0.937 0.312,0.938 1.25,4.062 -1.25,0.313 -0.312,0 -0.625,3.437 -1.875,1.25 0,4.375 -1.563,0.938 -0.937,0.625 L 625,400 l 0,1.563 -0.937,0.625 -1.875,1.875 -3.75,3.437 -3.125,-0.312 -0.313,0 0,0.312 -0.937,0.938 -2.813,5.937 -0.312,0 0,0.313 0,0.312 -0.313,2.813 -3.125,5 -0.312,0.625 1.25,1.875 0.937,0 1.563,0 2.5,1.875 1.562,5.312 0,0.313 0,0.625 1.25,1.562 0.625,0.625 -1.562,10 -4.688,5.938 -2.187,0.937 -0.313,0 0.313,1.875 1.562,1.563 0.313,0 1.25,0.937 0.625,2.188 0,1.25 -0.313,0.312 -0.937,6.25 0.937,0.938 0,0.312 1.563,2.5 -1.875,2.188 -0.313,0 -0.312,0 0.312,3.437 0,1.875 -0.625,1.25 -0.625,2.5 0.313,0 0,0.313 0.312,1.562 -0.937,1.25 0,0 0,0.313 0,0 2.5,0.937 -0.313,1.25 -0.312,0.625 0.312,0.625 0.938,-0.312 0.625,0 1.562,1.562 0.313,1.25 -0.313,0.313 -0.625,0.625 -1.25,4.062 0.313,0.313 0,0.312 0.937,2.813 -1.562,1.25 -0.938,0.625 -0.312,0.312 0,0 0,2.813 -1.25,0.937 0,0.313 0.312,2.812 -0.937,3.75 0,0.938 0,0.312 0.937,0.938 -0.625,2.187 1.563,2.188 0,2.5 -0.938,1.562 0,3.438 -1.562,1.25 2.812,10.312 -1.25,2.188 0,1.875 4.375,8.125 0,0.312 0.313,0.313 2.187,4.687 -0.312,5.625 -0.313,2.188 0.625,0.312 0.625,0.938 0.313,5.625 0,0.312 0.625,0.938 2.812,4.062 0.313,2.188 0,0.312 0.625,3.75 1.562,0.625 0.313,0 0.625,1.25 0.625,1.25 -0.625,2.5 0,1.25 -0.313,0.313 -0.937,0.937 -2.188,5.313 0.625,3.125 -1.25,4.062 -1.25,10.313 -0.312,1.25 0,0.625 -1.25,0.937 0,0.938 0,0.312 -0.313,1.25 -2.187,2.5 -0.625,0 -0.313,0 -0.937,0 -4.063,0.313 -5.312,-3.438 -0.313,0 -5.625,4.375 -0.625,0.625 -0.312,0.313 -17.813,5 -11.875,-0.625 -6.25,-13.125 -1.25,-0.313 -8.125,-4.062 -16.25,-7.5 -4.375,-2.188 -4.062,-11.25 -6.25,-16.875 -1.875,-1.25 -4.063,-2.812 -23.125,-15 -11.25,-27.5 -8.125,-4.375 0,-2.188 -0.312,-3.437 4.062,-1.563 0.625,0 2.813,-8.75 -2.813,-6.562 -0.312,-1.25 5.312,-25.313 0.625,-1.25 -3.125,-1.25 -1.875,-0.937 -1.25,-2.5 -3.125,-6.875 -0.625,0.625 -1.25,1.875 -9.062,-15 -1.25,-8.438 -3.438,-25.937 30.625,-7.813 27.813,10 7.812,2.813 23.438,-0.313 1.562,0 17.188,-6.875 3.125,-0.937 1.562,-4.063 5,-13.437 9.688,-25 6.25,2.187 -0.313,7.188 5.313,-1.875 7.5,5 10.312,-3.75 3.438,7.187 5.937,-1.25 6.25,-1.25 0.938,-0.312 0.312,0 z"
       clip-path="url(#clipEmfPath1)"
        />
    <path
       inkscape:label="kn2014"
       transform="matrix(0.28222222,0,0,0.28222222,0,-6.1820329e-6)"
       class="land"
       id="loppa"
       d="m 252.188,310.313 0.625,5.312 6.25,-3.75 1.25,9.063 1.25,8.437 2.5,-1.562 1.875,-9.688 11.25,-0.312 -0.313,9.062 -0.312,7.813 0.625,10 0.625,2.812 0.312,3.125 -5.312,3.438 4.062,2.187 10.625,-4.062 10.938,1.875 2.5,0.625 2.812,-1.563 0.938,-0.312 -10.625,-4.375 -3.75,-0.938 -7.188,-1.25 0.938,-9.687 -0.313,-9.688 0,-0.937 0.313,-4.688 7.5,0.313 -2.188,5.312 4.063,2.5 -0.938,4.375 12.188,9.688 0.312,4.062 0.938,6.25 0.312,1.25 4.375,4.063 -4.687,1.562 -0.938,0.313 -1.25,-1.25 -3.125,-2.188 -3.437,1.25 -14.063,5.313 -2.187,8.437 -1.25,5.313 -2.5,-3.75 -9.375,-16.563 -0.313,-3.75 0,-1.875 0,-5.625 -11.875,6.563 -0.625,0 -0.625,0 -4.062,-1.563 -1.563,11.875 -3.75,3.125 -6.25,-2.812 -3.437,-1.563 -0.625,-4.375 -3.125,-2.187 -5.625,-3.438 -0.313,-4.375 -0.312,-1.25 -7.813,1.25 -3.437,0.938 -5.313,1.25 -4.375,-2.188 -10.937,-5.312 -5.625,-0.625 4.375,-5.625 8.437,-5.625 3.438,-3.125 2.187,13.437 7.5,5.938 -1.562,-10.938 -0.313,-2.187 -1.562,-11.25 1.25,-7.188 5,1.563 4.375,11.562 0.312,0 11.25,9.375 5.313,5.313 2.187,4.687 1.563,3.125 4.062,6.875 1.563,-5.937 -2.188,-4.063 -2.5,-3.75 -0.312,-5.312 -5.625,-5.938 1.875,-7.5 5,-9.062 8.75,-5.625 z m 43.75,2.187 -0.938,2.188 -3.125,-0.625 -11.562,-9.375 1.25,-3.75 4.375,0.625 3.437,8.125 6.563,2.812 z m -67.188,13.438 0,0.625 -0.937,-0.938 -5,-4.375 0.937,-11.562 0.313,-1.875 -4.063,-5 4.063,-7.188 12.5,11.25 -7.813,19.063 z"
       clip-path="url(#clipEmfPath1)"
        />
    <path
       inkscape:label="kn2019"
       transform="matrix(0.28222222,0,0,0.28222222,0,-6.1820329e-6)"
       class="land"
       id="nordkapp"
       d="m 521.25,124.375 -2.812,9.687 3.75,-0.624 4.687,-8.75 6.875,-4.063 1.25,2.187 3.125,5.626 4.063,-0.625 4.062,-6.875 5.313,1.562 0.937,6.25 -5.312,11.563 -1.563,6.875 -10.625,5.937 1.875,6.563 4.375,-0.938 -4.062,9.062 -3.438,3.438 -2.5,-2.187 -3.125,-2.188 -16.562,-3.75 4.375,-18.125 -4.063,-8.437 5.313,-5.938 0.937,-10.312 3.125,4.062 z m 68.438,44.375 -8.75,7.188 -8.125,0 1.562,-13.438 7.813,-23.125 13.125,-29.375 13.75,-20.3125 3.125,2.1875 -2.5,24.688 -10,14.375 -11.563,30.937 1.563,6.875 z M 531.25,55.3125 l -0.937,11.5625 16.25,-3.4375 5.312,3.75 -10,11.5625 11.563,12.1875 5.312,-4.6875 3.438,-7.8125 5.312,-1.5625 0.625,12.1875 -15.625,14.0625 -0.312,0 -20,-0.625 0,4.375 0,2.813 -10,6.562 -14.688,-13.437 8.75,-6.563 -2.812,-2.5 -18.75,5.625 0,-1.5625 -2.813,-16.875 23.75,-5.3125 L 525,80.9375 526.875,75 509.688,61.875 l 3.75,-4.6875 17.812,-1.875 0,0 z"
       clip-path="url(#clipEmfPath1)"
        />
    <path
       inkscape:label="kn2002"
       transform="matrix(0.28222222,0,0,0.28222222,0,-6.1820329e-6)"
       class="land"
       id="vardo"
       d="m 1005.94,152.5 -2.5,1.563 -0.94,-1.251 -5.312,-6.874 1.562,-0.938 3.44,4.688 0.94,0 1.25,0.312 1.56,2.5 z m -12.19,-8.125 2.188,7.813 2.5,5.312 1.872,3.75 3.44,10 0.63,3.438 -5.942,7.5 -4.688,2.5 -14.687,7.5 -15.313,6.875 0,9.999 -0.625,0.313 -0.312,0 -0.625,-3.437 -1.563,-0.938 -15,-5 -20.625,-7.5 32.188,-42.812 9.687,-12.813 2.813,9.375 6.875,-1.875 9.687,-7.812 7.5,7.812 z"
       clip-path="url(#clipEmfPath1)"
        />
    <path
       inkscape:label="kn2015"
       transform="matrix(0.28222222,0,0,0.28222222,0,-6.1820329e-6)"
       class="land"
       id="hasvik"
       d="m 307.813,289.375 1.25,20 -7.188,5 -5.937,-1.875 -6.563,-2.812 -3.437,-8.125 -4.375,-0.625 0.312,-1.563 6.25,2.813 3.75,-7.5 15.938,-5.313 z m 8.125,-66.562 3.125,6.875 -4.688,5.625 -3.437,-0.313 -5.938,11.563 0.625,7.812 -1.875,0.625 -5.937,-5.312 -4.063,10.625 -20,5.312 -4.375,-5.312 -1.875,7.5 -9.375,3.125 -2.187,-10.625 10.937,-18.75 -2.812,-3.438 -7.188,0.625 -2.187,4.688 -10,1.875 -1.25,-9.063 -4.063,-4.062 0,-5.938 16.25,3.75 3.75,-1.875 -0.625,-6.875 4.688,-1.875 5.937,5.313 3.125,-15 7.188,6.25 5.312,-8.125 8.75,6.25 -4.062,11.25 10,0.937 8.125,-5 -5.313,-6.562 0,-7.5 -6.562,-8.125 6.562,-5.313 0.313,0 0,3.75 10.312,7.5 -2.5,5.313 4.375,6.875 -2.187,5.625 3.125,0 z"
       clip-path="url(#clipEmfPath1)"
        />
    <path
       inkscape:label="kn2017"
       transform="matrix(0.28222222,0,0,0.28222222,0,-6.1820329e-6)"
       class="land"
       id="kvalsund"
       d="m 379.063,264.688 -9.688,11.875 -6.25,-2.5 -7.5,-3.438 5,-4.062 9.063,-6.563 6.562,-5.312 1.563,-7.5 0.937,0.312 2.5,14.688 -2.187,2.5 z m 18.125,-25 -4.375,0.937 -6.875,-3.437 -3.125,-7.5 2.812,-0.938 13.438,-4.688 12.812,-17.499 1.563,-0.938 2.812,5.313 -7.187,24.375 -9.063,4.062 -2.812,0.313 z m 57.187,-38.126 7.188,5.938 4.687,-4.375 -3.437,-5.937 2.812,-0.625 5,-0.625 19.063,5.624 -6.563,15.626 -0.312,1.25 -2.188,4.375 -8.437,21.25 0,0.625 -0.313,2.187 0,2.188 2.188,1.875 3.75,3.75 -1.563,4.062 -1.562,3.438 -2.813,6.875 -10.937,8.437 -15.625,51.875 L 445,330 l -2.187,7.188 -2.5,1.25 -1.875,0.312 -13.125,5.313 -14.063,-19.375 -6.562,-9.375 -7.188,-26.25 -17.187,-7.5 9.062,-11.563 8.75,-15.625 8.75,-9.062 3.125,-1.25 5.938,-3.125 13.125,3.125 0.625,0 0.625,0.312 7.187,4.063 3.125,1.875 2.5,1.25 -0.625,-3.75 -0.937,-3.438 -5,-6.25 -7.188,-3.437 -6.25,-1.25 -0.312,-9.376 4.062,-8.437 3.438,-14.063 3.437,-9.687 10.313,1.875 10.312,7.812 z"
       clip-path="url(#clipEmfPath1)"
        />
    <path
       inkscape:label="kn2022"
       transform="matrix(0.28222222,0,0,0.28222222,0,-6.1820329e-6)"
       class="land"
       id="lebesby"
       d="m 682.813,35 4.375,9.6875 -3.125,11.5625 7.187,13.125 13.438,44.375 0.937,2.813 -18.75,45.312 0.313,10.625 0,7.813 8.437,22.5 1.25,2.812 4.375,11.875 -2.187,8.125 2.812,19.375 -25.937,25.313 3.125,14.375 -21.875,7.5 -38.75,23.75 5.625,19.687 -10.938,8.438 -14.687,0.937 -8.125,-26.875 3.437,-16.25 -2.187,-5.312 5.312,-11.563 -9.687,-20.625 -1.563,-11.562 -0.625,-6.25 -0.625,-3.75 L 585,240 l 4.063,-14.375 0,-22.812 -1.875,-5.625 -2.813,-10 -3.437,-11.25 8.75,-7.188 -1.563,-6.875 11.563,-30.937 10,-14.375 2.5,-24.688 3.75,2.5 -0.625,25.938 6.875,0 1.25,24.062 -5.938,10 -18.125,14.688 -1.875,4.062 0.625,-0.312 13.75,-4.688 12.813,0.625 0.625,15.938 0,0.937 0,10.625 0.312,13.125 0,5 -0.312,20.938 0,7.187 6.25,-8.437 2.187,-10.001 2.188,0 5.937,-0.624 3.438,-15.313 6.875,0 7.187,-0.312 7.188,-5.938 -12.188,-13.75 3.125,-5.625 -4.375,-0.937 6.563,-12.188 2.187,0.625 11.563,3.125 3.437,0.938 -1.25,-3.438 -0.312,-1.875 -14.688,-5.937 1.563,-4.688 1.875,-5 0.625,-1.875 -9.063,-3.437 2.5,-12.188 16.25,0.625 2.5,-5.938 L 670,128.438 668.75,115 l 15.625,0.312 17.5,0 -9.062,-4.374 -9.688,-4.063 L 680.625,100 673.75,88.125 662.5,97.5 651.563,90 l -0.938,-10.3125 15,4.375 -3.437,-9.375 -8.125,-4.6875 1.25,-8.125 18.75,3.125 8.125,14.375 2.187,-18.125 -9.687,-7.5 0.312,-11.25 4.063,-2.5 2.5,-5.3125 1.25,0.3125 z"
       clip-path="url(#clipEmfPath1)"
        />
    <path
       inkscape:label="kn2025"
       transform="matrix(0.28222222,0,0,0.28222222,0,-6.1820329e-6)"
       class="land"
       id="tana"
       d="m 775,131.25 7.813,3.438 2.5,5.937 0.312,0.313 11.875,7.812 10.313,18.438 17.5,-5.313 4.687,2.187 6.25,3.438 8.438,-1.875 -8.438,9.063 -1.562,11.25 -5.938,1.875 -10.625,20.312 -21.25,4.063 -3.75,15.624 -3.437,13.438 -2.5,10.625 0.312,2.5 0,1.563 3.125,22.187 11.25,28.125 3.125,8.125 0,6.25 0.313,7.813 -4.688,-1.563 -2.812,-0.937 -1.875,-0.938 -4.688,-1.562 -3.75,-1.25 -1.875,-1.875 -10,-10 -2.5,-2.188 -1.562,-1.562 -0.625,-0.625 0,-0.313 -0.313,0 -2.812,-3.125 -0.938,-3.437 -1.875,-6.25 -0.625,-1.563 -1.875,-4.687 -0.625,-1.875 0,-0.313 -0.937,-0.312 -0.313,0 0,0 -11.875,6.25 -3.75,4.375 -4.375,-2.188 -2.187,0 -0.313,0 -0.312,0 -4.375,1.875 -2.813,3.438 0,0 -0.937,0.937 -0.625,8.125 0,0.625 -0.313,0.625 0,0.313 -4.375,1.562 -0.312,0 -3.125,1.25 -0.313,0 0,0.313 -4.375,7.812 -3.437,0.938 -0.313,0 0,0 -1.562,1.562 -0.313,0.625 0,0 -0.312,1.875 1.25,1.563 0.312,0 1.563,1.562 -0.625,1.875 0,0 0,0.313 -0.313,0.312 -0.312,0.313 -0.625,0.312 -3.438,1.25 -5,4.375 -2.812,1.25 -1.25,2.813 -0.938,1.25 -1.25,0.312 -1.875,0.625 -1.562,1.875 0,0.313 -0.625,-0.625 -1.25,-1.25 -0.313,0 -3.437,-3.438 -0.938,0 -1.875,-0.312 -0.312,0 -0.938,0 -1.25,0.937 -0.312,0 -1.875,1.563 -1.563,0 -0.312,0 0,-0.313 -1.563,-1.25 -1.562,-4.375 0,-0.312 -5.625,1.562 -4.688,4.375 -0.312,0.313 -4.375,-4.375 -0.313,0 -9.687,6.25 -2.5,0.937 -2.5,0.625 -1.875,1.875 0,0.313 0,0.312 0.312,4.688 -1.25,1.562 0,0.313 -1.875,3.125 1.25,2.5 0,0.312 -0.312,3.125 -0.625,5.625 -9.063,10.938 -0.312,0 -0.938,0.312 -6.25,1.25 -5.937,1.25 -3.438,-7.187 -10.312,3.75 -7.5,-5 -5.313,1.875 0.313,-7.188 -6.25,-2.187 4.375,-12.5 5.937,-6.563 2.188,-2.5 14.687,-0.937 10.938,-8.438 -5.625,-19.687 38.75,-23.75 21.875,-7.5 -3.125,-14.375 25.937,-25.313 -2.812,-19.375 2.187,-8.125 5,-4.688 1.25,-4.062 8.125,-25 17.813,-14.375 20.625,-30.625 0.312,-12.188 5,12.501 -5.312,16.875 -10.938,15.312 -8.125,10.938 -3.75,7.187 -1.875,3.75 3.75,6.875 4.063,-10.312 1.562,-4.063 10.938,-3.437 1.875,-0.625 2.812,0.625 -2.187,3.75 -5.313,8.124 -0.625,0.626 0.625,0.312 3.438,2.188 6.875,-9.063 1.25,-1.875 5.937,-11.875 9.063,-1.875 -8.125,17.5 -1.25,21.875 0.625,15.625 1.25,10 3.75,15 5.625,0.938 0,-0.313 -2.5,-9.687 -1.563,-6.875 -0.625,-4.375 0.313,-10.313 -0.313,-4.687 -2.187,-14.375 4.375,-6.875 1.562,-11.25 3.438,-6.25 6.875,7.812 0.625,-3.75 0,-4.375 0.312,-1.25 0.938,-6.562 -0.938,0 -10.312,-4.688 -0.625,-11.25 1.25,-10.625 -0.938,-12.5 z"
       clip-path="url(#clipEmfPath1)"
        />
    <path
       inkscape:label="kn2020"
       transform="matrix(0.28222222,0,0,0.28222222,0,-6.1820329e-6)"
       class="land"
       id="porsanger"
       d="m 533.75,171.25 -9.375,9.063 -5.625,16.875 -5.625,10 -8.125,11.562 -6.562,8.75 0,0.938 0.625,0 14.375,-7.188 -0.313,7.188 -10,2.5 0,1.25 1.875,3.75 8.75,-2.188 0.625,-0.312 1.25,2.187 0.938,2.813 0.937,2.5 -1.562,6.875 4.375,4.375 -7.813,2.187 -0.312,0 -4.688,10 0,8.438 0.938,0 10.312,-2.813 -2.5,11.563 -5.625,7.187 0,0.313 -9.062,8.437 1.25,12.813 0.312,5 0.313,5.937 3.437,10.938 3.75,6.25 5,-0.313 -0.312,-5 -4.688,-5.937 0,-10.625 5.938,-0.313 5.312,1.875 -4.375,10.625 -0.937,1.563 7.812,1.25 1.25,0 1.563,0.312 3.437,-12.5 0.313,-0.312 2.5,-17.188 7.187,-9.375 0.938,-2.5 5.312,-12.187 2.188,-5.938 1.562,-3.125 -10.937,0.313 -4.375,-4.688 5.312,-11.25 4.688,-9.062 11.562,-26.25 14.688,-28.438 1.25,-13.437 8.125,0 3.437,11.25 2.813,10 1.875,5.625 0,22.812 L 585,240 l -0.625,2.813 0.625,3.75 0.625,6.25 1.563,11.562 9.687,20.625 -5.312,11.563 2.187,5.312 -3.437,16.25 8.125,26.875 -2.188,2.5 -5.937,6.563 -4.375,12.5 -9.688,25 -5,13.437 -1.562,4.063 -3.125,0.937 -17.188,6.875 -1.562,0 -23.438,0.313 -7.812,-2.813 -27.813,-10 -30.625,7.813 -15.625,-43.438 -3.437,2.188 -14.375,-3.438 0.625,-20 0,-3.437 13.125,-5.313 1.875,-0.312 2.5,-1.25 L 445,330 l 0.313,-0.625 15.625,-51.875 10.937,-8.437 2.813,-6.875 1.562,-3.438 1.563,-4.062 -3.75,-3.75 -2.188,-1.875 0,-2.188 0.313,-2.187 0,-0.625 8.437,-21.25 2.188,-4.375 0.312,-1.25 6.563,-15.626 21.875,-38.437 16.562,3.75 3.125,2.188 2.5,2.187 z"
       clip-path="url(#clipEmfPath1)"
        />
    <text
       sodipodi:linespacing="125%"
       id="text112"
       y="164.3369"
       x="111.37614"
       
       xml:space="preserve"><tspan
         id="tspan114"
         y="164.3369"
         x="111.37614"
         sodipodi:role="line"><tspan
           id="tspan116"
           
           dy="0"
           dx="0">2011</tspan></tspan></text>
    <text
       sodipodi:linespacing="125%"
       id="text118"
       y="140.6002"
       x="149.30666"
       
       xml:space="preserve"><tspan
         id="tspan120"
         y="140.6002"
         x="149.30666"
         sodipodi:role="line"><tspan
           id="tspan122"
           
           dy="0"
           dx="0">2021</tspan></tspan></text>
    <text
       sodipodi:linespacing="125%"
       id="text124"
       y="104.1001"
       x="142.55563"
       
       xml:space="preserve"><tspan
         id="tspan126"
         y="104.1001"
         x="142.55563"
         sodipodi:role="line"><tspan
           id="tspan128"
           
           dy="0"
           dx="0">2020</tspan></tspan></text>
    <text
       sodipodi:linespacing="125%"
       id="text130"
       y="116.97614"
       x="104.74434"
       
       xml:space="preserve"><tspan
         id="tspan132"
         y="116.97614"
         x="104.74434"
         sodipodi:role="line"><tspan
           id="tspan134"
           
           dy="0"
           dx="0">2012</tspan></tspan></text>
    <text
       sodipodi:linespacing="125%"
       id="text136"
       y="86.970741"
       x="53.741249"
       
       xml:space="preserve"><tspan
         id="tspan138"
         y="86.970741"
         x="53.741249"
         sodipodi:role="line"><tspan
           id="tspan140"
           
           dy="0"
           dx="0">2014</tspan></tspan></text>
    <text
       sodipodi:linespacing="125%"
       id="text142"
       y="70.251694"
       x="76.881264"
       
       xml:space="preserve"><tspan
         id="tspan144"
         y="70.251694"
         x="76.881264"
         sodipodi:role="line"><tspan
           id="tspan146"
           
           dy="0"
           dx="0">2015</tspan></tspan></text>
    <text
       sodipodi:linespacing="125%"
       id="text148"
       y="59.992542"
       x="100.90202"
       
       xml:space="preserve"><tspan
         id="tspan150"
         y="59.992542"
         x="100.90202"
         sodipodi:role="line"><tspan
           id="tspan152"
           
           dy="0"
           dx="0">2004</tspan></tspan></text>
    <text
       sodipodi:linespacing="125%"
       id="text154"
       y="77.809372"
       x="116.76462"
       
       xml:space="preserve"><tspan
         id="tspan156"
         y="77.809372"
         x="116.76462"
         sodipodi:role="line"><tspan
           id="tspan158"
           
           dy="0"
           dx="0">2017</tspan></tspan></text>
    <text
       sodipodi:linespacing="125%"
       id="text160"
       y="48.458019"
       x="131.10931"
       
       xml:space="preserve"><tspan
         id="tspan162"
         y="48.458019"
         x="131.10931"
         sodipodi:role="line"><tspan
           id="tspan164"
           
           dy="0"
           dx="0">2018</tspan></tspan></text>
    <text
       sodipodi:linespacing="125%"
       id="text166"
       y="35.489128"
       x="155.56363"
       
       xml:space="preserve"><tspan
         id="tspan168"
         y="35.489128"
         x="155.56363"
         sodipodi:role="line"><tspan
           id="tspan170"
           
           dy="0"
           dx="0">2019</tspan></tspan></text>
    <text
       sodipodi:linespacing="125%"
       id="text172"
       y="75.801567"
       x="177.87097"
       
       xml:space="preserve"><tspan
         id="tspan174"
         y="75.801567"
         x="177.87097"
         sodipodi:role="line"><tspan
           id="tspan176"
           
           dy="0"
           dx="0">2022</tspan></tspan></text>
    <text
       sodipodi:linespacing="125%"
       id="text178"
       y="73.491112"
       x="205.19746"
       
       xml:space="preserve"><tspan
         id="tspan180"
         y="73.491112"
         x="205.19746"
         sodipodi:role="line"><tspan
           id="tspan182"
           
           dy="0"
           dx="0">2025</tspan></tspan></text>
    <text
       sodipodi:linespacing="125%"
       id="text184"
       y="26.516033"
       x="201.90878"
       
       xml:space="preserve"><tspan
         id="tspan186"
         y="26.516033"
         x="201.90878"
         sodipodi:role="line"><tspan
           id="tspan188"
           
           dy="0"
           dx="0">2023</tspan></tspan></text>
    <text
       sodipodi:linespacing="125%"
       id="text190"
       y="41.399532"
       x="228.96863"
       
       xml:space="preserve"><tspan
         id="tspan192"
         y="41.399532"
         x="228.96863"
         sodipodi:role="line"><tspan
           id="tspan194"
           
           dy="0"
           dx="0">2024</tspan></tspan></text>
    <text
       sodipodi:linespacing="125%"
       id="text196"
       y="47.76762"
       x="251.01862"
       
       xml:space="preserve"><tspan
         id="tspan198"
         y="47.76762"
         x="251.01862"
         sodipodi:role="line"><tspan
           id="tspan200"
           
           dy="0"
           dx="0">2028</tspan></tspan></text>
    <text
       sodipodi:linespacing="125%"
       id="text202"
       y="51.491768"
       x="271.96204"
       
       xml:space="preserve"><tspan
         id="tspan204"
         y="51.491768"
         x="271.96204"
         sodipodi:role="line"><tspan
           id="tspan206"
           
           dy="0"
           dx="0">2002</tspan></tspan></text>
    <text
       sodipodi:linespacing="125%"
       id="text208"
       y="64.767448"
       x="251.81754"
       
       xml:space="preserve"><tspan
         id="tspan210"
         y="64.767448"
         x="251.81754"
         sodipodi:role="line"><tspan
           id="tspan212"
           
           dy="0"
           dx="0">2003</tspan></tspan></text>
    <text
       sodipodi:linespacing="125%"
       id="text214"
       y="109.83481"
       x="260.62527"
       
       xml:space="preserve"><tspan
         id="tspan216"
         y="109.83481"
         x="260.62527"
         sodipodi:role="line"><tspan
           id="tspan218"
           
           dy="0"
           dx="0">2030</tspan></tspan></text>
    <text
       sodipodi:linespacing="125%"
       id="text220"
       y="83.697556"
       x="230.54889"
       
       xml:space="preserve"><tspan
         id="tspan222"
         y="83.697556"
         x="230.54889"
         sodipodi:role="line"><tspan
           id="tspan224"
           
           dy="0"
           dx="0">2027</tspan></tspan></text>
    <text
       sodipodi:linespacing="125%"
       id="text226"
       y="160.95071"
       x="106.19025"
       
       xml:space="preserve"><tspan
         id="tspan228"
         y="160.95071"
         x="106.19025"
         sodipodi:role="line"><tspan
           id="tspan230"
           
           dy="0"
           dx="0">K</tspan></tspan></text>
    <text
       sodipodi:linespacing="125%"
       id="text232"
       y="160.95071"
       x="107.96447"
       
       xml:space="preserve"><tspan
         id="tspan234"
         y="160.95071"
         x="107.96447"
         sodipodi:role="line"><tspan
           id="tspan236"
           
           dy="0"
           dx="0">au</tspan></tspan></text>
    <text
       sodipodi:linespacing="125%"
       id="text238"
       y="160.95071"
       x="111.50775"
       
       xml:space="preserve"><tspan
         id="tspan240"
         y="160.95071"
         x="111.50775"
         sodipodi:role="line"><tspan
           id="tspan242"
           
           dy="0"
           dx="0">t</tspan></tspan></text>
    <text
       sodipodi:linespacing="125%"
       id="text244"
       y="160.95071"
       x="112.65497"
       
       xml:space="preserve"><tspan
         id="tspan246"
         y="160.95071"
         x="112.65497"
         sodipodi:role="line"><tspan
           id="tspan248"
           
           dy="0"
           dx="0">o</tspan></tspan></text>
    <text
       sodipodi:linespacing="125%"
       id="text250"
       y="160.95071"
       x="114.51532"
       
       xml:space="preserve"><tspan
         id="tspan252"
         y="160.95071"
         x="114.51532"
         sodipodi:role="line"><tspan
           id="tspan254"
           
           dy="0"
           dx="0">k</tspan></tspan></text>
    <text
       sodipodi:linespacing="125%"
       id="text256"
       y="160.95071"
       x="116.00533"
       
       xml:space="preserve"><tspan
         id="tspan258"
         y="160.95071"
         x="116.00533"
         sodipodi:role="line"><tspan
           id="tspan260"
           
           dy="0"
           dx="0">eino</tspan></tspan></text>
    <text
       sodipodi:linespacing="125%"
       id="text262"
       y="137.21402"
       x="146.16782"
       
       xml:space="preserve"><tspan
         id="tspan264"
         y="137.21402"
         x="146.16782"
         sodipodi:role="line"><tspan
           id="tspan266"
           
           dy="0"
           dx="0">K</tspan></tspan></text>
    <text
       sodipodi:linespacing="125%"
       id="text268"
       y="137.21402"
       x="147.94205"
       
       xml:space="preserve"><tspan
         id="tspan270"
         y="137.21402"
         x="147.94205"
         sodipodi:role="line"><tspan
           id="tspan272"
           
           dy="0"
           dx="0">a</tspan></tspan></text>
    <text
       sodipodi:linespacing="125%"
       id="text274"
       y="137.21402"
       x="149.63187"
       
       xml:space="preserve"><tspan
         id="tspan276"
         y="137.21402"
         x="149.63187"
         sodipodi:role="line"><tspan
           id="tspan278"
           
           dy="0"
           dx="0">r</tspan></tspan></text>
    <text
       sodipodi:linespacing="125%"
       id="text280"
       y="137.21402"
       x="150.78941"
       
       xml:space="preserve"><tspan
         id="tspan282"
         y="137.21402"
         x="150.78941"
         sodipodi:role="line"><tspan
           id="tspan284"
           
           dy="0"
           dx="0">asjok</tspan></tspan></text>
    <text
       sodipodi:linespacing="125%"
       id="text286"
       y="113.58996"
       x="104.7657"
       
       xml:space="preserve"><tspan
         id="tspan288"
         y="113.58996"
         x="104.7657"
         sodipodi:role="line"><tspan
           id="tspan290"
           
           dy="0"
           dx="0">Al</tspan></tspan></text>
    <text
       sodipodi:linespacing="125%"
       id="text292"
       y="113.58996"
       x="107.61652"
       
       xml:space="preserve"><tspan
         id="tspan294"
         y="113.58996"
         x="107.61652"
         sodipodi:role="line"><tspan
           id="tspan296"
           
           dy="0"
           dx="0">t</tspan></tspan></text>
    <text
       sodipodi:linespacing="125%"
       id="text298"
       y="113.58996"
       x="108.75512"
       
       xml:space="preserve"><tspan
         id="tspan300"
         y="113.58996"
         x="108.75512"
         sodipodi:role="line"><tspan
           id="tspan302"
           
           dy="0"
           dx="0">a</tspan></tspan></text>
    <text
       sodipodi:linespacing="125%"
       id="text304"
       y="83.584557"
       x="52.231953"
       
       xml:space="preserve"><tspan
         id="tspan306"
         y="83.584557"
         x="52.231953"
         sodipodi:role="line"><tspan
           id="tspan308"
           
           dy="0"
           dx="0">Loppa</tspan></tspan></text>
    <text
       sodipodi:linespacing="125%"
       id="text310"
       y="66.865509"
       x="75.131851"
       
       xml:space="preserve"><tspan
         id="tspan312"
         y="66.865509"
         x="75.131851"
         sodipodi:role="line"><tspan
           id="tspan314"
           
           dy="0"
           dx="0">Ha</tspan></tspan></text>
    <text
       sodipodi:linespacing="125%"
       id="text316"
       y="66.865509"
       x="79.019638"
       
       xml:space="preserve"><tspan
         id="tspan318"
         y="66.865509"
         x="79.019638"
         sodipodi:role="line"><tspan
           id="tspan320"
           
           dy="0"
           dx="0">s</tspan></tspan></text>
    <text
       sodipodi:linespacing="125%"
       id="text322"
       y="66.865509"
       x="80.346001"
       
       xml:space="preserve"><tspan
         id="tspan324"
         y="66.865509"
         x="80.346001"
         sodipodi:role="line"><tspan
           id="tspan326"
           
           dy="0"
           dx="0">vik</tspan></tspan></text>
    <text
       sodipodi:linespacing="125%"
       id="text328"
       y="100.71391"
       x="138.25581"
       
       xml:space="preserve"><tspan
         id="tspan330"
         y="100.71391"
         x="138.25581"
         sodipodi:role="line"><tspan
           id="tspan332"
           
           dy="0"
           dx="0">P</tspan></tspan></text>
    <text
       sodipodi:linespacing="125%"
       id="text334"
       y="100.71391"
       x="140.00764"
       
       xml:space="preserve"><tspan
         id="tspan336"
         y="100.71391"
         x="140.00764"
         sodipodi:role="line"><tspan
           id="tspan338"
           
           dy="0"
           dx="0">o</tspan></tspan></text>
    <text
       sodipodi:linespacing="125%"
       id="text340"
       y="100.71391"
       x="141.868"
       
       xml:space="preserve"><tspan
         id="tspan342"
         y="100.71391"
         x="141.868"
         sodipodi:role="line"><tspan
           id="tspan344"
           
           dy="0"
           dx="0">r</tspan></tspan></text>
    <text
       sodipodi:linespacing="125%"
       id="text346"
       y="100.71391"
       x="143.03761"
       
       xml:space="preserve"><tspan
         id="tspan348"
         y="100.71391"
         x="143.03761"
         sodipodi:role="line"><tspan
           id="tspan350"
           
           dy="0"
           dx="0">san</tspan></tspan></text>
    <text
       sodipodi:linespacing="125%"
       id="text352"
       y="100.71391"
       x="147.96065"
       
       xml:space="preserve"><tspan
         id="tspan354"
         y="100.71391"
         x="147.96065"
         sodipodi:role="line"><tspan
           id="tspan356"
           
           dy="0"
           dx="0">g</tspan></tspan></text>
    <text
       sodipodi:linespacing="125%"
       id="text358"
       y="100.71391"
       x="149.5919"
       
       xml:space="preserve"><tspan
         id="tspan360"
         y="100.71391"
         x="149.5919"
         sodipodi:role="line"><tspan
           id="tspan362"
           
           dy="0"
           dx="0">er</tspan></tspan></text>
    <text
       sodipodi:linespacing="125%"
       id="text364"
       y="74.423012"
       x="113.3054"
       
       xml:space="preserve"><tspan
         id="tspan366"
         y="74.423012"
         x="113.3054"
         sodipodi:role="line"><tspan
           id="tspan368"
           
           dy="0"
           dx="0">K</tspan></tspan></text>
    <text
       sodipodi:linespacing="125%"
       id="text370"
       y="74.423012"
       x="114.96422"
       
       xml:space="preserve"><tspan
         id="tspan372"
         y="74.423012"
         x="114.96422"
         sodipodi:role="line"><tspan
           id="tspan374"
           
           dy="0"
           dx="0">v</tspan></tspan></text>
    <text
       sodipodi:linespacing="125%"
       id="text376"
       y="74.423012"
       x="116.5059"
       
       xml:space="preserve"><tspan
         id="tspan378"
         y="74.423012"
         x="116.5059"
         sodipodi:role="line"><tspan
           id="tspan380"
           
           dy="0"
           dx="0">alsund</tspan></tspan></text>
    <text
       sodipodi:linespacing="125%"
       id="text382"
       y="56.606358"
       x="94.875343"
       
       xml:space="preserve"><tspan
         id="tspan384"
         y="56.606358"
         x="94.875343"
         sodipodi:role="line"><tspan
           id="tspan386"
           
           dy="0"
           dx="0">Hammer</tspan></tspan></text>
    <text
       sodipodi:linespacing="125%"
       id="text388"
       y="56.606358"
       x="107.38449"
       
       xml:space="preserve"><tspan
         id="tspan390"
         y="56.606358"
         x="107.38449"
         sodipodi:role="line"><tspan
           id="tspan392"
           
           dy="0"
           dx="0">f</tspan></tspan></text>
    <text
       sodipodi:linespacing="125%"
       id="text394"
       y="56.606358"
       x="108.3734"
       
       xml:space="preserve"><tspan
         id="tspan396"
         y="56.606358"
         x="108.3734"
         sodipodi:role="line"><tspan
           id="tspan398"
           
           dy="0"
           dx="0">e</tspan></tspan></text>
    <text
       sodipodi:linespacing="125%"
       id="text400"
       y="56.606358"
       x="110.12868"
       
       xml:space="preserve"><tspan
         id="tspan402"
         y="56.606358"
         x="110.12868"
         sodipodi:role="line"><tspan
           id="tspan404"
           
           dy="0"
           dx="0">s</tspan></tspan></text>
    <text
       sodipodi:linespacing="125%"
       id="text406"
       y="56.606358"
       x="111.46882"
       
       xml:space="preserve"><tspan
         id="tspan408"
         y="56.606358"
         x="111.46882"
         sodipodi:role="line"><tspan
           id="tspan410"
           
           dy="0"
           dx="0">t</tspan></tspan></text>
    <text
       sodipodi:linespacing="125%"
       id="text412"
       y="45.071663"
       x="129.20486"
       
       xml:space="preserve"><tspan
         id="tspan414"
         y="45.071663"
         x="129.20486"
         sodipodi:role="line"><tspan
           id="tspan416"
           
           dy="0"
           dx="0">Mås</tspan></tspan></text>
    <text
       sodipodi:linespacing="125%"
       id="text418"
       y="45.071663"
       x="135.29062"
       
       xml:space="preserve"><tspan
         id="tspan420"
         y="45.071663"
         x="135.29062"
         sodipodi:role="line"><tspan
           id="tspan422"
           
           dy="0"
           dx="0">ø</tspan></tspan></text>
    <text
       sodipodi:linespacing="125%"
       id="text424"
       y="45.071663"
       x="137.13892"
       
       xml:space="preserve"><tspan
         id="tspan426"
         y="45.071663"
         x="137.13892"
         sodipodi:role="line"><tspan
           id="tspan428"
           
           dy="0"
           dx="0">y</tspan></tspan></text>
    <text
       sodipodi:linespacing="125%"
       id="text430"
       y="32.102772"
       x="151.36784"
       
       xml:space="preserve"><tspan
         id="tspan432"
         y="32.102772"
         x="151.36784"
         sodipodi:role="line"><tspan
           id="tspan434"
           
           dy="0"
           dx="0">No</tspan></tspan></text>
    <text
       sodipodi:linespacing="125%"
       id="text436"
       y="32.102772"
       x="155.50542"
       
       xml:space="preserve"><tspan
         id="tspan438"
         y="32.102772"
         x="155.50542"
         sodipodi:role="line"><tspan
           id="tspan440"
           
           dy="0"
           dx="0">r</tspan></tspan></text>
    <text
       sodipodi:linespacing="125%"
       id="text442"
       y="32.102772"
       x="156.68707"
       
       xml:space="preserve"><tspan
         id="tspan444"
         y="32.102772"
         x="156.68707"
         sodipodi:role="line"><tspan
           id="tspan446"
           
           dy="0"
           dx="0">d</tspan></tspan></text>
    <text
       sodipodi:linespacing="125%"
       id="text448"
       y="32.102772"
       x="158.54054"
       
       xml:space="preserve"><tspan
         id="tspan450"
         y="32.102772"
         x="158.54054"
         sodipodi:role="line"><tspan
           id="tspan452"
           
           dy="0"
           dx="0">k</tspan></tspan></text>
    <text
       sodipodi:linespacing="125%"
       id="text454"
       y="32.102772"
       x="160.08394"
       
       xml:space="preserve"><tspan
         id="tspan456"
         y="32.102772"
         x="160.08394"
         sodipodi:role="line"><tspan
           id="tspan458"
           
           dy="0"
           dx="0">app</tspan></tspan></text>
    <text
       sodipodi:linespacing="125%"
       id="text460"
       y="72.415207"
       x="174.90198"
       
       xml:space="preserve"><tspan
         id="tspan462"
         y="72.415207"
         x="174.90198"
         sodipodi:role="line"><tspan
           id="tspan464"
           
           dy="0"
           dx="0">Lebes</tspan></tspan></text>
    <text
       sodipodi:linespacing="125%"
       id="text466"
       y="72.415207"
       x="183.12888"
       
       xml:space="preserve"><tspan
         id="tspan468"
         y="72.415207"
         x="183.12888"
         sodipodi:role="line"><tspan
           id="tspan470"
           
           dy="0"
           dx="0">b</tspan></tspan></text>
    <text
       sodipodi:linespacing="125%"
       id="text472"
       y="72.415207"
       x="184.9651"
       
       xml:space="preserve"><tspan
         id="tspan474"
         y="72.415207"
         x="184.9651"
         sodipodi:role="line"><tspan
           id="tspan476"
           
           dy="0"
           dx="0">y</tspan></tspan></text>
    <text
       sodipodi:linespacing="125%"
       id="text478"
       y="70.104927"
       x="204.71997"
       
       xml:space="preserve"><tspan
         id="tspan480"
         y="70.104927"
         x="204.71997"
         sodipodi:role="line"><tspan
           id="tspan482"
           
           dy="0"
           dx="0">T</tspan></tspan></text>
    <text
       sodipodi:linespacing="125%"
       id="text484"
       y="70.104927"
       x="206.16347"
       
       xml:space="preserve"><tspan
         id="tspan486"
         y="70.104927"
         x="206.16347"
         sodipodi:role="line"><tspan
           id="tspan488"
           
           dy="0"
           dx="0">ana</tspan></tspan></text>
    <text
       sodipodi:linespacing="125%"
       id="text490"
       y="23.13002"
       x="199.42865"
       
       xml:space="preserve"><tspan
         id="tspan492"
         y="23.13002"
         x="199.42865"
         sodipodi:role="line"><tspan
           id="tspan494"
           
           dy="0"
           dx="0">Ga</tspan></tspan></text>
    <text
       sodipodi:linespacing="125%"
       id="text496"
       y="23.13002"
       x="203.34401"
       
       xml:space="preserve"><tspan
         id="tspan498"
         y="23.13002"
         x="203.34401"
         sodipodi:role="line"><tspan
           id="tspan500"
           
           dy="0"
           dx="0">m</tspan></tspan></text>
    <text
       sodipodi:linespacing="125%"
       id="text502"
       y="23.13002"
       x="206.10353"
       
       xml:space="preserve"><tspan
         id="tspan504"
         y="23.13002"
         x="206.10353"
         sodipodi:role="line"><tspan
           id="tspan506"
           
           dy="0"
           dx="0">vik</tspan></tspan></text>
    <text
       sodipodi:linespacing="125%"
       id="text508"
       y="38.013176"
       x="225.65755"
       
       xml:space="preserve"><tspan
         id="tspan510"
         y="38.013176"
         x="225.65755"
         sodipodi:role="line"><tspan
           id="tspan512"
           
           dy="0"
           dx="0">Berl</tspan></tspan></text>
    <text
       sodipodi:linespacing="125%"
       id="text514"
       y="38.013176"
       x="231.37123"
       
       xml:space="preserve"><tspan
         id="tspan516"
         y="38.013176"
         x="231.37123"
         sodipodi:role="line"><tspan
           id="tspan518"
           
           dy="0"
           dx="0">e</tspan></tspan></text>
    <text
       sodipodi:linespacing="125%"
       id="text520"
       y="38.013176"
       x="233.10928"
       
       xml:space="preserve"><tspan
         id="tspan522"
         y="38.013176"
         x="233.10928"
         sodipodi:role="line"><tspan
           id="tspan524"
           
           dy="0"
           dx="0">v</tspan></tspan></text>
    <text
       sodipodi:linespacing="125%"
       id="text526"
       y="38.013176"
       x="234.65097"
       
       xml:space="preserve"><tspan
         id="tspan528"
         y="38.013176"
         x="234.65097"
         sodipodi:role="line"><tspan
           id="tspan530"
           
           dy="0"
           dx="0">åg</tspan></tspan></text>
    <text
       sodipodi:linespacing="125%"
       id="text532"
       y="44.381435"
       x="247.44571"
       
       xml:space="preserve"><tspan
         id="tspan534"
         y="44.381435"
         x="247.44571"
         sodipodi:role="line"><tspan
           id="tspan536"
           
           dy="0"
           dx="0">B</tspan></tspan></text>
    <text
       sodipodi:linespacing="125%"
       id="text538"
       y="44.381435"
       x="249.36462"
       
       xml:space="preserve"><tspan
         id="tspan540"
         y="44.381435"
         x="249.36462"
         sodipodi:role="line"><tspan
           id="tspan542"
           
           dy="0"
           dx="0">å</tspan></tspan></text>
    <text
       sodipodi:linespacing="125%"
       id="text544"
       y="44.381435"
       x="251.02171"
       
       xml:space="preserve"><tspan
         id="tspan546"
         y="44.381435"
         x="251.02171"
         sodipodi:role="line"><tspan
           id="tspan548"
           
           dy="0"
           dx="0">t</tspan></tspan></text>
    <text
       sodipodi:linespacing="125%"
       id="text550"
       y="44.381435"
       x="252.20338"
       
       xml:space="preserve"><tspan
         id="tspan552"
         y="44.381435"
         x="252.20338"
         sodipodi:role="line"><tspan
           id="tspan554"
           
           dy="0"
           dx="0">s</tspan></tspan></text>
    <text
       sodipodi:linespacing="125%"
       id="text556"
       y="44.381435"
       x="253.55042"
       
       xml:space="preserve"><tspan
         id="tspan558"
         y="44.381435"
         x="253.55042"
         sodipodi:role="line"><tspan
           id="tspan560"
           
           dy="0"
           dx="0">fjo</tspan></tspan></text>
    <text
       sodipodi:linespacing="125%"
       id="text562"
       y="44.381435"
       x="257.27802"
       
       xml:space="preserve"><tspan
         id="tspan564"
         y="44.381435"
         x="257.27802"
         sodipodi:role="line"><tspan
           id="tspan566"
           
           dy="0"
           dx="0">r</tspan></tspan></text>
    <text
       sodipodi:linespacing="125%"
       id="text568"
       y="44.381435"
       x="258.45969"
       
       xml:space="preserve"><tspan
         id="tspan570"
         y="44.381435"
         x="258.45969"
         sodipodi:role="line"><tspan
           id="tspan572"
           
           dy="0"
           dx="0">d</tspan></tspan></text>
    <text
       sodipodi:linespacing="125%"
       id="text574"
       y="61.381084"
       x="250.38058"
       
       xml:space="preserve"><tspan
         id="tspan576"
         y="61.381084"
         x="250.38058"
         sodipodi:role="line"><tspan
           id="tspan578"
           
           dy="0"
           dx="0">V</tspan></tspan></text>
    <text
       sodipodi:linespacing="125%"
       id="text580"
       y="61.381084"
       x="252.18581"
       
       xml:space="preserve"><tspan
         id="tspan582"
         y="61.381084"
         x="252.18581"
         sodipodi:role="line"><tspan
           id="tspan584"
           
           dy="0"
           dx="0">adsø</tspan></tspan></text>
    <text
       sodipodi:linespacing="125%"
       id="text586"
       y="48.105583"
       x="270.6243"
       
       xml:space="preserve"><tspan
         id="tspan588"
         y="48.105583"
         x="270.6243"
         sodipodi:role="line"><tspan
           id="tspan590"
           
           dy="0"
           dx="0">V</tspan></tspan></text>
    <text
       sodipodi:linespacing="125%"
       id="text592"
       y="48.105583"
       x="272.42953"
       
       xml:space="preserve"><tspan
         id="tspan594"
         y="48.105583"
         x="272.42953"
         sodipodi:role="line"><tspan
           id="tspan596"
           
           dy="0"
           dx="0">a</tspan></tspan></text>
    <text
       sodipodi:linespacing="125%"
       id="text598"
       y="48.105583"
       x="274.11935"
       
       xml:space="preserve"><tspan
         id="tspan600"
         y="48.105583"
         x="274.11935"
         sodipodi:role="line"><tspan
           id="tspan602"
           
           dy="0"
           dx="0">r</tspan></tspan></text>
    <text
       sodipodi:linespacing="125%"
       id="text604"
       y="48.105583"
       x="275.30103"
       
       xml:space="preserve"><tspan
         id="tspan606"
         y="48.105583"
         x="275.30103"
         sodipodi:role="line"><tspan
           id="tspan608"
           
           dy="0"
           dx="0">dø</tspan></tspan></text>
    <text
       sodipodi:linespacing="125%"
       id="text610"
       y="80.311371"
       x="227.41937"
       
       xml:space="preserve"><tspan
         id="tspan612"
         y="80.311371"
         x="227.41937"
         sodipodi:role="line"><tspan
           id="tspan614"
           
           dy="0"
           dx="0">Nesse</tspan></tspan></text>
    <text
       sodipodi:linespacing="125%"
       id="text616"
       y="80.311371"
       x="235.96664"
       
       xml:space="preserve"><tspan
         id="tspan618"
         y="80.311371"
         x="235.96664"
         sodipodi:role="line"><tspan
           id="tspan620"
           
           dy="0"
           dx="0">b</tspan></tspan></text>
    <text
       sodipodi:linespacing="125%"
       id="text622"
       y="80.311371"
       x="237.80289"
       
       xml:space="preserve"><tspan
         id="tspan624"
         y="80.311371"
         x="237.80289"
         sodipodi:role="line"><tspan
           id="tspan626"
           
           dy="0"
           dx="0">y</tspan></tspan></text>
    <text
       sodipodi:linespacing="125%"
       id="text628"
       y="106.44862"
       x="254.23254"
       
       xml:space="preserve"><tspan
         id="tspan630"
         y="106.44862"
         x="254.23254"
         sodipodi:role="line"><tspan
           id="tspan632"
           
           dy="0"
           dx="0">Sø</tspan></tspan></text>
    <text
       sodipodi:linespacing="125%"
       id="text634"
       y="106.44862"
       x="257.7207"
       
       xml:space="preserve"><tspan
         id="tspan636"
         y="106.44862"
         x="257.7207"
         sodipodi:role="line"><tspan
           id="tspan638"
           
           dy="0"
           dx="0">r</tspan></tspan></text>
    <text
       sodipodi:linespacing="125%"
       id="text640"
       y="106.44862"
       x="258.84726"
       
       xml:space="preserve"><tspan
         id="tspan642"
         y="106.44862"
         x="258.84726"
         sodipodi:role="line"><tspan
           id="tspan644"
           
           dy="0"
           dx="0">-</tspan></tspan></text>
    <text
       sodipodi:linespacing="125%"
       id="text646"
       y="106.44862"
       x="259.92728"
       
       xml:space="preserve"><tspan
         id="tspan648"
         y="106.44862"
         x="259.92728"
         sodipodi:role="line"><tspan
           id="tspan650"
           
           dy="0"
           dx="0">V</tspan></tspan></text>
    <text
       sodipodi:linespacing="125%"
       id="text652"
       y="106.44862"
       x="261.73251"
       
       xml:space="preserve"><tspan
         id="tspan654"
         y="106.44862"
         x="261.73251"
         sodipodi:role="line"><tspan
           id="tspan656"
           
           dy="0"
           dx="0">a</tspan></tspan></text>
    <text
       sodipodi:linespacing="125%"
       id="text658"
       y="106.44862"
       x="263.42233"
       
       xml:space="preserve"><tspan
         id="tspan660"
         y="106.44862"
         x="263.42233"
         sodipodi:role="line"><tspan
           id="tspan662"
           
           dy="0"
           dx="0">r</tspan></tspan></text>
    <text
       sodipodi:linespacing="125%"
       id="text664"
       y="106.44862"
       x="264.5799"
       
       xml:space="preserve"><tspan
         id="tspan666"
         y="106.44862"
         x="264.5799"
         sodipodi:role="line"><tspan
           id="tspan668"
           
           dy="0"
           dx="0">an</tspan></tspan></text>
    <text
       sodipodi:linespacing="125%"
       id="text670"
       y="106.44862"
       x="268.12317"
       
       xml:space="preserve"><tspan
         id="tspan672"
         y="106.44862"
         x="268.12317"
         sodipodi:role="line"><tspan
           id="tspan674"
           
           dy="0"
           dx="0">g</tspan></tspan></text>
    <text
       sodipodi:linespacing="125%"
       id="text676"
       y="106.44862"
       x="269.75443"
       
       xml:space="preserve"><tspan
         id="tspan678"
         y="106.44862"
         x="269.75443"
         sodipodi:role="line"><tspan
           id="tspan680"
           
           dy="0"
           dx="0">er</tspan></tspan></text>
  </g>
</svg>
