<?xml version="1.0" encoding="UTF-8" standalone="no"?>
<svg
   xmlns:dc="http://purl.org/dc/elements/1.1/"
   xmlns:cc="http://creativecommons.org/ns#"
   xmlns:rdf="http://www.w3.org/1999/02/22-rdf-syntax-ns#"
   xmlns:svg="http://www.w3.org/2000/svg"
   xmlns="http://www.w3.org/2000/svg"
   xmlns:sodipodi="http://sodipodi.sourceforge.net/DTD/sodipodi-0.dtd"
   xmlns:inkscape="http://www.inkscape.org/namespaces/inkscape"
   version="1.0"
   width="100%"
   height="100%"
   preserveAspectRatio="keep"
   id="svg2"
   inkscape:version="0.91 r13725"
   viewBox="0 0 191.29585 203.20845"
   sodipodi:docname="nord-trondelag_kommuner.svg">
  <metadata
     id="metadata793">
    <rdf:RDF>
      <cc:Work
         rdf:about="">
        <dc:format>image/svg+xml</dc:format>
        <dc:type
           rdf:resource="http://purl.org/dc/dcmitype/StillImage" />
        <dc:title></dc:title>
      </cc:Work>
    </rdf:RDF>
  </metadata>
  <sodipodi:namedview
     pagecolor="#ffffff"
     bordercolor="#666666"
     borderopacity="1"
     objecttolerance="10"
     gridtolerance="10"
     guidetolerance="10"
     inkscape:pageopacity="0"
     inkscape:pageshadow="2"
     inkscape:window-width="1440"
     inkscape:window-height="851"
     id="namedview791"
     inkscape:document-units="mm"
     showgrid="false"
     inkscape:zoom="0.7630107"
     inkscape:cx="172.1703"
     inkscape:cy="327.91648"
     inkscape:window-x="0"
     inkscape:window-y="0"
     inkscape:window-maximized="1"
     inkscape:current-layer="svg2" />
  <defs
     id="defs4">
    <pattern
       id="EMFhbasepattern"
       patternUnits="userSpaceOnUse"
       width="6"
       height="6"
       x="0"
       y="0" />
  </defs>
  <g
     id="gnordtrondelag"
     inkscape:label="g17">
    <path
        inkscape:label="kn1702"
       class="land"
       id="steinkjer"
       d="m 85.901389,89.870274 0.08834,3.968609 0,1.763889 -0.264724,1.499164 0.440831,0.35306 1.587782,1.499164 0.61722,0.617503 0,0.08805 -0.352777,3.792504 -0.08834,1.14638 0.705838,0.17639 0.08805,0.17639 0,0.35278 0.881945,4.40972 4.938888,1.14667 -0.793608,1.85194 -0.97028,2.29306 5.115277,3.175 0.705556,0.44111 0.264442,0.52917 3.174999,4.7625 0.88223,1.41111 0.088,0.0881 -0.26444,0.0883 -4.056946,0.35278 -0.264724,0 -2.028613,0.17639 -6.35,2.11666 -3.527496,1.05834 -0.264724,0.17638 -0.881945,0 -10.759722,0.0881 -1.322776,0.52916 -2.116666,0.7939 -4.14528,1.5875 -2.469445,0.88194 -1.411111,-1.41111 -1.851942,0.35278 -0.529449,0 0,-1.23473 -0.08805,-1.23472 -1.058334,0.35278 -0.793608,0.26444 -0.617503,0 1.146387,-2.20472 -0.08805,-3.70416 -1.058334,-0.26473 -0.176389,0 1.5875,-4.05694 3.351389,-1.32278 0.264725,-0.17639 0.264442,-0.0883 0.352778,-0.52917 0.705555,-0.97 -1.146386,-0.26472 -0.705556,-0.26444 -0.617502,-0.17639 -1.146387,-0.35278 -3.175,-0.44111 -4.14528,-0.17639 0.08834,-3.26306 3.351389,-1.5875 0.529166,-0.26472 0.529167,-0.35278 1.499164,-1.14639 -1.323057,-1.5875 -0.352496,-0.44111 -0.264724,0.0883 -1.234723,0.61722 -0.440831,0.17639 -0.352777,0.17638 -4.056945,-0.96999 -0.881944,-1.41111 -0.529167,-0.7939 0.529167,0 2.292773,-0.26444 0.793891,-1.94056 0,-0.26444 0.264442,0.88194 0.08834,0.0883 0.969998,-0.26472 1.587782,-0.26445 2.20472,-0.52916 0.705555,-2.205005 7.761112,-4.056945 5.380002,-1.499164 2.20472,-1.499447 2.293055,-1.5875 0.264725,-0.176389 4.144998,-2.293055 0.881944,-0.529167 2.557498,-1.411111 0.617502,2.381391 0.176389,0.705556 z"
        />
    <path
       inkscape:label="kn1744"
       class="land"
       id="overhalla"
       d="m 98.865831,67.468603 -2.20472,0.705837 -1.323058,0.529167 -1.675553,2.028331 -1.499447,1.763889 -0.264442,0.264442 0.352778,0.176671 1.940278,1.146387 -0.264443,0.97028 -0.35306,1.939996 0.264725,0.705837 1.499164,4.850554 -1.851942,4.409722 -0.529167,0.264724 -7.055555,2.645834 L 85.725,89.164718 85.107498,86.783327 82.55,88.194438 l -0.881944,0.529167 -4.144998,2.293055 -0.264725,0.176389 -0.264442,-0.176389 -1.234722,-1.146386 -2.910558,-2.645834 0,-0.264724 0.352778,-2.469444 0.529167,-4.938889 -1.234723,-2.028331 0.08834,-4.674447 0.08805,-1.411111 0,-1.499165 0,-0.705555 -1.146386,-0.705838 2.645551,-2.557498 2.381391,-2.293055 1.499446,1.146669 6.261665,-2.116667 1.058333,-1.940278 -1.058333,-4.939171 6.35,-3.968609 1.323058,5.291667 1.851942,7.9375 2.205002,-0.440831 0.529167,0.969997 0.969998,1.851943 0.08833,0.08834 1.23444,-0.08834 z"
        />
    <path
       inkscape:label="kn1751"
       class="land"
       id="naroy"
       d="m 103.805,29.898052 -3.08694,8.819444 -2.028336,0.61722 -0.882226,-0.881944 -1.23444,-1.146387 -1.146669,-1.146669 -4.674165,1.5875 -0.176388,0 -1.146669,2.55778 -0.352778,0.881944 -0.793891,0.176389 -1.851942,0.440831 -0.529167,0.176389 -5.908887,1.323058 -3.439724,2.645833 -0.264725,0.176389 -0.264442,0.61722 -1.146387,-0.08805 -6.438335,-2.028613 1.763889,-1.146387 1.851942,0.440831 0.97028,0.176389 0.08805,-0.793609 0.176671,-1.323058 L 75.053613,41.80416 79.375,41.363329 82.726389,40.393049 83.608333,38.62916 79.375,38.099994 75.406391,35.806938 79.463053,35.45416 78.40472,33.161105 80.786111,30.868049 82.55,29.898052 l 4.674164,-2.205003 1.94056,-1.058333 3.086665,-0.08819 1.499447,-1.675695 2.293055,0 0.264442,0.176389 1.763889,0.79375 0.08834,0 2.293052,0.970139 2.5575,0.264583 1.49945,0.970139 0,0.0882 -0.35306,0.970138 -0.3525,0.793892 z m -10.230836,-16.580697 -0.176106,4.409722 1.499164,1.675695 1.940278,0.176388 -0.264442,-1.411111 1.146386,-0.529166 0.881945,1.146527 0.264442,0.264584 -0.264442,0.881944 0.793891,0.176389 -0.264724,1.675695 3.704164,2.028472 0.6175,-0.352778 4.67417,-2.645833 4.7625,1.675694 3.08695,-0.881944 -2.99862,4.850694 -3.35138,2.293056 -1.14667,0.793891 -0.88195,-0.705556 0.0883,-0.529449 -2.46973,-2.116525 -2.46916,-1.675695 -2.38139,0.440973 -1.146389,-0.705556 -3.175,-2.116667 -2.293055,0.705556 -2.822223,1.499305 -2.116666,0.440973 -3.439725,1.499305 -2.734169,0.970139 -2.292773,1.146528 -2.293056,1.146669 -0.793891,0.352778 -2.557497,1.234722 -0.264725,2.998611 -2.645833,1.675553 -3.704167,0.969998 -0.440831,0.08834 -0.264724,0.705555 -0.881945,2.293056 -2.55778,2.20472 -5.026942,1.852224 -0.705556,0.176389 -2.733886,-0.529167 2.381109,-1.234722 5.732497,-2.645833 0.441114,-2.293056 -5.644445,-0.617502 1.234722,-2.645551 1.146387,-0.264725 6.879449,-1.940277 3.615831,-1.411111 -2.998611,-0.08834 -3.351389,0.176671 -4.321387,1.146387 -0.97028,0.176389 1.234723,-2.028331 0.176389,-0.264725 3.880555,-3.086805 2.20472,-1.411112 0.705556,0.881945 1.411111,1.499305 2.205002,-0.529166 -1.234722,-2.645834 -0.176389,-0.352777 1.5875,-0.705556 0.529167,-0.352778 2.998611,-0.08819 2.910557,0.176389 2.557498,-2.028472 -2.557498,-0.617362 -3.351388,0 -0.793892,0 -0.176388,0.264584 0.617502,-1.058334 0.705555,-1.499305 1.146387,-0.970139 1.852224,-0.08819 0.176389,0 0.08805,0 3.704166,1.763888 1.146669,-0.881944 1.058334,-0.881944 2.028331,-1.852084 -0.705556,-1.058333 -0.529167,0.176389 -1.851942,0.970139 -1.852224,1.411111 -1.146387,-1.058334 0.264442,-0.617361 0.176389,-0.176389 0.08834,-0.08819 1.939995,-0.176389 3.792503,-2.557639 1.5875,-0.264583 1.763888,-0.440972 1.234723,0.440972 2.293055,0.79375 0.264442,0.08819 0,0.705556 z"
        />
    <path
       inkscape:label="kn1739"
       class="land"
       id="royrvik"
       d="m 173.56667,39.863883 -2.46945,0.705555 -5.55639,1.852225 -4.05666,1.146386 -4.76278,1.411111 -0.79361,0.352778 -2.99861,1.675836 -2.82223,1.675553 -0.70555,0.352778 0.0883,1.146669 0.17611,1.851942 -0.26444,0.441113 -1.41111,2.910276 -3.70417,7.496669 -7.40833,7.9375 -0.52917,0.529166 0.0883,-0.441113 1.49916,-12.347222 0.17639,-1.411111 -0.26444,-0.969998 -0.6175,-2.293056 -0.52917,-1.5875 -1.32278,-4.409722 -0.44111,-1.763889 6.08556,0.352778 -0.26473,-3.527778 7.49639,-13.052777 0.6175,-1.058334 3.52778,-11.818196 1.32306,-0.881945 0.0881,-0.08819 7.32028,-5.027084 1.41111,-0.264583 14.99306,-1.8520833 2.20472,0.79375 4.23333,-1.7638889 6.87917,2.1166662 -1.41111,2.38125 -2.02862,3.439584 -0.88166,1.234722 -2.205,3.615972 -2.02833,3.439584 -0.35278,0.617361 -1.23472,2.204861 -0.70584,1.146528 -0.88166,1.587641 -0.0883,0.176389 -0.35278,0.705555 -1.41111,2.557498 -1.67555,2.998611 -2.02861,3.704167 z"
        />
    <path
       inkscape:label="kn1718"
       class="land"
       id="leksvik"
       d="m 33.690278,144.55083 -1.234722,0.61722 -3.704167,1.23472 -2.204861,1.23472 -0.352778,0.26445 -2.645833,1.85222 -2.910417,2.55778 -0.705556,0.52917 -1.058333,0.96999 -2.557639,2.11667 -2.204861,1.32306 -4.4097221,1.49916 -5.3798611,1.76389 -0.1763889,0 L 1.5875,162.7186 0.44097222,157.60361 4.1451389,152.66472 6.35,149.13694 l 9.172222,-6.61472 9.965972,-4.7625 7.672917,4.32166 0.529167,2.46945 z"
        />
    <path
       inkscape:label="kn1714"
       class="land"
       id="stjordal"
       d="m 72.231391,160.86666 0,0 -8.90778,11.46528 -0.441113,0.52916 -0.264442,0.44084 -0.176389,0.35306 -0.176389,0.7936 -0.441114,1.41112 -1.146386,3.7925 -2.20472,7.49638 -5.644445,-1.32277 -6.35,-1.49945 -10.318891,1.23472 -4.850553,-1.85194 0,-6.08556 0,-2.29305 0,-0.52917 1.939995,-1.14638 1.058334,-0.61751 0.705555,-2.11666 -4.850553,-1.41111 -2.028472,-1.41112 0.264583,-2.91027 2.645833,-2.11667 2.469445,-0.26472 0.176389,0 0.97028,-0.88195 1.234722,0 3.175,-0.0881 16.933333,-0.44111 0.705556,0.35277 1.675553,0.70556 4.7625,-2.29306 0.176389,0 1.058333,-0.35277 0.08834,0 0.176107,0.17639 0.617502,1.32305 0.97028,-0.44111 1.499164,-0.70556 0.529167,0 2.822222,0.44084 0.705556,0.17667 0.441113,0.0881 z"
        />
    <path
       inkscape:label="kn1749"
       class="land"
       id="flatanger"
       d="m 23.195139,72.93694 0.08819,0 -0.176389,0 0.0882,0 z m 23.107085,-6.967502 -0.529166,2.734169 0.264442,0.440831 1.852224,3.263336 -1.852224,2.028331 -0.264442,1.852224 1.058333,0 1.939996,0.08805 0,0.08834 0,4.144998 0,0.61722 -1.939996,0.176671 -1.146669,0 -2.998611,4.7625 -1.058333,1.5875 -0.97028,1.675553 -7.849165,-3.968891 -1.146386,-2.292773 -0.617503,-1.058333 0.705556,-2.645834 -0.176389,-0.264724 -0.441113,-0.705556 -2.733887,0.352778 -3.96875,-4.586111 0.705556,0.705556 1.058333,-0.529167 -1.763889,-2.469445 1.5875,-1.146386 0.352778,0.61722 6.173752,5.997222 0.264442,0.176389 2.20472,1.852224 2.55778,-1.5875 -0.61722,-1.5875 -0.793891,-2.55778 -0.440831,-0.881944 -3.616113,-1.499165 0.352778,-2.734168 3.263335,1.234722 1.940278,0.08834 -1.058333,-3.704166 3.086664,0.440831 1.234722,0.264724 0.352778,-0.793891 2.469444,0.881945 0.08805,0 0.35306,-2.822223 -0.35306,-3.439442 -1.851942,-2.381391 2.293055,-1.940278 1.5875,1.5875 2.734169,2.645834 -0.08834,2.381391 -1.675553,0.440831 -0.529167,2.469444 z"
        />
    <path
       inkscape:label="kn1743"
       class="land"
       id="hoylandet"
       d="m 121.62028,25.311799 0,4.586253 -0.0883,2.733886 -8.64305,2.469445 2.64583,2.822222 -2.73388,2.55778 -0.61751,7.849164 2.46945,0.97028 -2.11667,2.733887 -3.175,3.968891 1.49945,1.234722 0.26444,0.264443 -0.44083,0.352777 -3.88056,3.086947 -6.70277,5.467773 -1.235009,1.058334 -1.23444,0.08834 -0.08833,-0.08834 -0.969998,-1.851943 -0.529167,-0.969997 -2.205002,0.440831 -1.851942,-7.9375 -1.323058,-5.291667 6.526389,-4.056944 2.293055,-6.173611 -1.940277,-1.675836 1.146668,-0.61722 2.028336,-0.61722 3.08694,-8.819444 0.3525,-0.793892 0.35306,-0.970138 0,-0.0882 0.26444,0.264442 2.11667,1.499447 0.17639,0.08834 0.26444,0.264442 0.0883,-0.264442 0.17639,-1.058334 0.88195,0.705556 1.14667,-0.793891 3.35138,-2.293056 2.99862,-4.850694 1.85194,4.938889 3.7925,-1.234723 z"
        />
    <path
       inkscape:label="kn1736"
       class="land"
       id="snasa"
       d="m 140.49389,112.71249 -2.205,0.61751 -0.79361,0.17638 -2.38139,0.61722 -0.35278,0.0883 -3.79222,1.05833 -2.205,0.52917 -1.05833,0.26444 -2.29306,1.76389 -1.85194,1.32306 -3.43973,2.5575 -0.96999,0.70555 -2.55778,1.76389 -4.93889,0.44111 -8.64306,0.79361 -0.088,-0.0881 -0.88223,-1.41111 -3.174999,-4.7625 -0.264442,-0.52917 -0.705556,-0.44111 -5.115277,-3.175 0.97028,-2.29306 0.793608,-1.85194 -4.938888,-1.14667 -0.881945,-4.40972 0,-0.35278 -0.08805,-0.17639 -0.705838,-0.17639 0.08834,-1.14638 0.352777,-3.792504 0,-0.08805 -0.61722,-0.617503 -1.587782,-1.499164 -0.440831,-0.35306 0.264724,-1.499164 0,-1.763889 -0.08834,-3.968609 7.055555,-2.645834 0.529167,-0.264724 3.880556,-0.705556 2.645833,-0.529166 2.64583,-0.529167 0.0883,0 2.73389,-2.733887 1.23472,-1.323057 1.76389,1.499446 4.05694,-0.176389 1.85223,-0.97028 4.40972,-2.116666 1.14638,-0.08805 8.81945,-0.529166 6.43833,-0.441114 2.29306,8.290278 3.79222,4.144998 1.23472,6.085558 -2.02833,15.874996 z"
        />
    <path
       inkscape:label="kn1719"
       class="land"
       id="levanger"
       d="m 72.231391,160.86666 -0.441113,-0.0881 -0.705556,-0.17667 -2.822222,-0.44084 -0.529167,0 -1.499164,0.70556 -0.97028,0.44111 -0.617502,-1.32305 -0.176107,-0.17639 -0.08834,0 -1.058333,0.35277 -0.176389,0 -4.7625,2.29306 -1.675553,-0.70556 -0.705556,-0.35277 -16.933333,0.44111 -3.175,0.0881 -1.234722,0 0.705273,-0.70555 0.97028,-2.20472 -0.176389,-2.11667 -0.969998,-0.26472 2.20472,-2.29306 -2.293055,-3.61583 2.469444,-2.38139 1.763889,-0.97 0.705556,-0.35278 3.263335,0.17639 3.527778,0.26444 0.61722,0.0883 2.645833,-2.64583 1.5875,-2.38139 2.998612,0 4.586111,-1.5875 0.08805,-0.17639 1.146669,1.41111 0.352778,0.44111 0,0.52917 -0.08834,1.41111 0,0.70555 1.146669,-0.17638 2.116667,1.14638 1.675553,0.61722 0.529449,6.08556 0.176389,1.23472 4.674164,5.29167 1.146669,1.41111 z"
        />
    <path
       inkscape:label="kn1711"
       class="land"
       id="meraker"
       d="m 91.281391,161.66027 0.264442,1.67583 0.881945,4.49806 0.352778,1.76389 0.793608,3.88056 -0.969997,1.85194 -1.058334,1.94028 -1.5875,2.91055 -2.028613,4.05695 -0.705556,1.41111 -0.61722,0.88194 -0.529166,0.88195 -0.08805,0.0881 0,0.0883 -1.146668,1.76389 -0.176389,0.17639 -0.793609,1.23472 -2.116667,3.35139 1.058333,2.82222 0.969998,2.82222 0.705556,1.94028 0.176389,0.70555 0.352777,0.61722 -2.998611,-0.7936 -2.55778,-0.61751 -10.14222,0.44112 -3.616113,0.26444 -7.231662,-15.16945 2.20472,-7.49638 1.146386,-3.7925 0.441114,-1.41112 0.176389,-0.7936 0.176389,-0.35306 0.264442,-0.44084 0.441113,-0.52916 8.90778,-11.46528 0,0 4.056662,-3.88056 7.232227,3.61584 7.761111,1.05833 z"
        />
    <path
       inkscape:label="kn1725"
       class="land"
       id="namdalseid"
       d="m 58.208333,76.023605 -0.61722,0.176389 -2.55778,1.5875 1.675836,1.146669 -3.086947,6.35 0.881945,0.08805 1.499446,-0.264442 0.969998,-1.234722 0.176389,0.705555 0.705556,2.557498 0.529166,1.675835 3.616114,1.675554 0.881662,0.441113 0.793891,-0.97028 2.293055,5.380002 1.411112,0.440831 -7.761112,4.056945 -0.705555,2.205005 -2.20472,0.52916 -1.587782,0.26445 -0.969998,0.26472 -0.08834,-0.0883 -0.264442,-0.88194 0,0.26444 -0.793891,1.94056 -2.292773,0.26444 -0.529167,0 -4.409722,-1.23472 -2.116667,1.05834 -2.822222,1.49944 -3.439725,1.76389 -0.529166,-1.5875 -3.527778,-0.44111 -1.5875,-6.438337 6.526389,-2.645551 0.705555,-2.028614 1.058334,-3.351389 0.61722,-1.763889 0.97028,-1.675553 1.058333,-1.5875 2.998611,-4.7625 1.146669,0 1.939996,-0.176671 0,-0.61722 0,-4.144998 0,-0.08834 -1.939996,-0.08805 -1.058333,0 0.264442,-1.852224 1.852224,-2.028331 -1.852224,-3.263336 -0.264442,-0.440831 0.529166,-2.734169 0.529167,-2.469444 1.675553,-0.440831 -0.08805,2.910275 4.321387,3.880556 -0.529167,3.616113 5.73278,-0.881944 0.61722,1.851942 0,0.97028 -0.352778,0.61722 z"
        />
    <path
       inkscape:label="kn1738"
       class="land"
       id="lierne"
       d="m 140.49389,112.71249 2.02833,-15.874996 -1.23472,-6.085558 -3.79222,-4.144998 -2.29306,-8.290278 0.70528,-4.321386 0.0883,-0.264725 0.0883,-1.058333 0.17639,-0.529167 0.0881,-0.793609 0.52917,-0.529166 7.40833,-7.9375 3.70417,-7.496669 1.41111,-2.910276 0.26444,-0.441113 -0.17611,-1.851942 -0.0883,-1.146669 0.70555,-0.352778 2.82223,-1.675553 2.99861,-1.675836 0.79361,-0.352778 4.76278,-1.411111 4.05666,-1.146386 5.55639,-1.852225 2.46945,-0.705555 -0.70556,1.234722 -0.70555,1.323058 -1.14639,2.116666 -0.88195,1.499165 -0.26472,0.529166 -1.41111,2.55778 -1.05833,1.851943 -1.5875,2.998611 -2.3814,4.233333 -1.05833,2.55778 -1.23444,3.351389 1.94,1.499164 2.11666,1.675836 1.58779,1.146387 2.29305,1.675835 2.20472,1.675554 2.38111,0.793891 4.76278,1.763889 1.23472,0.440831 0.0881,0 1.14667,1.5875 0.088,2.381391 0.0881,0.440831 0.26473,3.704167 0.0881,2.028613 0,0.528884 0.35306,5.909169 0.26444,3.086947 0.0881,2.645551 0.17667,2.998894 0,0.44083 0.1761,2.91056 -0.35277,0.61722 -1.41083,3.26333 -0.35306,0.70556 -0.79361,1.67555 -1.05833,2.55778 -0.88195,1.67556 -1.14639,2.73416 -0.6175,1.41112 -1.05833,2.02833 -1.05833,2.11666 -2.02834,-0.70555 -0.26472,0 -1.14639,-0.52917 -2.02861,-0.70555 -0.52917,-0.26445 -1.14667,-0.35277 -3.9686,-1.49945 -0.44084,-0.088 -1.94056,-0.52917 -1.58721,-0.44111 -3.79251,-1.05834 -3.9686,-0.79361 -3.08695,-0.70555 -3.52778,-0.97028 -3.79222,-0.88195 z"
        />
    <path
       inkscape:label="kn1703"
       class="land"
       id="namsos"
       d="m 58.208333,76.023605 -1.499164,2.910558 -1.675836,-1.146669 2.55778,-1.5875 0.61722,-0.176389 z m 26.105556,-20.196669 1.058333,4.939171 -1.058333,1.940278 -6.261665,2.116667 -1.499446,-1.146669 -2.381391,2.293055 -2.645551,2.557498 1.146386,0.705838 0,0.705555 0,1.499165 -0.08805,1.411111 -0.08834,4.674447 1.234723,2.028331 -0.529167,4.938889 -0.352778,2.469444 0,0.264724 2.910558,2.645834 1.234722,1.146386 0.264442,0.176389 -2.293055,1.5875 -2.20472,1.499447 -5.380002,1.499164 -1.411112,-0.440831 -2.293055,-5.380002 -0.793891,0.97028 L 62.000836,90.487494 58.384722,88.81194 57.855556,87.136105 57.15,84.578607 l -0.176389,-0.705555 1.940278,-2.381392 1.763889,-2.293055 1.323058,-0.793609 1.234722,-3.616113 2.293055,0.176389 2.910276,-1.234723 1.146669,-0.61722 2.557498,-1.146669 -0.705556,-0.969997 -0.793609,-0.97028 -2.55778,0.705555 -2.20472,0.705556 -0.08833,-4.056945 2.645833,-1.322775 2.469444,-1.852225 4.850836,-2.645833 1.499164,-1.411111 -0.176389,-1.058333 -0.176388,-0.705556 -1.5875,0.61722 -1.5875,0.705838 -1.323058,-2.205002 -2.469445,2.557497 -4.321386,2.55778 -0.264443,0.264725 -1.411393,0.881944 -2.910275,-2.55778 0.617502,-2.293055 0.793609,-0.264443 1.852224,1.499165 0.881945,0.793891 0.440831,-0.529167 2.822222,-3.52806 0.176389,-0.176106 1.675553,-2.116667 7.761393,0.705556 4.7625,0.352777 1.499165,0.176107 z m -22.401389,8.466667 2.205002,1.058333 -1.852224,3.880838 -2.998611,0 -0.705556,-1.323058 -0.529167,-1.234722 -0.969997,-2.116667 -2.293056,0.529167 -2.116667,0.529166 -0.793891,-4.409722 0.617503,-0.529166 0.705555,-0.617503 -0.08834,-0.264442 -0.705556,-1.940278 -0.881944,-0.352777 -2.910276,-1.146387 0,-0.881945 0.61722,-3.263335 1.940278,-0.264442 1.675835,2.028331 0,0.08834 0.440831,0.793609 0.264725,0.08834 0.528884,0.529166 1.323058,0.352496 3.527778,4.14528 -0.264442,2.645833 3.263053,1.675554 z"
        />
    <path
       inkscape:label="kn1750"
       class="land"
       id="vikna"
       d="m 53.00472,19.226383 6.261947,8.466666 0.176389,1.411111 -0.529167,0.793892 0,0 -1.322776,1.587217 -3.616113,2.293338 -4.674164,-2.381391 -0.617503,-1.499164 -0.61722,-1.675836 -2.734169,1.675836 -3.704166,2.469444 -5.732498,-0.617502 0.264442,-0.264725 0.176389,-1.587217 0.617502,-5.203614 4.056945,-2.116666 0.61722,1.5875 10.848058,-5.732639 0.528884,0.79375 z"
        />
    <path
       inkscape:label="kn1748"
       class="land"
       id="fosnes"
       d="m 52.916667,54.063329 0.617502,0.881945 -0.264725,-0.08834 -0.440831,-0.793609 0,-0.08834 0.08805,0.08834 z m 6.614724,-3.086946 0.264442,5.73278 -3.880555,-3.263336 -2.822222,-2.293055 6.35,-1.499165 0.08834,1.322776 z m 39.951942,-9.348611 -2.293055,6.173611 -6.526389,4.056944 -6.35,3.968609 -1.499165,-0.176107 -4.7625,-0.352777 -7.761393,-0.705556 -1.675553,2.116667 -0.176389,0.176106 -2.822222,3.52806 -0.440831,0.529167 -0.881945,-0.793891 -1.852224,-1.499165 -0.793609,0.264443 1.411111,-5.115278 0.61722,-1.940278 0.969998,-3.351389 0.264724,-0.969998 0.264725,-0.97028 3.263053,-1.940277 6.438335,2.028613 1.146387,0.08805 0.264442,-0.61722 0.264725,-0.176389 3.439724,-2.645833 5.908887,-1.323058 0.529167,-0.176389 1.851942,-0.440831 0.793891,-0.176389 0.352778,-0.881944 1.146669,-2.55778 0.176388,0 4.674165,-1.5875 1.146669,1.146669 1.23444,1.146387 0.882226,0.881944 -1.146668,0.61722 1.940277,1.675836 z"
        />
    <path
       inkscape:label="kn1740"
       class="land"
       id="namsskogan"
       d="m 161.13139,11.024299 -7.32028,5.027084 -0.0881,0.08819 -1.32306,0.881945 -3.52778,11.818196 -0.6175,1.058334 -7.49639,13.052777 0.26473,3.527778 -6.08556,-0.352778 0.44111,1.763889 1.32278,4.409722 0.52917,1.5875 0.6175,2.293056 0.26444,0.969998 -0.17639,1.411111 -1.49916,12.347222 -0.0883,0.441113 -0.17639,-0.352777 -7.40833,-12.876389 0,-0.176671 -2.11667,-3.703885 -1.67555,-0.705555 -2.64583,-2.293056 -0.0883,0 -2.46944,1.234722 -0.0881,-0.08834 -0.44111,-0.440831 -3.08667,-2.381391 0.17639,-0.352778 0.70556,-1.146387 -4.85084,0.264442 0.61751,-7.849164 2.73388,-2.55778 -2.64583,-2.822222 8.64305,-2.469445 0.0883,-2.733886 0,-4.586253 2.29306,1.322917 0.35249,-3.527778 4.49806,-0.529166 2.38139,-0.176389 0.61722,-1.5875 -1.5875,-2.998611 2.5575,-0.264584 1.32306,-3.527778 2.46944,-0.529166 1.41111,-3.527778 5.73278,0.529167 4.93861,0.617361 1.49944,0.08819 1.05834,0.176389 0.0883,0 0.61722,0.0882 5.11528,-1.7638893 4.14528,1.3229163 z"
        />
    <path
       inkscape:label="kn1724"
       class="land"
       id="verran"
       d="m 50.18278,104.5986 0.529167,0.7939 0.881944,1.41111 4.056945,0.96999 -3.351389,1.85223 -1.146669,1.49916 -0.793609,3.79251 0,1.5875 -2.116667,1.49916 -0.441113,0.26472 -1.5875,1.05834 -2.998611,2.11666 -2.55778,2.38111 -2.733887,2.11667 -3.263053,2.205 -2.293056,1.49917 -2.734169,0.35277 -1.5875,1.05834 -1.5875,1.14667 -2.645833,1.41111 -0.440972,0.97 -0.0882,0.79389 1.763889,-0.26473 -0.352778,0.35278 0.79375,2.29306 -9.965972,4.7625 -0.352778,-1.85195 -0.617361,-2.55778 0.970139,-0.70555 0.529167,1.94028 8.113889,-13.31722 4.674446,-2.99862 2.910276,-4.23333 0,-4.49806 2.028613,-1.94027 0.528885,-0.52917 0.793891,-3.52778 0.264442,0 2.028613,-0.61722 3.439725,-1.76389 2.822222,-1.49944 2.116667,-1.05834 4.409722,1.23472 z"
        />
    <path
       inkscape:label="kn1721"
       class="land"
       id="verdal"
       d="m 91.281391,161.66027 -7.761111,-1.05833 -7.232227,-3.61584 -4.056662,3.88056 -1.146669,-1.41111 -4.674164,-5.29167 -0.176389,-1.23472 -0.529449,-6.08556 -1.675553,-0.61722 -2.116667,-1.14638 -1.146669,0.17638 0,-0.70555 0.08834,-1.41111 0,-0.52917 -0.352778,-0.44111 -1.146669,-1.41111 1.499447,-1.94028 -0.352778,-2.20472 -0.264442,-0.70556 0.61722,-0.44111 0.441113,-0.17639 0.705556,-0.44083 2.557497,-1.5875 2.469445,-0.88194 4.14528,-1.5875 2.116666,-0.7939 1.322776,-0.52916 10.759722,-0.0881 0.881945,0 0.264724,-0.17638 3.527496,-1.05834 6.35,-2.11666 2.028613,-0.17639 0.264724,0 4.056946,-0.35278 0.26444,-0.0883 8.64306,-0.79361 4.93889,-0.44111 -0.44084,0.88195 -0.97028,1.5875 -2.02833,3.175 -1.49944,2.38139 -1.94028,3.08666 -0.88195,1.49945 -0.96999,1.41111 -0.79389,1.32277 -1.94028,2.73417 -0.97028,1.32278 -0.79361,1.32306 -1.05833,1.49916 -1.5875,2.29306 -0.26445,0.17639 -0.617499,0.97028 -0.881944,2.55749 -0.705556,1.67584 -1.852224,2.29277 -1.499165,1.76417 -1.411111,1.32278 -1.146387,1.14639 -1.058333,1.05833 z"
        />
    <path
       inkscape:label="kn1717"
       class="land"
       id="frosta"
       d="m 35.189724,156.63333 -0.705555,-0.17639 -0.529449,-0.17639 -2.20472,1.41111 -2.645833,1.5875 -2.028473,1.05833 -2.38125,1.32278 -1.763888,-0.3525 -0.440973,-1.67583 2.204861,-1.94028 0.264584,-0.17639 1.411111,-1.23472 2.38125,-1.23472 1.322775,-0.61722 2.998894,-0.79389 0.176106,-0.35278 1.235005,-1.94028 0.61722,-0.61722 2.293055,3.61583 -2.20472,2.29306 z"
        />
    <path
       inkscape:label="kn1742"
       class="land"
       id="grong"
       d="m 136.34861,71.34944 -0.0881,0.793609 -0.17639,0.529167 -0.0883,1.058333 -0.0883,0.264725 -0.70528,4.321386 -6.43833,0.441114 -8.81945,0.529166 -1.14638,0.08805 -4.40972,2.116666 -1.85223,0.97028 -4.05694,0.176389 -1.76389,-1.499446 -1.23472,1.323057 -2.73389,2.733887 -0.0883,0 -2.64583,0.529167 -2.645833,0.529166 -3.880556,0.705556 1.851942,-4.409722 -1.499164,-4.850554 -0.264725,-0.705837 0.35306,-1.939996 0.264443,-0.97028 -1.940278,-1.146387 -0.352778,-0.176671 0.264442,-0.264442 1.499447,-1.763889 1.675553,-2.028331 1.323058,-0.529167 2.20472,-0.705837 1.235009,-1.058334 6.70277,-5.467773 3.88056,-3.086947 0.44083,-0.352777 -0.26444,-0.264443 -1.49945,-1.234722 3.175,-3.968891 2.11667,-2.733887 -2.46945,-0.97028 4.85084,-0.264442 -0.70556,1.146387 -0.17639,0.352778 3.08667,2.381391 0.44111,0.440831 0.0881,0.08834 2.46944,-1.234722 0.0883,0 2.64583,2.293056 1.67555,0.705555 2.11667,3.703885 0,0.176671 7.40833,12.876389 0.17639,0.352777 z"
        />
    <path
       inkscape:label="kn1755"
       class="land"
       id="leka"
       d="m 81.138889,8.4666605 -9.701389,5.9090275 -1.940278,-1.852083 1.5875,-4.0569445 4.674447,-2.2048611 5.37972,2.2048611 z m -0.440831,6.2618055 -0.08834,0.08819 0.705556,-1.675694 2.028613,-3.3513888 3.704167,-4.2333334 0.176106,-0.088194 L 88.370833,4.409716 88.9,3.8805494 l 0.705556,0.1763889 0.08833,0.2645833 0.352496,2.9986111 -3.615831,4.6743053 -3.792503,2.557639 -1.939995,0.176389 z"
        />
    <path
       inkscape:label="kn1756"
       class="land"
       id="inderoy"
       d="m 60.765831,130.96888 0,1.23473 0.529449,0 1.851942,-0.35278 1.411111,1.41111 -2.557497,1.5875 -0.705556,0.44083 -0.441113,0.17639 -0.61722,0.44111 -0.529449,-1.05833 -2.381109,-0.26472 -2.028331,-0.52917 -0.264725,-1.41111 2.734169,-1.49917 0.440831,-0.79389 0.617503,0 0.793608,-0.26444 1.058334,-0.35278 0.08805,1.23472 z m -24.606109,12.25889 -2.469444,1.32306 -0.529167,-2.46945 -7.672917,-4.32166 -0.79375,-2.29306 0.352778,-0.35278 0.79375,-0.17639 1.499306,-0.70555 2.469444,-1.23472 3.175,-1.05834 3.351389,-1.49916 1.323058,-0.44112 1.411111,-1.14638 0.352778,-0.35278 1.23444,-1.05833 1.587782,1.49916 -0.617502,3.43973 -0.264725,1.85194 -0.08805,0.44111 -1.411111,2.20472 -0.440831,0.70556 -2.381391,3.35139 -0.881945,2.29305 z m 23.459722,-23.10694 -1.5875,4.05694 -0.61722,-0.088 -1.411111,1.85194 -1.058333,2.91056 -0.352778,0.70555 -0.441113,1.14639 -2.910276,0.70556 -2.028613,1.5875 -2.998611,0.0883 -0.176389,-1.32306 -0.08834,-1.32277 0,-2.11667 2.998894,-2.55778 4.850553,-3.61583 1.940278,-1.41111 1.411111,-0.17639 2.20472,-0.35278 0.264724,-0.0883 z"
        />
    <text
       sodipodi:linespacing="125%"
       id="text107"
       y="27.688053"
       x="47.335957"
       
       xml:space="preserve"><tspan
         id="tspan109"
         y="27.688053"
         x="47.335957"
         sodipodi:role="line"><tspan
           id="tspan111"
           
           dy="0"
           dx="0">1750</tspan></tspan></text>
    <text
       sodipodi:linespacing="125%"
       id="text113"
       y="6.1737771"
       x="78.991562"
       
       xml:space="preserve"><tspan
         id="tspan115"
         y="6.1737771"
         x="78.991562"
         sodipodi:role="line"><tspan
           id="tspan117"
           
           dy="0"
           dx="0">1755</tspan></tspan></text>
    <text
       sodipodi:linespacing="125%"
       id="text119"
       y="35.540806"
       x="86.705475"
       
       xml:space="preserve"><tspan
         id="tspan121"
         y="35.540806"
         x="86.705475"
         sodipodi:role="line"><tspan
           id="tspan123"
           
           dy="0"
           dx="0">1751</tspan></tspan></text>
    <text
       sodipodi:linespacing="125%"
       id="text125"
       y="57.737209"
       x="99.494011"
       
       xml:space="preserve"><tspan
         id="tspan127"
         y="57.737209"
         x="99.494011"
         sodipodi:role="line"><tspan
           id="tspan129"
           
           dy="0"
           dx="0">1743</tspan></tspan></text>
    <text
       sodipodi:linespacing="125%"
       id="text131"
       y="43.362377"
       x="126.14561"
       
       xml:space="preserve"><tspan
         id="tspan133"
         y="43.362377"
         x="126.14561"
         sodipodi:role="line"><tspan
           id="tspan135"
           
           dy="0"
           dx="0">1740</tspan></tspan></text>
    <text
       sodipodi:linespacing="125%"
       id="text137"
       y="32.778183"
       x="159.51343"
       
       xml:space="preserve"><tspan
         id="tspan139"
         y="32.778183"
         x="159.51343"
         sodipodi:role="line"><tspan
           id="tspan141"
           
           dy="0"
           dx="0">1739</tspan></tspan></text>
    <text
       sodipodi:linespacing="125%"
       id="text143"
       y="86.688934"
       x="155.23532"
       
       xml:space="preserve"><tspan
         id="tspan145"
         y="86.688934"
         x="155.23532"
         sodipodi:role="line"><tspan
           id="tspan147"
           
           dy="0"
           dx="0">1738</tspan></tspan></text>
    <text
       sodipodi:linespacing="125%"
       id="text149"
       y="72.293427"
       x="112.47341"
       
       xml:space="preserve"><tspan
         id="tspan151"
         y="72.293427"
         x="112.47341"
         sodipodi:role="line"><tspan
           id="tspan153"
           
           dy="0"
           dx="0">1742</tspan></tspan></text>
    <text
       sodipodi:linespacing="125%"
       id="text155"
       y="103.40488"
       x="110.53055"
       
       xml:space="preserve"><tspan
         id="tspan157"
         y="103.40488"
         x="110.53055"
         sodipodi:role="line"><tspan
           id="tspan159"
           
           dy="0"
           dx="0">1736</tspan></tspan></text>
    <text
       sodipodi:linespacing="125%"
       id="text161"
       y="115.4603"
       x="71.104187"
       
       xml:space="preserve"><tspan
         id="tspan163"
         y="115.4603"
         x="71.104187"
         sodipodi:role="line"><tspan
           id="tspan165"
           
           dy="0"
           dx="0">1702</tspan></tspan></text>
    <text
       sodipodi:linespacing="125%"
       id="text167"
       y="75.522003"
       x="80.424202"
       
       xml:space="preserve"><tspan
         id="tspan169"
         y="75.522003"
         x="80.424202"
         sodipodi:role="line"><tspan
           id="tspan171"
           
           dy="0"
           dx="0">1744</tspan></tspan></text>
    <text
       sodipodi:linespacing="125%"
       id="text173"
       y="53.245495"
       x="78.42157"
       
       xml:space="preserve"><tspan
         id="tspan175"
         y="53.245495"
         x="78.42157"
         sodipodi:role="line"><tspan
           id="tspan177"
           
           dy="0"
           dx="0">1748</tspan></tspan></text>
    <text
       sodipodi:linespacing="125%"
       id="text179"
       y="86.689621"
       x="63.176334"
       
       xml:space="preserve"><tspan
         id="tspan181"
         y="86.689621"
         x="63.176334"
         sodipodi:role="line"><tspan
           id="tspan183"
           
           dy="0"
           dx="0">1703</tspan></tspan></text>
    <text
       sodipodi:linespacing="125%"
       id="text185"
       y="97.372345"
       x="48.598759"
       
       xml:space="preserve"><tspan
         id="tspan187"
         y="97.372345"
         x="48.598759"
         sodipodi:role="line"><tspan
           id="tspan189"
           
           dy="0"
           dx="0">1725</tspan></tspan></text>
    <text
       sodipodi:linespacing="125%"
       id="text191"
       y="67.532822"
       x="30.067244"
       
       xml:space="preserve"><tspan
         id="tspan193"
         y="67.532822"
         x="30.067244"
         sodipodi:role="line"><tspan
           id="tspan195"
           
           dy="0"
           dx="0">1749</tspan></tspan></text>
    <text
       sodipodi:linespacing="125%"
       id="text197"
       y="118.84683"
       x="38.345463"
       
       xml:space="preserve"><tspan
         id="tspan199"
         y="118.84683"
         x="38.345463"
         sodipodi:role="line"><tspan
           id="tspan201"
           
           dy="0"
           dx="0">1724</tspan></tspan></text>
    <text
       sodipodi:linespacing="125%"
       id="text203"
       y="139.47813"
       x="45.140915"
       
       xml:space="preserve"><tspan
         id="tspan205"
         y="139.47813"
         x="45.140915"
         sodipodi:role="line"><tspan
           id="tspan207"
           
           dy="0"
           dx="0">1756</tspan></tspan></text>
    <text
       sodipodi:linespacing="125%"
       id="text209"
       y="146.99808"
       x="79.102837"
       
       xml:space="preserve"><tspan
         id="tspan211"
         y="146.99808"
         x="79.102837"
         sodipodi:role="line"><tspan
           id="tspan213"
           
           dy="0"
           dx="0">1721</tspan></tspan></text>
    <text
       sodipodi:linespacing="125%"
       id="text215"
       y="181.44629"
       x="72.629845"
       
       xml:space="preserve"><tspan
         id="tspan217"
         y="181.44629"
         x="72.629845"
         sodipodi:role="line"><tspan
           id="tspan219"
           
           dy="0"
           dx="0">1711</tspan></tspan></text>
    <text
       sodipodi:linespacing="125%"
       id="text221"
       y="176.01819"
       x="43.763737"
       
       xml:space="preserve"><tspan
         id="tspan223"
         y="176.01819"
         x="43.763737"
         sodipodi:role="line"><tspan
           id="tspan225"
           
           dy="0"
           dx="0">1714</tspan></tspan></text>
    <text
       sodipodi:linespacing="125%"
       id="text227"
       y="156.78078"
       x="48.681438"
       
       xml:space="preserve"><tspan
         id="tspan229"
         y="156.78078"
         x="48.681438"
         sodipodi:role="line"><tspan
           id="tspan231"
           
           dy="0"
           dx="0">1719</tspan></tspan></text>
    <text
       sodipodi:linespacing="125%"
       id="text233"
       y="166.61722"
       x="14.565347"
       
       xml:space="preserve"><tspan
         id="tspan235"
         y="166.61722"
         x="14.565347"
         sodipodi:role="line"><tspan
           id="tspan237"
           
           dy="0"
           dx="0">1717</tspan></tspan></text>
    <text
       sodipodi:linespacing="125%"
       id="text239"
       y="153.31502"
       x="12.378917"
       
       xml:space="preserve"><tspan
         id="tspan241"
         y="153.31502"
         x="12.378917"
         sodipodi:role="line"><tspan
           id="tspan243"
           
           dy="0"
           dx="0">1718</tspan></tspan></text>
    <text
       sodipodi:linespacing="125%"
       id="text245"
       y="178.06044"
       x="69.443649"
       
       xml:space="preserve"><tspan
         id="tspan247"
         y="178.06044"
         x="69.443649"
         sodipodi:role="line"><tspan
           id="tspan249"
           
           dy="0"
           dx="0">Me</tspan></tspan></text>
    <text
       sodipodi:linespacing="125%"
       id="text251"
       y="178.06044"
       x="74.215111"
       
       xml:space="preserve"><tspan
         id="tspan253"
         y="178.06044"
         x="74.215111"
         sodipodi:role="line"><tspan
           id="tspan255"
           
           dy="0"
           dx="0">r</tspan></tspan></text>
    <text
       sodipodi:linespacing="125%"
       id="text257"
       y="178.06044"
       x="75.372658"
       
       xml:space="preserve"><tspan
         id="tspan259"
         y="178.06044"
         x="75.372658"
         sodipodi:role="line"><tspan
           id="tspan261"
           
           dy="0"
           dx="0">å</tspan></tspan></text>
    <text
       sodipodi:linespacing="125%"
       id="text263"
       y="178.06044"
       x="77.062477"
       
       xml:space="preserve"><tspan
         id="tspan265"
         y="178.06044"
         x="77.062477"
         sodipodi:role="line"><tspan
           id="tspan267"
           
           dy="0"
           dx="0">k</tspan></tspan></text>
    <text
       sodipodi:linespacing="125%"
       id="text269"
       y="178.06044"
       x="78.552483"
       
       xml:space="preserve"><tspan
         id="tspan271"
         y="178.06044"
         x="78.552483"
         sodipodi:role="line"><tspan
           id="tspan273"
           
           dy="0"
           dx="0">er</tspan></tspan></text>
    <text
       sodipodi:linespacing="125%"
       id="text275"
       y="172.63235"
       x="41.100334"
       
       xml:space="preserve"><tspan
         id="tspan277"
         y="172.63235"
         x="41.100334"
         sodipodi:role="line"><tspan
           id="tspan279"
           
           dy="0"
           dx="0">Stjø</tspan></tspan></text>
    <text
       sodipodi:linespacing="125%"
       id="text281"
       y="172.63235"
       x="46.614208"
       
       xml:space="preserve"><tspan
         id="tspan283"
         y="172.63235"
         x="46.614208"
         sodipodi:role="line"><tspan
           id="tspan285"
           
           dy="0"
           dx="0">r</tspan></tspan></text>
    <text
       sodipodi:linespacing="125%"
       id="text287"
       y="172.63235"
       x="47.795876"
       
       xml:space="preserve"><tspan
         id="tspan289"
         y="172.63235"
         x="47.795876"
         sodipodi:role="line"><tspan
           id="tspan291"
           
           dy="0"
           dx="0">dal</tspan></tspan></text>
    <text
       sodipodi:linespacing="125%"
       id="text293"
       y="153.39494"
       x="45.080971"
       
       xml:space="preserve"><tspan
         id="tspan295"
         y="153.39494"
         x="45.080971"
         sodipodi:role="line"><tspan
           id="tspan297"
           
           dy="0"
           dx="0">L</tspan></tspan></text>
    <text
       sodipodi:linespacing="125%"
       id="text299"
       y="153.39494"
       x="46.564083"
       
       xml:space="preserve"><tspan
         id="tspan301"
         y="153.39494"
         x="46.564083"
         sodipodi:role="line"><tspan
           id="tspan303"
           
           dy="0"
           dx="0">e</tspan></tspan></text>
    <text
       sodipodi:linespacing="125%"
       id="text305"
       y="153.39494"
       x="48.302132"
       
       xml:space="preserve"><tspan
         id="tspan307"
         y="153.39494"
         x="48.302132"
         sodipodi:role="line"><tspan
           id="tspan309"
           
           dy="0"
           dx="0">v</tspan></tspan></text>
    <text
       sodipodi:linespacing="125%"
       id="text311"
       y="153.39494"
       x="49.843815"
       
       xml:space="preserve"><tspan
         id="tspan313"
         y="153.39494"
         x="49.843815"
         sodipodi:role="line"><tspan
           id="tspan315"
           
           dy="0"
           dx="0">an</tspan></tspan></text>
    <text
       sodipodi:linespacing="125%"
       id="text317"
       y="153.39494"
       x="53.387093"
       
       xml:space="preserve"><tspan
         id="tspan319"
         y="153.39494"
         x="53.387093"
         sodipodi:role="line"><tspan
           id="tspan321"
           
           dy="0"
           dx="0">g</tspan></tspan></text>
    <text
       sodipodi:linespacing="125%"
       id="text323"
       y="153.39494"
       x="55.018349"
       
       xml:space="preserve"><tspan
         id="tspan325"
         y="153.39494"
         x="55.018349"
         sodipodi:role="line"><tspan
           id="tspan327"
           
           dy="0"
           dx="0">er</tspan></tspan></text>
    <text
       sodipodi:linespacing="125%"
       id="text329"
       y="163.23137"
       x="13.014709"
       
       xml:space="preserve"><tspan
         id="tspan331"
         y="163.23137"
         x="13.014709"
         sodipodi:role="line"><tspan
           id="tspan333"
           
           dy="0"
           dx="0">F</tspan></tspan></text>
    <text
       sodipodi:linespacing="125%"
       id="text335"
       y="163.23137"
       x="14.635627"
       
       xml:space="preserve"><tspan
         id="tspan337"
         y="163.23137"
         x="14.635627"
         sodipodi:role="line"><tspan
           id="tspan339"
           
           dy="0"
           dx="0">r</tspan></tspan></text>
    <text
       sodipodi:linespacing="125%"
       id="text341"
       y="163.23137"
       x="15.808682"
       
       xml:space="preserve"><tspan
         id="tspan343"
         y="163.23137"
         x="15.808682"
         sodipodi:role="line"><tspan
           id="tspan345"
           
           dy="0"
           dx="0">o</tspan></tspan></text>
    <text
       sodipodi:linespacing="125%"
       id="text347"
       y="163.23137"
       x="17.669033"
       
       xml:space="preserve"><tspan
         id="tspan349"
         y="163.23137"
         x="17.669033"
         sodipodi:role="line"><tspan
           id="tspan351"
           
           dy="0"
           dx="0">s</tspan></tspan></text>
    <text
       sodipodi:linespacing="125%"
       id="text353"
       y="163.23137"
       x="19.009176"
       
       xml:space="preserve"><tspan
         id="tspan355"
         y="163.23137"
         x="19.009176"
         sodipodi:role="line"><tspan
           id="tspan357"
           
           dy="0"
           dx="0">t</tspan></tspan></text>
    <text
       sodipodi:linespacing="125%"
       id="text359"
       y="163.23137"
       x="20.147779"
       
       xml:space="preserve"><tspan
         id="tspan361"
         y="163.23137"
         x="20.147779"
         sodipodi:role="line"><tspan
           id="tspan363"
           
           dy="0"
           dx="0">a</tspan></tspan></text>
    <text
       sodipodi:linespacing="125%"
       id="text365"
       y="149.92883"
       x="10.168544"
       
       xml:space="preserve"><tspan
         id="tspan367"
         y="149.92883"
         x="10.168544"
         sodipodi:role="line"><tspan
           id="tspan369"
           
           dy="0"
           dx="0">Le</tspan></tspan></text>
    <text
       sodipodi:linespacing="125%"
       id="text371"
       y="149.92883"
       x="13.406934"
       
       xml:space="preserve"><tspan
         id="tspan373"
         y="149.92883"
         x="13.406934"
         sodipodi:role="line"><tspan
           id="tspan375"
           
           dy="0"
           dx="0">k</tspan></tspan></text>
    <text
       sodipodi:linespacing="125%"
       id="text377"
       y="149.92883"
       x="14.977897"
       
       xml:space="preserve"><tspan
         id="tspan379"
         y="149.92883"
         x="14.977897"
         sodipodi:role="line"><tspan
           id="tspan381"
           
           dy="0"
           dx="0">s</tspan></tspan></text>
    <text
       sodipodi:linespacing="125%"
       id="text383"
       y="149.92883"
       x="16.304258"
       
       xml:space="preserve"><tspan
         id="tspan385"
         y="149.92883"
         x="16.304258"
         sodipodi:role="line"><tspan
           id="tspan387"
           
           dy="0"
           dx="0">vik</tspan></tspan></text>
    <text
       sodipodi:linespacing="125%"
       id="text389"
       y="143.61189"
       x="77.405785"
       
       xml:space="preserve"><tspan
         id="tspan391"
         y="143.61189"
         x="77.405785"
         sodipodi:role="line"><tspan
           id="tspan393"
           
           dy="0"
           dx="0">V</tspan></tspan></text>
    <text
       sodipodi:linespacing="125%"
       id="text395"
       y="143.61189"
       x="79.231682"
       
       xml:space="preserve"><tspan
         id="tspan397"
         y="143.61189"
         x="79.231682"
         sodipodi:role="line"><tspan
           id="tspan399"
           
           dy="0"
           dx="0">e</tspan></tspan></text>
    <text
       sodipodi:linespacing="125%"
       id="text401"
       y="143.61189"
       x="80.986961"
       
       xml:space="preserve"><tspan
         id="tspan403"
         y="143.61189"
         x="80.986961"
         sodipodi:role="line"><tspan
           id="tspan405"
           
           dy="0"
           dx="0">r</tspan></tspan></text>
    <text
       sodipodi:linespacing="125%"
       id="text407"
       y="143.61189"
       x="82.168625"
       
       xml:space="preserve"><tspan
         id="tspan409"
         y="143.61189"
         x="82.168625"
         sodipodi:role="line"><tspan
           id="tspan411"
           
           dy="0"
           dx="0">dal</tspan></tspan></text>
    <text
       sodipodi:linespacing="125%"
       id="text413"
       y="136.09195"
       x="42.517128"
       
       xml:space="preserve"><tspan
         id="tspan415"
         y="136.09195"
         x="42.517128"
         sodipodi:role="line"><tspan
           id="tspan417"
           
           dy="0"
           dx="0">Inde</tspan></tspan></text>
    <text
       sodipodi:linespacing="125%"
       id="text419"
       y="136.09195"
       x="48.868164"
       
       xml:space="preserve"><tspan
         id="tspan421"
         y="136.09195"
         x="48.868164"
         sodipodi:role="line"><tspan
           id="tspan423"
           
           dy="0"
           dx="0">r</tspan></tspan></text>
    <text
       sodipodi:linespacing="125%"
       id="text425"
       y="136.09195"
       x="50.041218"
       
       xml:space="preserve"><tspan
         id="tspan427"
         y="136.09195"
         x="50.041218"
         sodipodi:role="line"><tspan
           id="tspan429"
           
           dy="0"
           dx="0">ø</tspan></tspan></text>
    <text
       sodipodi:linespacing="125%"
       id="text431"
       y="136.09195"
       x="51.889511"
       
       xml:space="preserve"><tspan
         id="tspan433"
         y="136.09195"
         x="51.889511"
         sodipodi:role="line"><tspan
           id="tspan435"
           
           dy="0"
           dx="0">y</tspan></tspan></text>
    <text
       sodipodi:linespacing="125%"
       id="text437"
       y="115.46065"
       x="36.450314"
       
       xml:space="preserve"><tspan
         id="tspan439"
         y="115.46065"
         x="36.450314"
         sodipodi:role="line"><tspan
           id="tspan441"
           
           dy="0"
           dx="0">V</tspan></tspan></text>
    <text
       sodipodi:linespacing="125%"
       id="text443"
       y="115.46065"
       x="38.276218"
       
       xml:space="preserve"><tspan
         id="tspan445"
         y="115.46065"
         x="38.276218"
         sodipodi:role="line"><tspan
           id="tspan447"
           
           dy="0"
           dx="0">er</tspan></tspan></text>
    <text
       sodipodi:linespacing="125%"
       id="text449"
       y="115.46065"
       x="41.261391"
       
       xml:space="preserve"><tspan
         id="tspan451"
         y="115.46065"
         x="41.261391"
         sodipodi:role="line"><tspan
           id="tspan453"
           
           dy="0"
           dx="0">r</tspan></tspan></text>
    <text
       sodipodi:linespacing="125%"
       id="text455"
       y="115.46065"
       x="42.418941"
       
       xml:space="preserve"><tspan
         id="tspan457"
         y="115.46065"
         x="42.418941"
         sodipodi:role="line"><tspan
           id="tspan459"
           
           dy="0"
           dx="0">an</tspan></tspan></text>
    <text
       sodipodi:linespacing="125%"
       id="text461"
       y="112.07446"
       x="67.657021"
       
       xml:space="preserve"><tspan
         id="tspan463"
         y="112.07446"
         x="67.657021"
         sodipodi:role="line"><tspan
           id="tspan465"
           
           dy="0"
           dx="0">S</tspan></tspan></text>
    <text
       sodipodi:linespacing="125%"
       id="text467"
       y="112.07446"
       x="69.277939"
       
       xml:space="preserve"><tspan
         id="tspan469"
         y="112.07446"
         x="69.277939"
         sodipodi:role="line"><tspan
           id="tspan471"
           
           dy="0"
           dx="0">t</tspan></tspan></text>
    <text
       sodipodi:linespacing="125%"
       id="text473"
       y="112.07446"
       x="70.421715"
       
       xml:space="preserve"><tspan
         id="tspan475"
         y="112.07446"
         x="70.421715"
         sodipodi:role="line"><tspan
           id="tspan477"
           
           dy="0"
           dx="0">einkjer</tspan></tspan></text>
    <text
       sodipodi:linespacing="125%"
       id="text479"
       y="100.01921"
       x="109.27447"
       
       xml:space="preserve"><tspan
         id="tspan481"
         y="100.01921"
         x="109.27447"
         sodipodi:role="line"><tspan
           id="tspan483"
           
           dy="0"
           dx="0">Snåsa</tspan></tspan></text>
    <text
       sodipodi:linespacing="125%"
       id="text485"
       y="64.146294"
       x="26.23509"
       
       xml:space="preserve"><tspan
         id="tspan487"
         y="64.146294"
         x="26.23509"
         sodipodi:role="line"><tspan
           id="tspan489"
           
           dy="0"
           dx="0">Fl</tspan></tspan></text>
    <text
       sodipodi:linespacing="125%"
       id="text491"
       y="64.146294"
       x="28.665606"
       
       xml:space="preserve"><tspan
         id="tspan493"
         y="64.146294"
         x="28.665606"
         sodipodi:role="line"><tspan
           id="tspan495"
           
           dy="0"
           dx="0">a</tspan></tspan></text>
    <text
       sodipodi:linespacing="125%"
       id="text497"
       y="64.146294"
       x="30.322699"
       
       xml:space="preserve"><tspan
         id="tspan499"
         y="64.146294"
         x="30.322699"
         sodipodi:role="line"><tspan
           id="tspan501"
           
           dy="0"
           dx="0">t</tspan></tspan></text>
    <text
       sodipodi:linespacing="125%"
       id="text503"
       y="64.146294"
       x="31.4613"
       
       xml:space="preserve"><tspan
         id="tspan505"
         y="64.146294"
         x="31.4613"
         sodipodi:role="line"><tspan
           id="tspan507"
           
           dy="0"
           dx="0">an</tspan></tspan></text>
    <text
       sodipodi:linespacing="125%"
       id="text509"
       y="64.146294"
       x="35.004581"
       
       xml:space="preserve"><tspan
         id="tspan511"
         y="64.146294"
         x="35.004581"
         sodipodi:role="line"><tspan
           id="tspan513"
           
           dy="0"
           dx="0">g</tspan></tspan></text>
    <text
       sodipodi:linespacing="125%"
       id="text515"
       y="64.146294"
       x="36.635834"
       
       xml:space="preserve"><tspan
         id="tspan517"
         y="64.146294"
         x="36.635834"
         sodipodi:role="line"><tspan
           id="tspan519"
           
           dy="0"
           dx="0">er</tspan></tspan></text>
    <text
       sodipodi:linespacing="125%"
       id="text521"
       y="94.121384"
       x="42.654072"
       
       xml:space="preserve"><tspan
         id="tspan523"
         y="94.121384"
         x="42.654072"
         sodipodi:role="line"><tspan
           id="tspan525"
           
           dy="0"
           dx="0">Namdalseid</tspan></tspan></text>
    <text
       sodipodi:linespacing="125%"
       id="text527"
       y="83.302917"
       x="60.334648"
       
       xml:space="preserve"><tspan
         id="tspan529"
         y="83.302917"
         x="60.334648"
         sodipodi:role="line"><tspan
           id="tspan531"
           
           dy="0"
           dx="0">Namsos</tspan></tspan></text>
    <text
       sodipodi:linespacing="125%"
       id="text533"
       y="83.303268"
       x="153.65263"
       
       xml:space="preserve"><tspan
         id="tspan535"
         y="83.303268"
         x="153.65263"
         sodipodi:role="line"><tspan
           id="tspan537"
           
           dy="0"
           dx="0">Lierne</tspan></tspan></text>
    <text
       sodipodi:linespacing="125%"
       id="text539"
       y="68.907242"
       x="110.94775"
       
       xml:space="preserve"><tspan
         id="tspan541"
         y="68.907242"
         x="110.94775"
         sodipodi:role="line"><tspan
           id="tspan543"
           
           dy="0"
           dx="0">G</tspan></tspan></text>
    <text
       sodipodi:linespacing="125%"
       id="text545"
       y="68.907242"
       x="113.17328"
       
       xml:space="preserve"><tspan
         id="tspan547"
         y="68.907242"
         x="113.17328"
         sodipodi:role="line"><tspan
           id="tspan549"
           
           dy="0"
           dx="0">r</tspan></tspan></text>
    <text
       sodipodi:linespacing="125%"
       id="text551"
       y="68.907242"
       x="114.34634"
       
       xml:space="preserve"><tspan
         id="tspan553"
         y="68.907242"
         x="114.34634"
         sodipodi:role="line"><tspan
           id="tspan555"
           
           dy="0"
           dx="0">ong</tspan></tspan></text>
    <text
       sodipodi:linespacing="125%"
       id="text557"
       y="72.135986"
       x="76.418938"
       
       xml:space="preserve"><tspan
         id="tspan559"
         y="72.135986"
         x="76.418938"
         sodipodi:role="line"><tspan
           id="tspan561"
           
           dy="0"
           dx="0">O</tspan></tspan></text>
    <text
       sodipodi:linespacing="125%"
       id="text563"
       y="72.135986"
       x="78.754707"
       
       xml:space="preserve"><tspan
         id="tspan565"
         y="72.135986"
         x="78.754707"
         sodipodi:role="line"><tspan
           id="tspan567"
           
           dy="0"
           dx="0">v</tspan></tspan></text>
    <text
       sodipodi:linespacing="125%"
       id="text569"
       y="72.135986"
       x="80.313614"
       
       xml:space="preserve"><tspan
         id="tspan571"
         y="72.135986"
         x="80.313614"
         sodipodi:role="line"><tspan
           id="tspan573"
           
           dy="0"
           dx="0">erhalla</tspan></tspan></text>
    <text
       sodipodi:linespacing="125%"
       id="text575"
       y="49.859825"
       x="76.381729"
       
       xml:space="preserve"><tspan
         id="tspan577"
         y="49.859825"
         x="76.381729"
         sodipodi:role="line"><tspan
           id="tspan579"
           
           dy="0"
           dx="0">F</tspan></tspan></text>
    <text
       sodipodi:linespacing="125%"
       id="text581"
       y="49.859825"
       x="77.954414"
       
       xml:space="preserve"><tspan
         id="tspan583"
         y="49.859825"
         x="77.954414"
         sodipodi:role="line"><tspan
           id="tspan585"
           
           dy="0"
           dx="0">osnes</tspan></tspan></text>
    <text
       sodipodi:linespacing="125%"
       id="text587"
       y="54.3512"
       x="94.971123"
       
       xml:space="preserve"><tspan
         id="tspan589"
         y="54.3512"
         x="94.971123"
         sodipodi:role="line"><tspan
           id="tspan591"
           
           dy="0"
           dx="0">H</tspan></tspan></text>
    <text
       sodipodi:linespacing="125%"
       id="text593"
       y="54.3512"
       x="97.16909"
       
       xml:space="preserve"><tspan
         id="tspan595"
         y="54.3512"
         x="97.16909"
         sodipodi:role="line"><tspan
           id="tspan597"
           
           dy="0"
           dx="0">ø</tspan></tspan></text>
    <text
       sodipodi:linespacing="125%"
       id="text599"
       y="54.3512"
       x="99.017387"
       
       xml:space="preserve"><tspan
         id="tspan601"
         y="54.3512"
         x="99.017387"
         sodipodi:role="line"><tspan
           id="tspan603"
           
           dy="0"
           dx="0">yland</tspan></tspan></text>
    <text
       sodipodi:linespacing="125%"
       id="text605"
       y="54.3512"
       x="106.82053"
       
       xml:space="preserve"><tspan
         id="tspan607"
         y="54.3512"
         x="106.82053"
         sodipodi:role="line"><tspan
           id="tspan609"
           
           dy="0"
           dx="0">e</tspan></tspan></text>
    <text
       sodipodi:linespacing="125%"
       id="text611"
       y="54.3512"
       x="108.55685"
       
       xml:space="preserve"><tspan
         id="tspan613"
         y="54.3512"
         x="108.55685"
         sodipodi:role="line"><tspan
           id="tspan615"
           
           dy="0"
           dx="0">t</tspan></tspan></text>
    <text
       sodipodi:linespacing="125%"
       id="text617"
       y="29.392515"
       x="157.09566"
       
       xml:space="preserve"><tspan
         id="tspan619"
         y="29.392515"
         x="157.09566"
         sodipodi:role="line"><tspan
           id="tspan621"
           
           dy="0"
           dx="0">R</tspan></tspan></text>
    <text
       sodipodi:linespacing="125%"
       id="text623"
       y="29.392515"
       x="158.9388"
       
       xml:space="preserve"><tspan
         id="tspan625"
         y="29.392515"
         x="158.9388"
         sodipodi:role="line"><tspan
           id="tspan627"
           
           dy="0"
           dx="0">ø</tspan></tspan></text>
    <text
       sodipodi:linespacing="125%"
       id="text629"
       y="29.392515"
       x="160.78708"
       
       xml:space="preserve"><tspan
         id="tspan631"
         y="29.392515"
         x="160.78708"
         sodipodi:role="line"><tspan
           id="tspan633"
           
           dy="0"
           dx="0">y</tspan></tspan></text>
    <text
       sodipodi:linespacing="125%"
       id="text635"
       y="29.392515"
       x="162.38388"
       
       xml:space="preserve"><tspan
         id="tspan637"
         y="29.392515"
         x="162.38388"
         sodipodi:role="line"><tspan
           id="tspan639"
           
           dy="0"
           dx="0">r</tspan></tspan></text>
    <text
       sodipodi:linespacing="125%"
       id="text641"
       y="29.392515"
       x="163.64651"
       
       xml:space="preserve"><tspan
         id="tspan643"
         y="29.392515"
         x="163.64651"
         sodipodi:role="line"><tspan
           id="tspan645"
           
           dy="0"
           dx="0">vik</tspan></tspan></text>
    <text
       sodipodi:linespacing="125%"
       id="text647"
       y="39.976536"
       x="119.99233"
       
       xml:space="preserve"><tspan
         id="tspan649"
         y="39.976536"
         x="119.99233"
         sodipodi:role="line"><tspan
           id="tspan651"
           
           dy="0"
           dx="0">Namss</tspan></tspan></text>
    <text
       sodipodi:linespacing="125%"
       id="text653"
       y="39.976536"
       x="129.53697"
       
       xml:space="preserve"><tspan
         id="tspan655"
         y="39.976536"
         x="129.53697"
         sodipodi:role="line"><tspan
           id="tspan657"
           
           dy="0"
           dx="0">k</tspan></tspan></text>
    <text
       sodipodi:linespacing="125%"
       id="text659"
       y="39.976536"
       x="131.0218"
       
       xml:space="preserve"><tspan
         id="tspan661"
         y="39.976536"
         x="131.0218"
         sodipodi:role="line"><tspan
           id="tspan663"
           
           dy="0"
           dx="0">o</tspan></tspan></text>
    <text
       sodipodi:linespacing="125%"
       id="text665"
       y="39.976536"
       x="132.88216"
       
       xml:space="preserve"><tspan
         id="tspan667"
         y="39.976536"
         x="132.88216"
         sodipodi:role="line"><tspan
           id="tspan669"
           
           dy="0"
           dx="0">g</tspan></tspan></text>
    <text
       sodipodi:linespacing="125%"
       id="text671"
       y="39.976536"
       x="134.47723"
       
       xml:space="preserve"><tspan
         id="tspan673"
         y="39.976536"
         x="134.47723"
         sodipodi:role="line"><tspan
           id="tspan675"
           
           dy="0"
           dx="0">an</tspan></tspan></text>
    <text
       sodipodi:linespacing="125%"
       id="text677"
       y="32.154621"
       x="84.755203"
       
       xml:space="preserve"><tspan
         id="tspan679"
         y="32.154621"
         x="84.755203"
         sodipodi:role="line"><tspan
           id="tspan681"
           
           dy="0"
           dx="0">Næ</tspan></tspan></text>
    <text
       sodipodi:linespacing="125%"
       id="text683"
       y="32.154621"
       x="89.759209"
       
       xml:space="preserve"><tspan
         id="tspan685"
         y="32.154621"
         x="89.759209"
         sodipodi:role="line"><tspan
           id="tspan687"
           
           dy="0"
           dx="0">r</tspan></tspan></text>
    <text
       sodipodi:linespacing="125%"
       id="text689"
       y="32.154621"
       x="90.932266"
       
       xml:space="preserve"><tspan
         id="tspan691"
         y="32.154621"
         x="90.932266"
         sodipodi:role="line"><tspan
           id="tspan693"
           
           dy="0"
           dx="0">ø</tspan></tspan></text>
    <text
       sodipodi:linespacing="125%"
       id="text695"
       y="32.154621"
       x="92.780556"
       
       xml:space="preserve"><tspan
         id="tspan697"
         y="32.154621"
         x="92.780556"
         sodipodi:role="line"><tspan
           id="tspan699"
           
           dy="0"
           dx="0">y</tspan></tspan></text>
    <text
       sodipodi:linespacing="125%"
       id="text701"
       y="2.7872484"
       x="78.616562"
       
       xml:space="preserve"><tspan
         id="tspan703"
         y="2.7872484"
         x="78.616562"
         sodipodi:role="line"><tspan
           id="tspan705"
           
           dy="0"
           dx="0">Le</tspan></tspan></text>
    <text
       sodipodi:linespacing="125%"
       id="text707"
       y="2.7872484"
       x="81.85495"
       
       xml:space="preserve"><tspan
         id="tspan709"
         y="2.7872484"
         x="81.85495"
         sodipodi:role="line"><tspan
           id="tspan711"
           
           dy="0"
           dx="0">k</tspan></tspan></text>
    <text
       sodipodi:linespacing="125%"
       id="text713"
       y="2.7872484"
       x="83.398354"
       
       xml:space="preserve"><tspan
         id="tspan715"
         y="2.7872484"
         x="83.398354"
         sodipodi:role="line"><tspan
           id="tspan717"
           
           dy="0"
           dx="0">a</tspan></tspan></text>
    <text
       sodipodi:linespacing="125%"
       id="text719"
       y="24.302042"
       x="46.217678"
       
       xml:space="preserve"><tspan
         id="tspan721"
         y="24.302042"
         x="46.217678"
         sodipodi:role="line"><tspan
           id="tspan723"
           
           dy="0"
           dx="0">Vikna</tspan></tspan></text>
  </g>
</svg>
