<?xml version="1.0" encoding="UTF-8" standalone="no"?>
<svg
   xmlns:dc="http://purl.org/dc/elements/1.1/"
   xmlns:cc="http://creativecommons.org/ns#"
   xmlns:rdf="http://www.w3.org/1999/02/22-rdf-syntax-ns#"
   xmlns:svg="http://www.w3.org/2000/svg"
   xmlns="http://www.w3.org/2000/svg"
   xmlns:sodipodi="http://sodipodi.sourceforge.net/DTD/sodipodi-0.dtd"
   xmlns:inkscape="http://www.inkscape.org/namespaces/inkscape"
   version="1.0"
   width="100%"
   height="100%"
   id="svg2"
   inkscape:version="0.91 r13725"
   viewBox="0 0 234.43353 238.13345"
   sodipodi:docname="ostfold_kommuner.svg">
  <metadata
     id="metadata647">
    <rdf:RDF>
      <cc:Work
         rdf:about="">
        <dc:format>image/svg+xml</dc:format>
        <dc:type
           rdf:resource="http://purl.org/dc/dcmitype/StillImage" />
        <dc:title></dc:title>
      </cc:Work>
    </rdf:RDF>
  </metadata>
  <sodipodi:namedview
     pagecolor="#ffffff"
     bordercolor="#666666"
     borderopacity="1"
     objecttolerance="10"
     gridtolerance="10"
     guidetolerance="10"
     inkscape:pageopacity="0"
     inkscape:pageshadow="2"
     inkscape:window-width="1440"
     inkscape:window-height="851"
     id="namedview645"
     inkscape:document-units="mm"
     showgrid="false"
     inkscape:zoom="0.88171057"
     inkscape:cx="428.28839"
     inkscape:cy="375.45452"
     inkscape:window-x="0"
     inkscape:window-y="0"
     inkscape:window-maximized="1"
     inkscape:current-layer="svg2" />
  <defs
     id="defs4">
    <pattern
       id="EMFhbasepattern"
       patternUnits="userSpaceOnUse"
       width="6"
       height="6"
       x="0"
       y="0" />
  </defs>
  <g
     id="gostfold"
     inkscape:label="g01">
    <path
       inkscape:label="kn0106"
       class="land"
       id="fredrikstad"
       d="m 114.38805,163.15972 -5.55611,6.79111 -1.5875,-1.94056 -2.82222,-3.08667 -1.32277,-1.49916 -1.67584,-6.70278 -1.940277,-3.08694 -4.938889,0.35277 -3.79222,8.11389 -1.852224,2.82222 -2.822222,-2.11666 0.705555,-4.67417 -0.264442,-5.20361 -0.176389,-3.52778 -0.08834,-0.52916 -1.675554,0 -1.323057,1.14638 -1.234723,1.94056 -1.5875,3.88056 -3.615831,0.35278 -1.763889,-1.67584 -1.499446,-1.5875 -0.264443,-4.32167 0,-0.35249 -2.822222,-6.87917 -6.614724,-3.26334 0.441113,-7.84916 1.499165,-2.64583 2.116666,-4.05695 0.264442,-0.6175 5.644727,0.0883 1.058333,-3.52777 6.438054,3.79222 2.998611,-2.46945 1.851942,-1.5875 0.793891,-0.70555 2.381109,4.93889 0.176671,0.52916 0.969998,1.94028 -0.705556,-3.70417 -0.441113,-2.64583 5.73278,-3.175 6.349999,5.46806 0.35278,0.35277 0,0.26473 3.35139,9.08388 0.44111,1.14667 8.46667,-1.94027 0.088,0.0881 1.23472,2.205 0.35278,0.70556 2.20472,3.79222 -0.088,0.0883 -0.26473,0.35278 -2.02833,2.46944 -1.05833,1.32278 -4.49778,5.64444 -0.26472,0.26473 3.08695,10.23055 1.58721,5.20334 z"
        />
    <path
       inkscape:label="kn0121"
       class="land"
       id="romskog"
       d="m 202.22972,42.598052 1.05833,-9.260558 0,-0.352778 -9.34833,-3.527778 3.88056,-7.761111 4.23333,-4.321528 -3.35139,-5.997222 8.73111,-4.1451387 6.61473,-5.4680556 0.61722,-0.6173611 17.37444,-0.88194445 -0.26472,1.32291665 0.6175,2.9986111 0.17639,3.6159723 -0.26472,0.79375 -0.97,0.9701388 -0.35278,0.881944 0.26444,1.146528 0.97,1.852084 -0.17611,2.204861 0.52917,0.970139 -0.26472,3.351388 0.0883,2.557639 0.61722,0.881945 0.35278,0.08819 -0.79361,1.5875 -1.14667,0 -5.55639,0.08819 -1.67555,2.557639 -0.44112,2.734027 -0.88166,2.55778 -1.05833,2.557498 -0.97028,0.97028 -0.088,0.08805 -0.7939,0.08805 -2.20472,0.176671 -2.91055,0.264442 -2.82223,0.264442 -0.44083,0.08834 -1.05833,0.08834 -0.88223,0.529167 -0.88166,0.440831 -0.6175,0.352778 -3.26305,1.675553 -2.29334,1.235005 -0.35278,0.352778 z"
        />
    <path
       inkscape:label="kn0125"
       class="land"
       id="eidsberg"
       d="m 170.12722,47.448605 1.67556,1.5875 5.90917,8.819444 -0.70556,5.820834 -1.41111,10.406944 0.52888,1.763889 1.58779,6.261947 -18.52112,-4.586111 -0.70527,0.352777 -1.85223,0.705556 -1.41111,1.851942 -0.97,1.411111 -2.29305,-2.028331 -2.73417,-1.852224 -1.76389,3.439724 -1.94028,3.880556 -3.175,-5.203614 -7.14361,-1.411111 0.70528,-2.822222 0.79389,-2.910276 -6.43834,-12.08278 1.14667,-1.852224 3.35139,-4.850553 1.5875,-2.293056 0.61722,-0.529167 1.23501,-1.146386 2.82222,-2.469445 -1.49945,-2.381391 4.85055,-0.352778 1.05834,2.028614 -3.61583,1.410829 3.88055,3.880837 1.23472,1.234723 0.97028,-0.529167 1.5875,-0.97028 6.87917,-4.409722 2.82194,1.763889 0.44111,-4.497776 6.61473,2.116667 3.88055,0.440831 z"
        />
    <path
       inkscape:label="kn0128"
       class="land"
       id="rakkestad"
       d="m 177.71195,82.109163 4.49777,20.461107 -4.49777,14.46389 1.85194,3.96861 1.14667,6.70278 -4.7625,9.34861 -1.41111,1.05833 -2.73417,1.76389 -6.26195,-2.73388 -4.05666,3.43944 -0.97028,0.26472 -5.37972,1.23472 -2.91056,-3.52777 -5.11528,-2.64584 -5.11527,-17.37444 -0.35278,-2.64584 -2.55778,-3.175 -0.17611,-0.70555 -0.17667,-1.05834 -2.29277,-9.70138 -5.02723,-3.527782 -0.79389,-0.529166 -2.02833,-1.058334 0,-0.08834 0.0883,-0.176107 6.52638,-17.198058 7.14361,1.411111 3.175,5.203614 1.94028,-3.880556 1.76389,-3.439724 2.73417,1.852224 2.29305,2.028331 0.97,-1.411111 1.41111,-1.851942 1.85223,-0.705556 0.70527,-0.352777 18.52112,4.586111 z"
        />
    <path
       inkscape:label="kn0122"
       class="land"
       id="trogstad"
       d="m 170.12722,47.448605 -3.88055,-0.440831 -6.61473,-2.116667 -0.44111,4.497776 -2.82194,-1.763889 -6.87917,4.409722 -1.5875,0.97028 -0.97028,0.529167 -1.23472,-1.234723 -3.88055,-3.880837 3.61583,-1.410829 -1.05834,-2.028614 -4.85055,0.352778 -3.61611,-7.319998 -0.79361,-3.527777 -2.73417,-3.527778 -0.44083,-0.617502 4.23333,-0.705556 3.35139,-0.705555 -1.23472,-5.203473 2.02861,-19.4027774 1.76389,-2.4694444 0.70556,-0.88194449 2.55749,1.85208329 2.3814,0.9701389 0.17638,0.088195 0.88195,0.2645833 5.55611,1.5875 2.29305,14.9048613 2.11667,1.852083 1.94028,1.852083 9.87778,7.849447 3.175,8.55472 -3.52778,0.08834 0,0.08805 -0.0881,6.526389 z"
        />
    <path
       inkscape:label="kn0104"
       class="land"
       id="moss"
       d="m 75.141667,69.232774 -0.705556,6.614442 -0.08805,1.5875 -1.235005,11.906391 -6.702495,1.058333 3.175,-6.791113 -4.7625,2.293056 -4.850836,2.381391 -1.763889,0.881944 -0.705555,0.352778 0,-0.176389 0.793609,-1.411111 1.499446,-2.645833 0.08834,0 0.352778,-1.234723 2.822222,-8.202224 0.793609,-2.645833 -0.08805,-1.058334 -0.08834,-2.028331 0.881944,-0.08834 1.323058,-0.08805 0.352778,0.969998 1.5875,3.880556 0.08805,0.08805 2.293056,-2.20472 4.938889,-3.439442 z m -18.873611,16.668609 -8.466667,1.5875 5.027224,-11.641667 4.40944,-10.318609 3.263336,4.850553 -1.411111,5.468056 -2.822222,10.054167 z"
        />
    <path
       inkscape:label="kn0123"
       class="land"
       id="spydeberg"
       d="m 138.28889,23.724299 1.23472,5.203473 -3.35139,0.705555 -4.23333,0.705556 -0.70556,0.97028 -2.11666,2.381109 -2.38111,2.645833 -3.96889,4.409722 -3.26306,3.527778 -1.05833,1.146669 0.44083,1.146386 0.088,0.264725 4.67445,11.200553 0.0883,0.176389 -4.76279,4.586111 -5.46777,5.468056 -0.97028,0.881944 -10.58333,-0.793609 0.44111,-3.968891 0.088,-0.793609 1.41112,-4.409722 0.0883,-4.674447 -0.79389,-3.527777 5.38,-1.851943 1.58722,-2.734168 0,-3.175 0,-1.322776 0,-2.469444 0,-0.793892 3.35167,0.61722 0.0881,-2.910275 0,-0.176389 0.35278,-8.202083 -2.82222,-3.880556 6.26195,-6.085417 4.40944,-0.529166 0.0883,2.998611 3.70417,-2.645833 2.46944,4.850694 6.79083,0.79375 0.97028,0.08819 2.46945,0.176389 z"
        />
    <path
       inkscape:label="kn0136"
       class="land"
       id="rygge"
       d="m 73.113053,89.341107 6.173894,6.261665 -2.734169,3.880555 -1.146387,1.763893 -2.381391,3.43972 -5.37972,8.02555 -1.675836,-2.38111 -0.529166,0.61722 -5.908887,6.96751 -2.028613,-1.5875 0,-0.17667 -1.675554,-7.32 0,-11.288891 0.529167,-2.55778 1.146387,-5.467773 0.705555,-0.352778 1.763889,-0.881944 4.850836,-2.381391 4.7625,-2.293056 -3.175,6.791113 6.702495,-1.058333 z"
        />
    <path
       inkscape:label="kn0137"
       class="land"
       id="valer"
       d="m 103.89306,59.178607 -1.41112,4.409722 -0.088,0.793609 -0.44111,3.968891 10.58333,0.793609 0.6175,2.469445 0.17611,1.5875 1.14667,2.645833 6.52639,14.728613 0.6175,1.675554 0.35278,1.058333 -7.84945,5.468056 -14.375552,-1.5875 -12.08278,-5.026943 -1.499447,5.820834 -6.878884,-2.381391 -6.173894,-6.261665 1.235005,-11.906391 0.08805,-1.5875 0.705556,-6.614442 0.617502,-6.702778 2.469444,2.116667 3.880556,-5.644727 2.645551,0.882227 0.793891,0.352777 4.14528,0.440832 1.940278,-0.529167 12.258891,-0.969998 z"
        />
    <path
       inkscape:label="kn0127"
       class="land"
       id="skiptvedt"
       d="m 130.26305,60.85416 6.43834,12.08278 -0.79389,2.910276 -0.70528,2.822222 -6.52638,17.198058 -0.0883,0.176107 -2.205,1.587782 -2.29278,1.587218 -2.11666,-5.908887 -0.35278,-1.058333 -0.6175,-1.675554 -6.52639,-14.728613 -1.14667,-2.645833 -0.17611,-1.5875 -0.6175,-2.469445 0.97028,-0.881944 5.46777,-5.468056 4.76279,-4.586111 0.0881,0.08834 6.43805,2.557497 z"
        />
    <path
       inkscape:label="kn0124"
       class="land"
       id="askim"
       d="m 139.52361,45.331938 1.49945,2.381391 -2.82222,2.469445 -1.23501,1.146386 -0.61722,0.529167 -1.5875,2.293056 -3.35139,4.850553 -1.14667,1.852224 -6.43805,-2.557497 -0.0881,-0.08834 -0.0883,-0.176389 -4.67445,-11.200553 -0.088,-0.264725 -0.44083,-1.146386 1.05833,-1.146669 3.26306,-3.527778 3.96889,-4.409722 2.38111,-2.645833 2.11666,-2.381109 0.70556,-0.97028 0.44083,0.617502 2.73417,3.527778 0.79361,3.527777 3.61611,7.319998 z"
        />
    <path
       inkscape:label="kn0119"
       class="land"
       id="marker"
       d="m 193.93972,29.456938 9.34833,3.527778 0,0.352778 -1.05833,9.260558 -0.3525,0.440831 -1.05833,1.499164 -1.49945,1.94056 -0.52916,2.20472 -0.61722,2.734169 0.70555,4.056944 0.61722,2.910276 1.23473,6.35 1.41111,7.496669 1.49916,3.615831 0.70556,1.763889 0.70583,3.175 0.61722,5.556391 -0.26472,7.761111 1.58778,3.880556 0.26444,4.321387 0.0883,2.99861 1.49916,3.26334 -0.26472,0.7936 2.205,4.67417 0.88195,2.46973 0.17639,3.08666 0.17638,5.55639 -0.26472,1.76389 0.0883,1.76389 -8.11389,-9.61334 -5.46806,-0.35277 -2.38139,-0.17639 -0.44083,-0.0881 -2.99861,-0.6175 -3.88056,-0.79361 -3.08666,5.64445 -1.5875,-0.0883 -2.38139,-0.17639 -1.94028,-1.41111 -1.85194,-3.96861 4.49777,-14.46389 -4.49777,-20.461107 -1.58779,-6.261947 -0.52888,-1.763889 1.41111,-10.406944 0.70556,-5.820834 -5.90917,-8.819444 3.7925,-1.940278 3.43944,-4.056944 0.17639,-0.08805 -1.49916,-5.556391 1.58721,-0.529166 3.70445,-1.058334 2.5575,-0.881944 4.7625,-6.879167 3.61611,1.411111 z"
        />
    <path
       inkscape:label="kn0135"
       class="land"
       id="rade"
       d="m 99.748058,97.190272 -0.617502,7.055558 -1.322776,3.175 -1.675836,4.32167 -0.176388,0.61722 0.176388,0.44111 0,0.61722 -0.529166,1.41111 -0.176389,0.35278 -0.352778,1.23472 -5.73278,3.175 0.441113,2.64583 0.705556,3.70417 -0.969998,-1.94028 -0.176671,-0.52916 -2.381109,-4.93889 -0.793891,0.70555 -1.851942,1.5875 -2.998611,2.46945 -6.438054,-3.79222 -1.058333,3.52777 -5.644727,-0.0883 1.146669,-2.02833 4.938889,-5.46806 -3.263335,-0.44111 -1.939996,-0.26444 -1.411111,-2.02862 5.37972,-8.02555 2.381391,-3.43972 1.146387,-1.763893 2.734169,-3.880555 6.878884,2.381391 1.499447,-5.820834 12.08278,5.026943 z"
        />
    <path
       inkscape:label="kn0101"
       class="land"
       id="halden"
       d="m 175.94806,137.05416 3.08666,14.64028 0.0883,3.43972 3.96861,12.7 0.17639,0.61722 0.79389,2.46945 5.55611,8.81944 -1.41112,11.46528 5.38001,6.17361 -0.97028,4.7625 -0.26445,1.05833 -1.32305,3.175 -0.44112,1.32306 -0.44083,0.61722 -0.6175,0.26473 -0.17611,0.088 0.0881,0.70555 0.97028,0.61751 0.0881,1.94027 -0.35278,0.17639 -0.70555,1.05834 0.26472,4.23333 -1.235,1.5875 -1.14639,2.20472 0.26472,1.76389 -0.70555,0.0883 -0.79389,-0.0883 -0.0881,0.0883 -0.0883,0.0881 -0.79361,0.6175 0,1.14639 -1.14667,5.46805 -2.73389,-0.79361 -0.26472,0.26445 -0.26444,0.35277 -0.26473,0.26473 -0.52916,0.35278 -0.61751,0.52916 -0.61722,0.26444 -0.96999,0.70556 -0.35278,0.26472 -1.41111,1.05834 -0.44112,0.44083 -0.44111,-0.44083 -0.35278,-0.6175 -0.96999,-0.79361 -0.7939,2.46944 -0.61722,-0.6175 -1.23472,-2.20472 -0.61722,-0.26473 -1.23472,1.32306 -0.70556,1.85194 -0.26472,1.67584 -0.26444,0.70556 -0.0883,0 -0.0881,0.0881 -0.0883,-0.35278 -0.17639,-0.088 -1.05833,0.44083 -1.05833,-0.70556 -0.61722,-0.96999 -1.76389,-1.85223 -0.17639,0.0883 -0.88194,-0.0883 -0.35278,-0.35278 -0.88195,-0.26444 -2.99861,0.35278 -0.44111,0.26444 -0.17639,-0.44083 0.35278,-6.9675 1.23472,-4.32139 0,-2.02861 -0.0881,-0.97 -0.0883,-2.11667 0.52917,-5.29166 -0.52917,-2.02862 -0.35278,-1.32277 0.35278,-0.0883 0.17639,-0.44083 0.0883,-0.0883 0.17638,0 0.0881,-0.0881 0.17639,-0.17639 0.52916,1.14639 1.23473,0.6175 1.05833,-1.32306 -0.44083,-2.11666 -0.17639,-0.35278 -2.205,-5.90889 -3.175,-6.52639 -0.79361,-1.67583 -0.35306,-0.88195 -1.76361,-5.46805 -2.46973,-7.23195 0.17668,-2.3811 -0.44112,-2.20501 -5.46805,-0.96999 -4.93889,2.11666 -2.64584,1.23444 -4.58611,1.23501 -0.26444,0.0881 -0.52917,0.0883 -1.32305,1.49916 -1.14667,0.52917 -1.67556,0.44111 -1.76388,-1.14667 0.44111,-6.61444 4.49777,-5.20361 0.26445,-1.41112 0.0883,-0.26444 1.05834,-5.20361 0.35277,-1.49917 0.26473,-0.52944 14.02277,-21.51917 5.11528,2.64584 2.91056,3.52777 5.37972,-1.23472 0.97028,-0.26472 4.05666,-3.43944 6.26195,2.73388 2.73417,-1.76389 1.41111,-1.05833 z"
        />
    <path
       inkscape:label="kn0111"
       class="land"
       id="hvaler"
       d="m 102.83472,177.79999 1.05834,4.40973 2.82222,-0.26445 1.05833,-2.91055 0.0883,-0.17639 0.35277,0.35277 1.32278,0.88195 1.49945,1.14667 -0.97028,1.41111 -4.40973,5.90889 -1.32277,2.99861 -3.175,4.49805 -0.52945,-0.0883 -2.910276,-0.52917 -0.352777,-0.0881 -0.176389,-0.35278 -0.705556,-1.94028 -0.08834,-0.17639 -0.264443,-0.88194 -0.176388,-0.52917 -0.08805,-4.58611 0,-0.97028 -0.08834,-5.90888 5.820833,-2.99862 0.88194,-0.52944 0.35278,1.32305 z m -10.936109,11.20084 0.08834,2.11667 -0.882227,-0.61751 -0.440831,-0.26472 -13.229167,-9.70111 -0.969998,-7.67306 0,-0.7936 0.176107,-0.26473 3.52806,-4.85083 0.705273,0.6175 9.348894,6.26194 1.322775,5.02695 0.352778,10.1425 z"
        />
    <path
       inkscape:label="kn0138"
       class="land"
       id="hobol"
       d="m 117.38695,17.99166 -6.26195,6.085417 2.82222,3.880556 -0.35278,8.202083 0,0.176389 -0.0881,2.910275 -3.35167,-0.61722 0,0.793892 0,2.469444 0,1.322776 0,3.175 -1.58722,2.734168 -5.38,1.851943 0.79389,3.527777 -0.0883,4.674447 -12.258891,0.969998 -1.940278,0.529167 -4.14528,-0.440832 -0.793891,-0.352777 -2.645551,-0.882227 -3.880556,5.644727 -2.469444,-2.116667 0.61722,-2.116667 0.176389,-3.880555 0.881944,-3.351389 5.909169,-1.852225 0.793609,-0.176388 2.469444,-2.822223 -1.940277,-1.234722 2.822222,-2.55778 1.234722,-0.264442 0.352778,-0.969998 L 88.9,42.156938 l -0.264442,-0.881944 2.998611,-1.499165 -0.529449,-0.705555 -0.440831,-0.882227 0.176389,-0.440831 5.820833,-2.116667 1.146669,-0.529166 0.705273,-0.969998 2.116667,-3.968891 1.14667,3.880555 1.41111,-3.439442 1.23472,-3.086947 -0.97,-1.852083 -1.85222,-3.351389 5.11528,-6.35 6.17361,3.96875 4.49806,-1.940278 z"
        />
    <path
       inkscape:label="kn0105"
       class="land"
       id="sarpsborg"
       d="m 128.5875,96.043603 0,0.08834 2.02833,1.058334 0.79389,0.529166 5.02723,3.527782 2.29277,9.70138 0.17667,1.05834 0.17611,0.70555 2.55778,3.175 0.35278,2.64584 5.11527,17.37444 -14.02277,21.51917 -0.26473,0.52944 -0.35277,1.49917 -1.05834,5.20361 -0.0883,0.26444 -0.26445,1.41112 -4.49777,5.20361 -4.67445,-3.35139 1.5875,-8.20222 0.79361,-2.99862 1.05833,-4.40972 0.17668,-0.88194 -0.52945,0 -4.58583,0 0.35249,7.14389 -2.11666,1.32277 -3.61583,2.20501 -0.61751,0.79361 -1.58721,-5.20334 -3.08695,-10.23055 0.26472,-0.26473 4.49778,-5.64444 1.05833,-1.32278 2.02833,-2.46944 0.26473,-0.35278 0.088,-0.0883 -2.20472,-3.79222 -0.35278,-0.70556 -1.23472,-2.205 -0.088,-0.0881 -8.46667,1.94027 -0.44111,-1.14667 -3.35139,-9.08388 0,-0.26473 -0.35278,-0.35277 -6.349999,-5.46806 0.352778,-1.23472 0.176389,-0.35278 0.529166,-1.41111 0,-0.61722 -0.176388,-0.44111 0.176388,-0.61722 1.675836,-4.32167 1.322776,-3.175 0.617502,-7.055558 14.375552,1.5875 7.84945,-5.468056 2.11666,5.908887 2.29278,-1.587218 2.205,-1.587782 z"
        />
    <path
       inkscape:label="kn0118"
       class="land"
       id="aremark"
       d="m 211.84306,128.67583 0.17638,8.64305 0.26473,6.08528 -0.17667,0.70556 -0.44083,0.44111 -1.94028,1.49916 -0.88195,0.97028 -0.70555,0.70556 -2.46945,4.32139 -0.35277,1.85194 0.17639,1.58778 -0.35278,0.52888 -0.0881,1.32306 -0.79389,2.64584 -0.26444,1.85222 0.0881,1.14639 0,0.88194 0,0.6175 -0.0881,0.3525 0.0881,0.88223 -0.26444,2.73388 0.17639,1.49945 0,0.97 -1.23472,2.46944 -0.52945,1.32306 -0.26444,1.14639 -0.17639,0.61722 0.52917,0.26472 0.70555,1.49945 0.52917,1.94027 -0.44083,3.08667 -0.0883,0.61722 -3.26305,4.14528 -0.52917,0.70555 -1.76389,3.9689 -2.64611,3.52777 -1.23444,1.14639 -5.38001,-6.17361 1.41112,-11.46528 -5.55611,-8.81944 -0.79389,-2.46945 -0.17639,-0.61722 -3.96861,-12.7 -0.0883,-3.43972 -3.08666,-14.64028 4.7625,-9.34861 -1.14667,-6.70278 1.94028,1.41111 2.38139,0.17639 1.5875,0.0883 3.08666,-5.64445 3.88056,0.79361 2.99861,0.6175 0.44083,0.0881 2.38139,0.17639 5.46806,0.35277 8.11389,9.61334 z"
        />
    <text
       sodipodi:linespacing="125%"
       id="text89"
       y="178.12212"
       x="164.15707"
       
       xml:space="preserve"><tspan
         id="tspan91"
         y="178.12212"
         x="164.15707"
         sodipodi:role="line"><tspan
           id="tspan93"
           
           dy="0"
           dx="0">0101</tspan></tspan></text>
    <text
       sodipodi:linespacing="125%"
       id="text95"
       y="144.84731"
       x="192.03857"
       
       xml:space="preserve"><tspan
         id="tspan97"
         y="144.84731"
         x="192.03857"
         sodipodi:role="line"><tspan
           id="tspan99"
           
           dy="0"
           dx="0">0118</tspan></tspan></text>
    <path
       class="land"
       id="path101"
       d="m -0.08819444,70.202772 0,0 z"
        />
    <path
       class="land"
       id="path103"
       d="m -0.08819444,70.202772 0,0"
        />
    <text
       sodipodi:linespacing="125%"
       id="text105"
       y="81.548332"
       x="187.38977"
       
       xml:space="preserve"><tspan
         id="tspan107"
         y="81.548332"
         x="187.38977"
         sodipodi:role="line"><tspan
           id="tspan109"
           
           dy="0"
           dx="0">0119</tspan></tspan></text>
    <text
       sodipodi:linespacing="125%"
       id="text111"
       y="106.57884"
       x="155.29887"
       
       xml:space="preserve"><tspan
         id="tspan113"
         y="106.57884"
         x="155.29887"
         sodipodi:role="line"><tspan
           id="tspan115"
           
           dy="0"
           dx="0">0128</tspan></tspan></text>
    <text
       sodipodi:linespacing="125%"
       id="text117"
       y="124.40343"
       x="119.1581"
       
       xml:space="preserve"><tspan
         id="tspan119"
         y="124.40343"
         x="119.1581"
         sodipodi:role="line"><tspan
           id="tspan121"
           
           dy="0"
           dx="0">0105</tspan></tspan></text>
    <text
       sodipodi:linespacing="125%"
       id="text123"
       y="66.418335"
       x="148.84691"
       
       xml:space="preserve"><tspan
         id="tspan125"
         y="66.418335"
         x="148.84691"
         sodipodi:role="line"><tspan
           id="tspan127"
           
           dy="0"
           dx="0">0125</tspan></tspan></text>
    <text
       sodipodi:linespacing="125%"
       id="text129"
       y="37.558594"
       x="148.64157"
       
       xml:space="preserve"><tspan
         id="tspan131"
         y="37.558594"
         x="148.64157"
         sodipodi:role="line"><tspan
           id="tspan133"
           
           dy="0"
           dx="0">0122</tspan></tspan></text>
    <text
       sodipodi:linespacing="125%"
       id="text135"
       y="49.354774"
       x="126.84669"
       
       xml:space="preserve"><tspan
         id="tspan137"
         y="49.354774"
         x="126.84669"
         sodipodi:role="line"><tspan
           id="tspan139"
           
           dy="0"
           dx="0">0124</tspan></tspan></text>
    <text
       sodipodi:linespacing="125%"
       id="text141"
       y="60.685867"
       x="110.68455"
       
       xml:space="preserve"><tspan
         id="tspan143"
         y="60.685867"
         x="110.68455"
         sodipodi:role="line"><tspan
           id="tspan145"
           
           dy="0"
           dx="0">0123</tspan></tspan></text>
    <text
       sodipodi:linespacing="125%"
       id="text147"
       y="76.688164"
       x="121.07857"
       
       xml:space="preserve"><tspan
         id="tspan149"
         y="76.688164"
         x="121.07857"
         sodipodi:role="line"><tspan
           id="tspan151"
           
           dy="0"
           dx="0">0127</tspan></tspan></text>
    <text
       sodipodi:linespacing="125%"
       id="text153"
       y="81.34507"
       x="90.42997"
       
       xml:space="preserve"><tspan
         id="tspan155"
         y="81.34507"
         x="90.42997"
         sodipodi:role="line"><tspan
           id="tspan157"
           
           dy="0"
           dx="0">0137</tspan></tspan></text>
    <text
       sodipodi:linespacing="125%"
       id="text159"
       y="49.355122"
       x="95.762283"
       
       xml:space="preserve"><tspan
         id="tspan161"
         y="49.355122"
         x="95.762283"
         sodipodi:role="line"><tspan
           id="tspan163"
           
           dy="0"
           dx="0">0138</tspan></tspan></text>
    <text
       sodipodi:linespacing="125%"
       id="text165"
       y="82.106956"
       x="65.328308"
       
       xml:space="preserve"><tspan
         id="tspan167"
         y="82.106956"
         x="65.328308"
         sodipodi:role="line"><tspan
           id="tspan169"
           
           dy="0"
           dx="0">0104</tspan></tspan></text>
    <text
       sodipodi:linespacing="125%"
       id="text171"
       y="101.08736"
       x="62.172089"
       
       xml:space="preserve"><tspan
         id="tspan173"
         y="101.08736"
         x="62.172089"
         sodipodi:role="line"><tspan
           id="tspan175"
           
           dy="0"
           dx="0">0136</tspan></tspan></text>
    <text
       sodipodi:linespacing="125%"
       id="text177"
       y="110.76756"
       x="82.170174"
       
       xml:space="preserve"><tspan
         id="tspan179"
         y="110.76756"
         x="82.170174"
         sodipodi:role="line"><tspan
           id="tspan181"
           
           dy="0"
           dx="0">0135</tspan></tspan></text>
    <text
       sodipodi:linespacing="125%"
       id="text183"
       y="140.58022"
       x="86.792809"
       
       xml:space="preserve"><tspan
         id="tspan185"
         y="140.58022"
         x="86.792809"
         sodipodi:role="line"><tspan
           id="tspan187"
           
           dy="0"
           dx="0">0106</tspan></tspan></text>
    <text
       sodipodi:linespacing="125%"
       id="text189"
       y="180.21397"
       x="81.797073"
       
       xml:space="preserve"><tspan
         id="tspan191"
         y="180.21397"
         x="81.797073"
         sodipodi:role="line"><tspan
           id="tspan193"
           
           dy="0"
           dx="0">0111</tspan></tspan></text>
    <text
       sodipodi:linespacing="125%"
       id="text195"
       y="22.938301"
       x="211.22018"
       
       xml:space="preserve"><tspan
         id="tspan197"
         y="22.938301"
         x="211.22018"
         sodipodi:role="line"><tspan
           id="tspan199"
           
           dy="0"
           dx="0">0121</tspan></tspan></text>
    <text
       sodipodi:linespacing="125%"
       id="text201"
       y="121.01724"
       x="114.86259"
       
       xml:space="preserve"><tspan
         id="tspan203"
         y="121.01724"
         x="114.86259"
         sodipodi:role="line"><tspan
           id="tspan205"
           
           dy="0"
           dx="0">Sar</tspan></tspan></text>
    <text
       sodipodi:linespacing="125%"
       id="text207"
       y="121.01724"
       x="119.40322"
       
       xml:space="preserve"><tspan
         id="tspan209"
         y="121.01724"
         x="119.40322"
         sodipodi:role="line"><tspan
           id="tspan211"
           
           dy="0"
           dx="0">p</tspan></tspan></text>
    <text
       sodipodi:linespacing="125%"
       id="text213"
       y="121.01724"
       x="121.23946"
       
       xml:space="preserve"><tspan
         id="tspan215"
         y="121.01724"
         x="121.23946"
         sodipodi:role="line"><tspan
           id="tspan217"
           
           dy="0"
           dx="0">sbo</tspan></tspan></text>
    <text
       sodipodi:linespacing="125%"
       id="text219"
       y="121.01724"
       x="126.33303"
       
       xml:space="preserve"><tspan
         id="tspan221"
         y="121.01724"
         x="126.33303"
         sodipodi:role="line"><tspan
           id="tspan223"
           
           dy="0"
           dx="0">r</tspan></tspan></text>
    <text
       sodipodi:linespacing="125%"
       id="text225"
       y="121.01724"
       x="127.51469"
       
       xml:space="preserve"><tspan
         id="tspan227"
         y="121.01724"
         x="127.51469"
         sodipodi:role="line"><tspan
           id="tspan229"
           
           dy="0"
           dx="0">g</tspan></tspan></text>
    <text
       sodipodi:linespacing="125%"
       id="text231"
       y="45.968937"
       x="94.328781"
       
       xml:space="preserve"><tspan
         id="tspan233"
         y="45.968937"
         x="94.328781"
         sodipodi:role="line"><tspan
           id="tspan235"
           
           dy="0"
           dx="0">Hobøl</tspan></tspan></text>
    <text
       sodipodi:linespacing="125%"
       id="text237"
       y="57.299683"
       x="106.00921"
       
       xml:space="preserve"><tspan
         id="tspan239"
         y="57.299683"
         x="106.00921"
         sodipodi:role="line"><tspan
           id="tspan241"
           
           dy="0"
           dx="0">S</tspan></tspan></text>
    <text
       sodipodi:linespacing="125%"
       id="text243"
       y="57.299683"
       x="107.63013"
       
       xml:space="preserve"><tspan
         id="tspan245"
         y="57.299683"
         x="107.63013"
         sodipodi:role="line"><tspan
           id="tspan247"
           
           dy="0"
           dx="0">p</tspan></tspan></text>
    <text
       sodipodi:linespacing="125%"
       id="text249"
       y="57.299683"
       x="109.46635"
       
       xml:space="preserve"><tspan
         id="tspan251"
         y="57.299683"
         x="109.46635"
         sodipodi:role="line"><tspan
           id="tspan253"
           
           dy="0"
           dx="0">y</tspan></tspan></text>
    <text
       sodipodi:linespacing="125%"
       id="text255"
       y="57.299683"
       x="111.02182"
       
       xml:space="preserve"><tspan
         id="tspan257"
         y="57.299683"
         x="111.02182"
         sodipodi:role="line"><tspan
           id="tspan259"
           
           dy="0"
           dx="0">debe</tspan></tspan></text>
    <text
       sodipodi:linespacing="125%"
       id="text261"
       y="57.299683"
       x="118.2393"
       
       xml:space="preserve"><tspan
         id="tspan263"
         y="57.299683"
         x="118.2393"
         sodipodi:role="line"><tspan
           id="tspan265"
           
           dy="0"
           dx="0">r</tspan></tspan></text>
    <text
       sodipodi:linespacing="125%"
       id="text267"
       y="57.299683"
       x="119.42096"
       
       xml:space="preserve"><tspan
         id="tspan269"
         y="57.299683"
         x="119.42096"
         sodipodi:role="line"><tspan
           id="tspan271"
           
           dy="0"
           dx="0">g</tspan></tspan></text>
    <text
       sodipodi:linespacing="125%"
       id="text273"
       y="45.968765"
       x="125.38132"
       
       xml:space="preserve"><tspan
         id="tspan275"
         y="45.968765"
         x="125.38132"
         sodipodi:role="line"><tspan
           id="tspan277"
           
           dy="0"
           dx="0">Askim</tspan></tspan></text>
    <text
       sodipodi:linespacing="125%"
       id="text279"
       y="34.172585"
       x="145.39078"
       
       xml:space="preserve"><tspan
         id="tspan281"
         y="34.172585"
         x="145.39078"
         sodipodi:role="line"><tspan
           id="tspan283"
           
           dy="0"
           dx="0">T</tspan></tspan></text>
    <text
       sodipodi:linespacing="125%"
       id="text285"
       y="34.172585"
       x="146.89113"
       
       xml:space="preserve"><tspan
         id="tspan287"
         y="34.172585"
         x="146.89113"
         sodipodi:role="line"><tspan
           id="tspan289"
           
           dy="0"
           dx="0">r</tspan></tspan></text>
    <text
       sodipodi:linespacing="125%"
       id="text291"
       y="34.172585"
       x="148.06418"
       
       xml:space="preserve"><tspan
         id="tspan293"
         y="34.172585"
         x="148.06418"
         sodipodi:role="line"><tspan
           id="tspan295"
           
           dy="0"
           dx="0">øg</tspan></tspan></text>
    <text
       sodipodi:linespacing="125%"
       id="text297"
       y="34.172585"
       x="151.59195"
       
       xml:space="preserve"><tspan
         id="tspan299"
         y="34.172585"
         x="151.59195"
         sodipodi:role="line"><tspan
           id="tspan301"
           
           dy="0"
           dx="0">s</tspan></tspan></text>
    <text
       sodipodi:linespacing="125%"
       id="text303"
       y="34.172585"
       x="152.9321"
       
       xml:space="preserve"><tspan
         id="tspan305"
         y="34.172585"
         x="152.9321"
         sodipodi:role="line"><tspan
           id="tspan307"
           
           dy="0"
           dx="0">t</tspan></tspan></text>
    <text
       sodipodi:linespacing="125%"
       id="text309"
       y="34.172585"
       x="154.07069"
       
       xml:space="preserve"><tspan
         id="tspan311"
         y="34.172585"
         x="154.07069"
         sodipodi:role="line"><tspan
           id="tspan313"
           
           dy="0"
           dx="0">ad</tspan></tspan></text>
    <text
       sodipodi:linespacing="125%"
       id="text315"
       y="63.031975"
       x="145.59955"
       
       xml:space="preserve"><tspan
         id="tspan317"
         y="63.031975"
         x="145.59955"
         sodipodi:role="line"><tspan
           id="tspan319"
           
           dy="0"
           dx="0">Eidsbe</tspan></tspan></text>
    <text
       sodipodi:linespacing="125%"
       id="text321"
       y="63.031975"
       x="154.97366"
       
       xml:space="preserve"><tspan
         id="tspan323"
         y="63.031975"
         x="154.97366"
         sodipodi:role="line"><tspan
           id="tspan325"
           
           dy="0"
           dx="0">r</tspan></tspan></text>
    <text
       sodipodi:linespacing="125%"
       id="text327"
       y="63.031975"
       x="156.15532"
       
       xml:space="preserve"><tspan
         id="tspan329"
         y="63.031975"
         x="156.15532"
         sodipodi:role="line"><tspan
           id="tspan331"
           
           dy="0"
           dx="0">g</tspan></tspan></text>
    <text
       sodipodi:linespacing="125%"
       id="text333"
       y="78.162148"
       x="185.04434"
       
       xml:space="preserve"><tspan
         id="tspan335"
         y="78.162148"
         x="185.04434"
         sodipodi:role="line"><tspan
           id="tspan337"
           
           dy="0"
           dx="0">Mar</tspan></tspan></text>
    <text
       sodipodi:linespacing="125%"
       id="text339"
       y="78.162148"
       x="190.98024"
       
       xml:space="preserve"><tspan
         id="tspan341"
         y="78.162148"
         x="190.98024"
         sodipodi:role="line"><tspan
           id="tspan343"
           
           dy="0"
           dx="0">k</tspan></tspan></text>
    <text
       sodipodi:linespacing="125%"
       id="text345"
       y="78.162148"
       x="192.47025"
       
       xml:space="preserve"><tspan
         id="tspan347"
         y="78.162148"
         x="192.47025"
         sodipodi:role="line"><tspan
           id="tspan349"
           
           dy="0"
           dx="0">er</tspan></tspan></text>
    <text
       sodipodi:linespacing="125%"
       id="text351"
       y="103.19249"
       x="150.92154"
       
       xml:space="preserve"><tspan
         id="tspan353"
         y="103.19249"
         x="150.92154"
         sodipodi:role="line"><tspan
           id="tspan355"
           
           dy="0"
           dx="0">Rak</tspan></tspan></text>
    <text
       sodipodi:linespacing="125%"
       id="text357"
       y="103.19249"
       x="156.13052"
       
       xml:space="preserve"><tspan
         id="tspan359"
         y="103.19249"
         x="156.13052"
         sodipodi:role="line"><tspan
           id="tspan361"
           
           dy="0"
           dx="0">k</tspan></tspan></text>
    <text
       sodipodi:linespacing="125%"
       id="text363"
       y="103.19249"
       x="157.62053"
       
       xml:space="preserve"><tspan
         id="tspan365"
         y="103.19249"
         x="157.62053"
         sodipodi:role="line"><tspan
           id="tspan367"
           
           dy="0"
           dx="0">e</tspan></tspan></text>
    <text
       sodipodi:linespacing="125%"
       id="text369"
       y="103.19249"
       x="159.37581"
       
       xml:space="preserve"><tspan
         id="tspan371"
         y="103.19249"
         x="159.37581"
         sodipodi:role="line"><tspan
           id="tspan373"
           
           dy="0"
           dx="0">s</tspan></tspan></text>
    <text
       sodipodi:linespacing="125%"
       id="text375"
       y="103.19249"
       x="160.71594"
       
       xml:space="preserve"><tspan
         id="tspan377"
         y="103.19249"
         x="160.71594"
         sodipodi:role="line"><tspan
           id="tspan379"
           
           dy="0"
           dx="0">t</tspan></tspan></text>
    <text
       sodipodi:linespacing="125%"
       id="text381"
       y="103.19249"
       x="161.85455"
       
       xml:space="preserve"><tspan
         id="tspan383"
         y="103.19249"
         x="161.85455"
         sodipodi:role="line"><tspan
           id="tspan385"
           
           dy="0"
           dx="0">ad</tspan></tspan></text>
    <text
       sodipodi:linespacing="125%"
       id="text387"
       y="141.46112"
       x="188.73886"
       
       xml:space="preserve"><tspan
         id="tspan389"
         y="141.46112"
         x="188.73886"
         sodipodi:role="line"><tspan
           id="tspan391"
           
           dy="0"
           dx="0">A</tspan></tspan></text>
    <text
       sodipodi:linespacing="125%"
       id="text393"
       y="141.46112"
       x="190.78009"
       
       xml:space="preserve"><tspan
         id="tspan395"
         y="141.46112"
         x="190.78009"
         sodipodi:role="line"><tspan
           id="tspan397"
           
           dy="0"
           dx="0">r</tspan></tspan></text>
    <text
       sodipodi:linespacing="125%"
       id="text399"
       y="141.46112"
       x="191.96347"
       
       xml:space="preserve"><tspan
         id="tspan401"
         y="141.46112"
         x="191.96347"
         sodipodi:role="line"><tspan
           id="tspan403"
           
           dy="0"
           dx="0">emark</tspan></tspan></text>
    <text
       sodipodi:linespacing="125%"
       id="text405"
       y="174.73593"
       x="161.93826"
       
       xml:space="preserve"><tspan
         id="tspan407"
         y="174.73593"
         x="161.93826"
         sodipodi:role="line"><tspan
           id="tspan409"
           
           dy="0"
           dx="0">Halden</tspan></tspan></text>
    <text
       sodipodi:linespacing="125%"
       id="text411"
       y="176.82779"
       x="80.045761"
       
       xml:space="preserve"><tspan
         id="tspan413"
         y="176.82779"
         x="80.045761"
         sodipodi:role="line"><tspan
           id="tspan415"
           
           dy="0"
           dx="0">H</tspan></tspan></text>
    <text
       sodipodi:linespacing="125%"
       id="text417"
       y="176.82779"
       x="82.243729"
       
       xml:space="preserve"><tspan
         id="tspan419"
         y="176.82779"
         x="82.243729"
         sodipodi:role="line"><tspan
           id="tspan421"
           
           dy="0"
           dx="0">v</tspan></tspan></text>
    <text
       sodipodi:linespacing="125%"
       id="text423"
       y="176.82779"
       x="83.785408"
       
       xml:space="preserve"><tspan
         id="tspan425"
         y="176.82779"
         x="83.785408"
         sodipodi:role="line"><tspan
           id="tspan427"
           
           dy="0"
           dx="0">aler</tspan></tspan></text>
    <text
       sodipodi:linespacing="125%"
       id="text429"
       y="137.19403"
       x="81.630844"
       
       xml:space="preserve"><tspan
         id="tspan431"
         y="137.19403"
         x="81.630844"
         sodipodi:role="line"><tspan
           id="tspan433"
           
           dy="0"
           dx="0">F</tspan></tspan></text>
    <text
       sodipodi:linespacing="125%"
       id="text435"
       y="137.19403"
       x="83.251762"
       
       xml:space="preserve"><tspan
         id="tspan437"
         y="137.19403"
         x="83.251762"
         sodipodi:role="line"><tspan
           id="tspan439"
           
           dy="0"
           dx="0">r</tspan></tspan></text>
    <text
       sodipodi:linespacing="125%"
       id="text441"
       y="137.19403"
       x="84.435158"
       
       xml:space="preserve"><tspan
         id="tspan443"
         y="137.19403"
         x="84.435158"
         sodipodi:role="line"><tspan
           id="tspan445"
           
           dy="0"
           dx="0">edri</tspan></tspan></text>
    <text
       sodipodi:linespacing="125%"
       id="text447"
       y="137.19403"
       x="90.083389"
       
       xml:space="preserve"><tspan
         id="tspan449"
         y="137.19403"
         x="90.083389"
         sodipodi:role="line"><tspan
           id="tspan451"
           
           dy="0"
           dx="0">k</tspan></tspan></text>
    <text
       sodipodi:linespacing="125%"
       id="text453"
       y="137.19403"
       x="91.65435"
       
       xml:space="preserve"><tspan
         id="tspan455"
         y="137.19403"
         x="91.65435"
         sodipodi:role="line"><tspan
           id="tspan457"
           
           dy="0"
           dx="0">s</tspan></tspan></text>
    <text
       sodipodi:linespacing="125%"
       id="text459"
       y="137.19403"
       x="92.994499"
       
       xml:space="preserve"><tspan
         id="tspan461"
         y="137.19403"
         x="92.994499"
         sodipodi:role="line"><tspan
           id="tspan463"
           
           dy="0"
           dx="0">t</tspan></tspan></text>
    <text
       sodipodi:linespacing="125%"
       id="text465"
       y="137.19403"
       x="94.133102"
       
       xml:space="preserve"><tspan
         id="tspan467"
         y="137.19403"
         x="94.133102"
         sodipodi:role="line"><tspan
           id="tspan469"
           
           dy="0"
           dx="0">ad</tspan></tspan></text>
    <text
       sodipodi:linespacing="125%"
       id="text471"
       y="107.38155"
       x="81.423973"
       
       xml:space="preserve"><tspan
         id="tspan473"
         y="107.38155"
         x="81.423973"
         sodipodi:role="line"><tspan
           id="tspan475"
           
           dy="0"
           dx="0">Råde</tspan></tspan></text>
    <text
       sodipodi:linespacing="125%"
       id="text477"
       y="77.958885"
       x="89.645859"
       
       xml:space="preserve"><tspan
         id="tspan479"
         y="77.958885"
         x="89.645859"
         sodipodi:role="line"><tspan
           id="tspan481"
           
           dy="0"
           dx="0">V</tspan></tspan></text>
    <text
       sodipodi:linespacing="125%"
       id="text483"
       y="77.958885"
       x="91.451096"
       
       xml:space="preserve"><tspan
         id="tspan485"
         y="77.958885"
         x="91.451096"
         sodipodi:role="line"><tspan
           id="tspan487"
           
           dy="0"
           dx="0">åler</tspan></tspan></text>
    <text
       sodipodi:linespacing="125%"
       id="text489"
       y="78.720596"
       x="64.371094"
       
       xml:space="preserve"><tspan
         id="tspan491"
         y="78.720596"
         x="64.371094"
         sodipodi:role="line"><tspan
           id="tspan493"
           
           dy="0"
           dx="0">Moss</tspan></tspan></text>
    <text
       sodipodi:linespacing="125%"
       id="text495"
       y="97.701347"
       x="60.787674"
       
       xml:space="preserve"><tspan
         id="tspan497"
         y="97.701347"
         x="60.787674"
         sodipodi:role="line"><tspan
           id="tspan499"
           
           dy="0"
           dx="0">R</tspan></tspan></text>
    <text
       sodipodi:linespacing="125%"
       id="text501"
       y="97.701347"
       x="62.646305"
       
       xml:space="preserve"><tspan
         id="tspan503"
         y="97.701347"
         x="62.646305"
         sodipodi:role="line"><tspan
           id="tspan505"
           
           dy="0"
           dx="0">y</tspan></tspan></text>
    <text
       sodipodi:linespacing="125%"
       id="text507"
       y="97.701347"
       x="64.198318"
       
       xml:space="preserve"><tspan
         id="tspan509"
         y="97.701347"
         x="64.198318"
         sodipodi:role="line"><tspan
           id="tspan511"
           
           dy="0"
           dx="0">g</tspan></tspan></text>
    <text
       sodipodi:linespacing="125%"
       id="text513"
       y="97.701347"
       x="65.891586"
       
       xml:space="preserve"><tspan
         id="tspan515"
         y="97.701347"
         x="65.891586"
         sodipodi:role="line"><tspan
           id="tspan517"
           
           dy="0"
           dx="0">g</tspan></tspan></text>
    <text
       sodipodi:linespacing="125%"
       id="text519"
       y="97.701347"
       x="67.522835"
       
       xml:space="preserve"><tspan
         id="tspan521"
         y="97.701347"
         x="67.522835"
         sodipodi:role="line"><tspan
           id="tspan523"
           
           dy="0"
           dx="0">e</tspan></tspan></text>
    <text
       sodipodi:linespacing="125%"
       id="text525"
       y="73.302498"
       x="117.23781"
       
       xml:space="preserve"><tspan
         id="tspan527"
         y="73.302498"
         x="117.23781"
         sodipodi:role="line"><tspan
           id="tspan529"
           
           dy="0"
           dx="0">Ski</tspan></tspan></text>
    <text
       sodipodi:linespacing="125%"
       id="text531"
       y="73.302498"
       x="121.27201"
       
       xml:space="preserve"><tspan
         id="tspan533"
         y="73.302498"
         x="121.27201"
         sodipodi:role="line"><tspan
           id="tspan535"
           
           dy="0"
           dx="0">p</tspan></tspan></text>
    <text
       sodipodi:linespacing="125%"
       id="text537"
       y="73.302498"
       x="123.10997"
       
       xml:space="preserve"><tspan
         id="tspan539"
         y="73.302498"
         x="123.10997"
         sodipodi:role="line"><tspan
           id="tspan541"
           
           dy="0"
           dx="0">t</tspan></tspan></text>
    <text
       sodipodi:linespacing="125%"
       id="text543"
       y="73.302498"
       x="124.29164"
       
       xml:space="preserve"><tspan
         id="tspan545"
         y="73.302498"
         x="124.29164"
         sodipodi:role="line"><tspan
           id="tspan547"
           
           dy="0"
           dx="0">v</tspan></tspan></text>
    <text
       sodipodi:linespacing="125%"
       id="text549"
       y="73.302498"
       x="125.85054"
       
       xml:space="preserve"><tspan
         id="tspan551"
         y="73.302498"
         x="125.85054"
         sodipodi:role="line"><tspan
           id="tspan553"
           
           dy="0"
           dx="0">edt</tspan></tspan></text>
    <text
       sodipodi:linespacing="125%"
       id="text555"
       y="19.551945"
       x="207.62419"
       
       xml:space="preserve"><tspan
         id="tspan557"
         y="19.551945"
         x="207.62419"
         sodipodi:role="line"><tspan
           id="tspan559"
           
           dy="0"
           dx="0">R</tspan></tspan></text>
    <text
       sodipodi:linespacing="125%"
       id="text561"
       y="19.551945"
       x="209.46732"
       
       xml:space="preserve"><tspan
         id="tspan563"
         y="19.551945"
         x="209.46732"
         sodipodi:role="line"><tspan
           id="tspan565"
           
           dy="0"
           dx="0">øms</tspan></tspan></text>
    <text
       sodipodi:linespacing="125%"
       id="text567"
       y="19.551945"
       x="215.53241"
       
       xml:space="preserve"><tspan
         id="tspan569"
         y="19.551945"
         x="215.53241"
         sodipodi:role="line"><tspan
           id="tspan571"
           
           dy="0"
           dx="0">k</tspan></tspan></text>
    <text
       sodipodi:linespacing="125%"
       id="text573"
       y="19.551945"
       x="217.01724"
       
       xml:space="preserve"><tspan
         id="tspan575"
         y="19.551945"
         x="217.01724"
         sodipodi:role="line"><tspan
           id="tspan577"
           
           dy="0"
           dx="0">og</tspan></tspan></text>
  </g>
</svg>
