<?xml version="1.0" encoding="UTF-8" standalone="no"?>
<svg
   xmlns:dc="http://purl.org/dc/elements/1.1/"
   xmlns:cc="http://creativecommons.org/ns#"
   xmlns:rdf="http://www.w3.org/1999/02/22-rdf-syntax-ns#"
   xmlns:svg="http://www.w3.org/2000/svg"
   xmlns="http://www.w3.org/2000/svg"
   xmlns:sodipodi="http://sodipodi.sourceforge.net/DTD/sodipodi-0.dtd"
   xmlns:inkscape="http://www.inkscape.org/namespaces/inkscape"
   version="1.0"
   width="100%"
   height="100%"
   id="svg2"
   inkscape:version="0.91 r13725"
   viewBox="0 0 210.88774 193.42099"
   sodipodi:docname="sogn_og_fjordane_kommuner.svg">
  <metadata
     id="metadata749">
    <rdf:RDF>
      <cc:Work
         rdf:about="">
        <dc:format>image/svg+xml</dc:format>
        <dc:type
           rdf:resource="http://purl.org/dc/dcmitype/StillImage" />
        <dc:title></dc:title>
      </cc:Work>
    </rdf:RDF>
  </metadata>
  <sodipodi:namedview
     pagecolor="#ffffff"
     bordercolor="#666666"
     borderopacity="1"
     objecttolerance="10"
     gridtolerance="10"
     guidetolerance="10"
     inkscape:pageopacity="0"
     inkscape:pageshadow="2"
     inkscape:window-width="1440"
     inkscape:window-height="851"
     id="namedview747"
     inkscape:document-units="mm"
     showgrid="false"
     inkscape:zoom="0.96487103"
     inkscape:cx="306.54904"
     inkscape:cy="297.1766"
     inkscape:window-x="0"
     inkscape:window-y="0"
     inkscape:window-maximized="1"
     inkscape:current-layer="svg2" />
  <defs
     id="defs4">
    <pattern
       id="EMFhbasepattern"
       patternUnits="userSpaceOnUse"
       width="6"
       height="6"
       x="0"
       y="0" />
  </defs>
  <g
     id="gsognogfjordane"
     inkscape:label="g14">
    <path
       inkscape:label="kn1428"
       class="land"
       id="askvoll"
       d="m 26.370139,98.513336 -3.086806,1.851944 -3.792361,-4.674167 3.175,-3.175 3.439584,1.322776 0.617361,4.321669 -0.352778,0.352778 z m 15.257639,-14.905003 5.556109,3.263336 0.176671,-2.028613 3.79222,1.146668 -0.08805,2.469445 0,0.61722 2.469163,0.881944 2.293337,0.793891 1.322776,1.763889 -7.32028,0 -0.176389,0.969998 -0.440831,1.940278 -0.441113,-0.264442 -0.176389,0 -3.527778,1.322775 -0.881662,0 -3.351671,-0.08805 -4.674165,0.264442 0,0.08834 -1.058333,1.940277 -3.439725,0.969998 -1.675553,-0.529166 1.234722,-1.411112 -3.175,0.176389 0.264725,-5.468055 4.321386,1.763889 0.705556,-3.527778 2.557498,-0.61722 -0.08805,-0.176389 -0.176388,-1.763889 -1.940278,0.529167 -6.085417,1.411111 -0.881944,-2.116667 4.762641,-2.116666 2.82194,0 2.998893,0 0.529167,0.08805 2.733886,0.529167 0.08805,-0.529167 0.97028,-2.293056 z"
        />
    <path
       inkscape:label="kn1431"
       class="land"
       id="jolster"
       d="m 131.67416,81.138889 -3.08666,4.233333 -7.58472,8.113889 -0.61722,0.705556 -0.70584,0.705555 -1.85194,2.028614 0.44111,-2.028614 0.17639,-0.61722 0,-0.176389 -1.94056,-2.381391 -0.88166,1.323058 -0.70556,1.058333 -0.79389,-0.441113 -3.96889,-1.675553 -2.46916,1.146386 -0.17639,0.08834 -2.29334,0.881944 -6.438052,-0.441113 -7.584722,2.469444 -3.439443,-2.910275 -2.205002,0.352778 -2.910558,0.61722 -0.264442,-0.176389 -1.675553,-1.499165 3.79222,-5.997222 3.439442,-1.234722 5.11556,-1.940278 2.028331,-4.056944 4.586111,-2.028614 0.08834,-3.704166 2.557502,-0.352778 0,3.704167 2.99861,1.675835 2.46944,-4.409722 1.41111,-0.08834 1.76389,-0.08805 2.99861,-0.08834 0,0 0.97028,0 0.17639,0 2.02833,2.293056 4.14528,-3.175 0.35278,-0.352778 0.61722,-0.440831 3.43972,-2.645833 0.3525,4.144998 0.35278,0.176388 1.05833,0.352778 0.88223,0.441114 -0.26473,2.381108 0.44083,0.441114 3.175,3.615831 z"
        />
    <path
       inkscape:label="kn1417"
       class="land"
       id="vik"
       d="m 131.58611,150.01889 -1.49916,0.97 -10.31889,0.17639 -3.70417,7.14389 -1.76389,0.35278 -1.05833,-3.175 -2.02862,-0.70556 -0.44083,3.88056 -6.9675,3.08666 -2.11667,-2.38111 0.88223,-1.32306 -1.49945,-3.175 -2.293052,2.20501 -0.264725,0.26444 -2.822222,-1.05833 -5.37972,4.93888 -4.7625,-4.49777 -3.79222,-3.43973 1.411111,-5.11527 1.939996,-6.87917 2.028613,-7.05556 1.851942,0.97028 1.94056,0.44084 2.20472,0.44111 0.97028,2.20472 -0.882226,1.14667 -1.322776,1.85194 -0.529167,0.70556 1.499447,0.97028 1.322776,-1.67584 0.793891,-0.97 3.175,0.26444 -0.264725,0.70556 -1.940277,3.7925 0.08834,0.17639 1.940278,1.14639 0.528884,-0.70556 1.587787,-2.20472 0.44083,-2.205 0.0881,-0.17639 3.52778,-1.76389 0.0883,0 2.64584,-2.11666 1.49916,1.32305 0.88223,0.61722 0.61722,-1.32277 2.82222,-6.26195 0.52917,-1.23472 0.088,-0.0881 1.235,1.14638 2.5575,2.55778 1.49917,0.26444 1.05833,0.0883 1.05833,0.17639 2.11667,0.35278 2.205,2.82222 -0.17639,2.99861 0.35278,0.61722 1.14639,1.94028 0.17667,0 2.20472,0.26472 0.79361,0.0881 1.14667,0.0883 0.52916,3.43944 0.17639,1.85223 0.17639,1.05833 z"
        />
    <path
       inkscape:label="kn1420"
       class="land"
       id="sogndal"
       d="m 155.04583,133.9675 0.52917,0.52917 -0.97028,0.35278 -1.58722,0.52916 -1.14667,0.26445 -1.5875,0.52916 -0.6175,-0.52916 -2.73389,-2.11667 -0.35277,-0.26444 -1.94028,0.61722 -1.85194,1.67583 -0.97028,1.49917 -4.14528,-0.61722 -0.61722,-0.17639 -1.67556,0.88194 -0.52945,0.35278 -2.46944,1.85194 -0.70556,-0.17639 -1.85194,-0.70555 -0.44083,-2.91028 0.35278,0 2.91027,-0.0883 0.79361,-0.61722 1.67584,-1.14667 3.08695,-2.82222 2.02833,-0.17639 2.11666,-0.44083 0.88195,-0.0883 -2.5575,-1.23472 0.44083,-0.97 0.52917,-0.79389 0.97028,-1.41111 1.67555,-1.49917 -0.0881,-0.70555 -0.17667,-1.14667 -2.5575,2.02861 -0.6175,1.14639 -0.3525,0.35278 -1.85222,1.76389 -0.0881,0.26472 -2.46944,1.85194 -2.46945,2.82222 -2.55778,0.97028 -3.26305,-1.67583 0.70527,-0.79361 0.70556,-0.88194 0.26472,-0.26473 0.35278,-6.17361 1.85194,-0.88194 -0.70527,-2.29306 -1.49945,0 -0.44083,-4.05694 -4.85083,0.44111 -0.17639,-1.85223 -1.94028,-0.61722 -0.17639,0.0881 -2.29305,0.97028 -0.26445,1.76389 -0.26472,2.99861 -2.64583,-1.23472 1.32305,-0.97028 0.61722,-1.32278 2.55778,-5.11528 2.38111,-5.29166 0.44112,-0.97028 0.44083,-2.73389 0.17639,-0.6175 -2.55778,1.49944 -0.97,3.61583 -0.79389,2.46945 -2.91028,2.82222 -0.088,0.0883 -1.49945,3.61583 -0.52916,0.52916 -0.70556,0.7939 -0.6175,-0.88195 -0.35278,-0.44111 0.35278,-6.96722 1.58778,-1.5875 -0.70556,-2.99861 2.29278,-2.02862 -0.52889,-0.96999 -0.17639,-0.52917 -0.17638,-0.35278 -3.08695,-0.79389 4.93889,-3.086664 1.85194,-2.028614 0.70584,-0.705555 0.61722,-0.705556 7.58472,-8.113889 0.26472,3.175 2.5575,1.499447 0.35278,2.116667 0.52917,3.880555 -0.70556,6.173609 -1.67555,1.67556 4.58583,1.23472 -1.14639,4.14528 1.05833,0.79361 2.46945,2.02861 2.91027,7.05556 1.05834,0.26444 3.175,0.97028 0.97028,0.26444 0,1.67584 1.94027,-1.14667 4.49778,4.7625 2.29334,7.84944 1.32277,0.17639 z"
        />
    <path
       inkscape:label="kn1412"
       class="land"
       id="solund"
       d="M 5.9090278,131.32167 4.0569444,135.64306 1.5875,134.40833 0,130.35139 l 2.8222222,-5.29167 2.2048611,0.6175 -0.6173611,3.70417 1.0583334,0.97 0.4409722,0.97028 z M 23.283333,116.76944 22.225,123.825 l -3.527778,2.99861 -1.5875,1.49945 -1.146528,-3.52778 -4.7625,3.175 -4.056944,3.26305 0,-6.96722 4.586111,-2.29305 0.529167,-4.14528 2.204861,-1.23472 2.116667,3.175 0.705555,-8.20195 5.997222,2.99861 -0.176389,2.02834 0.176389,0.17638 z"
        />
    <path
       inkscape:label="kn1401"
       class="land"
       id="flora"
       d="m 25.840972,60.677778 -2.822222,0 0.264583,-5.026942 3.439584,-1.499447 -0.617361,5.909169 -0.264584,0.61722 z m 41.274859,-3.79222 0.97028,2.469444 0.08805,0.08805 1.5875,3.968891 -2.557497,4.850553 -1.763889,3.527778 0.705555,2.910558 2.734169,0.793608 0.529167,2.381392 0,0.08805 -0.08834,0.08834 -2.645833,0.440832 -0.617502,0.176388 -3.880274,0.617503 -0.97028,0.264442 0.08805,2.469444 L 60.236664,82.55 59.619444,82.814724 57.238053,82.55 42.774164,80.874447 42.686111,81.138889 41.275,80.698058 l -1.851942,-0.793891 -0.882227,-0.440831 0.441113,-1.940278 0.176389,-0.793891 0.529167,-1.940278 4.233333,2.469444 2.20472,-0.440831 0.617503,-1.5875 -2.645834,-2.116666 -1.852224,-1.499447 8.113889,0.97028 1.499446,-2.293056 -4.321669,-0.176389 -3.351106,-0.617502 -5.380002,-0.264442 -8.555003,1.851942 -1.058333,-0.705555 0.617502,-1.763889 2.028331,-1.411111 6.702778,-0.08805 2.910558,-0.08834 4.233333,0.529166 2.910276,0.264725 1.852224,0 0.969998,-1.323058 -0.176389,-0.881944 -4.233333,-1.675554 0,0 -3.968609,-0.617502 -5.027225,0.08834 -3.79222,0 -1.763888,-1.058334 -1.234723,-0.793891 -0.176389,-2.469444 0.61722,-1.675554 1.058334,0.793609 3.263335,2.469445 3.439725,0.529166 0.264442,-1.5875 3.175,2.910558 6.35,-0.97028 -1.234722,-4.674164 4.497775,1.411111 2.734169,-2.998611 5.026942,-0.793891 3.439725,-0.61722 0.529167,0.529166 0.264442,0.176389 2.645833,2.293056 z"
        />
    <path
       inkscape:label="kn1416"
       class="land"
       id="hoyanger"
       d="m 76.640831,130.52778 2.998893,2.64583 0.969998,0 3.880556,-0.17639 1.499446,0.70556 1.146387,0.52916 -2.028613,7.05556 -1.939996,6.87917 -3.880555,-2.38111 -2.646116,-4.49806 0,0 -0.08805,0 -5.291667,1.94028 -3.351389,6.61472 -1.146386,-0.17639 -3.175,-4.32167 -3.351672,1.49945 -2.292773,1.05833 -4.498058,-3.175 -0.617502,-3.43972 -0.176107,-0.97 -0.264724,-1.76389 1.5875,-2.64583 -1.411111,-0.70556 1.411111,-1.85222 0.176389,-0.088 1.675835,1.23472 0.529167,0.35278 1.410829,-0.61751 -0.529167,-0.70555 -0.881662,-1.14639 1.851942,-1.85222 2.028331,0.97028 0.35306,0.26444 3.79222,-0.88194 0.881945,-1.32278 1.675835,0.70556 -0.793891,3.61583 -1.058333,1.49944 0.176389,1.14639 1.675835,-0.70556 1.146387,-2.11666 0.08805,0 1.058334,-0.26444 0.793891,-0.17639 0,-0.26473 -0.264725,-1.67555 1.852225,-1.94028 4.674164,0.88195 0.352778,0.26444 z m 11.200836,-17.72694 1.146386,3.43944 3.616114,-2.82222 5.820833,0 0.08805,2.55778 3.263337,3.175 -1.41111,1.49916 -4.056947,-0.88194 -6.790831,2.46944 -1.411111,1.5875 -3.086947,3.175 -0.08805,0.44111 -0.352778,0.0881 -0.617502,0.17639 -2.116667,0.17638 -0.264724,0 -2.998329,-1.49916 3.175,-2.38139 1.763889,-1.5875 -0.617502,-1.41111 -1.234722,-0.17639 -0.705556,1.5875 -3.263336,1.5875 -2.733886,2.11667 -3.263054,0.17638 -3.086946,-1.67555 0.176389,-2.38139 0,-0.17639 -0.352778,-2.11667 -2.20472,2.64584 -0.08834,0.17639 -0.617502,1.85222 -3.439442,-1.41111 -0.881945,3.08666 -0.97028,-0.44083 -3.439442,-1.41111 -2.116666,2.91028 0,0 -4.850836,3.175 -0.705556,0.0883 -3.439442,0.35278 -0.529166,0 -1.763889,0.17639 2.733886,-3.26334 0.352778,-2.91027 0.529167,-3.52778 0.617502,-4.58611 8.995833,4.40972 0.440831,-0.6175 0.705556,-1.05833 2.116949,-2.99861 0.176389,0 0.176106,-0.0881 2.116667,-0.97028 1.675836,-0.79361 4.233333,1.14639 0.969998,0.26472 0.35306,0.0881 3.263053,-2.73389 2.293056,-1.85222 12.7,1.14667 z"
        />
    <path
       inkscape:label="kn1422"
       class="land"
       id="lardal"
       d="m 171.09722,175.68333 -3.35139,-2.20472 -8.73111,-12.7 -4.58611,-3.70416 -0.97028,0 -2.82222,0 0,-7.05556 0,-0.0883 -0.26472,0.0883 -2.99833,1.05833 -4.23334,-1.94027 -1.32305,-3.08695 -5.20362,1.76389 -0.1761,-0.79361 -0.17639,-0.44111 -0.35306,-0.61722 -1.41111,-0.0883 0.17667,-0.61722 -0.97028,-2.91056 1.49944,-1.05833 0.79361,-0.61722 6.43834,0.44083 1.41111,0.0883 3.08666,-2.91056 1.85223,0.44111 0.26444,0 1.14667,0.61722 0.61722,0.35278 1.41111,0.6175 0.61722,0.26444 0.6175,0.70556 1.49917,1.76389 0.6175,0.70555 3.175,0.0883 -1.14639,-2.55778 0,-0.17639 -2.55778,-2.38111 -0.79361,-0.6175 -0.35306,-0.35278 2.02862,-0.79361 3.70416,-1.41111 1.14667,-0.35278 0.26445,0.70556 0,0.0881 -0.52917,0.88195 -1.05833,1.76389 6.35,1.5875 0.97028,1.05833 2.55749,2.73417 8.81945,-0.0883 1.14667,-0.70555 -1.49945,-1.94028 -0.88194,-1.05833 6.61472,-1.5875 1.41111,-3.61583 2.5575,-0.44112 -0.52917,-2.46944 3.43973,-0.26444 2.38111,2.02833 -0.70556,3.175 -0.35278,1.49944 1.85223,0.0881 0,0.17639 0.35277,1.41111 0.35278,1.05833 1.67556,5.82083 6.17361,4.85084 -2.38111,2.02833 3.61583,2.73417 -1.76389,2.82222 -2.02833,0.26444 -0.35278,4.23334 -3.70417,-2.11667 -0.17638,0.17639 -7.32028,9.43695 -5.82084,-1.14667 -2.82222,-3.43945 -4.67445,2.73389 -1.93999,3.26334 -1.67584,2.73388 z"
        />
    <path
       inkscape:label="kn1432"
       class="land"
       id="forde"
       d="m 117.82778,96.925836 -4.93889,3.086664 -2.11667,2.11667 -0.88194,0.79389 -6.35,6.08527 -0.17639,0.0883 -2.11667,-1.41111 -0.17639,-0.17639 0.26473,-3.52778 -1.499449,-1.05833 -3.086947,-2.11667 -2.645551,0.26444 -4.410004,0.52917 -0.352778,-0.17639 -1.851942,-0.97 -1.763889,3.08667 -2.381391,-1.67556 -7.319998,1.41112 -2.733887,-1.5875 -0.882226,-4.586116 -0.352496,-1.940277 -0.264724,0 -6.614442,-0.264725 -1.764172,-0.08805 -3.175,-1.234722 -3.086664,-1.058334 -1.322776,-1.763889 0.969998,0.352778 3.351389,0.264442 0.08805,0 0,-0.08805 2.469727,-1.411111 0.08805,-0.08834 3.527778,-1.851942 3.527778,1.146387 0.352778,0.08834 2.998611,2.028332 0.441113,-0.176389 0.264442,-0.705556 0.264443,-0.61722 -1.499165,-0.881944 0.176389,-1.763889 -1.940278,-2.028614 0.440831,-0.61722 0.08834,0 2.469444,0.529167 4.497776,0.793609 2.381391,-3.263053 1.763889,0.61722 0.176389,-0.08805 2.205002,-1.852224 2.292773,-1.851942 7.849447,0 -2.028331,4.056944 -5.11556,1.940278 -3.439442,1.234722 -3.79222,5.997222 1.675553,1.499165 0.264442,0.176389 2.910558,-0.61722 2.205002,-0.352778 3.439443,2.910275 7.584722,-2.469444 6.438052,0.441113 2.29334,-0.881944 0.17639,-0.08834 2.46916,-1.146386 3.96889,1.675553 0.79389,0.441113 0.70556,-1.058333 0.88166,-1.323058 1.94056,2.381391 0,0.176389 -0.17639,0.61722 -0.44111,2.028614 z"
        />
    <path
       inkscape:label="kn1424"
       class="land"
       id="ardal"
       d="m 200.73056,110.59583 -0.17639,3.26334 -0.0881,3.08666 2.11667,2.46945 2.73389,1.85222 -1.05834,2.29306 -2.20472,1.32277 -3.35139,2.29306 -0.97028,0.97028 -0.26444,0.17639 -4.58611,4.05694 -2.46944,-0.52916 -3.43973,0.26444 0.52917,2.46944 -2.5575,0.44112 -1.41111,3.61583 -6.61472,1.5875 0.88194,1.05833 1.49945,1.94028 -1.14667,0.70555 -8.81945,0.0883 -2.55749,-2.73417 -0.97028,-1.05833 -6.35,-1.5875 1.05833,-1.76389 0.52917,-0.88195 0,-0.0881 -0.26445,-0.70556 4.05695,-0.97028 3.175,0.70556 0.79361,-0.88194 2.205,-2.11667 2.5575,-0.79361 0.17639,0 0,-0.0883 -0.35278,-0.44083 -0.88195,-1.41111 -0.0881,0 -2.205,-0.26472 -1.85223,2.205 -4.93889,0 -4.85055,1.05833 -1.76389,-1.05833 2.02833,-0.97028 -0.26444,-1.41111 -0.17639,-1.85194 2.02862,-4.58611 3.52777,-2.3814 -0.0883,-2.02833 4.67444,2.38111 1.41112,-0.88194 -0.61751,-1.85194 3.88056,-4.93889 -2.11667,-5.11528 1.85223,-1.67584 5.64444,1.32306 0.70556,0.26444 0.52916,0.0883 1.32278,0.35278 4.58611,-2.99861 2.55778,1.94027 0.88194,0.61722 0.97,0.79389 0.35278,0.26445 1.14639,0.79389 0.79389,0.088 6.17361,0.88195 2.11667,0.35277 z"
        />
    <path
       inkscape:label="kn1411"
       class="land"
       id="gulen"
       d="m 12.523611,153.19389 -0.264583,0 -2.5576391,-1.5875 0.3527781,-2.205 -1.9402781,-0.88195 -0.9701389,-0.70555 -0.1763889,-1.67555 0.79375,-0.44112 4.1451389,0.6175 0.970139,2.46945 -0.352778,4.40972 z m 5.379861,-4.32167 0.529167,5.29167 -3.175,-0.17639 -0.79375,-5.55611 -2.469445,-4.7625 5.820834,0.17639 0.08819,5.02694 z m 25.223752,-11.28889 0.352496,0.17639 2.381391,-0.70555 -0.08805,1.32305 -0.08834,2.73389 0.705556,0.17639 0.352778,0.0883 0.08834,-0.0883 1.146387,-4.23333 -0.264725,-2.11667 0.97028,-0.26444 1.940278,-0.44112 1.322776,-0.35277 2.028613,-0.52917 -1.411111,1.85222 1.411111,0.70556 -1.5875,2.64583 0.264724,1.76389 0.176107,0.97 0.617502,3.43972 -6.791113,5.02695 -0.08805,0 -0.881945,-0.0881 -3.704166,-0.79389 -5.380003,0.97028 -0.529166,0.0881 -1.234723,-3.26306 -0.352777,-0.70555 -1.058334,1.5875 -2.910275,-0.0883 -3.439584,2.205 -0.529166,0.26445 -1.675695,3.88055 -1.5875,3.35139 -0.352777,0.0883 -2.469445,-1.49945 0.0882,-0.97 0.264583,-2.64583 0.617361,-4.49806 -1.322917,-3.88056 0,-2.20472 4.497917,2.20472 0.529167,1.85223 0.705555,-0.35278 0.617361,-0.17639 -0.08819,-1.14667 -0.0882,-1.05833 1.675695,-0.0881 0.79375,0 4.321669,0.17639 0.08805,-0.0883 0.08805,-0.88194 -2.469444,-0.44084 -0.264442,-0.26472 -0.176389,-0.26444 -0.969998,-0.88195 0,-0.52916 -0.08834,-0.88195 -4.409723,0.88195 -1.234722,1.05833 -1.5875,-0.35278 0.264583,-1.5875 0.352778,-4.14528 0,-0.17639 -0.264583,-1.85194 -0.0882,-0.44111 1.940278,-1.85194 0.705556,-0.17639 5.027083,-1.41111 0.97028,0.61722 0.881662,0.6175 3.263336,1.5875 0.705555,0.52916 0.61722,0.52917 1.058334,0.79361 1.323058,2.73417 4.321668,1.49916 z"
        />
    <path
       inkscape:label="kn1429"
       class="land"
       id="fjaler"
       d="m 56.17972,99.924447 -0.440831,0.176393 0.08834,0.44083 0.176107,3.61611 1.675836,0.52917 1.323057,0.52916 0,0.0881 0.08805,0.17639 1.146386,2.82222 0.176672,0.70555 0.440831,0 1.940277,0.26473 -0.97028,2.38111 0.441114,0.70555 1.763889,2.38139 -1.675836,0.79361 -2.116667,0.97028 -0.176106,0.0881 -0.176389,0 -2.116949,2.99861 -0.705556,1.05833 -0.440831,0.6175 -8.995833,-4.40972 -1.5875,-0.70556 -0.529167,-0.26472 -0.97028,-2.91028 -0.352495,-0.97028 -1.235005,0.17639 -2.028331,0.26473 -2.822222,-3.26334 -0.08834,-0.17639 0.793892,-2.20472 -5.732498,1.67556 -4.14528,-2.5575 -0.176389,-0.0883 -0.176389,1.23473 -0.264442,1.49944 -0.08834,0 -1.940278,0.0881 -2.998611,-3.79222 5.644445,-1.5875 2.20472,-0.26473 2.910558,-0.35278 3.086664,0.79389 0.441113,-2.02861 0.440831,-1.675552 1.058334,0.08805 2.381391,0.264729 1.411111,2.64583 0.793891,-0.6175 -0.882227,-2.293059 5.027225,-1.763889 2.116667,0.352778 4.409722,1.058333 1.851942,0.441114 z"
        />
    <path
       inkscape:label="kn1444"
       class="land"
       id="hornindal"
       d="m 133.70278,39.158333 -2.73389,1.5875 -6.87917,-1.411111 -1.85222,1.323058 -2.55778,1.675553 -0.26444,0.176389 -3.52778,-1.499446 0,0 -0.35278,-0.705274 -1.85222,-3.968891 -0.88166,-1.675835 0,-0.08805 1.32277,-3.086946 4.14528,0.35306 0.17639,-2.55778 2.5575,-1.763889 4.49806,1.058333 2.29305,-2.116667 1.41083,3.175 1.235,2.734169 1.32278,2.645834 1.94028,4.144997 z"
        />
    <path
       inkscape:label="kn1438"
       class="land"
       id="bremanger"
       d="m 27.428472,47.272222 -2.822222,2.20472 -2.557639,-5.291666 4.056945,-0.61722 1.322916,3.704166 z m 45.772917,-2.293055 -2.822222,1.058333 -3.263336,1.940278 0.264725,0.264724 1.146668,1.322776 2.469445,-1.5875 4.7625,-0.529167 3.79222,-0.264442 0.352778,-0.08834 1.058333,2.116667 0.441113,1.146669 -2.469444,4.497775 -0.882227,1.675836 -3.880555,0.176389 -0.793609,0 -6.261947,0.176389 -2.645833,-2.293056 -0.264442,-0.176389 -0.529167,-0.529166 -3.439725,0.61722 -5.026942,0.793891 -2.734169,2.998611 -4.497775,-1.411111 1.234722,4.674164 -6.35,0.97028 -3.175,-2.910558 -0.264442,1.5875 -3.439725,-0.529166 -3.263335,-2.469445 -1.058334,-0.793609 1.058334,-2.822222 0.264724,-2.205002 0.08834,-0.61722 2.998329,-1.411111 1.675835,2.116667 0.440831,1.058333 0.352778,0.881944 2.293056,1.851943 0.705837,-0.176389 2.645834,-0.881945 -2.55778,-1.851942 0,-1.5875 L 44.45,51.241113 46.302224,50.888336 46.478331,50.094444 43.47972,49.653613 40.216667,49.565278 38.805556,49.300836 38.1,49.2125 l 0.793891,-0.61722 2.733887,-2.293338 2.028613,-1.322775 3.79222,0.176389 2.55778,0.08805 2.645833,-0.176107 0.440832,-0.882226 0.617502,-1.675554 -1.058334,-1.763889 0,-0.08805 1.499165,-1.940278 3.175,-1.852224 2.469444,-0.440831 0.440831,0.176389 2.205003,1.411111 3.439724,1.411111 3.968609,1.234722 2.205002,0.881944 0.793609,2.20472 0.352778,1.234723 z"
        />
    <path
       inkscape:label="kn1449"
       class="land"
       id="stryn"
       d="m 165.80556,56.268056 -0.0881,0 -0.52945,0.264724 -0.44083,0.264442 -0.26472,0.08834 -0.52889,0.264442 -9.26055,4.498058 -11.99445,12.964442 -11.02445,6.526389 -3.175,-3.615831 -0.44083,-0.441114 0.26473,-2.381108 -0.88223,-0.441114 -1.05833,-0.352778 -0.35278,-0.176388 -0.3525,-4.144998 -0.35306,-4.321669 3.26334,-3.439442 -0.44111,-2.998611 -3.26306,-1.058334 -0.44083,0.264442 -0.17667,0.08834 -1.41111,0.705556 -3.5275,1.851942 -5.02722,-1.675554 -8.02584,-2.55778 -2.55749,-2.734168 -0.26445,-2.557498 1.41083,0 4.41001,3.792502 3.52778,1.234722 2.11666,0.61722 0.97,-0.61722 3.79222,-2.205002 0.70584,-0.440831 2.46916,-1.499447 0.17667,-0.08805 0.17611,-0.176389 -0.35278,-0.352778 -0.52888,-0.441113 -1.05834,-1.146387 4.67417,0.61722 0.088,0 3.7925,1.940278 1.05834,1.234722 0.7936,0.97028 2.20501,-2.822222 -2.20501,-1.411111 -3.79222,-1.499447 -0.26444,-2.20472 -2.55778,1.146387 -5.38,-0.529167 -0.88166,1.323058 -0.97028,1.5875 -1.05834,1.5875 -1.41111,0.969998 -3.70416,-0.264442 -2.91028,-2.734169 -2.46973,-1.940278 -2.99832,-0.264442 0.26444,-2.469445 0.0883,-1.234722 0.0881,-0.529167 1.05833,0.264443 4.32139,0.61722 0.35277,0.08834 4.32167,0.705556 0.26473,-1.852225 0.61722,-0.61722 1.23472,-1.499446 3.52778,1.499446 0.26444,-0.176389 2.55778,-1.675553 1.85222,-1.323058 6.87917,1.411111 2.73389,-1.5875 2.38139,1.058334 6.43805,-2.116667 5.20362,1.234722 1.67555,-2.733886 5.38,0.264442 3.52778,-2.116667 0.26444,1.852225 5.73278,1.940277 1.05833,0.969998 1.05834,0.97028 0.0881,0.08805 -0.0881,2.910558 0,0.08805 -0.0883,0.793891 0,0.08805 0,0.176389 0,0.264724 -0.0883,0.440831 -0.0881,2.55778 -0.0881,2.733887 0,0.08834 -0.0883,0.705555 -0.17638,2.292774 0,2.469726 0,0 0,0.08805 z"
        />
    <path
       inkscape:label="kn1421"
       class="land"
       id="aurland"
       d="m 171.09722,175.68333 -3.26305,5.38001 0.79361,3.79222 -1.49917,2.38139 -5.02722,-1.05834 -2.11667,1.5875 -0.79389,0.61722 -6.17333,4.7625 -2.38139,-0.88194 -11.02416,-3.70417 -0.88223,0 -4.58583,0.35278 -1.85222,-2.11667 -5.55611,-1.5875 0,-0.088 -0.0883,-2.73417 0.26473,-3.26305 -6.35,-0.79389 1.32277,-6.61445 2.99861,0.26445 1.05834,-1.49917 -4.40973,-2.29305 -0.17638,-0.0883 -2.11667,1.94028 -4.93889,-0.17639 -0.70556,-1.41111 -0.35277,-0.61722 1.41111,-1.41111 4.49806,-2.91056 0.70555,-0.44083 -1.14667,-3.08695 -2.82222,1.23472 0.17639,-2.91027 3.70417,-7.14389 10.31889,-0.17639 1.49916,-0.97 0.26473,2.64583 -2.20501,1.85195 -4.7625,2.91055 -2.02861,1.49917 -1.76389,4.49806 1.94056,-0.70556 1.41111,-2.82222 2.91028,-1.14667 2.73417,-1.67555 2.73388,-1.41111 2.29306,3.08666 2.91027,2.38139 -0.088,2.64583 -1.14639,2.11667 -0.79389,1.85194 0.35278,1.14667 2.73389,-3.70416 0.79389,-0.35278 0.52917,-0.26473 0.7936,-2.02833 0.17668,-2.29305 0.088,-0.61751 -3.26305,-1.67555 -2.20501,-2.11667 -1.14667,-5.38 -0.35277,-2.20472 -0.3525,-1.5875 0.3525,-0.79389 1.41111,0.0883 0.35306,0.61722 0.17639,0.44111 0.1761,0.79361 5.20362,-1.76389 1.32305,3.08695 4.23334,1.94027 2.99833,-1.05833 0.26472,-0.0883 0,0.0883 0,7.05556 2.82222,0 0.97028,0 4.58611,3.70416 8.73111,12.7 3.35139,2.20472 z"
        />
    <path
       inkscape:label="kn1433"
       class="land"
       id="naustdal"
       d="m 99.748058,73.554167 -0.08834,3.704166 -4.586111,2.028614 -7.849447,0 -2.292773,1.851942 -2.205002,1.852224 L 82.55,83.079167 80.786111,82.461947 78.40472,85.725 73.906944,84.931391 71.4375,84.402224 l -0.08834,0 -0.440831,0.61722 -0.264442,-0.264442 -1.323058,-0.441113 -1.411111,-0.529167 -0.176389,-0.08805 -0.08834,0 -4.850554,2.116667 -0.176388,0.264442 -1.411112,2.205002 -0.97028,-0.08834 -3.175,-0.176388 -1.940277,-0.176389 -1.851943,-0.969998 2.381109,-2.293056 0.264725,-0.264724 -2.645834,-0.264442 -3.704166,-0.881945 -4.498058,-1.234722 -2.381109,-0.793891 0.08805,-0.264442 14.463889,1.675553 2.381391,0.264724 0.61722,-0.264724 1.058334,-0.529167 -0.08805,-2.469444 0.97028,-0.264442 3.880274,-0.617503 0.617502,-0.176388 2.645833,-0.440832 0.08834,-0.08834 0,-0.08805 -0.529167,-2.381392 14.816385,-4.409722 5.556391,1.763889 7.496386,-0.881944 2.998894,1.5875 z"
        />
    <path
       inkscape:label="kn1430"
       class="land"
       id="gaular"
       d="m 103.36389,109.09667 -0.088,0.44083 -0.44112,1.67584 0,0.088 -4.40972,2.11667 -5.820833,0 -3.616114,2.82222 -1.146386,-3.43944 -12.7,-1.14667 -2.293056,1.85222 -3.263053,2.73389 -0.35306,-0.0881 -0.969998,-0.26472 -4.233333,-1.14639 -1.763889,-2.38139 -0.441114,-0.70555 0.97028,-2.38111 -1.940277,-0.26473 -0.440831,0 -0.176672,-0.70555 -1.146386,-2.82222 -0.08805,-0.17639 0,-0.0881 -1.323057,-0.52916 -1.675836,-0.52917 -0.176107,-3.61611 -0.08834,-0.44083 0.440831,-0.176393 1.235004,0.352773 2.292774,0.17639 0.529166,0 2.205003,0.17639 0.176389,0.0881 L 62.441667,99.483333 60.236664,98.425 58.7375,97.719444 50.976389,96.043891 49.2125,95.426389 l 0.440831,-1.940278 0.176389,-0.969998 7.32028,0 3.086664,1.058334 3.175,1.234722 1.764172,0.08805 6.614442,0.264725 0.264724,0 0.352496,1.940277 0.882226,4.586116 2.733887,1.5875 7.319998,-1.41112 2.381391,1.67556 1.763889,-3.08667 1.851942,0.97 0.352778,0.17639 4.410004,-0.52917 2.645551,-0.26444 3.086947,2.11667 1.499449,1.05833 -0.26473,3.52778 0.17639,0.17639 2.11667,1.41111 z"
        />
    <path
       inkscape:label="kn1419"
       class="land"
       id="leikanger"
       d="m 127.79389,131.93889 -0.6175,-0.35278 -0.52917,-0.26444 -3.52778,-1.94028 -0.088,-0.0883 -3.88055,0.0883 -1.14667,0 -0.35278,-0.44111 -0.88195,-1.32278 -0.61722,-0.88194 -3.52806,-1.5875 -0.1761,-0.0883 -0.70556,-1.05833 6.35,-3.26305 -3.70445,0.7936 -0.35249,-0.61722 2.38111,-1.76388 2.64583,1.23472 0.26472,-2.99861 0.26445,-1.76389 2.29305,-0.97028 0.17639,-0.0881 1.94028,0.61722 0.17639,1.85223 4.85083,-0.44111 0.44083,4.05694 1.49945,0 0.70527,2.29306 -1.85194,0.88194 -0.35278,6.17361 -0.26472,0.26473 -0.70556,0.88194 -0.70527,0.79361 z"
        />
    <path
       inkscape:label="kn1443"
       class="land"
       id="eid"
       d="m 112.80084,34.660276 0.88166,1.675835 1.85222,3.968891 0.35278,0.705274 0,0 -1.23472,1.499446 -0.61722,0.61722 -0.26473,1.852225 -4.32167,-0.705556 -0.35277,-0.08834 -4.32139,-0.61722 -1.05833,-0.264443 -0.0881,0.529167 -0.0883,1.234722 -0.26444,2.469445 -0.88195,-0.08834 -3.880837,0.793891 -2.20472,0.264442 -2.998611,-2.733886 -1.058333,-0.97028 -4.497776,-0.969998 -4.233333,-0.441113 -4.762782,1.234722 -1.411111,-4.056945 11.024446,1.499165 0.352778,-0.969998 0.264442,-0.969998 L 84.75472,38.629167 81.138889,38.1 l -5.468056,-0.264724 -4.056944,-0.61722 -7.143891,-2.20472 -2.292774,-0.705556 0.529167,-0.617502 2.381109,-2.822222 0.440831,-0.441114 8.643056,0.882227 1.94056,-1.234722 3.703884,2.293055 9.260558,-2.028613 0.881944,1.411111 1.5875,2.293056 0.793891,1.234722 5.114996,-0.969998 0.617502,-0.176389 0.264725,-0.08834 -0.176389,-1.058334 -0.08834,-0.529166 0.08834,-0.08805 0.352495,-0.264724 2.646117,-1.940278 3.96861,1.058333 -0.97028,1.058334 -0.44083,0.441113 2.73417,3.263053 0.88166,1.058334 4.41,-1.940278 1.05834,-0.441113 z"
        />
    <path
       inkscape:label="kn1445"
       class="land"
       id="gloppen"
       d="m 103.45222,51.152778 0.26445,2.557498 2.55749,2.734168 8.02584,2.55778 5.02722,1.675554 3.5275,-1.851942 1.41111,-0.705556 0.17667,-0.08834 0.44083,-0.264442 3.26306,1.058334 0.44111,2.998611 -3.26334,3.439442 0.35306,4.321669 -3.43972,2.645833 -0.61722,0.440831 -0.35278,0.352778 -4.14528,3.175 -2.02833,-2.293056 -0.17639,0 -0.97028,0 0,0 -2.99861,0.08834 -1.76389,0.08805 -1.41111,0.08834 -2.46944,4.409722 -2.99861,-1.675835 0,-3.704167 -2.557502,0.352778 -2.998894,-1.5875 -7.496386,0.881944 -5.556391,-1.763889 -14.816385,4.409722 -2.734169,-0.793608 -0.705555,-2.910558 1.763889,-3.527778 2.557497,-4.850553 -1.5875,-3.968891 -0.08805,-0.08805 -0.97028,-2.469444 6.261947,-0.176389 0.793609,0 3.880555,-0.176389 0.882227,-1.675836 2.469444,-4.497775 L 80.9625,49.2125 79.904167,47.095833 84.1375,46.919444 l 2.381109,1.058334 -2.469445,5.380002 -1.23444,3.527778 -0.617502,1.851942 2.557498,-0.352778 1.763889,-3.175 0.352778,-0.61722 1.94056,-3.792502 1.499164,-1.5875 0.352778,0.617502 0.705555,1.322776 0.529167,3.263335 1.940278,2.381109 2.205002,1.5875 0.61722,-0.440831 1.146387,-0.705555 -1.763607,-3.704167 -0.441113,-1.058333 -0.705556,-1.499447 0.176389,0 3.263336,0.176389 1.146386,0 3.968887,0 z"
        />
    <path
       inkscape:label="kn1413"
       class="land"
       id="hyllestad"
       d="m 28.927778,105.92167 4.14528,2.5575 5.732498,-1.67556 -0.793892,2.20472 0.08834,0.17639 2.822222,3.26334 2.028331,-0.26473 1.235005,-0.17639 0.352495,0.97028 0.97028,2.91028 0.529167,0.26472 1.5875,0.70556 -0.617502,4.58611 -0.529167,3.52778 -0.352778,2.91027 -2.733886,3.26334 -0.264443,0 -0.97028,-4.58611 -0.705555,-3.35139 -2.293056,1.5875 -3.439442,2.02833 -0.705838,-0.26444 -1.322775,-0.35278 0.705555,-1.41111 0.61722,-1.14667 1.5875,-0.0881 0.352778,-1.41111 -0.440831,-0.52917 -1.499447,-1.49945 -0.352495,-0.26444 -2.381391,0.88195 -2.910276,-2.29306 -1.146669,-0.88194 -0.08819,0 1.234863,-2.3814 0.176107,-0.17638 1.852224,0.35277 1.058334,0.26473 2.381108,1.41111 0.793892,0.70555 1.763888,1.5875 1.5875,-2.29305 -0.176388,-0.17639 -3.527778,-3.26334 -1.5875,-1.41111 -0.176389,0 -2.557498,-0.17639 -6.261947,-0.61722 2.38125,-1.67583 -0.529166,-0.61722 -0.264584,-0.44111 1.940278,-0.0881 0.08834,0 0.264442,-1.49944 0.176389,-1.23473 0.176389,0.0883 z"
        />
    <path
       inkscape:label="kn1441"
       class="land"
       id="selje"
       d="M 60.501389,28.663336 60.325,28.575 l -0.08834,-0.176389 -2.910275,-1.5875 -0.529167,-0.352778 -5.732498,5.820834 -3.880837,-3.968891 0.617502,-2.20472 2.998611,1.322916 3.175,-0.352778 2.910558,-4.497916 3.351106,0.79375 0.264725,0.176389 -0.264725,-0.264584 -3.79222,-2.998611 -2.20472,-5.644444 -1.5875,-2.910417 -6.35,-1.411111 0.08805,-2.2048611 2.469444,-0.2645833 -3.175,-2.9986112 0.881945,-4.0569444 6.085557,-0.70555556 1.5875,3.88055556 4.144998,2.38125 -1.940278,3.175 3.527778,4.938889 0.264442,0.264583 2.55778,3.792361 0.793892,4.409723 0.08805,0.617361 1.058333,-1.058334 -0.352778,2.734028 -0.97028,0.881945 -2.910275,2.55778 z"
        />
    <path
       inkscape:label="kn1418"
       class="land"
       id="balestrand"
       d="m 118.0925,120.73834 -6.35,3.26305 -0.26472,-0.52917 1.41111,-1.67555 1.14667,-0.88195 0.35249,0.61722 3.70445,-0.7936 z m -4.41,-11.46528 -0.35278,6.96722 0.35278,0.44111 0.6175,0.88195 -1.23472,1.14638 -1.41111,1.14667 -0.17639,-3.26333 0,-2.02834 -0.17639,0 -1.41111,0.70556 -0.44112,2.29306 -1.67555,-0.35278 0.17639,0.97 0.35278,1.94027 0.26472,0.88195 0.61722,2.82222 0.0883,0.17639 0,0.17639 -2.91056,-1.41111 0.26472,2.38139 0.0881,0 1.94028,0.52916 -0.44084,4.05695 -0.26472,1.41111 -0.17639,1.49916 -4.145,0.7939 0,1.94027 -4.850832,-0.44111 -7.9375,-5.7325 -0.529167,-1.14667 0,-2.82222 -3.175,1.5875 -2.20472,0.6175 0.08805,-0.44111 3.086947,-3.175 1.411111,-1.5875 6.790831,-2.46944 4.056947,0.88194 1.41111,-1.49916 -3.263337,-3.175 -0.08805,-2.55778 4.40972,-2.11667 0,-0.088 0.44112,-1.67584 0.088,-0.44083 0.17639,-0.0883 6.35,-6.08527 0.88194,-0.79389 2.11667,-2.11667 3.08695,0.79389 0.17638,0.35278 0.17639,0.52917 0.52889,0.96999 -2.29278,2.02862 0.70556,2.99861 -1.58778,1.5875 z"
        />
    <path
       inkscape:label="kn1426"
       class="land"
       id="luster"
       d="m 200.73056,110.59583 -2.11667,-0.35277 -6.17361,-0.88195 -0.79389,-0.088 -1.14639,-0.79389 -0.35278,-0.26445 -0.97,-0.79389 -0.88194,-0.61722 -2.55778,-1.94027 -4.58611,2.99861 -1.32278,-0.35278 -0.52916,-0.0883 -0.70556,-0.26444 -5.64444,-1.32306 -1.85223,1.67584 2.11667,5.11528 -3.88056,4.93889 0.61751,1.85194 -1.41112,0.88194 -4.67444,-2.38111 0.0883,2.02833 -3.52777,2.3814 -2.02862,4.58611 0.17639,1.85194 0.26444,1.41111 -2.02833,0.97028 -1.14667,-0.6175 0.70584,-6.70278 -3.175,-3.26305 -0.35306,-0.44112 3.52806,-2.55749 1.23472,-0.97028 1.14639,-3.61584 2.29306,-3.43972 2.99861,-1.14639 0.44083,-0.0883 1.41139,-2.91028 3.70417,-3.08694 1.67555,-1.94028 0.17639,-0.26444 -0.88194,-0.881949 -4.85056,3.439439 -1.76389,0.61751 -1.58778,0.61722 -0.70527,0.35277 -0.17639,1.5875 -0.17667,1.5875 -3.70389,2.11667 -0.26472,0.0883 -0.35278,0.26444 -0.79361,0.35278 -1.41111,-0.88195 -0.35278,-0.17639 -1.58778,-1.05833 -0.0881,0.52917 -0.0881,0.35277 -0.17667,1.67584 0.26473,0.17639 0.44111,0.44083 1.76361,1.67583 -0.70528,3.08667 -4.49805,2.46944 -0.26445,0.97028 -0.0883,0.88195 3.43944,4.05694 0.26473,5.20333 0.0883,1.14667 0.52917,1.94028 0.79361,0.79361 0.52916,0.44111 -1.32277,-0.17639 -2.29334,-7.84944 -4.49778,-4.7625 -1.94027,1.14667 0,-1.67584 -0.97028,-0.26444 -3.175,-0.97028 -1.05834,-0.26444 -2.91027,-7.05556 -2.46945,-2.02861 -1.05833,-0.79361 1.14639,-4.14528 -4.58583,-1.23472 1.67555,-1.67556 0.70556,-6.173609 -0.52917,-3.880555 -0.35278,-2.116667 -2.5575,-1.499447 -0.26472,-3.175 3.08666,-4.233333 11.02445,-6.526389 11.99445,-12.964442 9.26055,-4.498058 0.52889,-0.264442 0.26472,-0.08834 0.44083,-0.264442 0.52945,-0.264724 0.0881,0 0.0883,0.441113 4.145,11.465278 -0.52917,3.79222 6.52639,-0.881945 4.58611,-0.529166 0.52917,-0.08805 1.76389,-0.176389 4.40972,2.557498 0.0881,0.08834 2.02862,1.146386 0.79389,0.441114 0.88194,0.529166 -0.17639,0.881945 -0.0883,0.440831 -0.44083,2.998611 -0.0883,0.529167 -0.97,4.14528 0.70556,3.704166 0.0881,0.969998 0.97028,5.644445 0.26444,0.08834 2.29306,1.234722 4.49806,2.557498 1.93999,0.97028 0.97028,-0.441113 1.49945,-0.881945 0.44083,-0.176389 1.67584,-0.881944 3.43944,2.028613 0.0883,0 2.38111,9.260277 -1.23472,1.14667 -1.67555,1.49916 -4.49806,-1.41111 -2.46944,1.23472 z"
        />
    <path
       inkscape:label="kn1439"
       class="land"
       id="vagsoy"
       d="m 40.657498,18.609028 1.411393,2.822222 2.998329,-0.970139 -0.08805,4.674306 -2.116667,4.233192 -0.97028,0.97028 -0.264442,0.352778 -0.793891,1.323057 -1.410829,-0.176388 -1.5875,-1.411394 -1.058334,-1.763606 0.352496,-1.234864 1.235004,-0.970139 0.61722,-3.792361 -3.086946,-0.352778 1.5875,-4.321527 3.175,0.617361 z"
        />
    <path
       inkscape:label="kn1439"
       class="land"
       id="vagsoy2"
       d="m 47.183887,28.310276 3.880837,3.968891 5.732498,-5.820834 0.529167,0.352778 2.910275,1.5875 0.08834,0.176389 0.176389,0.08834 1.940278,-1.146669 1.763889,1.675835 1.322775,1.23444 -0.440831,0.441114 -2.381109,2.822222 -0.529167,0.617502 -1.763888,-0.617502 -0.176672,-0.08834 -1.499164,-0.793609 -3.704167,1.323058 -3.616113,0.264442 -3.79222,-0.61722 -0.705556,0 -2.20472,0 L 44.45,31.75 l 0,-0.529167 3.263053,-5.115277 0.08834,0 -0.617502,2.20472 z"
        />
    <path
       inkscape:label="kn1438"
       class="land"
       id="bremanger2"
       d="m 47.360558,39.511111 0,3.792502 -6.526671,-0.352777 -8.995834,4.938888 0,-0.264724 -2.557497,-4.056944 3.792502,-2.55778 -7.232086,-3.79222 4.674306,-1.234723 -1.234722,-2.469444 3.175,-1.234722 7.143608,5.997222 7.761394,1.234722 z"
        />
    <text
       sodipodi:linespacing="125%"
       id="text117"
       y="151.13393"
       x="104.6558"
       
       xml:space="preserve"><tspan
         id="tspan119"
         y="151.13393"
         x="104.6558"
         sodipodi:role="line"><tspan
           id="tspan121"
           
           dy="0"
           dx="0">1417</tspan></tspan></text>
    <text
       sodipodi:linespacing="125%"
       id="text123"
       y="132.79259"
       x="70.228271"
       
       xml:space="preserve"><tspan
         id="tspan125"
         y="132.79259"
         x="70.228271"
         sodipodi:role="line"><tspan
           id="tspan127"
           
           dy="0"
           dx="0">1416</tspan></tspan></text>
    <text
       sodipodi:linespacing="125%"
       id="text129"
       y="145.28346"
       x="36.089787"
       
       xml:space="preserve"><tspan
         id="tspan131"
         y="145.28346"
         x="36.089787"
         sodipodi:role="line"><tspan
           id="tspan133"
           
           dy="0"
           dx="0">1411</tspan></tspan></text>
    <text
       sodipodi:linespacing="125%"
       id="text135"
       y="123.07121"
       x="34.701927"
       
       xml:space="preserve"><tspan
         id="tspan137"
         y="123.07121"
         x="34.701927"
         sodipodi:role="line"><tspan
           id="tspan139"
           
           dy="0"
           dx="0">1413</tspan></tspan></text>
    <text
       sodipodi:linespacing="125%"
       id="text141"
       y="123.09188"
       x="2.0775647"
       
       xml:space="preserve"><tspan
         id="tspan143"
         y="123.09188"
         x="2.0775647"
         sodipodi:role="line"><tspan
           id="tspan145"
           
           dy="0"
           dx="0">1412</tspan></tspan></text>
    <text
       sodipodi:linespacing="125%"
       id="text147"
       y="95.357491"
       x="38.315147"
       
       xml:space="preserve"><tspan
         id="tspan149"
         y="95.357491"
         x="38.315147"
         sodipodi:role="line"><tspan
           id="tspan151"
           
           dy="0"
           dx="0">1428</tspan></tspan></text>
    <text
       sodipodi:linespacing="125%"
       id="text153"
       y="111.57838"
       x="46.084698"
       
       xml:space="preserve"><tspan
         id="tspan155"
         y="111.57838"
         x="46.084698"
         sodipodi:role="line"><tspan
           id="tspan157"
           
           dy="0"
           dx="0">1429</tspan></tspan></text>
    <text
       sodipodi:linespacing="125%"
       id="text159"
       y="110.80185"
       x="77.77906"
       
       xml:space="preserve"><tspan
         id="tspan161"
         y="110.80185"
         x="77.77906"
         sodipodi:role="line"><tspan
           id="tspan163"
           
           dy="0"
           dx="0">1430</tspan></tspan></text>
    <text
       sodipodi:linespacing="125%"
       id="text165"
       y="128.58267"
       x="95.237938"
       
       xml:space="preserve"><tspan
         id="tspan167"
         y="128.58267"
         x="95.237938"
         sodipodi:role="line"><tspan
           id="tspan169"
           
           dy="0"
           dx="0">1418</tspan></tspan></text>
    <text
       sodipodi:linespacing="125%"
       id="text171"
       y="100.91167"
       x="77.462112"
       
       xml:space="preserve"><tspan
         id="tspan173"
         y="100.91167"
         x="77.462112"
         sodipodi:role="line"><tspan
           id="tspan175"
           
           dy="0"
           dx="0">1432</tspan></tspan></text>
    <text
       sodipodi:linespacing="125%"
       id="text177"
       y="128.58267"
       x="119.10797"
       
       xml:space="preserve"><tspan
         id="tspan179"
         y="128.58267"
         x="119.10797"
         sodipodi:role="line"><tspan
           id="tspan181"
           
           dy="0"
           dx="0">1419</tspan></tspan></text>
    <text
       sodipodi:linespacing="125%"
       id="text183"
       y="115.77036"
       x="125.23026"
       
       xml:space="preserve"><tspan
         id="tspan185"
         y="115.77036"
         x="125.23026"
         sodipodi:role="line"><tspan
           id="tspan187"
           
           dy="0"
           dx="0">1420</tspan></tspan></text>
    <text
       sodipodi:linespacing="125%"
       id="text189"
       y="87.60051"
       x="107.07701"
       
       xml:space="preserve"><tspan
         id="tspan191"
         y="87.60051"
         x="107.07701"
         sodipodi:role="line"><tspan
           id="tspan193"
           
           dy="0"
           dx="0">1431</tspan></tspan></text>
    <text
       sodipodi:linespacing="125%"
       id="text195"
       y="81.397614"
       x="76.83493"
       
       xml:space="preserve"><tspan
         id="tspan197"
         y="81.397614"
         x="76.83493"
         sodipodi:role="line"><tspan
           id="tspan199"
           
           dy="0"
           dx="0">1433</tspan></tspan></text>
    <text
       sodipodi:linespacing="125%"
       id="text201"
       y="71.285225"
       x="55.321518"
       
       xml:space="preserve"><tspan
         id="tspan203"
         y="71.285225"
         x="55.321518"
         sodipodi:role="line"><tspan
           id="tspan205"
           
           dy="0"
           dx="0">1401</tspan></tspan></text>
    <text
       sodipodi:linespacing="125%"
       id="text207"
       y="66.710312"
       x="92.855827"
       
       xml:space="preserve"><tspan
         id="tspan209"
         y="66.710312"
         x="92.855827"
         sodipodi:role="line"><tspan
           id="tspan211"
           
           dy="0"
           dx="0">1445</tspan></tspan></text>
    <text
       sodipodi:linespacing="125%"
       id="text213"
       y="52.92683"
       x="54.289707"
       
       xml:space="preserve"><tspan
         id="tspan215"
         y="52.92683"
         x="54.289707"
         sodipodi:role="line"><tspan
           id="tspan217"
           
           dy="0"
           dx="0">1438</tspan></tspan></text>
    <text
       sodipodi:linespacing="125%"
       id="text219"
       y="24.370089"
       x="26.934446"
       
       xml:space="preserve"><tspan
         id="tspan221"
         y="24.370089"
         x="26.934446"
         sodipodi:role="line"><tspan
           id="tspan223"
           
           dy="0"
           dx="0">1439</tspan></tspan></text>
    <text
       sodipodi:linespacing="125%"
       id="text225"
       y="42.460629"
       x="91.2089"
       
       xml:space="preserve"><tspan
         id="tspan227"
         y="42.460629"
         x="91.2089"
         sodipodi:role="line"><tspan
           id="tspan229"
           
           dy="0"
           dx="0">1443</tspan></tspan></text>
    <text
       sodipodi:linespacing="125%"
       id="text231"
       y="38.843452"
       x="119.31123"
       
       xml:space="preserve"><tspan
         id="tspan233"
         y="38.843452"
         x="119.31123"
         sodipodi:role="line"><tspan
           id="tspan235"
           
           dy="0"
           dx="0">1444</tspan></tspan></text>
    <text
       sodipodi:linespacing="125%"
       id="text237"
       y="57.975445"
       x="139.72205"
       
       xml:space="preserve"><tspan
         id="tspan239"
         y="57.975445"
         x="139.72205"
         sodipodi:role="line"><tspan
           id="tspan241"
           
           dy="0"
           dx="0">1449</tspan></tspan></text>
    <text
       sodipodi:linespacing="125%"
       id="text243"
       y="90.843376"
       x="159.71877"
       
       xml:space="preserve"><tspan
         id="tspan245"
         y="90.843376"
         x="159.71877"
         sodipodi:role="line"><tspan
           id="tspan247"
           
           dy="0"
           dx="0">1426</tspan></tspan></text>
    <text
       sodipodi:linespacing="125%"
       id="text249"
       y="125.72532"
       x="180.05894"
       
       xml:space="preserve"><tspan
         id="tspan251"
         y="125.72532"
         x="180.05894"
         sodipodi:role="line"><tspan
           id="tspan253"
           
           dy="0"
           dx="0">1424</tspan></tspan></text>
    <text
       sodipodi:linespacing="125%"
       id="text255"
       y="157.33614"
       x="172.07907"
       
       xml:space="preserve"><tspan
         id="tspan257"
         y="157.33614"
         x="172.07907"
         sodipodi:role="line"><tspan
           id="tspan259"
           
           dy="0"
           dx="0">1422</tspan></tspan></text>
    <text
       sodipodi:linespacing="125%"
       id="text261"
       y="175.93414"
       x="143.32286"
       
       xml:space="preserve"><tspan
         id="tspan263"
         y="175.93414"
         x="143.32286"
         sodipodi:role="line"><tspan
           id="tspan265"
           
           dy="0"
           dx="0">1421</tspan></tspan></text>
    <text
       sodipodi:linespacing="125%"
       id="text267"
       y="16.314423"
       x="61.763844"
       
       xml:space="preserve"><tspan
         id="tspan269"
         y="16.314423"
         x="61.763844"
         sodipodi:role="line"><tspan
           id="tspan271"
           
           dy="0"
           dx="0">1441</tspan></tspan></text>
    <text
       sodipodi:linespacing="125%"
       id="text273"
       y="12.928238"
       x="61.232094"
       
       xml:space="preserve"><tspan
         id="tspan275"
         y="12.928238"
         x="61.232094"
         sodipodi:role="line"><tspan
           id="tspan277"
           
           dy="0"
           dx="0">Selje</tspan></tspan></text>
    <text
       sodipodi:linespacing="125%"
       id="text279"
       y="20.983904"
       x="24.805033"
       
       xml:space="preserve"><tspan
         id="tspan281"
         y="20.983904"
         x="24.805033"
         sodipodi:role="line"><tspan
           id="tspan283"
           
           dy="0"
           dx="0">V</tspan></tspan></text>
    <text
       sodipodi:linespacing="125%"
       id="text285"
       y="20.983904"
       x="26.610262"
       
       xml:space="preserve"><tspan
         id="tspan287"
         y="20.983904"
         x="26.610262"
         sodipodi:role="line"><tspan
           id="tspan289"
           
           dy="0"
           dx="0">ågs</tspan></tspan></text>
    <text
       sodipodi:linespacing="125%"
       id="text291"
       y="20.983904"
       x="31.340378"
       
       xml:space="preserve"><tspan
         id="tspan293"
         y="20.983904"
         x="31.340378"
         sodipodi:role="line"><tspan
           id="tspan295"
           
           dy="0"
           dx="0">ø</tspan></tspan></text>
    <text
       sodipodi:linespacing="125%"
       id="text297"
       y="20.983904"
       x="33.188671"
       
       xml:space="preserve"><tspan
         id="tspan299"
         y="20.983904"
         x="33.188671"
         sodipodi:role="line"><tspan
           id="tspan301"
           
           dy="0"
           dx="0">y</tspan></tspan></text>
    <text
       sodipodi:linespacing="125%"
       id="text303"
       y="39.309231"
       x="92.091362"
       
       xml:space="preserve"><tspan
         id="tspan305"
         y="39.309231"
         x="92.091362"
         sodipodi:role="line"><tspan
           id="tspan307"
           
           dy="0"
           dx="0">Eid</tspan></tspan></text>
    <text
       sodipodi:linespacing="125%"
       id="text309"
       y="35.457268"
       x="115.09306"
       
       xml:space="preserve"><tspan
         id="tspan311"
         y="35.457268"
         x="115.09306"
         sodipodi:role="line"><tspan
           id="tspan313"
           
           dy="0"
           dx="0">Hornindal</tspan></tspan></text>
    <text
       sodipodi:linespacing="125%"
       id="text315"
       y="54.58926"
       x="138.83287"
       
       xml:space="preserve"><tspan
         id="tspan317"
         y="54.58926"
         x="138.83287"
         sodipodi:role="line"><tspan
           id="tspan319"
           
           dy="0"
           dx="0">St</tspan></tspan></text>
    <text
       sodipodi:linespacing="125%"
       id="text321"
       y="54.58926"
       x="141.63545"
       
       xml:space="preserve"><tspan
         id="tspan323"
         y="54.58926"
         x="141.63545"
         sodipodi:role="line"><tspan
           id="tspan325"
           
           dy="0"
           dx="0">r</tspan></tspan></text>
    <text
       sodipodi:linespacing="125%"
       id="text327"
       y="54.58926"
       x="142.88258"
       
       xml:space="preserve"><tspan
         id="tspan329"
         y="54.58926"
         x="142.88258"
         sodipodi:role="line"><tspan
           id="tspan331"
           
           dy="0"
           dx="0">yn</tspan></tspan></text>
    <text
       sodipodi:linespacing="125%"
       id="text333"
       y="63.324127"
       x="89.611069"
       
       xml:space="preserve"><tspan
         id="tspan335"
         y="63.324127"
         x="89.611069"
         sodipodi:role="line"><tspan
           id="tspan337"
           
           dy="0"
           dx="0">Gloppen</tspan></tspan></text>
    <text
       sodipodi:linespacing="125%"
       id="text339"
       y="49.540646"
       x="49.232826"
       
       xml:space="preserve"><tspan
         id="tspan341"
         y="49.540646"
         x="49.232826"
         sodipodi:role="line"><tspan
           id="tspan343"
           
           dy="0"
           dx="0">B</tspan></tspan></text>
    <text
       sodipodi:linespacing="125%"
       id="text345"
       y="49.540646"
       x="51.151745"
       
       xml:space="preserve"><tspan
         id="tspan347"
         y="49.540646"
         x="51.151745"
         sodipodi:role="line"><tspan
           id="tspan349"
           
           dy="0"
           dx="0">r</tspan></tspan></text>
    <text
       sodipodi:linespacing="125%"
       id="text351"
       y="49.540646"
       x="52.335133"
       
       xml:space="preserve"><tspan
         id="tspan353"
         y="49.540646"
         x="52.335133"
         sodipodi:role="line"><tspan
           id="tspan355"
           
           dy="0"
           dx="0">eman</tspan></tspan></text>
    <text
       sodipodi:linespacing="125%"
       id="text357"
       y="49.540646"
       x="60.451778"
       
       xml:space="preserve"><tspan
         id="tspan359"
         y="49.540646"
         x="60.451778"
         sodipodi:role="line"><tspan
           id="tspan361"
           
           dy="0"
           dx="0">g</tspan></tspan></text>
    <text
       sodipodi:linespacing="125%"
       id="text363"
       y="49.540646"
       x="62.083035"
       
       xml:space="preserve"><tspan
         id="tspan365"
         y="49.540646"
         x="62.083035"
         sodipodi:role="line"><tspan
           id="tspan367"
           
           dy="0"
           dx="0">er</tspan></tspan></text>
    <text
       sodipodi:linespacing="125%"
       id="text369"
       y="67.899216"
       x="54.613205"
       
       xml:space="preserve"><tspan
         id="tspan371"
         y="67.899216"
         x="54.613205"
         sodipodi:role="line"><tspan
           id="tspan373"
           
           dy="0"
           dx="0">Flo</tspan></tspan></text>
    <text
       sodipodi:linespacing="125%"
       id="text375"
       y="67.899216"
       x="58.904072"
       
       xml:space="preserve"><tspan
         id="tspan377"
         y="67.899216"
         x="58.904072"
         sodipodi:role="line"><tspan
           id="tspan379"
           
           dy="0"
           dx="0">r</tspan></tspan></text>
    <text
       sodipodi:linespacing="125%"
       id="text381"
       y="67.899216"
       x="60.061623"
       
       xml:space="preserve"><tspan
         id="tspan383"
         y="67.899216"
         x="60.061623"
         sodipodi:role="line"><tspan
           id="tspan385"
           
           dy="0"
           dx="0">a</tspan></tspan></text>
    <text
       sodipodi:linespacing="125%"
       id="text387"
       y="78.011429"
       x="73.367958"
       
       xml:space="preserve"><tspan
         id="tspan389"
         y="78.011429"
         x="73.367958"
         sodipodi:role="line"><tspan
           id="tspan391"
           
           dy="0"
           dx="0">Nau</tspan></tspan></text>
    <text
       sodipodi:linespacing="125%"
       id="text393"
       y="78.011429"
       x="79.188446"
       
       xml:space="preserve"><tspan
         id="tspan395"
         y="78.011429"
         x="79.188446"
         sodipodi:role="line"><tspan
           id="tspan397"
           
           dy="0"
           dx="0">st</tspan></tspan></text>
    <text
       sodipodi:linespacing="125%"
       id="text399"
       y="78.011429"
       x="81.670639"
       
       xml:space="preserve"><tspan
         id="tspan401"
         y="78.011429"
         x="81.670639"
         sodipodi:role="line"><tspan
           id="tspan403"
           
           dy="0"
           dx="0">dal</tspan></tspan></text>
    <text
       sodipodi:linespacing="125%"
       id="text405"
       y="84.214325"
       x="105.30244"
       
       xml:space="preserve"><tspan
         id="tspan407"
         y="84.214325"
         x="105.30244"
         sodipodi:role="line"><tspan
           id="tspan409"
           
           dy="0"
           dx="0">Jøl</tspan></tspan></text>
    <text
       sodipodi:linespacing="125%"
       id="text411"
       y="84.214325"
       x="109.1041"
       
       xml:space="preserve"><tspan
         id="tspan413"
         y="84.214325"
         x="109.1041"
         sodipodi:role="line"><tspan
           id="tspan415"
           
           dy="0"
           dx="0">st</tspan></tspan></text>
    <text
       sodipodi:linespacing="125%"
       id="text417"
       y="84.214325"
       x="111.58802"
       
       xml:space="preserve"><tspan
         id="tspan419"
         y="84.214325"
         x="111.58802"
         sodipodi:role="line"><tspan
           id="tspan421"
           
           dy="0"
           dx="0">er</tspan></tspan></text>
    <text
       sodipodi:linespacing="125%"
       id="text423"
       y="87.457191"
       x="158.17674"
       
       xml:space="preserve"><tspan
         id="tspan425"
         y="87.457191"
         x="158.17674"
         sodipodi:role="line"><tspan
           id="tspan427"
           
           dy="0"
           dx="0">Lu</tspan></tspan></text>
    <text
       sodipodi:linespacing="125%"
       id="text429"
       y="87.457191"
       x="161.51331"
       
       xml:space="preserve"><tspan
         id="tspan431"
         y="87.457191"
         x="161.51331"
         sodipodi:role="line"><tspan
           id="tspan433"
           
           dy="0"
           dx="0">st</tspan></tspan></text>
    <text
       sodipodi:linespacing="125%"
       id="text435"
       y="87.457191"
       x="163.99722"
       
       xml:space="preserve"><tspan
         id="tspan437"
         y="87.457191"
         x="163.99722"
         sodipodi:role="line"><tspan
           id="tspan439"
           
           dy="0"
           dx="0">er</tspan></tspan></text>
    <text
       sodipodi:linespacing="125%"
       id="text441"
       y="122.33913"
       x="179.13188"
       
       xml:space="preserve"><tspan
         id="tspan443"
         y="122.33913"
         x="179.13188"
         sodipodi:role="line"><tspan
           id="tspan445"
           
           dy="0"
           dx="0">Å</tspan></tspan></text>
    <text
       sodipodi:linespacing="125%"
       id="text447"
       y="122.33913"
       x="181.1731"
       
       xml:space="preserve"><tspan
         id="tspan449"
         y="122.33913"
         x="181.1731"
         sodipodi:role="line"><tspan
           id="tspan451"
           
           dy="0"
           dx="0">r</tspan></tspan></text>
    <text
       sodipodi:linespacing="125%"
       id="text453"
       y="122.33913"
       x="182.35477"
       
       xml:space="preserve"><tspan
         id="tspan455"
         y="122.33913"
         x="182.35477"
         sodipodi:role="line"><tspan
           id="tspan457"
           
           dy="0"
           dx="0">dal</tspan></tspan></text>
    <text
       sodipodi:linespacing="125%"
       id="text459"
       y="112.38419"
       x="122.41699"
       
       xml:space="preserve"><tspan
         id="tspan461"
         y="112.38419"
         x="122.41699"
         sodipodi:role="line"><tspan
           id="tspan463"
           
           dy="0"
           dx="0">Sogndal</tspan></tspan></text>
    <text
       sodipodi:linespacing="125%"
       id="text465"
       y="97.525482"
       x="76.207756"
       
       xml:space="preserve"><tspan
         id="tspan467"
         y="97.525482"
         x="76.207756"
         sodipodi:role="line"><tspan
           id="tspan469"
           
           dy="0"
           dx="0">F</tspan></tspan></text>
    <text
       sodipodi:linespacing="125%"
       id="text471"
       y="97.525482"
       x="77.780441"
       
       xml:space="preserve"><tspan
         id="tspan473"
         y="97.525482"
         x="77.780441"
         sodipodi:role="line"><tspan
           id="tspan475"
           
           dy="0"
           dx="0">ø</tspan></tspan></text>
    <text
       sodipodi:linespacing="125%"
       id="text477"
       y="97.525482"
       x="79.647682"
       
       xml:space="preserve"><tspan
         id="tspan479"
         y="97.525482"
         x="79.647682"
         sodipodi:role="line"><tspan
           id="tspan481"
           
           dy="0"
           dx="0">r</tspan></tspan></text>
    <text
       sodipodi:linespacing="125%"
       id="text483"
       y="97.525482"
       x="80.829346"
       
       xml:space="preserve"><tspan
         id="tspan485"
         y="97.525482"
         x="80.829346"
         sodipodi:role="line"><tspan
           id="tspan487"
           
           dy="0"
           dx="0">de</tspan></tspan></text>
    <text
       sodipodi:linespacing="125%"
       id="text489"
       y="107.41566"
       x="75.8908"
       
       xml:space="preserve"><tspan
         id="tspan491"
         y="107.41566"
         x="75.8908"
         sodipodi:role="line"><tspan
           id="tspan493"
           
           dy="0"
           dx="0">Gaular</tspan></tspan></text>
    <text
       sodipodi:linespacing="125%"
       id="text495"
       y="125.1965"
       x="90.473892"
       
       xml:space="preserve"><tspan
         id="tspan497"
         y="125.1965"
         x="90.473892"
         sodipodi:role="line"><tspan
           id="tspan499"
           
           dy="0"
           dx="0">Bale</tspan></tspan></text>
    <text
       sodipodi:linespacing="125%"
       id="text501"
       y="125.1965"
       x="96.647331"
       
       xml:space="preserve"><tspan
         id="tspan503"
         y="125.1965"
         x="96.647331"
         sodipodi:role="line"><tspan
           id="tspan505"
           
           dy="0"
           dx="0">s</tspan></tspan></text>
    <text
       sodipodi:linespacing="125%"
       id="text507"
       y="125.1965"
       x="97.987473"
       
       xml:space="preserve"><tspan
         id="tspan509"
         y="125.1965"
         x="97.987473"
         sodipodi:role="line"><tspan
           id="tspan511"
           
           dy="0"
           dx="0">t</tspan></tspan></text>
    <text
       sodipodi:linespacing="125%"
       id="text513"
       y="125.1965"
       x="99.169144"
       
       xml:space="preserve"><tspan
         id="tspan515"
         y="125.1965"
         x="99.169144"
         sodipodi:role="line"><tspan
           id="tspan517"
           
           dy="0"
           dx="0">r</tspan></tspan></text>
    <text
       sodipodi:linespacing="125%"
       id="text519"
       y="125.1965"
       x="100.32669"
       
       xml:space="preserve"><tspan
         id="tspan521"
         y="125.1965"
         x="100.32669"
         sodipodi:role="line"><tspan
           id="tspan523"
           
           dy="0"
           dx="0">and</tspan></tspan></text>
    <text
       sodipodi:linespacing="125%"
       id="text525"
       y="125.1965"
       x="115.09306"
       
       xml:space="preserve"><tspan
         id="tspan527"
         y="125.1965"
         x="115.09306"
         sodipodi:role="line"><tspan
           id="tspan529"
           
           dy="0"
           dx="0">Lei</tspan></tspan></text>
    <text
       sodipodi:linespacing="125%"
       id="text531"
       y="125.1965"
       x="119.14104"
       
       xml:space="preserve"><tspan
         id="tspan533"
         y="125.1965"
         x="119.14104"
         sodipodi:role="line"><tspan
           id="tspan535"
           
           dy="0"
           dx="0">k</tspan></tspan></text>
    <text
       sodipodi:linespacing="125%"
       id="text537"
       y="125.1965"
       x="120.68445"
       
       xml:space="preserve"><tspan
         id="tspan539"
         y="125.1965"
         x="120.68445"
         sodipodi:role="line"><tspan
           id="tspan541"
           
           dy="0"
           dx="0">an</tspan></tspan></text>
    <text
       sodipodi:linespacing="125%"
       id="text543"
       y="125.1965"
       x="124.22773"
       
       xml:space="preserve"><tspan
         id="tspan545"
         y="125.1965"
         x="124.22773"
         sodipodi:role="line"><tspan
           id="tspan547"
           
           dy="0"
           dx="0">g</tspan></tspan></text>
    <text
       sodipodi:linespacing="125%"
       id="text549"
       y="125.1965"
       x="125.85899"
       
       xml:space="preserve"><tspan
         id="tspan551"
         y="125.1965"
         x="125.85899"
         sodipodi:role="line"><tspan
           id="tspan553"
           
           dy="0"
           dx="0">er</tspan></tspan></text>
    <text
       sodipodi:linespacing="125%"
       id="text555"
       y="108.19219"
       x="44.970726"
       
       xml:space="preserve"><tspan
         id="tspan557"
         y="108.19219"
         x="44.970726"
         sodipodi:role="line"><tspan
           id="tspan559"
           
           dy="0"
           dx="0">Fjaler</tspan></tspan></text>
    <text
       sodipodi:linespacing="125%"
       id="text561"
       y="91.971306"
       x="36.143532"
       
       xml:space="preserve"><tspan
         id="tspan563"
         y="91.971306"
         x="36.143532"
         sodipodi:role="line"><tspan
           id="tspan565"
           
           dy="0"
           dx="0">Ask</tspan></tspan></text>
    <text
       sodipodi:linespacing="125%"
       id="text567"
       y="91.971306"
       x="41.168201"
       
       xml:space="preserve"><tspan
         id="tspan569"
         y="91.971306"
         x="41.168201"
         sodipodi:role="line"><tspan
           id="tspan571"
           
           dy="0"
           dx="0">v</tspan></tspan></text>
    <text
       sodipodi:linespacing="125%"
       id="text573"
       y="91.971306"
       x="42.728832"
       
       xml:space="preserve"><tspan
         id="tspan575"
         y="91.971306"
         x="42.728832"
         sodipodi:role="line"><tspan
           id="tspan577"
           
           dy="0"
           dx="0">oll</tspan></tspan></text>
    <text
       sodipodi:linespacing="125%"
       id="text579"
       y="119.68503"
       x="30.967102"
       
       xml:space="preserve"><tspan
         id="tspan581"
         y="119.68503"
         x="30.967102"
         sodipodi:role="line"><tspan
           id="tspan583"
           
           dy="0"
           dx="0">Hylle</tspan></tspan></text>
    <text
       sodipodi:linespacing="125%"
       id="text585"
       y="119.68503"
       x="38.136345"
       
       xml:space="preserve"><tspan
         id="tspan587"
         y="119.68503"
         x="38.136345"
         sodipodi:role="line"><tspan
           id="tspan589"
           
           dy="0"
           dx="0">s</tspan></tspan></text>
    <text
       sodipodi:linespacing="125%"
       id="text591"
       y="119.68503"
       x="39.476486"
       
       xml:space="preserve"><tspan
         id="tspan593"
         y="119.68503"
         x="39.476486"
         sodipodi:role="line"><tspan
           id="tspan595"
           
           dy="0"
           dx="0">t</tspan></tspan></text>
    <text
       sodipodi:linespacing="125%"
       id="text597"
       y="119.68503"
       x="40.615089"
       
       xml:space="preserve"><tspan
         id="tspan599"
         y="119.68503"
         x="40.615089"
         sodipodi:role="line"><tspan
           id="tspan601"
           
           dy="0"
           dx="0">ad</tspan></tspan></text>
    <text
       sodipodi:linespacing="125%"
       id="text603"
       y="119.7057"
       x="0.012746849"
       
       xml:space="preserve"><tspan
         id="tspan605"
         y="119.7057"
         x="0.012746849"
         sodipodi:role="line"><tspan
           id="tspan607"
           
           dy="0"
           dx="0">Solund</tspan></tspan></text>
    <text
       sodipodi:linespacing="125%"
       id="text609"
       y="141.89728"
       x="34.701927"
       
       xml:space="preserve"><tspan
         id="tspan611"
         y="141.89728"
         x="34.701927"
         sodipodi:role="line"><tspan
           id="tspan613"
           
           dy="0"
           dx="0">Gulen</tspan></tspan></text>
    <text
       sodipodi:linespacing="125%"
       id="text615"
       y="129.4064"
       x="66.214394"
       
       xml:space="preserve"><tspan
         id="tspan617"
         y="129.4064"
         x="66.214394"
         sodipodi:role="line"><tspan
           id="tspan619"
           
           dy="0"
           dx="0">H</tspan></tspan></text>
    <text
       sodipodi:linespacing="125%"
       id="text621"
       y="129.4064"
       x="68.412361"
       
       xml:space="preserve"><tspan
         id="tspan623"
         y="129.4064"
         x="68.412361"
         sodipodi:role="line"><tspan
           id="tspan625"
           
           dy="0"
           dx="0">ø</tspan></tspan></text>
    <text
       sodipodi:linespacing="125%"
       id="text627"
       y="129.4064"
       x="70.260658"
       
       xml:space="preserve"><tspan
         id="tspan629"
         y="129.4064"
         x="70.260658"
         sodipodi:role="line"><tspan
           id="tspan631"
           
           dy="0"
           dx="0">y</tspan></tspan></text>
    <text
       sodipodi:linespacing="125%"
       id="text633"
       y="129.4064"
       x="71.804062"
       
       xml:space="preserve"><tspan
         id="tspan635"
         y="129.4064"
         x="71.804062"
         sodipodi:role="line"><tspan
           id="tspan637"
           
           dy="0"
           dx="0">an</tspan></tspan></text>
    <text
       sodipodi:linespacing="125%"
       id="text639"
       y="129.4064"
       x="75.347336"
       
       xml:space="preserve"><tspan
         id="tspan641"
         y="129.4064"
         x="75.347336"
         sodipodi:role="line"><tspan
           id="tspan643"
           
           dy="0"
           dx="0">g</tspan></tspan></text>
    <text
       sodipodi:linespacing="125%"
       id="text645"
       y="129.4064"
       x="76.978592"
       
       xml:space="preserve"><tspan
         id="tspan647"
         y="129.4064"
         x="76.978592"
         sodipodi:role="line"><tspan
           id="tspan649"
           
           dy="0"
           dx="0">er</tspan></tspan></text>
    <text
       sodipodi:linespacing="125%"
       id="text651"
       y="147.74774"
       x="105.30899"
       
       xml:space="preserve"><tspan
         id="tspan653"
         y="147.74774"
         x="105.30899"
         sodipodi:role="line"><tspan
           id="tspan655"
           
           dy="0"
           dx="0">Vik</tspan></tspan></text>
    <text
       sodipodi:linespacing="125%"
       id="text657"
       y="172.54796"
       x="140.5182"
       
       xml:space="preserve"><tspan
         id="tspan659"
         y="172.54796"
         x="140.5182"
         sodipodi:role="line"><tspan
           id="tspan661"
           
           dy="0"
           dx="0">Aurland</tspan></tspan></text>
    <text
       sodipodi:linespacing="125%"
       id="text663"
       y="153.94995"
       x="170.06749"
       
       xml:space="preserve"><tspan
         id="tspan665"
         y="153.94995"
         x="170.06749"
         sodipodi:role="line"><tspan
           id="tspan667"
           
           dy="0"
           dx="0">Læ</tspan></tspan></text>
    <text
       sodipodi:linespacing="125%"
       id="text669"
       y="153.94995"
       x="174.27739"
       
       xml:space="preserve"><tspan
         id="tspan671"
         y="153.94995"
         x="174.27739"
         sodipodi:role="line"><tspan
           id="tspan673"
           
           dy="0"
           dx="0">r</tspan></tspan></text>
    <text
       sodipodi:linespacing="125%"
       id="text675"
       y="153.94995"
       x="175.45906"
       
       xml:space="preserve"><tspan
         id="tspan677"
         y="153.94995"
         x="175.45906"
         sodipodi:role="line"><tspan
           id="tspan679"
           
           dy="0"
           dx="0">dal</tspan></tspan></text>
  </g>
</svg>
