<?xml version="1.0" encoding="UTF-8" standalone="no"?>
<svg
   xmlns:dc="http://purl.org/dc/elements/1.1/"
   xmlns:cc="http://creativecommons.org/ns#"
   xmlns:rdf="http://www.w3.org/1999/02/22-rdf-syntax-ns#"
   xmlns:svg="http://www.w3.org/2000/svg"
   xmlns="http://www.w3.org/2000/svg"
   xmlns:sodipodi="http://sodipodi.sourceforge.net/DTD/sodipodi-0.dtd"
   xmlns:inkscape="http://www.inkscape.org/namespaces/inkscape"
   version="1.0"
   width="100%"
   height="100%"
   preserveAspectRatio="keep"
   id="svg2"
   inkscape:version="0.91 r13725"
   viewBox="0 0 187.071 232.8418"
   sodipodi:docname="sor-trondelag_kommuner.svg">
  <metadata
     id="metadata645">
    <rdf:RDF>
      <cc:Work
         rdf:about="">
        <dc:format>image/svg+xml</dc:format>
        <dc:type
           rdf:resource="http://purl.org/dc/dcmitype/StillImage" />
        <dc:title></dc:title>
      </cc:Work>
    </rdf:RDF>
  </metadata>
  <sodipodi:namedview
     pagecolor="#ffffff"
     bordercolor="#666666"
     borderopacity="1"
     objecttolerance="10"
     gridtolerance="10"
     guidetolerance="10"
     inkscape:pageopacity="0"
     inkscape:pageshadow="2"
     inkscape:window-width="1440"
     inkscape:window-height="851"
     id="namedview643"
     inkscape:document-units="mm"
     showgrid="false"
     inkscape:zoom="0.81306495"
     inkscape:cx="330.15625"
     inkscape:cy="412.68622"
     inkscape:window-x="0"
     inkscape:window-y="0"
     inkscape:window-maximized="1"
     inkscape:current-layer="svg2" />
  <defs
     id="defs4">
    <pattern
       id="EMFhbasepattern"
       patternUnits="userSpaceOnUse"
       width="6"
       height="6"
       x="0"
       y="0" />
  </defs>
  <g
     id="gsortrondelag"
     inkscape:label="g16">
    <path
       inkscape:label="kn1612"
       class="land"
       id="hemne"
       d="m 43.303613,112.7125 0.705556,2.55778 0.440831,0.44083 1.852224,1.94028 3.615832,-0.61722 2.55778,2.64583 -2.469445,0.79361 -1.499447,0.52917 0.176389,3.35139 0.08805,2.29305 -3.263054,1.49945 -2.381109,-0.97028 L 42.8625,127 l -0.529167,-0.17639 -0.529166,0.35278 -3.704167,2.73417 1.499164,4.145 -2.82194,0.6175 -1.234722,-0.52917 -2.028613,-0.70555 -0.264725,0.26444 -0.352777,0.35278 0.176671,0.70555 -0.352778,0.0883 -0.352778,0.17639 -0.617502,-1.14667 -2.116667,1.41111 -0.617502,-1.76389 -2.645692,1.49945 -5.203472,-1.67584 0.881944,-2.46944 -0.79375,-1.5875 -0.617361,-1.23473 -0.440972,-0.79361 3.439583,-0.26472 5.37972,-0.88194 1.235005,-1.05834 -0.881945,-0.70555 -1.146669,-0.35278 -3.96875,0.17639 0.529167,-0.52917 -1.763889,-5.29167 2.469444,-2.55749 0.264584,-0.26473 1.852083,-5.37972 -0.264583,-0.52916 -0.79375,-2.20501 -2.028472,-0.26444 -1.146528,-0.17639 0,-1.41139 -1.322917,-4.32139 0.79375,-0.088 0.176389,0 3.880556,2.46944 0.440972,0.26445 2.293055,0.88194 1.411111,-1.5875 1.675836,0.17639 1.763889,0.17639 -0.617502,-3.704169 1.146386,0.176389 1.764171,0.17639 0.176389,0.17639 1.940278,3.26333 0.264442,0.35278 0.705556,3.175 -1.323058,3.70389 -0.176107,0.44111 -0.882226,1.5875 -1.23444,2.64583 0.61722,2.64584 0.08833,0.088 2.733887,-3.175 3.616113,-2.38111 z"
        />
    <path
       inkscape:label="kn1653"
       class="land"
       id="melhus"
       d="m 99.836111,121.00278 -2.381391,4.14528 6.43834,4.32138 1.94027,1.14667 0.70556,1.14639 3.52778,4.93889 2.91055,0.52917 0.97,1.85222 -3.35139,2.38111 -3.96861,2.82222 -0.26472,0.17639 -0.35278,0 -0.79389,0.0883 -6.438052,0.52916 -3.968609,0.3525 -1.499447,0.17667 -1.234722,0.088 -0.264442,0.0881 -0.08834,0 -0.793609,0 -5.556391,0.44111 -1.234722,1.41111 -1.322776,1.41111 -4.057226,0.88195 -0.705274,-2.29306 -1.411393,-4.7625 -1.23444,-1.23472 -1.235004,0.97028 -0.881663,-6.70278 2.20472,-3.08695 3.175,0.61751 5.026943,-3.175 1.146669,0.70555 2.028331,-1.05833 2.381391,-5.99722 0.617502,-1.32306 1.940278,-3.52778 -0.705838,-0.70556 -0.61722,-0.61722 2.293056,-1.23472 -1.058334,-0.52916 1.234722,0.44083 0.176389,0.0883 1.058334,1.85194 0.881944,1.85223 0.08834,0.17639 2.645551,-1.76389 1.146669,1.32277 0.881944,1.05834 z"
        />
    <path
       inkscape:label="kn1635"
       class="land"
       id="rennebu"
       d="m 77.081944,155.75139 2.116667,3.79222 1.763889,3.43972 1.058333,1.76389 1.146669,2.11667 0.793609,4.58611 0.529167,2.99861 0.705555,4.05695 6.173611,3.96889 0.08805,3.35139 -4.056662,0.0881 -4.586112,0.088 -0.352777,0 -0.176389,0.35306 -1.411394,2.29306 -2.733886,4.7625 -1.763889,3.175 -1.763889,2.91027 -1.322776,-8.37833 0.61722,-1.67583 0.352778,-0.97 -2.381109,-2.02861 0.264443,-0.79361 0.441113,-1.32306 -0.881945,-1.32278 -1.323057,-1.76389 -1.675554,0.61722 -1.675835,-0.0883 -0.61722,-0.52889 -2.381391,-2.205 -1.940278,2.55778 -5.026942,-5.02722 -2.381391,-2.38111 0.08834,-1.49945 -1.323058,-0.61722 -5.37972,-2.73417 2.293056,-3.35139 0,-0.17638 0,-0.79361 -0.264725,-3.43973 3.086947,-2.46944 0.61722,0.35278 3.086947,1.76388 9.965831,-7.23194 0.352778,0.0883 2.205002,0.35277 7.672775,1.32278 z"
        />
    <path
       inkscape:label="kn1664"
       class="land"
       id="selbu"
       d="m 158.57361,137.75972 -0.17639,3.88056 -7.23194,3.175 0,0.0883 -3.61612,-0.0883 -1.32277,0 -0.17639,0.17639 -1.41111,2.64583 -2.29306,4.05694 -2.29305,4.05695 -3.96861,-1.14639 -1.76389,-5.55639 -2.205,-0.17639 -3.79222,-0.0881 -1.23501,-0.0883 -1.49916,-0.35277 -2.11667,-0.52917 -0.26472,-0.17639 -1.49917,-1.41111 -7.76111,-7.14361 -0.97,-1.85222 -0.17638,-2.82223 -0.61751,-5.90888 -0.17639,-1.94028 -0.088,-0.97028 -1.14667,-1.32278 -0.44083,-0.52916 2.20472,-2.29306 3.08695,0.17639 2.38111,1.41111 9.26055,-3.175 10.93612,-1.32306 6.70277,1.67584 0.0881,0 5.90917,1.41111 7.67277,16.13944 z"
        />
    <path
       inkscape:label="kn1624"
       class="land"
       id="rissa"
       d="m 105.30417,68.791667 -0.97,0.617502 0.52917,2.822222 0.44083,1.940278 -9.701392,7.055273 -2.469445,3.704449 -3.968609,5.203331 1.322776,5.468056 -0.969998,0.705555 -3.527778,1.763889 -0.882226,-0.08805 -3.615831,-0.352778 -1.146387,-0.97028 -1.058333,-0.881944 -0.441114,-3.439443 -0.08834,-0.352777 -0.176107,-2.293338 0.881662,-1.675553 0.352778,-0.61722 -2.910275,-0.08834 -1.499165,-2.733887 -0.793891,-1.5875 0.881944,-0.617502 0.881945,-0.61722 -0.705556,-1.411111 -0.441113,-1.323058 2.205002,-2.469444 5.027225,-1.146387 0.969997,-0.176389 3.616114,-1.146669 -0.617502,-2.116666 0.97028,-1.5875 1.499164,-0.969998 3.086947,-1.5875 2.557497,-0.97028 0.352778,-3.086665 0.264725,-2.381391 0.08805,-0.08805 2.116667,-0.352778 3.968893,-0.617502 3.175,3.527778 0.79361,4.938889 z"
        />
    <path
       inkscape:label="kn1620"
       class="land"
       id="froya"
       d="m 28.398611,72.936947 -14.375694,1.411111 -10.4069448,-0.97028 0,-2.645834 13.3173608,-1.5875 10.495139,-7.496386 1.675695,1.146386 -0.881945,2.557498 1.146669,1.764171 -0.97028,5.820834 z"
        />
    <path
       inkscape:label="kn1622"
       class="land"
       id="agdenes"
       d="m 78.845833,103.98139 -4.7625,4.58611 -1.146386,0.26444 -4.233334,0.70556 0,-1.41111 -0.176389,-2.20472 -2.910557,-2.02861 -2.20472,-1.5875 -1.146669,-2.29306 -1.852225,-3.615831 -1.058333,-2.205002 1.764171,-1.940278 1.058333,-1.146387 -0.35306,-0.617502 -0.793608,-1.763889 0.97028,-0.176389 -1.146669,-2.381109 2.998611,-2.645833 3.527778,-0.617502 2.645833,-1.411111 1.411111,2.205002 0.176389,1.675553 0.08834,1.323058 0.61722,3.79222 0.617503,2.381109 0.705555,2.205002 0.176389,0.441113 0.08805,0.264443 0.705556,1.763889 0.705556,1.763888 3.439442,4.144996 0.08834,0.52945 z"
        />
    <path
       inkscape:label="kn1627"
       class="land"
       id="bjugn"
       d="m 84.402224,56.53278 0.793609,1.058333 3.263336,0.352496 1.499164,0.176671 2.822223,2.028331 2.028613,-0.793609 0.352778,2.028331 -0.264725,2.381391 -0.352778,3.086665 -2.557497,0.97028 -3.086947,1.5875 1.411111,-0.882227 -5.291667,1.235005 -4.586111,2.028331 L 76.2,73.642502 74.700836,74.259722 73.642502,72.143056 70.379167,71.966667 69.320833,70.202778 73.465831,68.968056 71.702224,68.086111 64.293891,67.821669 67.556944,63.5 l 4.497776,-0.529167 2.734169,-0.61722 1.058333,-0.264724 3.086947,-1.411111 0.528884,-1.675836 L 79.375,58.7375 78.757498,57.502778 78.581391,55.5625 l 3.086665,-0.440831 2.293055,1.5875 0.441113,-0.176389 z"
        />
    <path
       inkscape:label="kn1663"
       class="land"
       id="malvik"
       d="m 127.26472,119.85639 -9.26055,3.175 -2.38111,-1.41111 -1.67584,-2.29306 0.6175,-2.205 -1.23472,-1.67555 -1.67583,0.97 1.14667,-1.05834 -1.76389,-2.02833 -0.88195,-2.73417 -0.44111,-1.23472 -0.52917,-1.49916 -0.17639,-0.52917 2.29306,-0.35278 5.29167,0.70528 1.14666,0.52944 1.32278,0.44084 2.82222,-0.0881 0.17639,-0.0883 0,0.6175 0,2.38111 0,6.52639 5.20361,1.85222 z"
        />
    <path
       inkscape:label="kn1630"
       class="land"
       id="afjord"
       d="m 124.17778,35.101389 3.88055,0.352778 0.44083,1.675553 -2.11666,0.617502 -0.26444,0.08805 -0.88195,3.704448 -0.61722,0.528885 -2.02861,2.116667 0,4.762782 -3.08667,4.586111 -5.02722,3.086664 -8.55472,14.199447 -0.6175,-2.028613 -0.79361,-4.938889 -3.175,-3.527778 -3.968893,0.617502 -2.116667,0.352778 -0.08805,0.08805 -0.352778,-2.028331 -2.028613,0.793609 -2.822223,-2.028331 -1.499164,-0.176671 -3.263336,-0.352496 -0.793609,-1.058333 3.527496,-0.97028 5.468338,-3.351389 2.20472,2.381391 0.08805,0.176107 2.116667,-0.264442 -1.763607,-3.79222 -0.441113,-1.411111 -3.086947,0.440831 -0.881662,-3.263054 -4.498058,1.322776 -2.381391,0.61722 2.293338,-4.144998 2.469444,-3.439442 1.058334,-0.705556 0.793608,-0.529166 -0.176388,-0.529167 -1.146669,-2.293338 -0.793609,-3.615831 2.381391,0.881945 1.763889,2.645833 1.763889,-0.97028 1.499164,4.14528 8.113889,-1.322776 -0.88194,-1.323057 2.11666,-2.733887 4.58611,-1.587782 0.70556,0.529449 3.08695,2.116666 0.44083,0 9.34861,-0.441113 z"
        />
    <path
       inkscape:label="kn1632"
       class="land"
       id="roan"
       d="m 122.59028,28.222222 1.5875,6.879167 -9.34861,0.441113 -0.44083,0 -3.08695,-2.116666 -0.70556,-0.529449 -4.58611,1.587782 -2.11666,2.733887 0.88194,1.323057 -8.113889,1.322776 -1.499164,-4.14528 L 97.807498,34.30778 95.25,33.161111 93.927224,31.13278 l 3.79222,-2.293056 0.617503,-4.321668 3.880553,-0.881945 1.23472,-1.5875 -1.85222,-2.557639 4.58611,-4.233333 0.79389,2.204861 0.70556,2.204861 2.46944,1.763889 5.99722,4.586111 -0.97028,3.175141 7.40834,-0.97028 z"
        />
    <path
       inkscape:label="kn1633"
       class="land"
       id="osen"
       d="m 122.59028,28.222222 -7.40834,0.97028 0.97028,-3.175141 L 110.155,21.43125 107.68556,19.667361 106.98,17.4625 l -0.79389,-2.204861 0.088,-0.08819 0.52945,0.705556 1.49917,1.411111 3.26305,-2.822222 1.05833,-0.970139 -0.1761,-0.440972 -1.67584,-4.1451391 2.205,-1.5875 0.0881,-0.1763889 3.35139,3.439583 2.11666,-1.7638886 -3.61583,-4.3215277 -0.52916,0 -2.11667,0.4409722 -2.29306,-2.2930556 3.35139,-2.38124997 0.17639,0 1.05833,1.23472227 0.17611,0.1763888 4.14528,4.8506945 2.99861,-0.5291667 0.44112,0.79375 0.17638,0.4409722 -0.70555,2.7340278 0.70555,1.1465278 1.23473,2.38125 8.29027,4.145139 -0.70583,2.028472 -1.14639,3.439583 -0.70556,2.293056 -6.87916,2.822222 z"
        />
    <path
       inkscape:label="kn1617"
       class="land"
       id="hitra"
       d="m 33.95472,79.022222 1.411111,3.968891 3.439725,1.410829 2.469444,0.97028 0.97028,0.441114 2.998611,2.82194 -6.35,2.998893 -6.173611,2.733887 -3.086947,1.323057 -1.763889,0.705556 -8.378472,-0.793891 -1.234722,0.352778 -5.997222,2.381391 -1.5875,0.529166 -3.3513891,1.322777 -0.2645833,0 -6.96736116,-6.790832 8.37847226,-7.408334 4.6743053,1.146387 3.263195,-0.617502 3.086805,-0.528885 -0.79375,-0.97028 -3.792361,-3.968608 11.818056,-1.411112 0.617361,2.557498 2.645833,0.352778 1.411111,-4.409722 1.323058,0.529166 1.23444,0.352778 z"
        />
    <path
       inkscape:label="kn1621"
       class="land"
       id="orland"
       d="m 74.700836,74.259722 -2.910558,1.323058 -2.733887,-0.08834 -2.116667,2.645834 -4.14528,1.234722 0.793609,-7.408333 5.73278,-1.763889 1.058334,1.763889 3.263335,0.176389 1.058334,2.116666 z"
        />
    <path
       inkscape:label="kn1638"
       class="land"
       id="orkdal"
       d="m 75.582498,117.21028 0,0.6175 0,2.205 1.058333,-0.17639 -1.411111,2.99861 -0.264442,1.23472 0.97028,4.85056 -0.441114,3.88055 -2.20472,3.08695 -10.671668,-1.41111 0,-0.0883 -0.440832,-0.35277 -3.52806,-3.08667 -4.938606,-0.17639 -0.264725,-0.17639 -4.586111,-2.91055 -0.08834,-1.05834 -0.08805,-2.29305 -0.176389,-3.35139 1.499447,-0.52917 2.469445,-0.79361 6.173328,-2.73417 0.264725,-0.088 2.293055,-4.23333 7.32028,-6.70278 0.176389,2.20472 0,1.41111 4.233334,-0.70556 1.146386,-0.26444 4.7625,-4.58611 0.352778,1.41111 -1.058333,2.02833 -1.940278,4.40973 -2.557498,2.91055 -1.852224,2.20472 0.352778,0.97028 0.08834,0.26445 0.352778,1.23472 1.146387,-0.88195 1.851942,-1.32305 z"
        />
    <path
       inkscape:label="kn1634"
       class="land"
       id="oppdal"
       d="m 74.6125,199.49583 3.439724,14.19945 -7.496668,2.73389 -1.234723,4.40972 -1.763889,1.14667 -2.910557,-2.205 -1.058334,2.02861 1.587783,1.41111 -3.527778,4.40972 -9.789725,2.64584 -0.61722,-0.52917 -1.411393,-1.14667 -0.264442,-0.17639 -3.263054,-2.5575 -2.469726,-1.32305 -0.881662,-0.44084 -9.701672,-4.93888 -0.528884,-0.26473 -6.614724,-3.61583 6.526388,-5.20361 0.08834,-0.44083 1.146387,-5.64445 0.176389,-0.79389 0.617502,-2.82222 0,-0.26444 2.20472,-3.61612 -0.441114,-0.97 -0.528884,-1.14666 -0.793891,-0.0881 -2.381109,-0.0883 -0.264724,0 -0.529167,-0.70556 -9.525,-15.16944 8.202224,-4.40973 2.116667,0.35278 1.322776,0.26473 11.024446,-2.99861 2.998611,-2.20501 5.37972,2.73417 1.323058,0.61722 -0.08834,1.49945 2.381391,2.38111 5.026942,5.02722 1.940278,-2.55778 2.381391,2.205 0.61722,0.52889 1.675835,0.0883 1.675554,-0.61722 1.323057,1.76389 0.881945,1.32278 -0.441113,1.32306 -0.264443,0.79361 2.381109,2.02861 -0.352778,0.97 -0.61722,1.67583 1.322776,8.37833 z"
        />
    <path
       inkscape:label="kn1648"
       class="land"
       id="midtre_gauldal"
       d="m 127.08805,148.69583 -0.35249,1.23473 -2.11667,6.26194 -0.26472,0.61722 -0.17639,0.70556 -0.26444,0.70555 -0.0883,0.26445 0.0883,2.8225 0.088,5.02694 0,0.97028 -2.73389,3.70417 1.41111,6.96722 -0.97028,0.17639 -1.76389,0.35278 -0.35277,0.70555 -5.20333,9.96583 -2.82251,3.43973 -3.08666,-3.35139 -3.96861,0.88194 -13.053062,-4.32138 -0.08805,-3.35139 -6.173611,-3.96889 -0.705555,-4.05695 -0.529167,-2.99861 -0.793609,-4.58611 -1.146669,-2.11667 -1.058333,-1.76389 -1.763889,-3.43972 -2.116667,-3.79222 0.793892,-2.46945 0.881662,-3.35138 4.057226,-0.88195 1.322776,-1.41111 1.234722,-1.41111 5.556391,-0.44111 0.793609,0 0.08834,0 0.264442,-0.0881 1.234722,-0.088 1.499447,-0.17667 3.968609,-0.3525 6.438052,-0.52916 0.79389,-0.0883 0.35278,0 0.26472,-0.17639 3.96861,-2.82222 3.35139,-2.38111 7.76111,7.14361 1.49917,1.41111 0.26472,0.17639 2.11667,0.52917 1.49916,0.35277 z"
        />
    <path
       inkscape:label="kn1662"
       class="land"
       id="klabu"
       d="m 115.62306,121.62028 -3.08695,-0.17639 -2.20472,2.29306 0.44083,0.52916 1.14667,1.32278 0.088,0.97028 0.17639,1.94028 0.61751,5.90888 0.17638,2.82223 -2.91055,-0.52917 -3.52778,-4.93889 -0.70556,-1.14639 -1.94027,-1.14667 -6.43834,-4.32138 2.381391,-4.14528 0,-2.38111 1.763889,-0.6175 2.38139,-0.79389 1.5875,0.17667 10.05417,4.23333 z"
        />
    <path
       inkscape:label="kn1644"
       class="land"
       id="holtalen"
       d="m 140.05278,155.75139 9.26027,3.61611 1.67584,5.7325 3.43972,4.85084 9.96583,-1.14667 0.79361,5.90917 0.17667,1.23472 -1.49944,1.23472 -5.55611,4.7625 -5.64445,-0.44111 -4.49805,2.11666 -2.73417,-0.88194 -0.88166,1.5875 -0.97028,-0.17639 -0.44084,-0.17639 -1.14666,-0.26444 -0.26445,-0.0883 -1.58778,0.61751 -0.26444,0.0881 -0.52917,2.55778 -3.43972,0.61722 -1.94,2.11667 -0.97028,1.14666 -1.85194,-0.52944 0,0.0883 -0.35278,1.32306 -0.0883,0.44083 -0.0883,0 -0.61722,-0.26444 -8.73111,-4.05695 -6.87916,1.41083 5.20333,-9.96583 0.35277,-0.70555 1.76389,-0.35278 0.97028,-0.17639 -1.41111,-6.96722 2.73389,-3.70417 0,-0.97028 -0.088,-5.02694 -0.0883,-2.8225 0.0883,-0.26445 0.26444,-0.70555 0.17639,-0.70556 0.26472,-0.61722 2.11667,-6.26194 0.35249,-1.23473 1.23501,0.0883 3.79222,0.0881 2.205,0.17639 1.76389,5.55639 3.96861,1.14639 z"
        />
    <path
       inkscape:label="kn1613"
       class="land"
       id="snillfjord"
       d="m 68.527224,105.92167 -7.32028,6.70278 -2.293055,4.23333 -0.264725,0.088 -6.173328,2.73417 -2.55778,-2.64583 -3.615832,0.61722 -1.852224,-1.94028 -0.440831,-0.44083 -0.705556,-2.55778 0.440831,-0.26444 4.586112,-1.14667 4.674164,-1.14639 2.734169,-0.70555 1.499164,-1.49945 0.529449,-0.52917 -2.734169,0.17639 -1.322775,0.0881 -4.14528,0.70583 -3.79222,0.44083 -2.55778,-1.41111 -0.264442,-1.14638 -0.529449,-2.11667 1.94056,-1.76417 1.411111,-0.088 2.381109,-0.26445 1.852224,-0.17639 4.144998,-0.52944 2.028331,-0.3525 2.205002,-0.97028 -0.440831,-1.499164 -4.233333,-0.264725 -5.115278,-1.146669 -0.882227,2.381391 -3.263053,0.352778 -1.146387,0.08834 -1.234722,-2.381391 -0.529167,-1.763889 2.733887,-2.293056 1.058333,0.617502 0.97028,0.440831 2.028332,-1.499164 1.323057,-0.881944 3.439443,-2.822223 1.411111,3.263054 2.733886,-3.263054 3.792503,-0.617502 0.793608,1.763889 0.35306,0.617502 -1.058333,1.146387 -1.764171,1.940278 1.058333,2.205002 1.852225,3.615831 1.146669,2.29306 2.20472,1.5875 2.910557,2.02861 z"
        />
    <path
       inkscape:label="kn1657"
       class="land"
       id="skaun"
       d="m 90.4875,117.73972 0.61722,0.61722 0.705838,0.70556 -1.940278,3.52778 -0.617502,1.32306 -2.381391,5.99722 -2.028331,1.05833 -1.146669,-0.70555 -5.026943,3.175 -3.175,-0.61751 0.441114,-3.88055 -0.97028,-4.85056 0.264442,-1.23472 1.411111,-2.99861 -1.058333,0.17639 0,-2.205 0,-0.6175 0.176671,-0.17611 3.086664,-1.67584 3.263336,-0.79361 0.352778,0.88195 1.763889,1.5875 2.998328,1.32277 2.293338,-0.35277 0.793609,-0.17639 0.176389,-0.0881 z"
        />
    <path
       inkscape:label="kn1640"
       class="land"
       id="roros"
       d="m 181.06305,185.47306 -1.14638,3.52778 -0.26445,0.7936 -0.88194,2.73417 -0.26472,1.05834 -0.61751,1.76389 -0.44083,1.41111 -0.17639,0.44083 -0.26444,0.97028 -0.6175,1.67555 0.6175,2.02861 0.88166,3.26306 0.70584,2.46944 1.49917,5.46806 1.05833,3.61611 0.6175,2.5575 1.05833,3.61611 0.70528,2.46945 0.26472,0.96999 0.70556,2.73417 0.44111,1.41111 -6.26195,2.02834 -3.88055,-4.32139 -3.175,-0.97028 -0.52917,-0.17639 -3.43972,-1.05833 -3.26306,-1.14639 -3.43972,-0.97028 -1.94,2.82222 -0.70555,0.88195 -1.49945,-0.44083 -0.61722,-3.43973 -0.44111,0 -3.08667,0.52917 -2.29333,0.26472 -3.43945,-7.84944 -2.20472,-2.73389 -4.32166,-5.38 -0.52917,-0.17639 -0.97,-0.52917 -1.5875,-0.88194 -1.05833,-0.52917 -0.6175,-3.96861 -1.94028,-0.97028 -0.17639,-0.88194 -0.97,-5.20333 -0.17667,-1.5875 -1.67555,-1.67584 0.0883,-0.44083 0.35278,-1.32306 0,-0.0883 1.85194,0.52944 0.97028,-1.14666 1.94,-2.11667 3.43972,-0.61722 0.52917,-2.55778 0.26444,-0.0881 1.58778,-0.61751 0.26445,0.0883 1.14666,0.26444 0.44084,0.17639 0.97028,0.17639 0.88166,-1.5875 2.73417,0.88194 4.49805,-2.11666 5.64445,0.44111 5.55611,-4.7625 1.49944,-1.23472 0.61722,0.35278 1.67556,1.05833 2.11666,1.23444 11.28889,6.87945 z"
        />
    <path
       inkscape:label="kn1636"
       class="land"
       id="meldal"
       d="m 73.289724,135.90778 0.881663,6.70278 1.235004,-0.97028 1.23444,1.23472 1.411393,4.7625 0.705274,2.29306 -0.881662,3.35138 -0.793892,2.46945 -7.672775,-1.32278 -2.205002,-0.35277 -0.352778,-0.0883 -9.965831,7.23194 -3.086947,-1.76388 -0.61722,-0.35278 -3.086947,2.46944 -0.176388,-5.46805 -0.08834,-1.49917 3.263336,-4.05694 0.793891,-0.17639 3.880555,-1.05833 -2.910558,-0.61751 -1.5875,-0.35277 -0.08805,-0.70556 -0.352778,-1.94028 -2.116666,-1.23472 0.793609,-4.85055 0.352777,-0.70556 1.323058,-3.08695 -0.529167,-3.26305 1.058334,-1.23472 0,-0.52917 4.938606,0.17639 3.52806,3.08667 0.440832,0.35277 0,0.0883 10.671668,1.41111 z"
        />
    <path
       inkscape:label="kn1601"
       class="land"
       id="trondheim"
       d="m 109.00833,107.33278 0.17639,0.52917 0.52917,1.49916 0.44111,1.23472 0.88195,2.73417 1.76389,2.02833 -1.14667,1.05834 1.67583,-0.97 1.23472,1.67555 -0.6175,2.205 1.67584,2.29306 -10.05417,-4.23333 -1.5875,-0.17667 -2.38139,0.79389 -1.763889,0.6175 0,2.38111 -0.881944,-1.05834 -1.146669,-1.32277 -2.645551,1.76389 -0.08834,-0.17639 -0.881944,-1.85223 -1.058334,-1.85194 -0.176389,-0.0883 -1.234722,-0.44083 -1.763889,-0.70556 -3.351389,-0.52917 -2.116666,-3.70416 0.61722,-3.52778 3.52806,-2.29306 0.352495,-0.17639 4.057227,-1.05833 0.881944,-0.17639 2.910276,1.32278 1.146669,1.32306 0.264442,0.35277 3.351389,-0.79389 1.85222,-1.23472 2.02834,0.97028 1.94027,1.85194 1.5875,-0.26444 z"
        />
    <path
            inkscape:label="kn1665"
       class="land"
       id="tydal"
       d="m 181.06305,185.47306 -11.28889,-6.87945 -2.11666,-1.23444 -1.67556,-1.05833 -0.61722,-0.35278 -0.17667,-1.23472 -0.79361,-5.90917 -9.96583,1.14667 -3.43972,-4.85084 -1.67584,-5.7325 -9.26027,-3.61611 2.29305,-4.05695 2.29306,-4.05694 1.41111,-2.64583 0.17639,-0.17639 1.32277,0 3.61612,0.0883 0,-0.0883 7.23194,-3.175 0.17639,-3.88056 3.88056,-0.17639 10.75972,-0.61722 2.73417,0.70556 3.08666,0.79361 0.97,2.38139 0.88223,2.64583 0.26444,0.79361 0.79389,2.02861 0.44083,1.32278 0.52917,1.41111 1.32277,3.52778 1.23501,3.61611 0.79361,2.29278 -2.46945,3.43972 -1.05833,1.41111 -0.88195,1.14667 -1.85222,2.64583 -1.23444,1.5875 0.61722,4.58583 0.26472,1.85223 0.26445,1.49944 0.44083,3.70417 0.70555,5.11528 z"
        />
    <text
       sodipodi:linespacing="125%"
       id="text103"
       y="21.808489"
       x="115.42413"
       
       xml:space="preserve"><tspan
         id="tspan105"
         y="21.808489"
         x="115.42413"
         sodipodi:role="line"><tspan
           id="tspan107"
           
           dy="0"
           dx="0">1633</tspan></tspan></text>
    <text
       sodipodi:linespacing="125%"
       id="text109"
       y="31.432018"
       x="102.79424"
       
       xml:space="preserve"><tspan
         id="tspan111"
         y="31.432018"
         x="102.79424"
         sodipodi:role="line"><tspan
           id="tspan113"
           
           dy="0"
           dx="0">1632</tspan></tspan></text>
    <text
       sodipodi:linespacing="125%"
       id="text115"
       y="51.579967"
       x="103.57301"
       
       xml:space="preserve"><tspan
         id="tspan117"
         y="51.579967"
         x="103.57301"
         sodipodi:role="line"><tspan
           id="tspan119"
           
           dy="0"
           dx="0">1630</tspan></tspan></text>
    <text
       sodipodi:linespacing="125%"
       id="text121"
       y="84.189865"
       x="83.498611"
       
       xml:space="preserve"><tspan
         id="tspan123"
         y="84.189865"
         x="83.498611"
         sodipodi:role="line"><tspan
           id="tspan125"
           
           dy="0"
           dx="0">1624</tspan></tspan></text>
    <text
       sodipodi:linespacing="125%"
       id="text127"
       y="68.110054"
       x="79.54174"
       
       xml:space="preserve"><tspan
         id="tspan129"
         y="68.110054"
         x="79.54174"
         sodipodi:role="line"><tspan
           id="tspan131"
           
           dy="0"
           dx="0">1627</tspan></tspan></text>
    <text
       sodipodi:linespacing="125%"
       id="text133"
       y="76.479744"
       x="54.741188"
       
       xml:space="preserve"><tspan
         id="tspan135"
         y="76.479744"
         x="54.741188"
         sodipodi:role="line"><tspan
           id="tspan137"
           
           dy="0"
           dx="0">1621</tspan></tspan></text>
    <text
       sodipodi:linespacing="125%"
       id="text139"
       y="98.992752"
       x="64.448257"
       
       xml:space="preserve"><tspan
         id="tspan141"
         y="98.992752"
         x="64.448257"
         sodipodi:role="line"><tspan
           id="tspan143"
           
           dy="0"
           dx="0">1622</tspan></tspan></text>
    <text
       sodipodi:linespacing="125%"
       id="text145"
       y="109.71957"
       x="50.692169"
       
       xml:space="preserve"><tspan
         id="tspan147"
         y="109.71957"
         x="50.692169"
         sodipodi:role="line"><tspan
           id="tspan149"
           
           dy="0"
           dx="0">1613</tspan></tspan></text>
    <text
       sodipodi:linespacing="125%"
       id="text151"
       y="91.972679"
       x="23.468508"
       
       xml:space="preserve"><tspan
         id="tspan153"
         y="91.972679"
         x="23.468508"
         sodipodi:role="line"><tspan
           id="tspan155"
           
           dy="0"
           dx="0">1617</tspan></tspan></text>
    <text
       sodipodi:linespacing="125%"
       id="text157"
       y="71.87468"
       x="21.260717"
       
       xml:space="preserve"><tspan
         id="tspan159"
         y="71.87468"
         x="21.260717"
         sodipodi:role="line"><tspan
           id="tspan161"
           
           dy="0"
           dx="0">1620</tspan></tspan></text>
    <text
       sodipodi:linespacing="125%"
       id="text163"
       y="125.22044"
       x="32.544437"
       
       xml:space="preserve"><tspan
         id="tspan165"
         y="125.22044"
         x="32.544437"
         sodipodi:role="line"><tspan
           id="tspan167"
           
           dy="0"
           dx="0">1612</tspan></tspan></text>
    <text
       sodipodi:linespacing="125%"
       id="text169"
       y="126.8746"
       x="59.570869"
       
       xml:space="preserve"><tspan
         id="tspan171"
         y="126.8746"
         x="59.570869"
         sodipodi:role="line"><tspan
           id="tspan173"
           
           dy="0"
           dx="0">1638</tspan></tspan></text>
    <text
       sodipodi:linespacing="125%"
       id="text175"
       y="126.87425"
       x="78.932823"
       
       xml:space="preserve"><tspan
         id="tspan177"
         y="126.87425"
         x="78.932823"
         sodipodi:role="line"><tspan
           id="tspan179"
           
           dy="0"
           dx="0">1657</tspan></tspan></text>
    <text
       sodipodi:linespacing="125%"
       id="text181"
       y="116.18619"
       x="96.043922"
       
       xml:space="preserve"><tspan
         id="tspan183"
         y="116.18619"
         x="96.043922"
         sodipodi:role="line"><tspan
           id="tspan185"
           
           dy="0"
           dx="0">1601</tspan></tspan></text>
    <text
       sodipodi:linespacing="125%"
       id="text187"
       y="115.03001"
       x="113.34674"
       
       xml:space="preserve"><tspan
         id="tspan189"
         y="115.03001"
         x="113.34674"
         sodipodi:role="line"><tspan
           id="tspan191"
           
           dy="0"
           dx="0">1663</tspan></tspan></text>
    <text
       sodipodi:linespacing="125%"
       id="text193"
       y="127.55035"
       x="102.38669"
       
       xml:space="preserve"><tspan
         id="tspan195"
         y="127.55035"
         x="102.38669"
         sodipodi:role="line"><tspan
           id="tspan197"
           
           dy="0"
           dx="0">1662</tspan></tspan></text>
    <text
       sodipodi:linespacing="125%"
       id="text199"
       y="139.63902"
       x="89.963501"
       
       xml:space="preserve"><tspan
         id="tspan201"
         y="139.63902"
         x="89.963501"
         sodipodi:role="line"><tspan
           id="tspan203"
           
           dy="0"
           dx="0">1653</tspan></tspan></text>
    <text
       sodipodi:linespacing="125%"
       id="text205"
       y="148.46432"
       x="61.974342"
       
       xml:space="preserve"><tspan
         id="tspan207"
         y="148.46432"
         x="61.974342"
         sodipodi:role="line"><tspan
           id="tspan209"
           
           dy="0"
           dx="0">1636</tspan></tspan></text>
    <text
       sodipodi:linespacing="125%"
       id="text211"
       y="138.22894"
       x="131.15857"
       
       xml:space="preserve"><tspan
         id="tspan213"
         y="138.22894"
         x="131.15857"
         sodipodi:role="line"><tspan
           id="tspan215"
           
           dy="0"
           dx="0">1664</tspan></tspan></text>
    <text
       sodipodi:linespacing="125%"
       id="text217"
       y="165.52271"
       x="97.764229"
       
       xml:space="preserve"><tspan
         id="tspan219"
         y="165.52271"
         x="97.764229"
         sodipodi:role="line"><tspan
           id="tspan221"
           
           dy="0"
           dx="0">1648</tspan></tspan></text>
    <text
       sodipodi:linespacing="125%"
       id="text223"
       y="174.39935"
       x="65.585663"
       
       xml:space="preserve"><tspan
         id="tspan225"
         y="174.39935"
         x="65.585663"
         sodipodi:role="line"><tspan
           id="tspan227"
           
           dy="0"
           dx="0">1635</tspan></tspan></text>
    <text
       sodipodi:linespacing="125%"
       id="text229"
       y="200.50835"
       x="50.05431"
       
       xml:space="preserve"><tspan
         id="tspan231"
         y="200.50835"
         x="50.05431"
         sodipodi:role="line"><tspan
           id="tspan233"
           
           dy="0"
           dx="0">1634</tspan></tspan></text>
    <text
       sodipodi:linespacing="125%"
       id="text235"
       y="175.48042"
       x="134.44244"
       
       xml:space="preserve"><tspan
         id="tspan237"
         y="175.48042"
         x="134.44244"
         sodipodi:role="line"><tspan
           id="tspan239"
           
           dy="0"
           dx="0">1644</tspan></tspan></text>
    <text
       sodipodi:linespacing="125%"
       id="text241"
       y="160.39882"
       x="162.07521"
       
       xml:space="preserve"><tspan
         id="tspan243"
         y="160.39882"
         x="162.07521"
         sodipodi:role="line"><tspan
           id="tspan245"
           
           dy="0"
           dx="0">1665</tspan></tspan></text>
    <text
       sodipodi:linespacing="125%"
       id="text247"
       y="204.23524"
       x="153.64299"
       
       xml:space="preserve"><tspan
         id="tspan249"
         y="204.23524"
         x="153.64299"
         sodipodi:role="line"><tspan
           id="tspan251"
           
           dy="0"
           dx="0">1640</tspan></tspan></text>
    <text
       sodipodi:linespacing="125%"
       id="text253"
       y="18.422304"
       x="114.6228"
       
       xml:space="preserve"><tspan
         id="tspan255"
         y="18.422304"
         x="114.6228"
         sodipodi:role="line"><tspan
           id="tspan257"
           
           dy="0"
           dx="0">Osen</tspan></tspan></text>
    <text
       sodipodi:linespacing="125%"
       id="text259"
       y="28.045834"
       x="102.03167"
       
       xml:space="preserve"><tspan
         id="tspan261"
         y="28.045834"
         x="102.03167"
         sodipodi:role="line"><tspan
           id="tspan263"
           
           dy="0"
           dx="0">R</tspan></tspan></text>
    <text
       sodipodi:linespacing="125%"
       id="text265"
       y="28.045834"
       x="103.87479"
       
       xml:space="preserve"><tspan
         id="tspan267"
         y="28.045834"
         x="103.87479"
         sodipodi:role="line"><tspan
           id="tspan269"
           
           dy="0"
           dx="0">oan</tspan></tspan></text>
    <text
       sodipodi:linespacing="125%"
       id="text271"
       y="48.193787"
       x="102.03185"
       
       xml:space="preserve"><tspan
         id="tspan273"
         y="48.193787"
         x="102.03185"
         sodipodi:role="line"><tspan
           id="tspan275"
           
           dy="0"
           dx="0">Åfjo</tspan></tspan></text>
    <text
       sodipodi:linespacing="125%"
       id="text277"
       y="48.193787"
       x="107.80048"
       
       xml:space="preserve"><tspan
         id="tspan279"
         y="48.193787"
         x="107.80048"
         sodipodi:role="line"><tspan
           id="tspan281"
           
           dy="0"
           dx="0">r</tspan></tspan></text>
    <text
       sodipodi:linespacing="125%"
       id="text283"
       y="48.193787"
       x="108.98215"
       
       xml:space="preserve"><tspan
         id="tspan285"
         y="48.193787"
         x="108.98215"
         sodipodi:role="line"><tspan
           id="tspan287"
           
           dy="0"
           dx="0">d</tspan></tspan></text>
    <text
       sodipodi:linespacing="125%"
       id="text289"
       y="64.724045"
       x="78.337334"
       
       xml:space="preserve"><tspan
         id="tspan291"
         y="64.724045"
         x="78.337334"
         sodipodi:role="line"><tspan
           id="tspan293"
           
           dy="0"
           dx="0">Bjugn</tspan></tspan></text>
    <text
       sodipodi:linespacing="125%"
       id="text295"
       y="80.803856"
       x="82.772209"
       
       xml:space="preserve"><tspan
         id="tspan297"
         y="80.803856"
         x="82.772209"
         sodipodi:role="line"><tspan
           id="tspan299"
           
           dy="0"
           dx="0">Rissa</tspan></tspan></text>
    <text
       sodipodi:linespacing="125%"
       id="text301"
       y="73.093559"
       x="52.713406"
       
       xml:space="preserve"><tspan
         id="tspan303"
         y="73.093559"
         x="52.713406"
         sodipodi:role="line"><tspan
           id="tspan305"
           
           dy="0"
           dx="0">Ørland</tspan></tspan></text>
    <text
       sodipodi:linespacing="125%"
       id="text307"
       y="95.606567"
       x="61.175938"
       
       xml:space="preserve"><tspan
         id="tspan309"
         y="95.606567"
         x="61.175938"
         sodipodi:role="line"><tspan
           id="tspan311"
           
           dy="0"
           dx="0">A</tspan></tspan></text>
    <text
       sodipodi:linespacing="125%"
       id="text313"
       y="95.606567"
       x="63.217155"
       
       xml:space="preserve"><tspan
         id="tspan315"
         y="95.606567"
         x="63.217155"
         sodipodi:role="line"><tspan
           id="tspan317"
           
           dy="0"
           dx="0">g</tspan></tspan></text>
    <text
       sodipodi:linespacing="125%"
       id="text319"
       y="95.606567"
       x="64.844963"
       
       xml:space="preserve"><tspan
         id="tspan321"
         y="95.606567"
         x="64.844963"
         sodipodi:role="line"><tspan
           id="tspan323"
           
           dy="0"
           dx="0">denes</tspan></tspan></text>
    <text
       sodipodi:linespacing="125%"
       id="text325"
       y="68.48867"
       x="20.183781"
       
       xml:space="preserve"><tspan
         id="tspan327"
         y="68.48867"
         x="20.183781"
         sodipodi:role="line"><tspan
           id="tspan329"
           
           dy="0"
           dx="0">F</tspan></tspan></text>
    <text
       sodipodi:linespacing="125%"
       id="text331"
       y="68.48867"
       x="21.804699"
       
       xml:space="preserve"><tspan
         id="tspan333"
         y="68.48867"
         x="21.804699"
         sodipodi:role="line"><tspan
           id="tspan335"
           
           dy="0"
           dx="0">r</tspan></tspan></text>
    <text
       sodipodi:linespacing="125%"
       id="text337"
       y="68.48867"
       x="22.977753"
       
       xml:space="preserve"><tspan
         id="tspan339"
         y="68.48867"
         x="22.977753"
         sodipodi:role="line"><tspan
           id="tspan341"
           
           dy="0"
           dx="0">ø</tspan></tspan></text>
    <text
       sodipodi:linespacing="125%"
       id="text343"
       y="68.48867"
       x="24.826048"
       
       xml:space="preserve"><tspan
         id="tspan345"
         y="68.48867"
         x="24.826048"
         sodipodi:role="line"><tspan
           id="tspan347"
           
           dy="0"
           dx="0">y</tspan></tspan></text>
    <text
       sodipodi:linespacing="125%"
       id="text349"
       y="68.48867"
       x="26.36945"
       
       xml:space="preserve"><tspan
         id="tspan351"
         y="68.48867"
         x="26.36945"
         sodipodi:role="line"><tspan
           id="tspan353"
           
           dy="0"
           dx="0">a</tspan></tspan></text>
    <text
       sodipodi:linespacing="125%"
       id="text355"
       y="88.586494"
       x="22.81101"
       
       xml:space="preserve"><tspan
         id="tspan357"
         y="88.586494"
         x="22.81101"
         sodipodi:role="line"><tspan
           id="tspan359"
           
           dy="0"
           dx="0">Hit</tspan></tspan></text>
    <text
       sodipodi:linespacing="125%"
       id="text361"
       y="88.586494"
       x="27.000246"
       
       xml:space="preserve"><tspan
         id="tspan363"
         y="88.586494"
         x="27.000246"
         sodipodi:role="line"><tspan
           id="tspan365"
           
           dy="0"
           dx="0">r</tspan></tspan></text>
    <text
       sodipodi:linespacing="125%"
       id="text367"
       y="88.586494"
       x="28.157799"
       
       xml:space="preserve"><tspan
         id="tspan369"
         y="88.586494"
         x="28.157799"
         sodipodi:role="line"><tspan
           id="tspan371"
           
           dy="0"
           dx="0">a</tspan></tspan></text>
    <text
       sodipodi:linespacing="125%"
       id="text373"
       y="106.33339"
       x="47.220028"
       
       xml:space="preserve"><tspan
         id="tspan375"
         y="106.33339"
         x="47.220028"
         sodipodi:role="line"><tspan
           id="tspan377"
           
           dy="0"
           dx="0">Snillfjo</tspan></tspan></text>
    <text
       sodipodi:linespacing="125%"
       id="text379"
       y="106.33339"
       x="56.850792"
       
       xml:space="preserve"><tspan
         id="tspan381"
         y="106.33339"
         x="56.850792"
         sodipodi:role="line"><tspan
           id="tspan383"
           
           dy="0"
           dx="0">r</tspan></tspan></text>
    <text
       sodipodi:linespacing="125%"
       id="text385"
       y="106.33339"
       x="58.032459"
       
       xml:space="preserve"><tspan
         id="tspan387"
         y="106.33339"
         x="58.032459"
         sodipodi:role="line"><tspan
           id="tspan389"
           
           dy="0"
           dx="0">d</tspan></tspan></text>
    <text
       sodipodi:linespacing="125%"
       id="text391"
       y="121.83443"
       x="30.21521"
       
       xml:space="preserve"><tspan
         id="tspan393"
         y="121.83443"
         x="30.21521"
         sodipodi:role="line"><tspan
           id="tspan395"
           
           dy="0"
           dx="0">Hemne</tspan></tspan></text>
    <text
       sodipodi:linespacing="125%"
       id="text397"
       y="123.48841"
       x="57.718784"
       
       xml:space="preserve"><tspan
         id="tspan399"
         y="123.48841"
         x="57.718784"
         sodipodi:role="line"><tspan
           id="tspan401"
           
           dy="0"
           dx="0">Or</tspan></tspan></text>
    <text
       sodipodi:linespacing="125%"
       id="text403"
       y="123.48841"
       x="61.284458"
       
       xml:space="preserve"><tspan
         id="tspan405"
         y="123.48841"
         x="61.284458"
         sodipodi:role="line"><tspan
           id="tspan407"
           
           dy="0"
           dx="0">k</tspan></tspan></text>
    <text
       sodipodi:linespacing="125%"
       id="text409"
       y="123.48841"
       x="62.791687"
       
       xml:space="preserve"><tspan
         id="tspan411"
         y="123.48841"
         x="62.791687"
         sodipodi:role="line"><tspan
           id="tspan413"
           
           dy="0"
           dx="0">dal</tspan></tspan></text>
    <text
       sodipodi:linespacing="125%"
       id="text415"
       y="123.48824"
       x="77.5131"
       
       xml:space="preserve"><tspan
         id="tspan417"
         y="123.48824"
         x="77.5131"
         sodipodi:role="line"><tspan
           id="tspan419"
           
           dy="0"
           dx="0">S</tspan></tspan></text>
    <text
       sodipodi:linespacing="125%"
       id="text421"
       y="123.48824"
       x="79.134018"
       
       xml:space="preserve"><tspan
         id="tspan423"
         y="123.48824"
         x="79.134018"
         sodipodi:role="line"><tspan
           id="tspan425"
           
           dy="0"
           dx="0">k</tspan></tspan></text>
    <text
       sodipodi:linespacing="125%"
       id="text427"
       y="123.48824"
       x="80.677422"
       
       xml:space="preserve"><tspan
         id="tspan429"
         y="123.48824"
         x="80.677422"
         sodipodi:role="line"><tspan
           id="tspan431"
           
           dy="0"
           dx="0">aun</tspan></tspan></text>
    <text
       sodipodi:linespacing="125%"
       id="text433"
       y="112.79984"
       x="91.166183"
       
       xml:space="preserve"><tspan
         id="tspan435"
         y="112.79984"
         x="91.166183"
         sodipodi:role="line"><tspan
           id="tspan437"
           
           dy="0"
           dx="0">T</tspan></tspan></text>
    <text
       sodipodi:linespacing="125%"
       id="text439"
       y="112.79984"
       x="92.666527"
       
       xml:space="preserve"><tspan
         id="tspan441"
         y="112.79984"
         x="92.666527"
         sodipodi:role="line"><tspan
           id="tspan443"
           
           dy="0"
           dx="0">r</tspan></tspan></text>
    <text
       sodipodi:linespacing="125%"
       id="text445"
       y="112.79984"
       x="93.839577"
       
       xml:space="preserve"><tspan
         id="tspan447"
         y="112.79984"
         x="93.839577"
         sodipodi:role="line"><tspan
           id="tspan449"
           
           dy="0"
           dx="0">ondheim</tspan></tspan></text>
    <text
       sodipodi:linespacing="125%"
       id="text451"
       y="111.64383"
       x="111.44643"
       
       xml:space="preserve"><tspan
         id="tspan453"
         y="111.64383"
         x="111.44643"
         sodipodi:role="line"><tspan
           id="tspan455"
           
           dy="0"
           dx="0">Malvik</tspan></tspan></text>
    <text
       sodipodi:linespacing="125%"
       id="text457"
       y="124.16434"
       x="100.70944"
       
       xml:space="preserve"><tspan
         id="tspan459"
         y="124.16434"
         x="100.70944"
         sodipodi:role="line"><tspan
           id="tspan461"
           
           dy="0"
           dx="0">Klæbu</tspan></tspan></text>
    <text
       sodipodi:linespacing="125%"
       id="text463"
       y="136.25284"
       x="87.49044"
       
       xml:space="preserve"><tspan
         id="tspan465"
         y="136.25284"
         x="87.49044"
         sodipodi:role="line"><tspan
           id="tspan467"
           
           dy="0"
           dx="0">Melhus</tspan></tspan></text>
    <text
       sodipodi:linespacing="125%"
       id="text469"
       y="134.84276"
       x="130.07303"
       
       xml:space="preserve"><tspan
         id="tspan471"
         y="134.84276"
         x="130.07303"
         sodipodi:role="line"><tspan
           id="tspan473"
           
           dy="0"
           dx="0">Selbu</tspan></tspan></text>
    <text
       sodipodi:linespacing="125%"
       id="text475"
       y="145.07814"
       x="59.868179"
       
       xml:space="preserve"><tspan
         id="tspan477"
         y="145.07814"
         x="59.868179"
         sodipodi:role="line"><tspan
           id="tspan479"
           
           dy="0"
           dx="0">Meldal</tspan></tspan></text>
    <text
       sodipodi:linespacing="125%"
       id="text481"
       y="171.01317"
       x="62.057541"
       
       xml:space="preserve"><tspan
         id="tspan483"
         y="171.01317"
         x="62.057541"
         sodipodi:role="line"><tspan
           id="tspan485"
           
           dy="0"
           dx="0">R</tspan></tspan></text>
    <text
       sodipodi:linespacing="125%"
       id="text487"
       y="171.01317"
       x="63.910999"
       
       xml:space="preserve"><tspan
         id="tspan489"
         y="171.01317"
         x="63.910999"
         sodipodi:role="line"><tspan
           id="tspan491"
           
           dy="0"
           dx="0">ennebu</tspan></tspan></text>
    <text
       sodipodi:linespacing="125%"
       id="text493"
       y="197.12216"
       x="47.717327"
       
       xml:space="preserve"><tspan
         id="tspan495"
         y="197.12216"
         x="47.717327"
         sodipodi:role="line"><tspan
           id="tspan497"
           
           dy="0"
           dx="0">Oppdal</tspan></tspan></text>
    <text
       sodipodi:linespacing="125%"
       id="text499"
       y="162.13654"
       x="89.86084"
       
       xml:space="preserve"><tspan
         id="tspan501"
         y="162.13654"
         x="89.86084"
         sodipodi:role="line"><tspan
           id="tspan503"
           
           dy="0"
           dx="0">Midt</tspan></tspan></text>
    <text
       sodipodi:linespacing="125%"
       id="text505"
       y="162.13654"
       x="96.721741"
       
       xml:space="preserve"><tspan
         id="tspan507"
         y="162.13654"
         x="96.721741"
         sodipodi:role="line"><tspan
           id="tspan509"
           
           dy="0"
           dx="0">r</tspan></tspan></text>
    <text
       sodipodi:linespacing="125%"
       id="text511"
       y="162.13654"
       x="97.905136"
       
       xml:space="preserve"><tspan
         id="tspan513"
         y="162.13654"
         x="97.905136"
         sodipodi:role="line"><tspan
           id="tspan515"
           
           dy="0"
           dx="0">e Gauldal</tspan></tspan></text>
    <text
       sodipodi:linespacing="125%"
       id="text517"
       y="172.09424"
       x="131.24573"
       
       xml:space="preserve"><tspan
         id="tspan519"
         y="172.09424"
         x="131.24573"
         sodipodi:role="line"><tspan
           id="tspan521"
           
           dy="0"
           dx="0">Hol</tspan></tspan></text>
    <text
       sodipodi:linespacing="125%"
       id="text523"
       y="172.09424"
       x="136.11366"
       
       xml:space="preserve"><tspan
         id="tspan525"
         y="172.09424"
         x="136.11366"
         sodipodi:role="line"><tspan
           id="tspan527"
           
           dy="0"
           dx="0">t</tspan></tspan></text>
    <text
       sodipodi:linespacing="125%"
       id="text529"
       y="172.09424"
       x="137.25226"
       
       xml:space="preserve"><tspan
         id="tspan531"
         y="172.09424"
         x="137.25226"
         sodipodi:role="line"><tspan
           id="tspan533"
           
           dy="0"
           dx="0">ålen</tspan></tspan></text>
    <text
       sodipodi:linespacing="125%"
       id="text535"
       y="157.01263"
       x="161.20256"
       
       xml:space="preserve"><tspan
         id="tspan537"
         y="157.01263"
         x="161.20256"
         sodipodi:role="line"><tspan
           id="tspan539"
           
           dy="0"
           dx="0">T</tspan></tspan></text>
    <text
       sodipodi:linespacing="125%"
       id="text541"
       y="157.01263"
       x="162.76147"
       
       xml:space="preserve"><tspan
         id="tspan543"
         y="157.01263"
         x="162.76147"
         sodipodi:role="line"><tspan
           id="tspan545"
           
           dy="0"
           dx="0">y</tspan></tspan></text>
    <text
       sodipodi:linespacing="125%"
       id="text547"
       y="157.01263"
       x="164.31693"
       
       xml:space="preserve"><tspan
         id="tspan549"
         y="157.01263"
         x="164.31693"
         sodipodi:role="line"><tspan
           id="tspan551"
           
           dy="0"
           dx="0">dal</tspan></tspan></text>
    <text
       sodipodi:linespacing="125%"
       id="text553"
       y="200.84906"
       x="152.44203"
       
       xml:space="preserve"><tspan
         id="tspan555"
         y="200.84906"
         x="152.44203"
         sodipodi:role="line"><tspan
           id="tspan557"
           
           dy="0"
           dx="0">R</tspan></tspan></text>
    <text
       sodipodi:linespacing="125%"
       id="text559"
       y="200.84906"
       x="154.28516"
       
       xml:space="preserve"><tspan
         id="tspan561"
         y="200.84906"
         x="154.28516"
         sodipodi:role="line"><tspan
           id="tspan563"
           
           dy="0"
           dx="0">ø</tspan></tspan></text>
    <text
       sodipodi:linespacing="125%"
       id="text565"
       y="200.84906"
       x="156.1524"
       
       xml:space="preserve"><tspan
         id="tspan567"
         y="200.84906"
         x="156.1524"
         sodipodi:role="line"><tspan
           id="tspan569"
           
           dy="0"
           dx="0">r</tspan></tspan></text>
    <text
       sodipodi:linespacing="125%"
       id="text571"
       y="200.84906"
       x="157.32545"
       
       xml:space="preserve"><tspan
         id="tspan573"
         y="200.84906"
         x="157.32545"
         sodipodi:role="line"><tspan
           id="tspan575"
           
           dy="0"
           dx="0">os</tspan></tspan></text>
  </g>
</svg>
