<?xml version="1.0" encoding="UTF-8" standalone="no"?>
<svg
   xmlns:dc="http://purl.org/dc/elements/1.1/"
   xmlns:cc="http://creativecommons.org/ns#"
   xmlns:rdf="http://www.w3.org/1999/02/22-rdf-syntax-ns#"
   xmlns:svg="http://www.w3.org/2000/svg"
   xmlns="http://www.w3.org/2000/svg"
   xmlns:sodipodi="http://sodipodi.sourceforge.net/DTD/sodipodi-0.dtd"
   xmlns:inkscape="http://www.inkscape.org/namespaces/inkscape"
   version="1.0"
   width="100%"
   height="100%"
   viewBox="0 0 189 203"
   id="telemark"
   inkscape:version="0.91 r13725"
   sodipodi:docname="telemark_kommuner.svg">
  <metadata
     id="metadata531">
    <rdf:RDF>
      <cc:Work
         rdf:about="">
        <dc:format>image/svg+xml</dc:format>
        <dc:type
           rdf:resource="http://purl.org/dc/dcmitype/StillImage" />
        <dc:title></dc:title>
      </cc:Work>
    </rdf:RDF>
  </metadata>
  <sodipodi:namedview
     pagecolor="#ffffff"
     bordercolor="#666666"
     borderopacity="1"
     objecttolerance="10"
     gridtolerance="10"
     guidetolerance="10"
     inkscape:pageopacity="0"
     inkscape:pageshadow="2"
     inkscape:window-width="1440"
     inkscape:window-height="851"
     id="namedview529"
     inkscape:document-units="mm"
     showgrid="false"
     inkscape:zoom="1.0766555"
     inkscape:cx="271.57796"
     inkscape:cy="301.64203"
     inkscape:window-x="0"
     inkscape:window-y="0"
     inkscape:window-maximized="1"
     inkscape:current-layer="svg2" />

  <defs
     id="defs4">
    <pattern
       id="EMFhbasepattern"
       patternUnits="userSpaceOnUse"
       width="6"
       height="6"
       x="0"
       y="0" />
  </defs>


  <g
     id="gtelemark"
     inkscape:label="g08">
    <path
       class="land"
       inkscape:label="kn0830"
       id="nissedal"
       d="m 97.366667,133.52639 6.261943,9.525 -0.0883,4.7625 2.46944,4.14528 -3.26305,1.14639 -2.29306,0.79389 0.17639,5.82083 5.7325,5.82083 4.93889,4.85056 -6.26167,5.73278 5.02695,4.67416 -3.35139,6.43834 -0.70556,2.82222 -3.26305,1.32277 -5.90917,-5.82083 -4.7625,-9.08417 -2.293056,1.67584 -1.411111,0.88194 -3.968609,2.91056 -11.641666,-6.9675 2.910275,-2.29306 0.441114,-0.35278 -2.116667,-4.32166 7.319998,-5.46778 -2.645834,-0.97028 0.881945,-5.29166 0.264724,-1.5875 -2.116666,-2.73389 -2.469445,-3.175 2.645834,-2.91056 -2.205003,-4.58611 0,-3.88056 0,-3.52777 0,-0.97 5.115278,-3.52778 7.408333,0.088 2.205003,0 1.322775,2.02862 0.441114,0.61722 0.352777,0.0883 4.850554,1.32278 z"
 />
    <path
       inkscape:label="kn0828"
       class="land"
       id="seljord"
       d="m 114.56472,95.514724 1.76389,5.026946 5.20333,0.88194 1.85223,2.205 -0.17639,0.70556 -0.79389,3.35139 -2.82222,1.23472 -0.44083,0.088 -1.05834,0.17639 -0.6175,0.0883 -1.14639,0.17639 0,0.26444 -0.88194,4.32167 1.14639,0.52916 2.55778,1.05834 -1.32306,2.73388 1.49944,2.11667 -4.85083,-1.41111 -2.02833,-3.26305 -1.05834,-1.23473 -0.88194,-1.14666 -0.52917,1.14666 -0.6175,1.05834 -7.14361,0.26444 -0.0883,-1.32278 -0.35278,-9.87777 -3.704168,0.0881 -0.705555,0 -4.497776,-10.318609 -6.791113,-2.646115 -0.529167,-3.880274 -4.144998,-1.675835 -2.910557,1.411111 -0.705556,-2.205002 0.441113,-2.028332 2.028331,-1.322775 -0.881944,-1.411111 0.441113,-0.793891 -1.323057,-4.674165 -1.5875,-4.056944 2.381391,-1.499447 -0.08834,-0.176389 -0.969998,-0.881944 -0.97028,-3.351389 0.705556,-0.705556 1.852224,-2.028331 1.675554,0 1.763889,0 1.058333,-5.027224 5.115278,-1.675836 5.380002,5.380002 -1.323058,4.233334 0.529167,1.675835 4.498058,14.728331 2.645834,1.940278 0.17639,2.116667 0.088,0.441113 7.84945,1.23444 0.52916,0.793891 3.26306,4.938889 0.79389,1.234722 0.52917,0.705556 0.17638,0.264724 z"
/>
    <path
       inkscape:label="kn0817"
       class="land"
       id="drangedal"
       d="m 114.03556,130.43972 2.99861,3.43945 7.40833,-0.79361 4.7625,8.46666 2.5575,0.70556 1.23472,-0.97028 1.76389,-1.49916 3.88056,5.73249 -1.67556,5.64445 4.23334,0.0883 1.67555,6.35 9.43695,7.58473 -7.49667,6.43805 -3.79222,4.93889 -7.76111,10.1425 -4.67445,-4.05694 -3.70417,-3.26334 -2.11666,-8.64306 -11.46528,-0.35277 -4.93889,-4.85056 -5.7325,-5.82083 -0.17639,-5.82083 2.29306,-0.79389 3.26305,-1.14639 -2.46944,-4.14528 0.0883,-4.7625 -6.261943,-9.525 0.793891,-1.32278 0.881944,-1.49944 -1.940278,-2.5575 2.557498,-1.5875 4.321668,4.23333 10.05417,-0.35278 z"
/>
    <path
       inkscape:label="kn0826"
       class="land"
       id="tinn"
       d="m 146.57917,56.797222 -4.145,5.203614 -0.6175,0.881944 -6.26167,1.763889 -0.0883,-0.08834 -1.5875,-3.704166 0.97028,-5.203331 -3.61612,-3.351389 -2.91027,-7.055838 -1.5875,1.235004 -0.6175,0.440831 -1.32278,0.97028 -4.49806,3.439443 -3.61583,-0.705556 0.35278,1.852225 -7.58472,0.969997 -0.17639,0 -2.99861,-1.852224 -4.67445,-2.82194 -11.200553,5.99694 -0.441114,0.529449 -0.529166,0.528884 -5.115278,1.675836 -0.08805,-0.264442 -0.08834,-1.323058 -0.440831,-2.822222 -0.08834,-0.264443 -0.176389,-0.97028 1.763889,-0.61722 L 86.69528,50.8 l -4.056944,-1.851942 0,0.969998 0,1.499446 -6.967503,-5.203613 0.352778,-1.146387 0.352778,-1.234722 2.293055,-8.202224 -5.468055,-10.495139 2.116667,-1.411111 -1.322776,-3.615973 -5.468056,-1.499305 0.440832,-2.469445 -0.440832,-0.440972 -4.233333,-5.291667 -6.085558,-2.5576384 15.875,-6.6145834 2.381391,-0.97013887 5.556109,2.02847227 -1.146386,-1.94027782 21.695833,4.67430552 16.40417,-0.3527777 15.08111,13.2291664 0.6175,2.734028 0.44083,4.938889 0.52917,5.820833 -0.61722,2.910558 1.85194,-0.264724 8.555,7.055555 1.85194,1.499447 0,2.20472 -0.17639,3.086946 -0.088,1.587218 -0.44111,7.32028 z"
/>
    <path
       inkscape:label="kn0831"
       class="land"
       id="fyresdal"
       d="m 67.116113,115.18194 7.761111,8.11389 4.7625,4.85084 1.146387,1.23472 -5.115278,3.52778 0,0.97 0,3.52777 0,3.88056 2.205003,4.58611 -2.645834,2.91056 2.469445,3.175 2.116666,2.73389 -0.264724,1.5875 -0.881945,5.29166 2.645834,0.97028 -7.319998,5.46778 2.116667,4.32166 -0.441114,0.35278 -2.910275,2.29306 -4.850836,-4.67417 -3.79222,-3.70416 -5.380002,0.52916 -1.499164,0.17639 3.968608,1.94028 -3.351388,1.41111 -5.644445,-2.82222 -3.086664,-0.88223 -4.409723,-10.05388 -3.968891,-8.99612 -5.203331,-9.08388 -0.264724,-0.52917 2.028613,-5.99722 2.381109,-1.5875 -2.910558,-5.11528 -0.440831,-0.79361 -0.969998,-9.34861 1.234723,0.17639 2.998611,0.26444 1.5875,-1.32278 1.5875,-1.41111 4.409722,-1.05833 7.761111,2.20472 0.176389,0.26472 1.675553,2.11667 3.792502,-2.11667 0.793609,-0.44111 0.529167,0.44111 3.439724,2.38111 1.763889,-1.76389 z"
/>
    <path
       inkscape:label="kn0833"
       class="land"
       id="tokke"
       d="m 77.7875,85.460276 0.705556,2.205002 2.910557,-1.411111 2.381109,3.263335 -1.5875,2.116667 -0.264442,6.173611 -0.08834,0.176389 -4.144997,1.411111 0.705555,5.7325 3.086665,0.97028 -0.529167,3.08666 -3.263053,-0.26444 -2.822223,-0.17639 0,1.32278 0,0.88194 -4.938888,2.64583 -0.793892,0.52917 -0.793608,0.44111 -1.234723,0.61722 -1.763889,1.76389 -3.439724,-2.38111 -0.529167,-0.44111 -0.793609,0.44111 -3.792502,2.11667 -1.675553,-2.11667 -0.176389,-0.26472 -7.761111,-2.20472 -4.409722,1.05833 -1.5875,1.41111 -1.5875,1.32278 -2.998611,-0.26444 -1.234723,-0.17639 -3.175,-0.88195 -2.734169,-0.79389 -0.08834,-0.79361 -0.08805,-0.88194 0,-1.14667 -0.264443,-3.175 -3.527919,-3.43944 3.439584,-4.498059 -0.970139,-0.793609 4.497917,-2.734169 -5.291667,-9.348611 -0.970139,-5.291666 2.998752,-3.175 6.96722,-1.058334 5.291667,2.645834 3.439724,-0.793609 3.175,-0.617503 1.851943,0.881945 -1.5875,1.146669 0.441113,5.820551 7.496387,8.378613 0.529166,0.441114 2.028614,-3.086947 1.146386,-1.675553 -0.440831,-4.233334 -0.08834,-0.352778 0.08834,0 1.322776,0.176389 2.028613,0.176389 4.144998,-1.5875 0.441113,2.998611 4.674165,0.705556 0.617502,-2.55778 5.026942,-0.441113 z"
 />
    <path
       inkscape:label="kn0829"
       class="land"
       id="kviteseid"
       d="m 119.32722,120.47361 -0.52916,5.46806 -0.0883,1.41111 -3.70416,-0.44083 -0.44084,1.23472 -0.52916,2.29305 -10.05417,0.35278 -4.321668,-4.23333 -2.557498,1.5875 1.940278,2.5575 -0.881944,1.49944 -0.793891,1.32278 -4.850554,-1.32278 -0.352777,-0.0883 -0.441114,-0.61722 -1.322775,-2.02862 -2.205003,0 -7.408333,-0.088 -1.146387,-1.23472 -4.7625,-4.85084 -7.761111,-8.11389 1.234723,-0.61722 0.793608,-0.44111 0.793892,-0.52917 4.938888,-2.64583 0,-0.88194 0,-1.32278 2.822223,0.17639 3.263053,0.26444 0.529167,-3.08666 -3.086665,-0.97028 -0.705555,-5.7325 4.144997,-1.411111 0.08834,-0.176389 0.264442,-6.173611 1.5875,-2.116667 -2.381109,-3.263335 4.144998,1.675835 0.529167,3.880274 6.791113,2.646115 4.497776,10.318609 0.705555,0 3.704168,-0.0881 0.35278,9.87777 0.0883,1.32278 7.14361,-0.26444 0.6175,-1.05834 0.52917,-1.14666 0.88194,1.14666 1.05834,1.23473 2.02833,3.26305 4.85083,1.41111 z"
/>
    <path
       inkscape:label="kn0819"
       class="land"
       id="nome"
       d="m 135.20222,117.38695 2.02834,6.17361 4.93888,3.08666 0.0883,-0.0881 1.05833,-0.35278 0.35278,-0.0883 2.20472,-0.88195 3.08695,6.9675 3.35139,0.52917 4.85055,6.52639 -2.29306,1.23472 -0.61722,0.35278 -0.17638,0.0881 -0.35278,0.0883 -4.58611,0.70555 -4.40973,-0.17639 2.5575,2.99862 -3.96861,2.46944 -0.44111,3.26305 -1.67555,0.97028 -4.23334,-0.0883 1.67556,-5.64445 -3.88056,-5.73249 -1.76389,1.49916 -1.23472,0.97028 -2.5575,-0.70556 -4.7625,-8.46666 -7.40833,0.79361 -2.99861,-3.43945 0.52916,-2.29305 0.44084,-1.23472 3.70416,0.44083 0.0883,-1.41111 0.52916,-5.46806 1.41112,1.32306 5.82083,-2.64583 1.94028,1.41111 3.43944,-3.08695 0.26472,-0.26444 2.99861,0.17639 z"
/>
    <path
       inkscape:label="kn0806"
       class="land"
       id="skien"
       d="m 172.50833,114.9175 -1.41111,1.76389 2.29306,4.67417 -0.97,3.52777 -3.7925,0 -0.35278,2.91056 3.70417,7.49639 1.5875,1.49944 1.5875,1.14639 1.76389,1.23472 1.5875,2.82223 2.46944,4.67444 -2.46944,3.26306 -2.73389,3.61611 -0.0883,0 -3.26305,-1.76389 -0.0883,-0.0883 -0.88194,0.70556 -0.97,0.6175 -1.67583,1.23444 -0.44083,1.76417 -0.17639,-0.35277 -1.23473,0 -4.67444,0 -0.0881,0 0,0 -0.17638,0 0.0881,0.088 -3.70417,3.175 0.44112,3.26333 -5.46806,3.96861 -1.05833,-0.96999 -9.43695,-7.58473 -1.67555,-6.35 1.67555,-0.97028 0.44111,-3.26305 3.96861,-2.46944 -2.5575,-2.99862 4.40973,0.17639 4.58611,-0.70555 0.35278,-0.0883 0.17638,-0.0881 0.61722,-0.35278 2.29306,-1.23472 -4.85055,-6.52639 -3.35139,-0.52917 -3.08695,-6.9675 0.6175,-0.35278 4.58611,-2.02833 1.05834,0.0881 4.23333,0.26472 -2.205,-1.41111 1.67583,-6.70278 0.17639,-0.52917 1.32278,-5.64444 0,-0.17639 0.17639,0 2.91056,-0.17639 2.02833,-2.46944 1.85222,-0.0883 3.79222,-0.088 4.23333,8.64305 0.17639,0.35278 z"
/>
    <path
       inkscape:label="kn0834"
       class="land"
       id="vinje"
       d="m 58.208333,7.8493056 6.085558,2.5576384 4.233333,5.291667 0.440832,0.440972 -0.440832,2.469445 5.468056,1.499305 1.322776,3.615973 -2.116667,1.411111 5.468055,10.495139 -2.293055,8.202224 -0.352778,1.234722 -0.352778,1.146387 6.967503,5.203613 0,-1.499446 0,-0.969998 4.056944,1.851942 -1.499447,0.441113 -1.763889,0.61722 0.176389,0.97028 0.08834,0.264443 0.440831,2.822222 0.08834,1.323058 0.08805,0.264442 -1.058333,5.027224 -1.763889,0 -1.675554,0 -1.852224,2.028331 -0.705556,0.705556 0.97028,3.351389 0.969998,0.881944 0.08834,0.176389 -2.381391,1.499447 1.5875,4.056944 1.323057,4.674165 -0.441113,0.793891 0.881944,1.411111 -2.028331,1.322775 -0.441113,2.028332 -5.026942,0.441113 -0.617502,2.55778 -4.674165,-0.705556 -0.441113,-2.998611 -4.144998,1.5875 -2.028613,-0.176389 -1.322776,-0.176389 -0.08834,0 0.08834,0.352778 0.440831,4.233334 -1.146386,1.675553 -2.028614,3.086947 -0.529166,-0.441114 -7.496387,-8.378613 -0.441113,-5.820551 1.5875,-1.146669 -1.851943,-0.881945 -3.175,0.617503 -3.439724,0.793609 -5.291667,-2.645834 -6.96722,1.058334 L 24.694444,72.319444 23.283333,70.379167 22.754167,69.673611 22.489583,67.909722 21.166667,67.64528 19.84375,67.292502 19.667361,67.909722 18.785417,70.82028 17.4625,70.467502 14.993056,68.968056 6.8791667,63.764724 0.26458333,59.266667 0.61736111,47.713336 l 5.02708329,-5.73278 0,-2.028614 0.088195,-5.37972 0.3527778,-0.440831 6.9673613,-10.054308 2.734028,-2.645833 7.761111,-1.322917 4.497916,-2.204861 4.7625,-10.5833331 11.288889,-2.6458333 11.1125,4.6743055 2.998611,-1.4993055 z"
/>
    <path
       inkscape:label="kn0821"
       class="land"
       id="bo"
       d="m 141.81667,103.89306 0.17639,3.35138 -1.41112,-1.23472 -0.96999,1.32306 -1.41111,3.26305 -1.05834,2.46945 -0.6175,1.32306 -0.0881,0.17638 -0.35278,0.79361 -0.0883,0.17639 -0.79361,1.85223 -2.99861,-0.17639 -0.26472,0.26444 -3.43944,3.08695 -1.94028,-1.41111 -5.82083,2.64583 -1.41112,-1.32306 -1.49944,-2.11667 1.32306,-2.73388 -2.55778,-1.05834 -1.14639,-0.52916 0.88194,-4.32167 0,-0.26444 1.14639,-0.17639 0.6175,-0.0883 1.05834,-0.17639 0.44083,-0.088 2.82222,-1.23472 0.79389,-3.35139 0.17639,-0.70556 -1.85223,-2.205 5.11528,-1.587499 2.38139,-0.793609 2.5575,-3.086946 3.52778,1.852224 3.43972,-0.97028 3.26306,7.05556 z"
 />
    <path
       inkscape:label="kn0814"
       class="land"
       id="bamblle"
       d="m 167.305,164.48278 2.73389,3.08666 1.76389,0.35278 1.23472,0.35278 2.205,3.52778 1.5875,3.08694 -3.96889,-0.17638 -1.67555,1.49916 -1.14667,2.205 -2.73389,2.02833 -2.29305,1.5875 -3.70417,1.23473 -3.175,-1.76389 -0.17639,0.35277 -2.29305,-1.5875 -3.35139,1.14667 -0.88195,-1.67583 -2.46944,-4.85056 -4.14528,-3.26333 7.49667,-6.43805 1.05833,0.96999 5.46806,-3.96861 -0.44112,-3.26333 3.70417,-3.175 2.91056,3.43972 2.46944,2.46917 -0.17639,2.8225 z m -5.02722,-8.81944 -0.0881,0 0,0 0.0881,0 z"
 />
    <path
       inkscape:label="kn0811"
       class="land"
       id="siljan"
       d="m 187.76611,147.37306 -6.79111,-0.70556 -2.46944,-4.67444 -1.5875,-2.82223 -1.76389,-1.23472 -1.5875,-1.14639 -1.5875,-1.49944 -3.70417,-7.49639 0.35278,-2.91056 3.7925,0 0.97,-3.52777 -2.29306,-4.67417 1.41111,-1.76389 2.38139,2.5575 3.61584,0 4.67444,0 -0.35278,8.64306 -2.205,3.35138 2.99861,4.49806 3.70417,5.64445 0.44111,7.76111 z"
 />
    <path
       inkscape:label="kn0805"
       class="land"
       id="porsgrunn"
       d="m 187.76611,147.37306 1.23473,3.35139 -3.175,1.32277 -2.11667,0.88195 -0.6175,3.96889 2.205,4.32138 -0.6175,2.73417 -1.5875,5.64445 -0.88195,0.0881 -0.44083,-1.05833 -0.52917,-3.52778 -1.85222,0.26472 -0.88194,0.0881 -0.79361,0.0883 -1.76389,-3.35139 0.35278,-3.175 -2.73417,0.52889 0.26472,7.05584 -2.29305,-0.79389 -0.70556,-0.26445 -0.0883,-0.70583 -0.35277,-5.20334 -0.0881,-0.61722 -1.85222,-2.91055 -0.0881,-0.0881 0.44083,-1.76417 1.67583,-1.23444 0.97,-0.6175 0.88194,-0.70556 0.0883,0.0883 3.26305,1.76389 0.0883,0 2.73389,-3.61611 2.46944,-3.26306 6.79111,0.70556 z"
/>
    <path
       inkscape:label="kn0822"
       class="land"
       id="sauherad"
       d="m 162.45417,106.09806 -2.02833,2.46944 -2.91056,0.17639 -0.17639,0 0,0.17639 -1.32278,5.64444 -0.17639,0.52917 -1.67583,6.70278 2.205,1.41111 -4.23333,-0.26472 -1.05834,-0.0881 -4.58611,2.02833 -0.6175,0.35278 -2.20472,0.88195 -0.35278,0.0883 -1.05833,0.35278 -0.0883,0.0881 -4.93888,-3.08666 -2.02834,-6.17361 0.79361,-1.85223 0.0883,-0.17639 0.35278,-0.79361 0.0881,-0.17638 0.6175,-1.32306 1.05834,-2.46945 1.41111,-3.26305 0.96999,-1.32306 1.41112,1.23472 -0.17639,-3.35138 3.175,-2.46945 2.38139,-0.26444 2.91027,-0.35278 1.32306,-0.0883 0.70556,-0.44112 0.44083,-0.352493 3.26333,-2.116667 2.82223,-1.852224 4.40972,-0.529167 2.91027,3.175 -3.61583,7.408331 -0.0883,0.0883 z"
/>
    <path
       inkscape:label="kn0807"
       class="land"
       id="notodden"
       d="m 146.57917,56.797222 11.99444,7.32028 -1.49916,5.37972 -0.52917,1.675836 -1.41111,5.026942 4.93889,1.499447 1.67555,9.260275 0.35278,2.028614 1.14667,6.438053 -4.40972,0.529167 -2.82223,1.852224 -3.26333,2.116667 -0.44083,0.352493 -0.70556,0.44112 -1.32306,0.0883 -2.91027,0.35278 -2.38139,0.26444 -3.175,2.46945 -3.26306,-7.05556 -3.43972,0.97028 -3.52778,-1.852224 -2.5575,3.086946 -2.38139,0.793609 -5.11528,1.587499 -5.20333,-0.88194 -1.76389,-5.026946 0.35278,-0.176388 4.58611,-1.675836 3.175,-1.058333 6.26167,-2.20472 3.26333,-4.674447 0,-0.08805 -0.52916,-5.115278 -5.20362,-3.704167 -3.26305,0.61722 -0.26472,-2.20472 1.49944,0 1.23472,-0.176389 0.17639,-5.644444 -2.29305,-15.522222 -1.85223,-1.499447 -1.41111,-1.058333 4.49806,-3.439443 1.32278,-0.97028 0.6175,-0.440831 1.5875,-1.235004 2.91027,7.055838 3.61612,3.351389 -0.97028,5.203331 1.5875,3.704166 0.0883,0.08834 6.26167,-1.763889 0.6175,-0.881944 4.145,-5.203614 z"
/>
    <path
       inkscape:label="kn0827"
       class="land"
       id="hjartdal"
       d="m 120.29722,51.329167 1.41111,1.058333 1.85223,1.499447 2.29305,15.522222 -0.17639,5.644444 -1.23472,0.176389 -1.49944,0 0.26472,2.20472 3.26305,-0.61722 5.20362,3.704167 0.52916,5.115278 0,0.08805 -3.26333,4.674447 -6.26167,2.20472 -3.175,1.058333 -4.58611,1.675836 -0.35278,0.176388 -0.17638,-0.264724 -0.52917,-0.705556 -0.79389,-1.234722 -3.26306,-4.938889 -0.52916,-0.793891 -7.84945,-1.23444 -0.088,-0.441113 -0.17639,-2.116667 -2.645834,-1.940278 -4.498058,-14.728331 -0.529167,-1.675835 1.323058,-4.233334 -5.380002,-5.380002 0.529166,-0.528884 0.441114,-0.529449 11.200553,-5.99694 4.67445,2.82194 2.99861,1.852224 0.17639,0 7.58472,-0.969997 -0.35278,-1.852225 3.61583,0.705556 z"
 />
    <path
       inkscape:label="kn0815"
       class="land"
       id="kragero"
       d="m 157.95639,181.85694 -0.97028,1.67584 -2.64583,3.08666 -2.02833,-1.05833 -0.35278,1.49945 0,3.175 -1.14667,1.23472 -3.08666,-0.0883 -1.41112,-0.96999 -2.99861,-2.02862 -1.85222,6.08556 5.38,-0.52917 4.40972,-0.35277 0.79361,-0.0883 0.0883,0.70556 0.26444,2.64583 -5.46806,5.73278 -1.05833,0.88194 -1.76389,-1.85222 -1.85194,1.67584 -1.85222,-3.52778 -5.55611,-1.49945 -0.0883,-3.70417 -1.23472,-6.43805 -0.26444,-1.41111 7.76111,-10.1425 3.79222,-4.93889 4.14528,3.26333 2.46944,4.85056 0.88195,1.67583 3.35139,-1.14667 2.29305,1.5875 z"
/>
    <text
       sodipodi:linespacing="125%"
       id="text73"
       y="188.28377"
       x="141.81253"
       
       xml:space="preserve"><tspan
         id="tspan75"
         y="188.28377"
         x="141.81253"
         sodipodi:role="line"><tspan
           id="tspan77"
           
           dy="0"
           dx="0">0815</tspan></tspan></text>
    <text
       sodipodi:linespacing="125%"
       id="text79"
       y="175.80563"
       x="156.80627"
       
       xml:space="preserve"><tspan
         id="tspan81"
         y="175.80563"
         x="156.80627"
         sodipodi:role="line"><tspan
           id="tspan83"
           
           dy="0"
           dx="0">0814</tspan></tspan></text>
    <text
       sodipodi:linespacing="125%"
       id="text85"
       y="160.63344"
       x="176.29967"
       
       xml:space="preserve"><tspan
         id="tspan87"
         y="160.63344"
         x="176.29967"
         sodipodi:role="line"><tspan
           id="tspan89"
           
           dy="0"
           dx="0">0805</tspan></tspan></text>
    <text
       sodipodi:linespacing="125%"
       id="text91"
       y="161.84232"
       x="118.74451"
       
       xml:space="preserve"><tspan
         id="tspan93"
         y="161.84232"
         x="118.74451"
         sodipodi:role="line"><tspan
           id="tspan95"
           
           dy="0"
           dx="0">0817</tspan></tspan></text>
    <text
       sodipodi:linespacing="125%"
       id="text97"
       y="164.34277"
       x="86.597298"
       
       xml:space="preserve"><tspan
         id="tspan99"
         y="164.34277"
         x="86.597298"
         sodipodi:role="line"><tspan
           id="tspan101"
           
           dy="0"
           dx="0">0830</tspan></tspan></text>
    <text
       sodipodi:linespacing="125%"
       id="text103"
       y="143.74902"
       x="53.846153"
       
       xml:space="preserve"><tspan
         id="tspan105"
         y="143.74902"
         x="53.846153"
         sodipodi:role="line"><tspan
           id="tspan107"
           
           dy="0"
           dx="0">0831</tspan></tspan></text>
    <text
       sodipodi:linespacing="125%"
       id="text109"
       y="120.54114"
       x="85.555153"
       
       xml:space="preserve"><tspan
         id="tspan111"
         y="120.54114"
         x="85.555153"
         sodipodi:role="line"><tspan
           id="tspan113"
           
           dy="0"
           dx="0">0829</tspan></tspan></text>
    <text
       sodipodi:linespacing="125%"
       id="text115"
       y="113.04047"
       x="126.7337"
       
       xml:space="preserve"><tspan
         id="tspan117"
         y="113.04047"
         x="126.7337"
         sodipodi:role="line"><tspan
           id="tspan119"
           
           dy="0"
           dx="0">0821</tspan></tspan></text>
    <text
       sodipodi:linespacing="125%"
       id="text121"
       y="137.05209"
       x="134.38972"
       
       xml:space="preserve"><tspan
         id="tspan123"
         y="137.05209"
         x="134.38972"
         sodipodi:role="line"><tspan
           id="tspan125"
           
           dy="0"
           dx="0">0819</tspan></tspan></text>
    <text
       sodipodi:linespacing="125%"
       id="text127"
       y="117.42332"
       x="143.50235"
       
       xml:space="preserve"><tspan
         id="tspan129"
         y="117.42332"
         x="143.50235"
         sodipodi:role="line"><tspan
           id="tspan131"
           
           dy="0"
           dx="0">0822</tspan></tspan></text>
    <text
       sodipodi:linespacing="125%"
       id="text133"
       y="145.259"
       x="160.6107"
       
       xml:space="preserve"><tspan
         id="tspan135"
         y="145.259"
         x="160.6107"
         sodipodi:role="line"><tspan
           id="tspan137"
           
           dy="0"
           dx="0">0806</tspan></tspan></text>
    <text
       sodipodi:linespacing="125%"
       id="text139"
       y="132.87975"
       x="172.33092"
       
       xml:space="preserve"><tspan
         id="tspan141"
         y="132.87975"
         x="172.33092"
         sodipodi:role="line"><tspan
           id="tspan143"
           
           dy="0"
           dx="0">0811</tspan></tspan></text>
    <text
       sodipodi:linespacing="125%"
       id="text145"
       y="105.02942"
       x="50.035877"
       
       xml:space="preserve"><tspan
         id="tspan147"
         y="105.02942"
         x="50.035877"
         sodipodi:role="line"><tspan
           id="tspan149"
           
           dy="0"
           dx="0">0833</tspan></tspan></text>
    <text
       sodipodi:linespacing="125%"
       id="text151"
       y="98.787766"
       x="99.681084"
       
       xml:space="preserve"><tspan
         id="tspan153"
         y="98.787766"
         x="99.681084"
         sodipodi:role="line"><tspan
           id="tspan155"
           
           dy="0"
           dx="0">0828</tspan></tspan></text>
    <text
       sodipodi:linespacing="125%"
       id="text157"
       y="75.953674"
       x="107.31162"
       
       xml:space="preserve"><tspan
         id="tspan159"
         y="75.953674"
         x="107.31162"
         sodipodi:role="line"><tspan
           id="tspan161"
           
           dy="0"
           dx="0">0827</tspan></tspan></text>
    <text
       sodipodi:linespacing="125%"
       id="text163"
       y="83.13446"
       x="140.27774"
       
       xml:space="preserve"><tspan
         id="tspan165"
         y="83.13446"
         x="140.27774"
         sodipodi:role="line"><tspan
           id="tspan167"
           
           dy="0"
           dx="0">0807</tspan></tspan></text>
    <text
       sodipodi:linespacing="125%"
       id="text169"
       y="33.047081"
       x="103.3663"
       
       xml:space="preserve"><tspan
         id="tspan171"
         y="33.047081"
         x="103.3663"
         sodipodi:role="line"><tspan
           id="tspan173"
           
           dy="0"
           dx="0">0826</tspan></tspan></text>
    <text
       sodipodi:linespacing="125%"
       id="text175"
       y="48.292831"
       x="40.378929"
       
       xml:space="preserve"><tspan
         id="tspan177"
         y="48.292831"
         x="40.378929"
         sodipodi:role="line"><tspan
           id="tspan179"
           
           dy="0"
           dx="0">0834</tspan></tspan></text>
    <text
       sodipodi:linespacing="125%"
       id="text181"
       y="29.660894"
       x="103.1093"
       
       xml:space="preserve"><tspan
         id="tspan183"
         y="29.660894"
         x="103.1093"
         sodipodi:role="line"><tspan
           id="tspan185"
           
           dy="0"
           dx="0">Tinn</tspan></tspan></text>
    <text
       sodipodi:linespacing="125%"
       id="text187"
       y="44.906475"
       x="39.607574"
       
       xml:space="preserve"><tspan
         id="tspan189"
         y="44.906475"
         x="39.607574"
         sodipodi:role="line"><tspan
           id="tspan191"
           
           dy="0"
           dx="0">Vinje</tspan></tspan></text>
    <text
       sodipodi:linespacing="125%"
       id="text193"
       y="72.56749"
       x="104.44392"
       
       xml:space="preserve"><tspan
         id="tspan195"
         y="72.56749"
         x="104.44392"
         sodipodi:role="line"><tspan
           id="tspan197"
           
           dy="0"
           dx="0">Hjar</tspan></tspan></text>
    <text
       sodipodi:linespacing="125%"
       id="text199"
       y="72.56749"
       x="110.40566"
       
       xml:space="preserve"><tspan
         id="tspan201"
         y="72.56749"
         x="110.40566"
         sodipodi:role="line"><tspan
           id="tspan203"
           
           dy="0"
           dx="0">t</tspan></tspan></text>
    <text
       sodipodi:linespacing="125%"
       id="text205"
       y="72.56749"
       x="111.54771"
       
       xml:space="preserve"><tspan
         id="tspan207"
         y="72.56749"
         x="111.54771"
         sodipodi:role="line"><tspan
           id="tspan209"
           
           dy="0"
           dx="0">dal</tspan></tspan></text>
    <text
       sodipodi:linespacing="125%"
       id="text211"
       y="101.64341"
       x="48.839054"
       
       xml:space="preserve"><tspan
         id="tspan213"
         y="101.64341"
         x="48.839054"
         sodipodi:role="line"><tspan
           id="tspan215"
           
           dy="0"
           dx="0">T</tspan></tspan></text>
    <text
       sodipodi:linespacing="125%"
       id="text217"
       y="101.64341"
       x="50.244652"
       
       xml:space="preserve"><tspan
         id="tspan219"
         y="101.64341"
         x="50.244652"
         sodipodi:role="line"><tspan
           id="tspan221"
           
           dy="0"
           dx="0">ok</tspan></tspan></text>
    <text
       sodipodi:linespacing="125%"
       id="text223"
       y="101.64341"
       x="53.708694"
       
       xml:space="preserve"><tspan
         id="tspan225"
         y="101.64341"
         x="53.708694"
         sodipodi:role="line"><tspan
           id="tspan227"
           
           dy="0"
           dx="0">k</tspan></tspan></text>
    <text
       sodipodi:linespacing="125%"
       id="text229"
       y="101.64341"
       x="55.1987"
       
       xml:space="preserve"><tspan
         id="tspan231"
         y="101.64341"
         x="55.1987"
         sodipodi:role="line"><tspan
           id="tspan233"
           
           dy="0"
           dx="0">e</tspan></tspan></text>
    <text
       sodipodi:linespacing="125%"
       id="text235"
       y="117.15512"
       x="82.036339"
       
       xml:space="preserve"><tspan
         id="tspan237"
         y="117.15512"
         x="82.036339"
         sodipodi:role="line"><tspan
           id="tspan239"
           
           dy="0"
           dx="0">K</tspan></tspan></text>
    <text
       sodipodi:linespacing="125%"
       id="text241"
       y="117.15512"
       x="83.695152"
       
       xml:space="preserve"><tspan
         id="tspan243"
         y="117.15512"
         x="83.695152"
         sodipodi:role="line"><tspan
           id="tspan245"
           
           dy="0"
           dx="0">vi</tspan></tspan></text>
    <text
       sodipodi:linespacing="125%"
       id="text247"
       y="117.15512"
       x="86.098106"
       
       xml:space="preserve"><tspan
         id="tspan249"
         y="117.15512"
         x="86.098106"
         sodipodi:role="line"><tspan
           id="tspan251"
           
           dy="0"
           dx="0">t</tspan></tspan></text>
    <text
       sodipodi:linespacing="125%"
       id="text253"
       y="117.15512"
       x="87.241875"
       
       xml:space="preserve"><tspan
         id="tspan255"
         y="117.15512"
         x="87.241875"
         sodipodi:role="line"><tspan
           id="tspan257"
           
           dy="0"
           dx="0">eseid</tspan></tspan></text>
    <text
       sodipodi:linespacing="125%"
       id="text259"
       y="95.401756"
       x="97.579231"
       
       xml:space="preserve"><tspan
         id="tspan261"
         y="95.401756"
         x="97.579231"
         sodipodi:role="line"><tspan
           id="tspan263"
           
           dy="0"
           dx="0">Seljo</tspan></tspan></text>
    <text
       sodipodi:linespacing="125%"
       id="text265"
       y="95.401756"
       x="104.46942"
       
       xml:space="preserve"><tspan
         id="tspan267"
         y="95.401756"
         x="104.46942"
         sodipodi:role="line"><tspan
           id="tspan269"
           
           dy="0"
           dx="0">r</tspan></tspan></text>
    <text
       sodipodi:linespacing="125%"
       id="text271"
       y="95.401756"
       x="105.65108"
       
       xml:space="preserve"><tspan
         id="tspan273"
         y="95.401756"
         x="105.65108"
         sodipodi:role="line"><tspan
           id="tspan275"
           
           dy="0"
           dx="0">d</tspan></tspan></text>
    <text
       sodipodi:linespacing="125%"
       id="text277"
       y="79.748276"
       x="135.90833"
       
       xml:space="preserve"><tspan
         id="tspan279"
         y="79.748276"
         x="135.90833"
         sodipodi:role="line"><tspan
           id="tspan281"
           
           dy="0"
           dx="0">No</tspan></tspan></text>
    <text
       sodipodi:linespacing="125%"
       id="text283"
       y="79.748276"
       x="140.04588"
       
       xml:space="preserve"><tspan
         id="tspan285"
         y="79.748276"
         x="140.04588"
         sodipodi:role="line"><tspan
           id="tspan287"
           
           dy="0"
           dx="0">t</tspan></tspan></text>
    <text
       sodipodi:linespacing="125%"
       id="text289"
       y="79.748276"
       x="141.1931"
       
       xml:space="preserve"><tspan
         id="tspan291"
         y="79.748276"
         x="141.1931"
         sodipodi:role="line"><tspan
           id="tspan293"
           
           dy="0"
           dx="0">odden</tspan></tspan></text>
    <text
       sodipodi:linespacing="125%"
       id="text295"
       y="109.65463"
       x="127.70142"
       
       xml:space="preserve"><tspan
         id="tspan297"
         y="109.65463"
         x="127.70142"
         sodipodi:role="line"><tspan
           id="tspan299"
           
           dy="0"
           dx="0">Bø</tspan></tspan></text>
    <text
       sodipodi:linespacing="125%"
       id="text301"
       y="114.03731"
       x="139.62628"
       
       xml:space="preserve"><tspan
         id="tspan303"
         y="114.03731"
         x="139.62628"
         sodipodi:role="line"><tspan
           id="tspan305"
           
           dy="0"
           dx="0">Sauhe</tspan></tspan></text>
    <text
       sodipodi:linespacing="125%"
       id="text307"
       y="114.03731"
       x="148.39922"
       
       xml:space="preserve"><tspan
         id="tspan309"
         y="114.03731"
         x="148.39922"
         sodipodi:role="line"><tspan
           id="tspan311"
           
           dy="0"
           dx="0">r</tspan></tspan></text>
    <text
       sodipodi:linespacing="125%"
       id="text313"
       y="114.03731"
       x="149.55676"
       
       xml:space="preserve"><tspan
         id="tspan315"
         y="114.03731"
         x="149.55676"
         sodipodi:role="line"><tspan
           id="tspan317"
           
           dy="0"
           dx="0">ad</tspan></tspan></text>
    <text
       sodipodi:linespacing="125%"
       id="text319"
       y="140.36353"
       x="50.762447"
       
       xml:space="preserve"><tspan
         id="tspan321"
         y="140.36353"
         x="50.762447"
         sodipodi:role="line"><tspan
           id="tspan323"
           
           dy="0"
           dx="0">Fy</tspan></tspan></text>
    <text
       sodipodi:linespacing="125%"
       id="text325"
       y="140.36353"
       x="53.980167"
       
       xml:space="preserve"><tspan
         id="tspan327"
         y="140.36353"
         x="53.980167"
         sodipodi:role="line"><tspan
           id="tspan329"
           
           dy="0"
           dx="0">r</tspan></tspan></text>
    <text
       sodipodi:linespacing="125%"
       id="text331"
       y="140.36353"
       x="55.163559"
       
       xml:space="preserve"><tspan
         id="tspan333"
         y="140.36353"
         x="55.163559"
         sodipodi:role="line"><tspan
           id="tspan335"
           
           dy="0"
           dx="0">esdal</tspan></tspan></text>
    <text
       sodipodi:linespacing="125%"
       id="text337"
       y="160.95659"
       x="83.480865"
       
       xml:space="preserve"><tspan
         id="tspan339"
         y="160.95659"
         x="83.480865"
         sodipodi:role="line"><tspan
           id="tspan341"
           
           dy="0"
           dx="0">Nissedal</tspan></tspan></text>
    <text
       sodipodi:linespacing="125%"
       id="text343"
       y="158.45648"
       x="114.3"
       
       xml:space="preserve"><tspan
         id="tspan345"
         y="158.45648"
         x="114.3"
         sodipodi:role="line"><tspan
           id="tspan347"
           
           dy="0"
           dx="0">D</tspan></tspan></text>
    <text
       sodipodi:linespacing="125%"
       id="text349"
       y="158.45648"
       x="116.47041"
       
       xml:space="preserve"><tspan
         id="tspan351"
         y="158.45648"
         x="116.47041"
         sodipodi:role="line"><tspan
           id="tspan353"
           
           dy="0"
           dx="0">r</tspan></tspan></text>
    <text
       sodipodi:linespacing="125%"
       id="text355"
       y="158.45648"
       x="117.62796"
       
       xml:space="preserve"><tspan
         id="tspan357"
         y="158.45648"
         x="117.62796"
         sodipodi:role="line"><tspan
           id="tspan359"
           
           dy="0"
           dx="0">an</tspan></tspan></text>
    <text
       sodipodi:linespacing="125%"
       id="text361"
       y="158.45648"
       x="121.17124"
       
       xml:space="preserve"><tspan
         id="tspan363"
         y="158.45648"
         x="121.17124"
         sodipodi:role="line"><tspan
           id="tspan365"
           
           dy="0"
           dx="0">g</tspan></tspan></text>
    <text
       sodipodi:linespacing="125%"
       id="text367"
       y="158.45648"
       x="122.8025"
       
       xml:space="preserve"><tspan
         id="tspan369"
         y="158.45648"
         x="122.8025"
         sodipodi:role="line"><tspan
           id="tspan371"
           
           dy="0"
           dx="0">edal</tspan></tspan></text>
    <text
       sodipodi:linespacing="125%"
       id="text373"
       y="133.66592"
       x="132.8949"
       
       xml:space="preserve"><tspan
         id="tspan375"
         y="133.66592"
         x="132.8949"
         sodipodi:role="line"><tspan
           id="tspan377"
           
           dy="0"
           dx="0">Nome</tspan></tspan></text>
    <text
       sodipodi:linespacing="125%"
       id="text379"
       y="141.87282"
       x="159.64986"
       
       xml:space="preserve"><tspan
         id="tspan381"
         y="141.87282"
         x="159.64986"
         sodipodi:role="line"><tspan
           id="tspan383"
           
           dy="0"
           dx="0">Skien</tspan></tspan></text>
    <text
       sodipodi:linespacing="125%"
       id="text385"
       y="129.49287"
       x="171.37799"
       
       xml:space="preserve"><tspan
         id="tspan387"
         y="129.49287"
         x="171.37799"
         sodipodi:role="line"><tspan
           id="tspan389"
           
           dy="0"
           dx="0">Siljan</tspan></tspan></text>
    <text
       sodipodi:linespacing="125%"
       id="text391"
       y="157.24794"
       x="171.85445"
       
       xml:space="preserve"><tspan
         id="tspan393"
         y="157.24794"
         x="171.85445"
         sodipodi:role="line"><tspan
           id="tspan395"
           
           dy="0"
           dx="0">P</tspan></tspan></text>
    <text
       sodipodi:linespacing="125%"
       id="text397"
       y="157.24794"
       x="173.60628"
       
       xml:space="preserve"><tspan
         id="tspan399"
         y="157.24794"
         x="173.60628"
         sodipodi:role="line"><tspan
           id="tspan401"
           
           dy="0"
           dx="0">o</tspan></tspan></text>
    <text
       sodipodi:linespacing="125%"
       id="text403"
       y="157.24794"
       x="175.46664"
       
       xml:space="preserve"><tspan
         id="tspan405"
         y="157.24794"
         x="175.46664"
         sodipodi:role="line"><tspan
           id="tspan407"
           
           dy="0"
           dx="0">r</tspan></tspan></text>
    <text
       sodipodi:linespacing="125%"
       id="text409"
       y="157.24794"
       x="176.63625"
       
       xml:space="preserve"><tspan
         id="tspan411"
         y="157.24794"
         x="176.63625"
         sodipodi:role="line"><tspan
           id="tspan413"
           
           dy="0"
           dx="0">sgrunn</tspan></tspan></text>
    <text
       sodipodi:linespacing="125%"
       id="text415"
       y="172.42014"
       x="154.24451"
       
       xml:space="preserve"><tspan
         id="tspan417"
         y="172.42014"
         x="154.24451"
         sodipodi:role="line"><tspan
           id="tspan419"
           
           dy="0"
           dx="0">Bamble</tspan></tspan></text>
    <text
       sodipodi:linespacing="125%"
       id="text421"
       y="184.89725"
       x="139.1474"
       
       xml:space="preserve"><tspan
         id="tspan423"
         y="184.89725"
         x="139.1474"
         sodipodi:role="line"><tspan
           id="tspan425"
           
           dy="0"
           dx="0">K</tspan></tspan></text>
    <text
       sodipodi:linespacing="125%"
       id="text427"
       y="184.89725"
       x="140.92508"
       
       xml:space="preserve"><tspan
         id="tspan429"
         y="184.89725"
         x="140.92508"
         sodipodi:role="line"><tspan
           id="tspan431"
           
           dy="0"
           dx="0">r</tspan></tspan></text>
    <text
       sodipodi:linespacing="125%"
       id="text433"
       y="184.89725"
       x="142.08263"
       
       xml:space="preserve"><tspan
         id="tspan435"
         y="184.89725"
         x="142.08263"
         sodipodi:role="line"><tspan
           id="tspan437"
           
           dy="0"
           dx="0">a</tspan></tspan></text>
    <text
       sodipodi:linespacing="125%"
       id="text439"
       y="184.89725"
       x="143.77245"
       
       xml:space="preserve"><tspan
         id="tspan441"
         y="184.89725"
         x="143.77245"
         sodipodi:role="line"><tspan
           id="tspan443"
           
           dy="0"
           dx="0">g</tspan></tspan></text>
    <text
       sodipodi:linespacing="125%"
       id="text445"
       y="184.89725"
       x="145.4037"
       
       xml:space="preserve"><tspan
         id="tspan447"
         y="184.89725"
         x="145.4037"
         sodipodi:role="line"><tspan
           id="tspan449"
           
           dy="0"
           dx="0">e</tspan></tspan></text>
    <text
       sodipodi:linespacing="125%"
       id="text451"
       y="184.89725"
       x="147.15898"
       
       xml:space="preserve"><tspan
         id="tspan453"
         y="184.89725"
         x="147.15898"
         sodipodi:role="line"><tspan
           id="tspan455"
           
           dy="0"
           dx="0">r</tspan></tspan></text>
    <text
       sodipodi:linespacing="125%"
       id="text457"
       y="184.89725"
       x="148.33203"
       
       xml:space="preserve"><tspan
         id="tspan459"
         y="184.89725"
         x="148.33203"
         sodipodi:role="line"><tspan
           id="tspan461"
           
           dy="0"
           dx="0">ø</tspan></tspan></text>
  </g>
</svg>
