<?xml version="1.0" encoding="UTF-8" standalone="no"?>
<svg
   xmlns:dc="http://purl.org/dc/elements/1.1/"
   xmlns:cc="http://creativecommons.org/ns#"
   xmlns:rdf="http://www.w3.org/1999/02/22-rdf-syntax-ns#"
   xmlns:svg="http://www.w3.org/2000/svg"
   xmlns="http://www.w3.org/2000/svg"
   xmlns:sodipodi="http://sodipodi.sourceforge.net/DTD/sodipodi-0.dtd"
   xmlns:inkscape="http://www.inkscape.org/namespaces/inkscape"
   version="1.0"
   width="100%"
   height="100%"
   preserveAspectRatio="keep"
   id="svg2"
   inkscape:version="0.91 r13725"
   viewBox="0 0 255.33774 193.94594"
   sodipodi:docname="troms_kommuner.svg">
  <metadata
     id="metadata975">
    <rdf:RDF>
      <cc:Work
         rdf:about="">
        <dc:format>image/svg+xml</dc:format>
        <dc:type
           rdf:resource="http://purl.org/dc/dcmitype/StillImage" />
        <dc:title></dc:title>
      </cc:Work>
    </rdf:RDF>
  </metadata>
  <sodipodi:namedview
     pagecolor="#ffffff"
     bordercolor="#666666"
     borderopacity="1"
     objecttolerance="10"
     gridtolerance="10"
     guidetolerance="10"
     inkscape:pageopacity="0"
     inkscape:pageshadow="2"
     inkscape:window-width="1440"
     inkscape:window-height="851"
     id="namedview973"
     inkscape:document-units="mm"
     showgrid="false"
     inkscape:zoom="0.73059311"
     inkscape:cx="451.1747"
     inkscape:cy="343.62176"
     inkscape:window-x="0"
     inkscape:window-y="0"
     inkscape:window-maximized="1"
     inkscape:current-layer="svg2" />
  <defs
     id="defs4">
    <pattern
       id="EMFhbasepattern"
       patternUnits="userSpaceOnUse"
       width="6"
       height="6"
       x="0"
       y="0" />
  </defs>
  <g
     id="gtroms"
     inkscape:label="g19">
    <path
       inkscape:label="kn1928"
       class="land"
       id="torsken"
       d="m 64.47028,103.71667 -4.938889,1.5875 0,0.26472 -0.176671,2.99861 -2.20472,1.05834 2.293056,3.43944 -1.763889,1.05833 -0.441114,0.26473 -3.79222,2.20472 -1.322775,0 0,-1.23473 -3.704167,-1.23472 -1.940278,-0.61722 0,-0.70555 0,-1.49945 3.703885,-0.97 2.998893,1.23444 0.793609,-0.26444 0.881944,-0.26444 0.176389,-0.0883 -0.08805,-0.17639 -0.264724,-0.70555 -0.617503,-1.5875 2.734169,-2.64584 -1.058333,-1.14638 -2.20472,0.79361 -0.08834,0.17638 -1.146669,2.29306 -1.058333,-0.52917 -1.587218,-0.52916 -1.058333,-0.44083 -2.293056,-3.79251 3.968609,-1.32277 1.499447,-0.0883 2.292773,1.41111 0,-1.49916 -0.793609,-0.70556 -0.705555,-0.44111 -1.323058,-1.146669 -0.176107,-0.08805 0.264443,-0.61722 0.176389,0 1.5875,0.08805 0.969997,0.176389 0.617503,-0.881944 -1.940278,-0.705556 -2.116667,-0.264442 -1.234722,1.23444 -1.146387,0.08834 -3.439724,0.441114 2.645833,-4.321669 1.852225,0.352778 3.703884,0.617502 0.882227,-1.234722 0.61722,0.352777 1.323057,0.881945 1.058334,0.705273 0.529166,2.646116 2.998329,-0.08834 1.146669,3.351389 2.910558,2.11667 z"
        />
    <path
       inkscape:label="kn1943"
       class="land"
       id="kvanangen"
       d="m 235.47917,71.613889 -2.11667,-2.028331 -0.97,-4.586394 -3.08694,-0.440831 -7.32,3.968891 -3.88084,-1.499446 -2.20472,0.881944 -4.05694,-3.175 -2.20501,-7.408333 2.46945,-2.910276 1.41139,-5.027224 -0.97028,-5.37972 1.49945,-0.352778 -0.35278,-2.998893 -7.32028,-2.20472 0.6175,-4.498058 -1.32306,-0.969998 -2.91027,-2.116666 -2.38139,-4.409723 -4.32139,-0.617361 -1.94056,-0.352778 -1.05833,0.176389 0.35306,-3.263194 2.46916,-0.529167 2.46944,-0.79375 2.29334,1.411111 2.29306,2.116667 0.97,2.116667 0.26472,0.529166 0.97,2.38125 2.205,2.998611 2.5575,0.61722 2.46944,0.617503 3.175,3.527777 0.35278,0.441114 2.29306,3.527495 3.43944,4.321669 1.76389,1.146669 -1.94,0.440831 3.175,0.529167 1.94,-0.881945 0.35306,-1.499164 0,-0.176389 -2.99861,-1.499447 1.32277,-1.146386 -0.26444,-0.176671 -5.02723,-3.615831 -2.11666,-1.411112 -0.17639,-0.176388 -0.44083,-0.264443 0.70555,-0.08833 2.5575,-0.176389 1.41111,-0.793609 0.6175,-0.352778 -4.67444,-1.323058 -1.14639,-3.351388 -0.79389,-4.409723 0.26472,-0.176389 1.05834,-0.79375 -1.41111,-2.645833 2.73388,-1.058333 0.70556,3.96875 2.38111,1.675694 0,-0.08819 -0.26444,-2.469445 -0.44084,-3.792361 -0.97028,-1.940278 0.52917,-0.352777 1.67584,-1.322917 -1.85223,0.440972 -2.64583,0.529167 -3.7925,1.675694 -2.11667,-2.822222 3.52778,-2.557639 3.7925,-1.499305 1.49916,-3.175 -0.35277,-2.2930559 -4.32139,5.1152779 -3.7925,0 -3.175,4.056944 -4.145,-3.086805 -1.23472,-2.38125 -1.23472,2.293055 L 199.58417,12.7 197.99639,8.3784722 199.93695,5.8208333 199.05472,4.7625 l -4.93889,1.9402778 -2.82194,-1.6756945 -0.88194,-1.1465277 -1.32306,-1.7638889 0.52917,-0.7055556 2.205,0.2645833 4.49777,2.2048612 1.5875,0.79375 2.29306,-0.5291667 1.49945,-0.2645833 3.08666,-0.5291667 0,0.5291667 0.26472,1.6756944 2.20472,1.4993056 1.23473,0.7055555 0.17639,1.8520833 1.49944,0.7055556 2.46945,1.058333 1.49916,-1.234722 0.70556,-4.8506943 1.5875,0.6173611 0.26472,0.088194 0.26444,-0.088194 4.7625,-2.5576389 0,2.2048611 0,0.79375 0.0883,1.4111111 3.88055,6.7027779 0.97,1.5875 -0.0883,0.264583 -0.52889,1.852084 -0.17639,0.79375 2.5575,4.850694 5.90917,2.910417 3.35139,0.264583 1.23472,1.675553 -2.38139,3.086947 3.70417,2.293056 -2.5575,5.909168 3.175,1.763607 2.11667,7.143891 6.70277,4.144998 0.35278,0.176671 2.46945,-2.55778 2.3811,1.763889 -3.61583,4.586111 -0.35306,5.820833 -1.23444,0.881945 -0.0883,0.08834 0.0883,0.529167 0.97,2.733887 -0.97,0.08805 -6.52639,0.35306 -7.67305,4.144998 z"
        />
    <path
       inkscape:label="kn1922"
       class="land"
       id="bardu"
       d="m 160.51389,172.77306 2.5575,1.76389 0.88222,0.70555 1.58722,0.70556 2.82222,1.23444 3.26334,1.41139 -2.38111,3.175 -1.41111,1.94028 -0.70556,0.88166 -0.6175,0.88223 -2.02861,2.73388 -0.26444,0.35278 -0.7939,1.14667 -0.7936,1.41111 -1.14639,2.02833 -3.70445,-1.49944 -1.58722,-0.61722 -0.79389,-0.26445 -2.11667,-0.79389 -2.11666,-0.88194 -3.79222,-1.32306 -1.94056,-0.88166 -0.88166,-0.26473 -1.14667,-0.44083 -0.61722,-0.26472 -3.08695,-1.14639 -0.26444,-0.17667 -2.91056,-0.97 -0.26444,-0.17639 -1.14667,-0.44083 -2.02833,-0.70555 -1.49945,-0.6175 -1.85194,-0.70556 -0.70556,-0.17639 -1.58778,-0.61722 -1.76361,-0.70555 -2.99861,0.35277 -1.05833,0.17611 -1.58778,0.17667 -2.11667,0.26444 -1.23444,0.17639 -0.6175,0.17639 -0.088,0 -1.23501,0.17639 -1.58722,0.17639 -0.79389,0.0883 -2.64583,-2.38139 -2.64583,-2.29305 -0.7939,-0.52917 -0.96999,-0.88194 -0.79361,-0.61722 -0.52917,-0.35278 0,0 -2.64583,1.32277 -1.14667,0.61722 -2.645834,1.32306 -3.615832,1.85194 -1.146668,-1.93999 -0.793609,-1.32306 -2.205003,-3.79222 -1.058333,-4.14528 1.675553,-0.61722 0,-1.32306 0,-2.02861 -0.08805,-1.05833 -0.881944,-0.97 -1.234723,-1.5875 0.529167,-1.41111 -1.146387,-1.76389 3.968609,-1.32306 0.705556,-3.35111 0.352778,-2.11666 -2.028331,-4.23334 0.440831,0 0.617502,-0.26472 2.557498,-2.29306 -0.793609,-1.23472 -0.793891,-1.05833 2.55778,-8.55472 2.557497,-2.73417 2.645836,-2.73417 4.32167,1.85223 0.35277,0.17638 0.70556,-2.46944 2.02833,0.35278 0,0.44111 0.0883,1.94028 0,4.58611 0,4.32139 1.23444,3.175 2.38139,0.35277 3.26305,4.14528 4.41001,1.41112 -0.26473,3.08666 5.64445,0.0883 2.29305,4.76221 5.11528,-2.55749 1.85194,4.49805 0,0.0881 13.75833,12.34722 4.14528,2.38139 1.05834,0.52888 2.64583,-0.0881 4.93889,-0.0881 0.17639,0 z"
        />
    <path
       inkscape:label="kn1933"
       class="land"
       id="balsfjord"
       d="m 116.41667,84.313889 0.44083,1.5875 2.205,2.734169 0.70556,3.086664 2.3811,3.263336 4.32167,1.410829 3.52778,-1.322776 2.46945,1.5875 0.44111,1.5875 -1.14667,2.822219 -1.32278,3.52778 0.26445,2.205 2.11666,0.26445 1.05834,-1.14639 3.08666,0.88194 1.49945,0.26445 1.76389,0.6175 0.26472,-0.79389 -0.26472,-0.97 -1.67556,-1.05833 -0.70555,-0.35278 -2.02862,-2.38139 -0.088,-0.61722 -0.17639,-2.822226 -0.79389,-3.086946 -0.97028,-1.851942 -0.44083,-0.881945 -0.26444,-0.176389 -1.85223,-0.881944 -3.175,-0.35306 -3.52777,1.058333 -1.94028,-2.557498 -0.61722,-2.822222 -2.73417,-2.028613 0.35278,-2.998329 0.0883,-0.97028 0.61722,-0.08805 1.14667,2.293055 0.0881,0.176389 3.9689,5.644444 1.93999,-0.441113 -1.23444,-1.5875 1.94028,-0.97028 0.61722,-0.176107 1.05833,-0.529166 3.08695,-1.411394 0.70555,1.852225 -1.49944,2.910558 0.97028,0.969997 2.5575,2.381109 2.3811,2.205003 2.46973,-0.793892 0.70527,-0.264442 0.44112,2.028331 0.70555,0.352778 1.94028,0.97028 -0.17639,4.145279 2.82222,3.79222 1.94028,0.88195 1.76389,0.6175 1.41111,0.61722 2.5575,0.97028 2.11667,10.495 1.32305,0.7936 -0.70555,1.85223 -4.7625,2.38111 -1.41111,2.205 -2.73389,-1.76389 -6.79111,1.67555 -2.91056,0.70584 -1.67555,0.3525 -0.79361,-2.02833 -1.32306,0.0883 0.6175,2.02833 -1.41111,0 -10.58333,-8.11389 -0.0883,-1.41111 0,-0.35277 -4.145,-3.175 -5.90916,-4.7625 -1.49917,-2.5575 -0.52917,-0.97028 0.0881,-1.49917 0,-0.35277 -1.49917,-1.67584 -1.23472,-1.49916 0.97,-1.235009 1.67583,-0.08805 4.05695,0.08805 0.97,0.617502 0.17639,0.970277 0.97028,1.32278 2.20472,0.70555 1.5875,-0.44111 -0.88195,-1.41111 -0.52917,-0.793609 -1.14638,-1.940278 -1.14667,-0.61722 -0.97,-0.529449 -3.26333,0 -5.82084,-2.381108 -2.02833,-3.615832 -2.8225,-3.439724 -1.23444,0.352778 -0.52945,-1.675554 0.52945,-2.645833 -0.97028,-1.852224 0.26472,-1.058334 1.14639,-0.440831 0.88194,1.499165 0.26444,0.176389 5.64473,2.293055 0.44083,2.55778 2.38111,-0.793891 3.7925,-1.146387 0.52917,-0.176389 0.52917,-0.08834 z"
        />
    <path
       inkscape:label="kn1911"
       class="land"
       id="kvafjord"
       d="m 23.547917,149.13695 0.264583,2.99861 0.08819,1.41083 3.615973,2.46944 0,0.0883 0.440972,0.88194 0.440972,0.70556 -1.322917,1.5875 1.322917,0.0883 0.352778,4.93889 1.058333,0.52917 0.529167,0.26444 -0.881945,0.97028 1.323058,2.02833 -0.617502,0.35278 -4.938889,3.7925 -7.14375,2.99861 -1.763889,2.5575 -2.38125,-3.70417 -1.058333,3.70417 -1.411111,4.40972 -2.2930558,0 -0.5291666,0.79389 -1.3229167,1.58722 -1.5875,2.205 -0.6173611,0.97 -2.4694445,3.7925 -1.1465277,-0.97028 2.0284722,-3.3511 0,-0.0883 L 3.0868056,185.82584 2.5576389,184.59083 1.4993056,181.85694 1.3229167,181.41583 0.44097222,178.68194 3.175,176.2125 l 0.2645833,-0.17639 -0.8819444,-2.73389 0,-0.0883 -0.2645833,-0.79361 3.96875,-1.41111 0.4409722,-0.17667 0.2645833,-0.52889 0.4409722,-0.88222 0.2645834,-0.61722 0.4409722,-0.88195 -0.79375,-3.26305 1.2347222,-0.17667 2.2930559,0.17667 0.352777,-1.94028 3.96875,-2.205 0,1.14667 -0.79375,3.79222 -2.116666,2.38139 -2.116667,2.38111 -0.3527777,0.0883 -2.2930555,0.35278 -0.79375,2.73389 0.6173611,5.20361 -2.2930556,2.64583 0.3527778,0.26445 1.8520833,1.32305 1.3229167,-2.29305 0.7055556,-1.32306 -0.3527778,-5.37972 6.9673611,-5.64444 1.146528,1.41111 1.234722,1.49916 0.352778,0.44083 -0.529167,-2.38111 -0.617361,-1.94027 -0.176389,-0.79361 0.0882,-5.55639 2.645833,0.44083 3.96875,0.6175 0.08819,0.17639 1.322917,1.67583 0.529167,0.70528 0.352777,-1.85194 -0.79375,-1.76389 -0.705555,-1.49917 0,-0.0883 -0.08819,0 -3.615972,-1.23473 -1.411111,-1.23472 -0.705555,-1.94028 -0.176389,-0.52916 -0.529167,-1.41111 3.96875,-4.23334 1.322917,0.44112 z"
        />
    <path
       inkscape:label="kn1926"
       class="land"
       id="dyroy"
       d="m 68.968056,128.23472 -3.615832,6.9675 -0.881944,-0.17638 -1.323058,-0.35278 0.793891,-7.76111 5.026943,-2.64612 0.264724,-0.088 1.322776,1.05833 -1.5875,2.99861 z m 17.109722,3.08667 2.822222,3.43972 -2.910276,1.94028 -4.321668,-3.175 -1.5875,-1.14667 -2.910276,0 -1.587782,0 -0.61722,0.6175 -1.234722,1.67584 0.176388,1.23444 0.176389,0.6175 0.881945,1.49916 -3.175,2.11667 -1.763889,1.23501 -1.058333,0.70555 -0.08834,0.0881 -0.969998,0.61751 -0.176389,-0.17639 0.264725,-1.67584 -0.352778,-0.97 0.61722,-1.67583 0.705556,-0.17639 0.881944,-0.35278 1.5875,-0.61722 -1.146669,-2.02861 -1.322775,0.17639 -0.881945,0.17639 0.441113,-1.76389 0.08805,-0.44083 0.352778,-0.52945 1.322775,-2.02833 2.028613,-1.76389 0.08805,-0.17639 0.176671,-0.17639 0.969998,-1.5875 1.5875,-2.5575 -1.234723,-0.17667 -0.969997,-0.088 0.440831,-0.44083 1.763889,-1.76389 0.440831,-0.35278 2.469726,-0.26472 L 79.375,120.65 82.109169,119.32722 82.55,119.0625 l 0.705556,1.05833 1.058333,1.5875 -0.881945,4.93889 -0.176388,1.14667 0.705555,0.79361 2.116667,2.73389 z"
        />
    <path
       inkscape:label="kn1925"
       class="land"
       id="sorreisa"
       d="m 100.36528,127.44083 -2.645836,2.73417 -2.557497,2.73417 -6.261947,1.85194 -2.822222,-3.43972 -2.116667,-2.73389 -0.705555,-0.79361 0.176388,-1.14667 0.881945,-4.93889 -1.058333,-1.5875 -0.705556,-1.05833 2.381391,-1.23472 0.440831,-0.17639 2.822222,0.26444 2.734169,-0.088 0.176107,0.35278 1.587782,2.29305 0.08805,-0.088 0.440831,-0.44112 0.08834,-0.17638 0.352778,-0.35278 -0.264442,-0.26444 -1.675836,-1.49945 -0.176389,-0.0881 -0.08834,-0.88195 -3.527778,-1.67583 0.705838,-3.26306 0.793609,-0.17667 6.35,-1.05833 2.469444,0.88222 -0.08805,2.02834 -0.793891,0.79389 -0.264443,-0.26473 -3.968891,-0.26472 0.08805,1.32306 0.882226,0.6175 4.233334,2.5575 0.969997,0.6175 2.910556,0 0.17639,0 0,0.35278 -0.26472,4.58611 0.26472,0.44083 0.97,1.85222 -0.26473,1.5875 -2.73388,-0.17667 z"
        />
    <path
       inkscape:label="kn1936"
       class="land"
       id="karlsoy"
       d="m 141.64028,42.598058 -8.64306,3.263053 -0.26472,-1.058333 1.235,-2.998611 1.05834,-2.55778 0.88166,-2.292774 2.205,-0.793891 4.49806,-7.584722 2.46916,2.645833 -2.91028,6.173611 -0.26472,0.441114 -0.0881,2.469162 -0.17639,2.293338 z m 6.17361,-15.963336 1.49916,0.440972 0.52945,-0.264583 0.26444,0.440972 -0.26444,0.970139 -0.97028,-0.08819 -0.44083,0.440972 -2.46944,-1.322917 -0.26473,-1.058333 1.14667,-0.440972 0.79361,0.352778 0.17639,0.529166 z m -19.75556,2.205002 1.23473,0.793609 1.32277,-4.321527 2.99889,-0.529167 0.79361,2.645833 2.20501,-0.529166 1.85194,0.264583 0.97028,1.5875 0.17639,2.822222 -1.76389,1.675553 -4.14528,1.323058 -2.82222,4.850836 -2.20472,5.820833 0,0.08805 -0.97028,-2.733886 -3.43973,1.939995 -2.64555,-0.969997 -0.88194,-4.674165 -3.175,0.440831 0.88194,-5.644444 -3.08695,-2.20472 -1.5875,1.322775 -1.32277,-2.116666 -2.11667,0.529166 1.85194,-3.175 5.7325,0 1.32306,0 -1.32306,-3.527777 -0.35249,-0.617362 0.88194,-0.705555 2.46944,-2.204861 4.05695,1.322916 0,4.586112 3.08666,1.940418 z m -13.84638,-4.586252 -4.58611,3.263195 -0.88195,-2.028473 -3.88084,-2.028472 0.97028,-3.263194 1.85223,0.529166 0.26444,3.527778 1.41111,0 2.38139,-4.145139 1.14639,0.352778 1.32306,3.792361 z m 20.46111,-8.643055 0,3.527777 -7.32028,-1.940277 1.5875,-4.586111 5.73278,2.998611 z m -10.49528,-5.115278 -3.70417,8.643055 -5.46805,-4.586111 3.52777,-3.527777 -0.26444,-4.8506949 3.26305,-2.2930555 0.52917,-0.3527778 0.088,0.3527778 2.02862,6.6145834 z m 16.05139,1.234722 1.41111,0.79375 1.23472,-4.0569443 2.5575,1.1465277 -0.35278,2.9104166 5.9975,5.203472 0.26445,0.176389 -4.05695,4.938889 0,0.264583 -3.43944,-0.264583 -3.08695,-0.264583 -4.85083,-12.259028 -4.05666,-2.9104167 0.44083,-3.5277777 0.0883,-0.2645834 2.38111,-3.52777776 1.94028,1.85208336 0.17639,1.9402778 0.0881,1.0583333 L 139.7,7.9375 l 0.52917,3.792361 z"
        />
    <path
       inkscape:label="kn1924"
       class="land"
       id="malselv"
       d="m 111.38972,105.12778 0.52917,0.97028 1.49917,2.5575 5.90916,4.7625 4.145,3.175 0,0.35277 0.0883,1.41111 10.58333,8.11389 1.41111,0 -0.6175,-2.02833 1.32306,-0.0883 0.79361,2.02833 1.67555,-0.3525 2.91056,-0.70584 6.79111,-1.67555 2.73389,1.76389 1.41111,-2.205 4.7625,-2.38111 3.61583,2.55778 1.94056,2.20472 0.88194,1.05833 2.29306,2.82222 2.11667,2.3814 0.88194,1.05833 1.76361,1.67555 0.17667,1.32278 0.35278,2.02861 0.61722,3.70417 0.17639,0.52916 0.44083,2.29306 0.35277,2.46944 -0.52888,2.11667 -0.44111,1.49945 -0.70556,2.91027 -0.70555,2.91056 -0.88195,3.26305 -0.35278,1.49945 -1.32277,2.20472 -2.55778,4.14528 -1.05834,1.5875 -2.02861,1.94028 -1.85194,1.76389 -0.17639,0 -4.93889,0.0881 -2.64583,0.0881 -1.05834,-0.52888 -4.14528,-2.38139 -13.75833,-12.34722 0,-0.0881 -1.85194,-4.49805 -5.11528,2.55749 -2.29305,-4.76221 -5.64445,-0.0883 0.26473,-3.08666 -4.41001,-1.41112 -3.26305,-4.14528 -2.38139,-0.35277 -1.23444,-3.175 0,-4.32139 0,-4.58611 -0.0883,-1.94028 0,-0.44111 -2.02833,-0.35278 -0.70556,2.46944 -0.35277,-0.17638 -4.32167,-1.85223 2.73388,0.17667 0.26473,-1.5875 -0.97,-1.85222 -0.26472,-0.44083 0.26472,-4.58611 0,-0.35278 -0.17639,0 -2.910556,0 -0.969997,-0.6175 -4.233334,-2.5575 -0.882226,-0.6175 -0.08805,-1.32306 3.968891,0.26472 0.264443,0.26473 0.793891,-0.79389 0.08805,-2.02834 -2.469444,-0.88222 -0.352778,-1.85194 -0.264442,-1.05834 2.116666,-1.94028 2.733887,-2.3811 1.67555,-1.41112 0.70584,0.17611 -0.0883,1.05833 0,1.14667 0.0883,1.67584 0.088,3.35139 0.35278,-0.52917 0.97,-1.23472 0.0883,-0.0883 0.52916,-3.52777 0.44083,-3.70417 0.0883,-0.352779 0,-0.352778 0.0883,-2.20472 0.0881,0 1.41111,3.263057 0.17639,0.26472 1.41111,2.38111 1.5875,2.82222 0.70555,0.26444 0.0881,0 0.17667,-0.1761 0.70555,-0.6175 0,-0.35278 z"
        />
    <path
       inkscape:label="kn1917"
       class="land"
       id="ibestad"
       d="m 46.0375,161.83695 -0.264442,0 0.264442,-0.61751 0.176389,-0.26472 1.675835,-3.79222 3.880556,-8.37833 5.908887,6.96722 0.529166,0.52917 -1.763889,2.82222 -2.293055,0.79361 -4.056945,1.58778 -4.056944,0.35278 z m 22.313336,-15.16945 -5.73278,5.7325 -2.822223,2.73417 -0.176389,0.26444 -0.264724,-0.52917 -0.264442,-0.70555 -0.264442,-0.52917 -1.940278,-4.49777 -2.116667,-4.76279 0.529167,-0.88166 0.881662,-1.49944 3.880838,5.29166 0.61722,-0.0883 1.058333,-0.26445 -1.940278,-3.08666 -1.322775,-1.94056 5.997222,0 2.733887,3.43972 1.146669,1.32306 z"
        />
    <path
       inkscape:label="kn1902"
       class="land"
       id="tromso"
       d="m 111.56583,85.725 -2.38111,0.793891 -0.44083,-2.55778 -5.64473,-2.293055 -0.26444,-0.176389 -0.88194,-1.499165 2.29305,-0.705555 0.0883,-0.08834 4.49777,-1.499447 2.46945,-1.058333 1.32277,-0.61722 1.05834,-0.881944 1.14667,3.968891 -0.35278,1.058333 -0.26444,1.146387 -0.0883,0.441113 1.5875,0.08805 0.088,0 0.0883,0.264725 0.52917,2.20472 -0.52917,0.08834 -0.52917,0.176389 -3.7925,1.146387 z m 5.73278,-20.108333 -1.49945,1.940277 -0.96999,-4.674446 0.0883,-0.881662 0.26444,-0.176672 3.52778,-2.998328 0.26444,1.763888 -0.52888,1.5875 -1.14667,3.263054 0,0.176389 z m 25.31195,5.909169 -0.17639,1.322775 -0.79389,3.263336 0.79389,2.733886 0.44083,1.234723 -0.97028,2.293055 -2.11667,2.645833 -1.85194,2.998612 -1.23472,2.55778 2.82222,-1.411112 1.94028,-2.469444 1.94028,0.440831 0.70555,-2.20472 -0.52916,-1.5875 1.85194,-3.175 -0.61722,-2.469727 0.70555,-2.645551 -0.44111,-3.351389 0.44111,-3.616113 0,-0.529167 1.32306,0.441114 2.29306,0.793609 4.49777,1.323057 2.205,-0.264724 0.0881,1.675836 0.088,1.322775 -4.93861,8.466667 0,0.61722 0.44084,2.910558 0.44111,3.263335 -5.11528,6.790831 0.79361,3.615831 -3.52778,2.293337 0.17639,-4.145279 -1.94028,-0.97028 -0.70555,-0.352778 -0.44112,-2.028331 -0.70527,0.264442 -2.46973,0.793892 -2.3811,-2.205003 -2.5575,-2.381109 -0.97028,-0.969997 1.49944,-2.910558 -0.70555,-1.852225 -3.08695,1.411394 -1.05833,0.529166 -0.61722,0.176107 -1.94028,0.97028 1.23444,1.5875 -1.93999,0.441113 -3.9689,-5.644444 -0.0881,-0.176389 -1.14667,-2.293055 -0.61722,0.08805 0.0881,-2.20472 1.05833,-0.529449 1.41111,-2.116667 0.52917,-0.528884 2.11666,0 1.05834,1.411111 1.49916,2.116667 0.26473,-0.264725 1.05833,-1.058333 0.0883,-0.08805 -0.0883,-0.08834 -1.85194,-2.293056 -1.41111,-2.116666 -0.26473,-0.793609 -1.67555,0.969998 -1.05834,0.352777 -1.94027,1.499447 -0.0883,0.529167 0,0.881944 0.0883,0.528885 -0.26473,0.352777 -0.88194,0 -0.97,-0.969997 -0.70556,-1.5875 -0.79389,-2.645834 0,-2.116666 0.26473,-1.411111 1.23472,-2.469445 1.32278,-2.116667 0.35277,-0.881944 1.67584,-2.910276 0.26444,-4.321668 0,-0.352778 0.70556,-0.264442 1.14667,-0.352778 3.175,-2.822222 5.46805,-1.499447 4.93889,-1.763889 2.38111,-1.234722 1.49945,-0.705556 1.93999,2.293056 -0.88166,2.998611 -0.17667,1.058333 0,1.146669 -0.61722,2.557498 -0.88195,4.497775 -0.0881,0.35306 0,0.176389 2.20472,0.881945 0.52917,3.263053 -0.52917,2.910558 -0.26444,2.116667 z m -28.92806,-11.465278 -3.43944,3.704166 -1.14667,3.263054 2.11666,2.55778 0.35278,0.440831 -1.23444,2.469444 -0.35278,0.529167 -0.6175,1.058333 -8.02555,2.645834 -4.056947,1.234722 -3.792502,1.234722 -4.14528,1.322776 -1.411111,-3.527496 -1.322776,-0.529167 -2.20472,-0.793891 -0.176388,-3.968609 0.440831,-0.441113 1.058333,-1.234722 2.028613,-0.264442 1.058334,-0.08834 2.20472,1.146669 2.20472,1.146387 0.705837,0.440831 1.940278,-3.263054 -0.793891,-0.440831 -4.321387,-2.293055 0,-3.792502 11.641666,-0.440832 0,-0.176388 0,-2.381392 0,-0.440831 -7.849446,-0.352777 0.264725,-5.203614 5.908891,0.617502 1.41111,-2.381391 2.38139,0.264725 0.17639,0.793609 1.76389,8.466666 1.05833,-7.496386 0.52888,-3.968891 -3.26305,-2.116667 0.17639,-2.998611 4.32167,-1.323058 0.97,4.586393 0.0883,0 5.82083,1.675554 1.14639,1.499446 1.85223,2.733887 0,0 -5.46834,6.085558 z m -1.23444,-29.368891 1.32277,2.116666 1.5875,-1.322775 3.08695,2.20472 -0.88194,5.644444 3.175,-0.440831 0.88194,4.674165 2.64555,0.969997 3.43973,-1.939995 0.97028,2.733886 -0.70556,1.940278 -0.6175,1.323058 -6.26195,1.146387 -4.05666,-3.880556 -5.90917,-5.644444 -5.20361,-1.146387 0.88222,-3.175 4.32139,0.793609 1.67584,-2.998611 -3.08695,-1.5875 0.6175,-0.881945 2.11667,-0.529166 z m -5.02723,-1.499165 -1.85194,3.263054 -1.76417,-2.469445 -0.26444,-0.440831 -0.0881,0 -0.44111,0 1.85194,-6.085558 3.88084,2.028472 0.88195,2.028473 -2.20501,1.675835 z"
        />
    <path
       inkscape:label="kn1942"
       class="land"
       id="nordreisa"
       d="m 172.59639,40.040278 1.67583,4.056944 1.76389,-1.234722 0.35278,0.793891 -6.26167,2.998329 -0.52916,-3.263053 0.79361,-3.880556 2.20472,0.529167 z m 33.07305,-7.055556 1.32306,0.969998 -0.6175,4.498058 7.32028,2.20472 0.35278,2.998893 -1.49945,0.352778 0.97028,5.37972 -1.41139,5.027224 -2.46945,2.910276 2.20501,7.408333 4.05694,3.175 2.20472,-0.881944 3.88084,1.499446 7.32,-3.968891 3.08694,0.440831 0.97,4.586394 2.11667,2.028331 2.99861,11.200835 1.41111,0.352778 7.32028,11.818056 0.26444,1.675553 0.35278,3.439729 0.26472,2.55749 -0.0883,0.70556 -0.97,4.67445 -5.38,3.79222 -11.90639,2.02861 -0.26445,-0.35278 -0.35277,-0.35278 -1.23473,-1.49944 -0.61722,-0.70556 -0.97028,-1.05833 -2.29305,-2.64584 -1.67584,-2.02861 -0.70555,-0.97 -0.88166,-1.14667 -1.94028,-2.3811 -1.23472,-1.852229 -0.52945,-0.705273 -0.97,-1.411394 -1.32278,-1.939995 -1.49944,-0.176671 -1.14667,-0.176107 -1.58722,-0.352778 -2.55778,-0.352777 -2.82222,-0.529449 -3.175,-0.61722 -6.26167,-9.083887 -3.88055,-1.411111 4.7625,-5.468338 -1.32306,-3.880273 -7.76111,1.763606 1.76389,-2.292773 -4.85056,-4.057227 0.88167,-2.645551 -2.11667,-3.616113 -7.14361,-5.026942 -1.5875,-4.586111 -2.46944,-1.234723 -0.61722,-0.264724 -0.97028,-0.352778 -0.97028,0.08834 -0.3525,-0.352778 0.97,-0.35306 1.32306,-0.528884 4.05694,-2.028614 1.5875,-1.323058 1.5875,-1.322775 0.97,-2.381109 0.17639,-0.529449 -0.17639,-3.527778 0.26472,-2.116666 1.41111,-1.675554 0.97,-0.881944 1.14667,-1.058333 3.35111,-2.734169 1.41139,-0.528885 -0.35306,2.028331 -1.58722,2.645834 -0.52945,0.529166 -1.67555,2.028331 -2.20472,2.910558 0.88195,0.881945 2.29305,0.08805 -0.97028,1.94056 0.26444,0.61722 0.70584,1.5875 1.5875,2.557498 0,0.08834 0.88166,-0.793609 1.58779,-1.411393 -2.02862,-1.851942 1.5875,-2.469445 -0.52916,-2.733886 1.67583,-1.411394 3.175,0.882227 -1.32306,3.527778 -0.0881,2.557498 1.49916,-1.146387 0.44112,-0.264724 0.70527,-3.439725 0.35306,-2.028331 -1.32306,-2.028331 0,-1.235005 3.52778,0.264725 0.17639,-1.675836 -4.32139,-1.851942 0.52889,-4.321528 1.05833,-0.176389 1.94056,0.352778 4.32139,0.617361 2.38139,4.409723 2.91027,2.116666 z"
        />
    <path
       inkscape:label="kn1920"
       class="land"
       id="lavangen"
       d="m 88.723611,159.10278 -0.529167,1.41111 1.234723,1.5875 0.881944,0.97 0.08805,1.05833 0,2.02861 0,1.32306 -1.675553,0.61722 1.058333,4.14528 -8.202224,1.23472 0.705838,-5.90917 0.176389,-0.70555 0.08805,-1.23472 0.264724,-1.49945 -2.998893,-0.79361 -2.028331,-0.44083 -0.264442,-0.0883 -3.704167,-0.0881 0,-3.175 0.08805,-1.32306 -1.499446,-0.88194 -3.439442,-1.85194 -1.851943,-0.97028 0.08805,-0.26445 0.61722,-1.49944 1.146669,0.6175 1.322775,0.70556 4.321669,1.93999 2.733887,1.05833 2.734169,1.05834 0.793608,-1.41111 -0.61722,-1.67556 -2.293055,-1.23472 -2.910276,-0.52917 -0.882226,-0.35277 -0.528885,-0.17639 0.793609,-1.41111 4.321387,-1.32278 1.587782,1.41083 0.352778,-0.70556 0.264442,-0.61722 1.234722,0.88195 0.352778,0.35278 1.5875,1.14638 2.822222,2.02862 -0.881944,3.52777 2.645833,1.05834 z"
        />
    <path
       inkscape:label="kn1919"
       class="land"
       id="gratangen"
       d="m 67.821387,152.75278 -0.61722,1.49944 -0.08805,0.26445 1.851943,0.97028 3.439442,1.85194 1.499446,0.88194 -0.08805,1.32306 0,3.175 3.704167,0.0881 0.264442,0.0883 2.028331,0.44083 2.998893,0.79361 -0.264724,1.49945 -0.08805,1.23472 -0.176389,0.70555 -0.705838,5.90917 -4.321387,0.35278 -2.381109,0.17611 -1.764171,0.0883 -0.705555,0.0883 -3.439442,-3.52778 -0.352778,-0.35278 -4.144998,-0.52945 -1.058333,-1.05833 1.146386,-1.49916 -3.880555,-0.17639 -2.20472,-4.7625 0.264442,-0.17639 1.852224,-0.61722 1.411112,-0.44111 2.116666,0.79389 2.116667,1.85194 1.763889,1.67583 0.969998,0.35278 1.852224,0.52889 3.263053,0.44111 2.645834,0.0883 0.705555,-0.88195 -1.322775,-1.14667 -0.264725,-0.17639 -3.351389,-0.88194 -2.645833,-1.5875 -0.881944,-1.94028 -0.352778,-0.88194 -3.175,-0.0883 -2.20472,0.26473 -0.97028,-0.79361 -1.234722,-0.97028 0.97028,-1.94028 3.263053,-2.02833 1.763889,-1.41111 0.793609,0.44083 z"
        />
    <path
       inkscape:label="kn1923"
       class="land"
       id="salangen"
       d="m 88.9,134.76111 6.261947,-1.85194 -2.55778,8.55472 0.793891,1.05833 0.793609,1.23472 -2.557498,2.29306 -0.617502,0.26472 -0.440831,0 2.028331,4.23334 -0.352778,2.11666 -0.705556,3.35111 -3.968609,1.32306 1.146387,1.76389 -2.645833,-1.05834 0.881944,-3.52777 -2.822222,-2.02862 -1.5875,-1.14638 -0.352778,-0.35278 -1.234722,-0.88195 -0.264442,0.61722 -0.352778,0.70556 -1.587782,-1.41083 -4.321387,1.32278 -0.793609,1.41111 -0.705555,-0.26473 -2.205003,-1.49916 -1.411111,-1.5875 1.675554,-2.11667 0.705837,-0.70555 1.5875,-1.67556 1.939996,-1.05833 1.587782,0 1.234722,2.02833 2.028332,0.70556 0.529166,0.17639 1.5875,-0.35278 0.440831,-1.05834 0,-0.088 -2.028331,-1.85222 -1.5875,-1.32278 -0.352778,-0.52917 -1.675553,-0.97028 -0.793891,0.0883 -2.20472,0.26444 -1.94056,0.79389 -1.058333,0.61722 -0.440831,0.17639 -1.234723,0.44083 -0.352777,0.17667 -0.705556,0.35278 -0.264442,-0.35278 -0.08834,-0.35277 0.969998,-0.61751 0.08834,-0.0881 1.058333,-0.70555 1.763889,-1.23501 3.175,-2.11667 -0.881945,-1.49916 -0.176389,-0.6175 -0.176388,-1.23444 1.234722,-1.67584 0.61722,-0.6175 1.587782,0 2.910276,0 1.5875,1.14667 4.321668,3.175 L 88.9,134.76111 Z"
        />
    <path
       inkscape:label="kn1931"
       class="land"
       id="lenvik"
       d="m 94.368056,103.01111 0.176388,0.26473 1.675836,-3.175 0.61722,-3.351676 1.763889,-3.263053 1.763891,0.617502 0.0883,0 0.88195,0.352778 0.70527,3.351107 0.52945,1.852224 -0.17639,2.381108 -0.70584,-0.17611 -1.67555,1.41112 -2.733887,2.3811 -2.116666,1.94028 0.264442,1.05834 0.352778,1.85194 -6.35,1.05833 -0.793609,0.17667 0.440831,-2.205 -2.910558,-0.0883 -1.058333,0.61751 -0.528885,-0.88195 0.176107,-0.88194 1.146669,-5.64445 2.645833,-5.026939 1.323058,-3.616113 1.940278,-0.529167 -1.675836,-3.175 -0.440831,-3.615831 2.293056,-0.793891 3.086664,-2.028331 2.645833,2.116666 -0.440831,4.233334 -1.499446,2.910275 -0.969998,2.557498 -0.881945,2.205002 -0.35306,3.174997 0.793892,1.94028 z m -15.081109,-20.725552 -1.411111,4.497775 1.851942,0.793891 3.439724,-4.850835 2.381109,1.852224 -0.881944,1.587218 -0.440831,0.705556 -2.028614,3.704449 1.323058,1.058333 2.20472,-2.998611 0.881944,1.058333 0.441114,5.026942 0.705555,0.969998 0.440831,0.97028 -0.352777,0.441113 -1.675836,0.793609 -2.998329,1.146669 -2.381391,2.028328 0.441113,0.88195 1.940278,3.70416 0.352778,2.46945 0,0.35278 -2.381391,2.11666 4.498058,3.08667 -5.291667,3.52806 0.352778,-4.40972 -1.146669,-1.41112 -0.440831,0.0881 -3.175,0.17639 0.08805,-2.29306 -1.763889,0.26473 -0.264442,-2.46945 0,-1.49945 -1.234722,-2.11666 -2.822505,-5.203333 1.675836,-1.323058 -1.851942,-2.116667 2.292773,-6.085275 2.205002,-1.675836 2.028331,-1.5875 0.352778,-0.264442 -0.176107,-0.08834 L 76.2,84.931391 74.788889,83.431944 72.584169,84.931391 70.467502,83.079167 69.23278,80.874164 68.968056,80.168891 68.615278,79.286947 66.675,75.053613 l 2.293056,1.499165 0.441113,0.352778 1.499164,3.968608 1.323058,1.852225 -0.793891,-9.260558 6.261664,3.792502 1.675836,0.352778 1.234722,0.176389 -1.322775,4.409722 0,0.08834 z"
        />
    <path
       inkscape:label="kn1941"
       class="land"
       id="skjervoy"
       d="m 176.03611,42.8625 -1.76389,1.234722 -1.67583,-4.056944 -2.20472,-0.529167 0.88194,-3.439724 4.32167,-1.058334 1.05833,1.323058 -1.85222,2.734169 1.23472,3.79222 z m 7.32028,-17.727083 -0.6175,1.146527 1.23472,-0.440972 1.23472,-0.705555 0.88195,2.204861 -3.08667,1.5875 0.35278,0.881944 -3.08695,1.675836 -2.02861,1.058333 -2.11667,-2.998611 -1.67555,-4.93903 4.23333,-2.645833 2.11667,3.439583 0.44111,-0.79375 1.14639,-1.940278 2.02861,-3.880555 1.05834,2.293055 -0.6175,1.234722 -1.49917,2.822223 z m -9.525,-10.230556 1.05833,4.321528 -3.26333,2.469444 -2.11667,1.5875 -0.26444,-3.792361 -1.67584,-1.940278 -1.94027,3.880556 -0.44112,1.058333 -1.05833,-1.146527 -0.79361,-0.881945 -1.14639,-1.234722 0,-5.115278 0,-0.970139 0,-3.1749998 3.52778,-3.4395833 0.44083,-2.6458333 0.0881,-0.6173612 5.73278,-0.5291666 1.67555,1.1465278 1.76417,1.2347222 -1.5875,9.7895832 z"
        />
    <path
       inkscape:label="kn1913"
       class="land"
       id="skanland"
       d="m 72.407498,174.18417 -3.439442,1.67555 -0.61722,0.35278 -3.527778,1.76389 -4.586111,0.6175 -0.882227,-0.0883 -11.906109,-0.97 -2.381109,2.73388 -3.086946,3.70417 -0.705556,0.0883 -3.351389,0.52888 -1.058333,0.26473 -0.08805,-0.26473 -0.705837,-1.85194 1.235004,-1.5875 0.264442,0.26444 0.352778,-0.61722 1.499447,-2.20472 -0.529167,-0.26472 -0.264724,-0.17639 -0.705556,-0.35278 -1.5875,-0.79361 -0.264724,-2.38139 1.235004,-2.29306 0.61722,-1.32277 4.850553,-4.23333 3.439725,-0.88195 1.5875,0.88195 1.234722,-1.49945 1.675836,-2.02833 0.705555,0.44083 2.381109,1.41111 1.411111,2.91056 2.116667,1.94028 1.675835,-0.52945 0.61722,-0.0881 -3.351388,-2.29305 0.08834,-3.08667 2.116667,-1.67583 2.20472,4.7625 3.880555,0.17639 -1.146386,1.49916 1.058333,1.05833 4.144998,0.52945 0.352778,0.35278 3.439442,3.52778 z"
        />
    <path
       inkscape:label="kn1927"
       class="land"
       id="tranoy"
       d="M 80.34528,117.21056 79.198611,117.91583 76.2,116.8575 l -7.231944,1.58778 -1.146669,0.35278 1.146669,-4.67445 0.264724,-1.32277 -0.264724,0.0881 -3.79222,0.97028 -0.08834,0.61722 -0.08805,1.14667 -0.176389,2.02833 -7.585005,7.76111 0.08834,0.44111 1.323058,5.37972 -2.645834,0.88195 -3.792502,1.49944 -0.176389,-7.32028 -3.527778,0.7939 -5.203331,1.32277 0,-0.26444 -0.441113,-5.64445 0.176389,-0.0883 7.143609,-2.38139 1.94056,-0.61722 0,-2.82222 1.322775,0 3.79222,-2.20472 0.441114,-0.26473 1.763889,-1.05833 -2.293056,-3.43944 2.20472,-1.05834 0.176671,-2.99861 0,-0.26472 4.938889,-1.5875 0.969998,-0.26445 3.527778,-0.88194 0.08834,0 0.529167,-0.17639 0.08805,-0.97028 0.264442,-3.086663 2.822505,5.203333 1.234722,2.11666 0,1.49945 0.264442,2.46945 1.763889,-0.26473 -0.08805,2.29306 3.175,-0.17639 0.440831,-0.0881 1.146669,1.41112 -0.352778,4.40972 z"
        />
    <path
       inkscape:label="kn1929"
       class="land"
       id="berg"
       d="m 66.675,75.053613 1.940278,4.233334 0.352778,0.881944 0.264724,0.705273 1.234722,2.205003 2.116667,1.852224 2.20472,-1.499447 1.411111,1.499447 0.264724,0.264442 0.176107,0.08834 -0.352778,0.264442 -2.028331,1.5875 -2.205002,1.675836 -2.292773,6.085275 1.851942,2.116667 -1.675836,1.323058 -0.264442,3.086663 -0.08805,0.97028 -0.529167,0.17639 -0.08834,0 -3.527778,0.88194 -0.969998,0.26445 -2.910558,-2.11667 -1.146669,-3.351389 -2.998329,0.08834 -0.529166,-2.646116 -1.058334,-0.705273 -1.323057,-0.881945 -0.61722,-0.352777 1.058333,-1.411112 2.028331,-0.264724 2.116667,0.352778 0.08834,0.441113 0.264443,1.234722 0.969997,0.352778 0.617503,0.176107 2.645833,2.55778 0.705555,-2.55778 -4.144997,-1.411111 0.176106,-0.08805 1.411394,-1.058333 3.880273,-1.146387 0.617502,0.08805 0.705556,0.264724 0,-1.323058 L 65.528613,89.076389 65.0875,88.988053 64.734722,88.9 l -1.499164,1.146387 -1.411111,-0.176107 -2.381391,-0.352778 -1.234723,-1.235004 -0.97028,-2.469445 -0.705555,-2.116666 0.97028,0.617502 0.176389,0 3.086946,1.851942 1.411111,-1.058333 -1.5875,-4.056662 0.440832,-1.587783 3.086946,1.587783 2.645551,1.851942 1.146669,2.293055 1.058334,0 0.529166,-0.08833 -0.529166,-0.705274 -4.586112,-6.614724 1.940278,-2.998611 0.352778,0.264724 z"
        />
    <path
       inkscape:label="kn1938"
       class="land"
       id="lyngen"
       d="m 160.60222,86.342502 -1.94027,0.440831 -6.70278,1.323058 -0.44111,-3.263335 -0.44084,-2.910558 0,-0.61722 4.93861,-8.466667 -0.088,-1.322775 -0.0881,-1.675836 2.82223,-0.264442 -0.79389,-0.881945 -0.17639,-0.264724 -4.05695,-0.08805 -2.91056,-1.323058 -0.0881,0 -2.38139,-1.411111 -1.05833,-2.734169 -0.52889,-0.793609 -0.97028,-1.411111 0.52917,-3.880556 1.49945,-1.5875 0.088,-4.144998 3.175,-6.702777 0.97028,1.322775 -0.6175,4.233334 1.05833,-0.176389 0.35278,-0.176389 0.6175,-4.7625 0.088,0 1.14639,-5.115278 0.79389,-3.263336 0.79389,-2.381108 0.0881,-0.529167 0.52916,1.675835 1.32278,-0.441113 1.49944,-3.880555 0.97028,-1.234723 2.11667,2.469445 1.94028,3.792502 0.79361,3.175 -1.05834,5.820551 -0.88194,5.821116 0,1.499164 -0.26444,4.321669 -0.6175,2.998611 2.02861,2.292773 1.14639,3.616114 -1.23473,3.086946 -1.85194,0.969998 0,0.08834 -0.52917,2.998611 1.05834,3.351389 0.44083,3.175 -2.02833,2.028331 -0.52917,3.704167 -0.52917,1.499446 z"
        />
    <path
       inkscape:label="kn1939"
       class="land"
       id="storfjord"
       d="m 194.02778,101.24722 -0.17639,0.26473 -0.70556,1.05833 0,0.26444 -0.17639,1.23472 -0.17638,1.5875 0.96999,1.85223 1.05834,1.93999 0.6175,1.32306 0.52917,1.67584 2.11666,1.5875 -0.70555,3.88027 -0.44112,3.08695 -2.64555,-1.32278 -3.88055,-2.11666 -0.26473,-0.17639 -1.76389,-0.97028 -2.82222,-1.5875 -0.44083,-0.26445 -0.26472,-0.17638 -0.97,-0.52917 -0.35306,0.44083 0,0.0883 -0.17611,0.17638 -1.05833,1.23444 -0.52917,0.52945 -0.35306,0.52889 -0.26444,0.35306 -0.44083,0.52916 -0.88195,1.05834 -0.88222,0.97 -0.44083,0.6175 -0.17639,0 -2.82223,0.52916 -1.05833,0.17611 -1.14639,0.26473 -3.70416,0.6175 -3.88056,0.61722 -1.76389,0.26472 -2.99889,0.52917 -3.61583,-2.55778 0.70555,-1.85223 -1.32305,-0.7936 -2.11667,-10.495 -2.5575,-0.97028 -1.41111,-0.61722 -1.76389,-0.6175 -1.94028,-0.88195 -2.82222,-3.79222 3.52778,-2.293337 -0.79361,-3.615831 5.11528,-6.790831 6.70278,-1.323058 1.94027,-0.440831 -1.14666,2.822222 -3.52778,2.733887 -0.61722,2.733887 -2.29306,6.085562 2.38111,-1.852229 0.79389,-0.61722 0.26444,-0.61722 3.52778,-6.879167 3.175,-2.55778 0.88195,-0.264724 1.14638,-0.440831 0.0883,-0.529167 0.88194,-4.233333 0.44083,-1.852225 0.97028,0.08834 0.26473,0.08834 4.40972,0.969997 0.97,6.879167 2.73417,3.439724 5.46777,2.20472 5.29167,-0.08805 0.17667,3.527778 3.70388,2.293051 0.88223,-1.411389 2.5575,2.381389 z"
        />
    <path
       inkscape:label="kn1940"
       class="land"
       id="kafjord"
       d="m 201.96528,92.604167 -0.44112,0.441113 -1.7636,1.763889 -3.7925,3.527778 -1.94028,2.910273 -2.5575,-2.381389 -0.88223,1.411389 -3.70388,-2.293051 -0.17667,-3.527778 -5.29167,0.08805 -5.46777,-2.20472 -2.73417,-3.439724 -0.97,-6.879167 -4.40972,-0.969997 -0.26473,-0.08834 -0.97028,-0.08834 2.20501,-11.464995 1.14667,-1.499447 1.05833,1.499447 0.52888,0.705555 0.97028,1.146387 0.52917,0.617502 1.5875,-0.176389 1.85222,2.469163 1.67556,0.617502 1.94028,0.617502 3.52777,0.969998 0.35278,-1.146669 -1.5875,-2.645551 -2.99861,0.352778 -1.23472,-0.793891 -1.41111,-0.793892 -2.29306,-3.263053 -1.94028,-1.763889 -0.52916,-0.440831 -1.14667,-0.97028 -0.35278,-3.615831 -0.088,-1.058333 0.26472,-1.234723 0.0881,-0.97028 0.35278,-2.381108 -0.6175,-3.704449 -1.05833,-1.410829 0.97028,-0.08834 0.97028,0.352778 0.61722,0.264724 2.46944,1.234723 1.5875,4.586111 7.14361,5.026942 2.11667,3.616113 -0.88167,2.645551 4.85056,4.057227 -1.76389,2.292773 7.76111,-1.763606 1.32306,3.880273 -4.7625,5.468338 3.88055,1.411111 6.26167,9.083887 z"
        />
    <path
       inkscape:label="kn1903"
       class="land"
       id="harstad"
       d="M 38.011947,143.75694 C 38.1,145.16806 38.1,145.16806 38.1,145.16806 c -2.822222,1.94027 -2.822222,1.94027 -2.822222,1.94027 -3.086947,-0.6175 -3.086947,-0.6175 -3.086947,-0.6175 -0.440831,-0.088 -0.440831,-0.088 -0.440831,-0.088 -0.352778,-0.0881 -0.352778,-0.0881 -0.352778,-0.0881 -1.499164,-1.85222 -1.499164,-1.85222 -1.499164,-1.85222 -1.058334,-1.23472 -1.058334,-1.23472 -1.058334,-1.23472 -0.617502,-0.79361 -0.617502,-0.79361 -0.617502,-0.79361 -0.352778,-0.44111 -0.352778,-0.44111 -0.352778,-0.44111 -0.705555,-0.52917 -0.705555,-0.52917 -0.705555,-0.52917 -0.617361,-0.44083 -0.617361,-0.44083 -0.617361,-0.44083 C 24.253472,139.0825 24.253472,139.0825 24.253472,139.0825 25.4,135.9075 25.4,135.9075 25.4,135.9075 c 0.970139,0.17667 0.970139,0.17667 0.970139,0.17667 2.116808,0.44083 2.116808,0.44083 2.116808,0.44083 0,0 0,0 0,0.088 1.940277,1.67584 1.940277,1.67584 1.940277,1.67584 4.409723,1.41111 4.409723,1.41111 4.409723,1.41111 1.763889,-1.67584 1.763889,-1.67584 1.763889,-1.67584 0,0 0.08805,0 0.08805,0 0,0 0,0 0,0 1.146669,2.9989 1.146669,2.9989 1.146669,2.9989 0.08805,0.52916 0.08805,0.52916 0.08805,0.52916 0.08834,2.20472 0.08834,2.20472 0.08834,2.20472 m -7.496669,-7.9375 c 0.529166,0 0.529166,0 0.529166,0 4.321387,0.35278 4.321387,0.35278 4.321387,0.35278 0.35306,0.0883 0.35306,0.0883 0.35306,0.0883 -0.176389,-0.6175 -0.176389,-0.6175 -0.176389,-0.6175 -0.176671,-0.7939 -0.176671,-0.7939 -0.176671,-0.7939 -0.08805,0 -0.08805,0 -0.08805,0 -1.146387,-0.44083 -1.146387,-0.44083 -1.146387,-0.44083 0,0 0,0 0,0 0,-0.0881 0,-0.0881 0,-0.0881 0.176107,-0.44111 0.176107,-0.44111 0.176107,-0.44111 C 34.925,132.02722 34.925,132.02722 34.925,132.02722 34.660558,130.96889 34.660558,130.96889 34.660558,130.96889 31.75,132.90917 31.75,132.90917 31.75,132.90917 Z m 7.9375,3.43973 c 1.411111,2.73389 1.411111,2.73389 1.411111,2.73389 0,0 0,0 0,0 0,0.17638 0,0.17638 0,0.17638 2.469444,-2.11666 2.469444,-2.11666 2.469444,-2.11666 -1.322775,-2.29306 -1.322775,-2.29306 -1.322775,-2.29306 z m -14.463889,14.37555 c 3.527778,2.38111 3.527778,2.38111 3.527778,2.38111 0.97028,1.76389 0.97028,1.76389 0.97028,1.76389 -1.234864,1.49945 -1.234864,1.49945 -1.234864,1.49945 1.146528,0.0883 1.146528,0.0883 1.146528,0.0883 0.441113,4.93889 0.441113,4.93889 0.441113,4.93889 1.499165,0.79361 1.499165,0.79361 1.499165,0.79361 -0.793609,1.05833 -0.793609,1.05833 -0.793609,1.05833 1.322776,2.02862 1.322776,2.02862 1.322776,2.02862 -5.55625,4.05694 -5.55625,4.05694 -5.55625,4.05694 1.146527,2.29306 1.146527,2.29306 1.146527,2.29306 0.352778,0.52888 0.352778,0.52888 0.352778,0.52888 4.498058,2.02861 4.498058,2.02861 4.498058,2.02861 0,0 0,0 0,0.0881 0.705555,2.02861 0.705555,2.02861 0.705555,2.02861 0.440832,0 0.440832,0 0.440832,0 1.851942,-0.97028 1.851942,-0.97028 1.851942,-0.97028 -0.705274,-4.05666 -0.705274,-4.05666 -0.705274,-4.05666 0,0 0,0 0.08805,-0.0883 1.411111,-0.26444 1.411111,-0.26444 1.411111,-0.26444 0.969998,-2.11667 0.969998,-2.11667 0.969998,-2.11667 0.882226,-2.11666 0.882226,-2.11666 0.882226,-2.11666 0.176107,-1.76389 0.176107,-1.76389 0.176107,-1.76389 -0.264442,-5.73278 -0.264442,-5.73278 -0.264442,-5.73278 -0.441114,-1.67555 -0.441114,-1.67555 -0.441114,-1.67555 -1.058333,-4.85084 -1.058333,-4.85084 -1.058333,-4.85084 -0.264442,-0.79361 -0.264442,-0.79361 -0.264442,-0.79361 0,0 0,0 0,-0.0883 1.146669,-2.64584 1.146669,-2.64584 1.146669,-2.64584 -0.793891,-1.05833 -0.793891,-1.05833 -0.793891,-1.05833 -0.705556,0.97028 -0.705556,0.97028 -0.705556,0.97028 -0.705555,0.88166 -0.705555,0.88166 -0.705555,0.88166 0,0.0883 -0.08805,0.0883 -0.08805,0.0883 -1.058333,-0.35278 -1.058333,-0.35278 -1.058333,-0.35278 0,0 0,0 0,0 0,-0.79389 0,-0.79389 0,-0.79389 -0.176389,-1.94 -0.176389,-1.94 -0.176389,-1.94 C 31.75,148.96056 31.75,148.96056 31.75,148.96056 c -1.146387,0.79361 -1.146387,0.79361 -1.146387,0.79361 0,0.0883 0,0 -0.08834,0 -0.969998,-0.97 -0.969998,-0.97 -0.969998,-0.97 C 28.045833,147.6375 28.045833,147.6375 28.045833,147.6375 26.19375,146.05 26.19375,146.05 26.19375,146.05 c 0,0 0,0 0,0 -1.852083,-2.64583 -1.852083,-2.64583 -1.852083,-2.64583 -0.529167,0 -0.529167,0 -0.529167,0 0,0.17639 0,0.17639 0,0.17639 0.264583,2.55749 0.264583,2.55749 0.264583,2.55749 1.940278,1.49945 1.940278,1.49945 1.940278,1.49945 0,0 0,0 0,0 1.675695,4.05694 1.675695,4.05694 1.675695,4.05694 0,0 0,0.0881 0,0.0881 -0.881945,0.79389 -0.881945,0.79389 -0.881945,0.79389 -0.08819,0 -0.08819,0 -0.08819,0 0,0 0,0 -0.08819,-0.0883 -2.38125,-3.08666 -2.38125,-3.08666 -2.38125,-3.08666 C 23.636111,149.225 23.636111,149.225 23.636111,149.225 Z"
        />
    <text
       sodipodi:linespacing="125%"
       id="text145"
       y="77.406303"
       x="206.35605"
       
       xml:space="preserve"><tspan
         id="tspan147"
         y="77.406303"
         x="206.35605"
         sodipodi:role="line"><tspan
           id="tspan149"
           
           dy="0"
           dx="0">1942</tspan></tspan></text>
    <text
       sodipodi:linespacing="125%"
       id="text151"
       y="55.555439"
       x="225.91145"
       
       xml:space="preserve"><tspan
         id="tspan153"
         y="55.555439"
         x="225.91145"
         sodipodi:role="line"><tspan
           id="tspan155"
           
           dy="0"
           dx="0">1943</tspan></tspan></text>
    <text
       sodipodi:linespacing="125%"
       id="text157"
       y="17.44648"
       x="169.97861"
       
       xml:space="preserve"><tspan
         id="tspan159"
         y="17.44648"
         x="169.97861"
         sodipodi:role="line"><tspan
           id="tspan161"
           
           dy="0"
           dx="0">1941</tspan></tspan></text>
    <text
       sodipodi:linespacing="125%"
       id="text163"
       y="60.537907"
       x="152.03293"
       
       xml:space="preserve"><tspan
         id="tspan165"
         y="60.537907"
         x="152.03293"
         sodipodi:role="line"><tspan
           id="tspan167"
           
           dy="0"
           dx="0">1938</tspan></tspan></text>
    <text
       sodipodi:linespacing="125%"
       id="text169"
       y="106.5537"
       x="164.07249"
       
       xml:space="preserve"><tspan
         id="tspan171"
         y="106.5537"
         x="164.07249"
         sodipodi:role="line"><tspan
           id="tspan173"
           
           dy="0"
           dx="0">1939</tspan></tspan></text>
    <text
       sodipodi:linespacing="125%"
       id="text175"
       y="142.57614"
       x="135.13008"
       
       xml:space="preserve"><tspan
         id="tspan177"
         y="142.57614"
         x="135.13008"
         sodipodi:role="line"><tspan
           id="tspan179"
           
           dy="0"
           dx="0">1924</tspan></tspan></text>
    <text
       sodipodi:linespacing="125%"
       id="text181"
       y="115.36453"
       x="132.66856"
       
       xml:space="preserve"><tspan
         id="tspan183"
         y="115.36453"
         x="132.66856"
         sodipodi:role="line"><tspan
           id="tspan185"
           
           dy="0"
           dx="0">1933</tspan></tspan></text>
    <text
       sodipodi:linespacing="125%"
       id="text187"
       y="68.932571"
       x="123.98038"
       
       xml:space="preserve"><tspan
         id="tspan189"
         y="68.932571"
         x="123.98038"
         sodipodi:role="line"><tspan
           id="tspan191"
           
           dy="0"
           dx="0">1902</tspan></tspan></text>
    <text
       sodipodi:linespacing="125%"
       id="text193"
       y="35.906853"
       x="124.00776"
       
       xml:space="preserve"><tspan
         id="tspan195"
         y="35.906853"
         x="124.00776"
         sodipodi:role="line"><tspan
           id="tspan197"
           
           dy="0"
           dx="0">1936</tspan></tspan></text>
    <text
       sodipodi:linespacing="125%"
       id="text199"
       y="97.710655"
       x="77.439026"
       
       xml:space="preserve"><tspan
         id="tspan201"
         y="97.710655"
         x="77.439026"
         sodipodi:role="line"><tspan
           id="tspan203"
           
           dy="0"
           dx="0">1931</tspan></tspan></text>
    <text
       sodipodi:linespacing="125%"
       id="text205"
       y="83.61953"
       x="49.732708"
       
       xml:space="preserve"><tspan
         id="tspan207"
         y="83.61953"
         x="49.732708"
         sodipodi:role="line"><tspan
           id="tspan209"
           
           dy="0"
           dx="0">1929</tspan></tspan></text>
    <text
       sodipodi:linespacing="125%"
       id="text211"
       y="112.26154"
       x="63.945969"
       
       xml:space="preserve"><tspan
         id="tspan213"
         y="112.26154"
         x="63.945969"
         sodipodi:role="line"><tspan
           id="tspan215"
           
           dy="0"
           dx="0">1927</tspan></tspan></text>
    <text
       sodipodi:linespacing="125%"
       id="text217"
       y="106.41452"
       x="38.867569"
       
       xml:space="preserve"><tspan
         id="tspan219"
         y="106.41452"
         x="38.867569"
         sodipodi:role="line"><tspan
           id="tspan221"
           
           dy="0"
           dx="0">1928</tspan></tspan></text>
    <text
       sodipodi:linespacing="125%"
       id="text223"
       y="131.3"
       x="75.227448"
       
       xml:space="preserve"><tspan
         id="tspan225"
         y="131.3"
         x="75.227448"
         sodipodi:role="line"><tspan
           id="tspan227"
           
           dy="0"
           dx="0">1926</tspan></tspan></text>
    <text
       sodipodi:linespacing="125%"
       id="text229"
       y="144.15193"
       x="82.529671"
       
       xml:space="preserve"><tspan
         id="tspan231"
         y="144.15193"
         x="82.529671"
         sodipodi:role="line"><tspan
           id="tspan233"
           
           dy="0"
           dx="0">1923</tspan></tspan></text>
    <text
       sodipodi:linespacing="125%"
       id="text235"
       y="167.1624"
       x="110.87472"
       
       xml:space="preserve"><tspan
         id="tspan237"
         y="167.1624"
         x="110.87472"
         sodipodi:role="line"><tspan
           id="tspan239"
           
           dy="0"
           dx="0">1922</tspan></tspan></text>
    <text
       sodipodi:linespacing="125%"
       id="text241"
       y="169.28734"
       x="68.942215"
       
       xml:space="preserve"><tspan
         id="tspan243"
         y="169.28734"
         x="68.942215"
         sodipodi:role="line"><tspan
           id="tspan245"
           
           dy="0"
           dx="0">1919</tspan></tspan></text>
    <text
       sodipodi:linespacing="125%"
       id="text247"
       y="152.53763"
       x="49.732708"
       
       xml:space="preserve"><tspan
         id="tspan249"
         y="152.53763"
         x="49.732708"
         sodipodi:role="line"><tspan
           id="tspan251"
           
           dy="0"
           dx="0">1917</tspan></tspan></text>
    <text
       sodipodi:linespacing="125%"
       id="text253"
       y="175.78273"
       x="46.608524"
       
       xml:space="preserve"><tspan
         id="tspan255"
         y="175.78273"
         x="46.608524"
         sodipodi:role="line"><tspan
           id="tspan257"
           
           dy="0"
           dx="0">1913</tspan></tspan></text>
    <text
       sodipodi:linespacing="125%"
       id="text259"
       y="152.0374"
       x="32.510677"
       
       xml:space="preserve"><tspan
         id="tspan261"
         y="152.0374"
         x="32.510677"
         sodipodi:role="line"><tspan
           id="tspan263"
           
           dy="0"
           dx="0">1903</tspan></tspan></text>
    <text
       sodipodi:linespacing="125%"
       id="text265"
       y="160.0345"
       x="9.2952118"
       
       xml:space="preserve"><tspan
         id="tspan267"
         y="160.0345"
         x="9.2952118"
         sodipodi:role="line"><tspan
           id="tspan269"
           
           dy="0"
           dx="0">1911</tspan></tspan></text>
    <text
       sodipodi:linespacing="125%"
       id="text271"
       y="159.1281"
       x="75.845154"
       
       xml:space="preserve"><tspan
         id="tspan273"
         y="159.1281"
         x="75.845154"
         sodipodi:role="line"><tspan
           id="tspan275"
           
           dy="0"
           dx="0">1920</tspan></tspan></text>
    <text
       sodipodi:linespacing="125%"
       id="text277"
       y="126.91129"
       x="90.270805"
       
       xml:space="preserve"><tspan
         id="tspan279"
         y="126.91129"
         x="90.270805"
         sodipodi:role="line"><tspan
           id="tspan281"
           
           dy="0"
           dx="0">1925</tspan></tspan></text>
    <text
       sodipodi:linespacing="125%"
       id="text283"
       y="87.478729"
       x="181.11935"
       
       xml:space="preserve"><tspan
         id="tspan285"
         y="87.478729"
         x="181.11935"
         sodipodi:role="line"><tspan
           id="tspan287"
           
           dy="0"
           dx="0">1940</tspan></tspan></text>
    <text
       sodipodi:linespacing="125%"
       id="text289"
       y="139.42491"
       x="132.48201"
       
       xml:space="preserve"><tspan
         id="tspan291"
         y="139.42491"
         x="132.48201"
         sodipodi:role="line"><tspan
           id="tspan293"
           
           dy="0"
           dx="0">Mlselv</tspan></tspan></text>
    <text
       sodipodi:linespacing="125%"
       id="text295"
       y="112.21279"
       x="129.23982"
       
       xml:space="preserve"><tspan
         id="tspan297"
         y="112.21279"
         x="129.23982"
         sodipodi:role="line"><tspan
           id="tspan299"
           
           dy="0"
           dx="0">Bal</tspan></tspan></text>
    <text
       sodipodi:linespacing="125%"
       id="text301"
       y="112.21279"
       x="133.65816"
       
       xml:space="preserve"><tspan
         id="tspan303"
         y="112.21279"
         x="133.65816"
         sodipodi:role="line"><tspan
           id="tspan305"
           
           dy="0"
           dx="0">s</tspan></tspan></text>
    <text
       sodipodi:linespacing="125%"
       id="text307"
       y="112.21279"
       x="135.0052"
       
       xml:space="preserve"><tspan
         id="tspan309"
         y="112.21279"
         x="135.0052"
         sodipodi:role="line"><tspan
           id="tspan311"
           
           dy="0"
           dx="0">fjo</tspan></tspan></text>
    <text
       sodipodi:linespacing="125%"
       id="text313"
       y="112.21279"
       x="138.73279"
       
       xml:space="preserve"><tspan
         id="tspan315"
         y="112.21279"
         x="138.73279"
         sodipodi:role="line"><tspan
           id="tspan317"
           
           dy="0"
           dx="0">r</tspan></tspan></text>
    <text
       sodipodi:linespacing="125%"
       id="text319"
       y="112.21279"
       x="139.91446"
       
       xml:space="preserve"><tspan
         id="tspan321"
         y="112.21279"
         x="139.91446"
         sodipodi:role="line"><tspan
           id="tspan323"
           
           dy="0"
           dx="0">d</tspan></tspan></text>
    <text
       sodipodi:linespacing="125%"
       id="text325"
       y="103.40231"
       x="160.59433"
       
       xml:space="preserve"><tspan
         id="tspan327"
         y="103.40231"
         x="160.59433"
         sodipodi:role="line"><tspan
           id="tspan329"
           
           dy="0"
           dx="0">S</tspan></tspan></text>
    <text
       sodipodi:linespacing="125%"
       id="text331"
       y="103.40231"
       x="162.21526"
       
       xml:space="preserve"><tspan
         id="tspan333"
         y="103.40231"
         x="162.21526"
         sodipodi:role="line"><tspan
           id="tspan335"
           
           dy="0"
           dx="0">t</tspan></tspan></text>
    <text
       sodipodi:linespacing="125%"
       id="text337"
       y="103.40231"
       x="163.36247"
       
       xml:space="preserve"><tspan
         id="tspan339"
         y="103.40231"
         x="163.36247"
         sodipodi:role="line"><tspan
           id="tspan341"
           
           dy="0"
           dx="0">orfjo</tspan></tspan></text>
    <text
       sodipodi:linespacing="125%"
       id="text343"
       y="103.40231"
       x="170.18031"
       
       xml:space="preserve"><tspan
         id="tspan345"
         y="103.40231"
         x="170.18031"
         sodipodi:role="line"><tspan
           id="tspan347"
           
           dy="0"
           dx="0">r</tspan></tspan></text>
    <text
       sodipodi:linespacing="125%"
       id="text349"
       y="103.40231"
       x="171.36198"
       
       xml:space="preserve"><tspan
         id="tspan351"
         y="103.40231"
         x="171.36198"
         sodipodi:role="line"><tspan
           id="tspan353"
           
           dy="0"
           dx="0">d</tspan></tspan></text>
    <text
       sodipodi:linespacing="125%"
       id="text355"
       y="84.327499"
       x="178.91931"
       
       xml:space="preserve"><tspan
         id="tspan357"
         y="84.327499"
         x="178.91931"
         sodipodi:role="line"><tspan
           id="tspan359"
           
           dy="0"
           dx="0">K</tspan></tspan></text>
    <text
       sodipodi:linespacing="125%"
       id="text361"
       y="84.327499"
       x="180.69354"
       
       xml:space="preserve"><tspan
         id="tspan363"
         y="84.327499"
         x="180.69354"
         sodipodi:role="line"><tspan
           id="tspan365"
           
           dy="0"
           dx="0"></tspan></tspan></text>
    <text
       sodipodi:linespacing="125%"
       id="text367"
       y="84.327499"
       x="182.36269"
       
       xml:space="preserve"><tspan
         id="tspan369"
         y="84.327499"
         x="182.36269"
         sodipodi:role="line"><tspan
           id="tspan371"
           
           dy="0"
           dx="0">fjo</tspan></tspan></text>
    <text
       sodipodi:linespacing="125%"
       id="text373"
       y="84.327499"
       x="186.09027"
       
       xml:space="preserve"><tspan
         id="tspan375"
         y="84.327499"
         x="186.09027"
         sodipodi:role="line"><tspan
           id="tspan377"
           
           dy="0"
           dx="0">r</tspan></tspan></text>
    <text
       sodipodi:linespacing="125%"
       id="text379"
       y="84.327499"
       x="187.27194"
       
       xml:space="preserve"><tspan
         id="tspan381"
         y="84.327499"
         x="187.27194"
         sodipodi:role="line"><tspan
           id="tspan383"
           
           dy="0"
           dx="0">d</tspan></tspan></text>
    <text
       sodipodi:linespacing="125%"
       id="text385"
       y="74.254898"
       x="202.15303"
       
       xml:space="preserve"><tspan
         id="tspan387"
         y="74.254898"
         x="202.15303"
         sodipodi:role="line"><tspan
           id="tspan389"
           
           dy="0"
           dx="0">No</tspan></tspan></text>
    <text
       sodipodi:linespacing="125%"
       id="text391"
       y="74.254898"
       x="206.29059"
       
       xml:space="preserve"><tspan
         id="tspan393"
         y="74.254898"
         x="206.29059"
         sodipodi:role="line"><tspan
           id="tspan395"
           
           dy="0"
           dx="0">r</tspan></tspan></text>
    <text
       sodipodi:linespacing="125%"
       id="text397"
       y="74.254898"
       x="207.47226"
       
       xml:space="preserve"><tspan
         id="tspan399"
         y="74.254898"
         x="207.47226"
         sodipodi:role="line"><tspan
           id="tspan401"
           
           dy="0"
           dx="0">d</tspan></tspan></text>
    <text
       sodipodi:linespacing="125%"
       id="text403"
       y="74.254898"
       x="209.32573"
       
       xml:space="preserve"><tspan
         id="tspan405"
         y="74.254898"
         x="209.32573"
         sodipodi:role="line"><tspan
           id="tspan407"
           
           dy="0"
           dx="0">r</tspan></tspan></text>
    <text
       sodipodi:linespacing="125%"
       id="text409"
       y="74.254898"
       x="210.50911"
       
       xml:space="preserve"><tspan
         id="tspan411"
         y="74.254898"
         x="210.50911"
         sodipodi:role="line"><tspan
           id="tspan413"
           
           dy="0"
           dx="0">eisa</tspan></tspan></text>
    <text
       sodipodi:linespacing="125%"
       id="text415"
       y="52.403862"
       x="220.3459"
       
       xml:space="preserve"><tspan
         id="tspan417"
         y="52.403862"
         x="220.3459"
         sodipodi:role="line"><tspan
           id="tspan419"
           
           dy="0"
           dx="0">K</tspan></tspan></text>
    <text
       sodipodi:linespacing="125%"
       id="text421"
       y="52.403862"
       x="222.00471"
       
       xml:space="preserve"><tspan
         id="tspan423"
         y="52.403862"
         x="222.00471"
         sodipodi:role="line"><tspan
           id="tspan425"
           
           dy="0"
           dx="0">v</tspan></tspan></text>
    <text
       sodipodi:linespacing="125%"
       id="text427"
       y="52.403862"
       x="223.54639"
       
       xml:space="preserve"><tspan
         id="tspan429"
         y="52.403862"
         x="223.54639"
         sodipodi:role="line"><tspan
           id="tspan431"
           
           dy="0"
           dx="0">nan</tspan></tspan></text>
    <text
       sodipodi:linespacing="125%"
       id="text433"
       y="52.403862"
       x="231.66992"
       
       xml:space="preserve"><tspan
         id="tspan435"
         y="52.403862"
         x="231.66992"
         sodipodi:role="line"><tspan
           id="tspan437"
           
           dy="0"
           dx="0">g</tspan></tspan></text>
    <text
       sodipodi:linespacing="125%"
       id="text439"
       y="52.403862"
       x="233.30118"
       
       xml:space="preserve"><tspan
         id="tspan441"
         y="52.403862"
         x="233.30118"
         sodipodi:role="line"><tspan
           id="tspan443"
           
           dy="0"
           dx="0">en</tspan></tspan></text>
    <text
       sodipodi:linespacing="125%"
       id="text445"
       y="14.294735"
       x="166.78087"
       
       xml:space="preserve"><tspan
         id="tspan447"
         y="14.294735"
         x="166.78087"
         sodipodi:role="line"><tspan
           id="tspan449"
           
           dy="0"
           dx="0">Skje</tspan></tspan></text>
    <text
       sodipodi:linespacing="125%"
       id="text451"
       y="14.294735"
       x="172.6048"
       
       xml:space="preserve"><tspan
         id="tspan453"
         y="14.294735"
         x="172.6048"
         sodipodi:role="line"><tspan
           id="tspan455"
           
           dy="0"
           dx="0">r</tspan></tspan></text>
    <text
       sodipodi:linespacing="125%"
       id="text457"
       y="14.294735"
       x="173.86742"
       
       xml:space="preserve"><tspan
         id="tspan459"
         y="14.294735"
         x="173.86742"
         sodipodi:role="line"><tspan
           id="tspan461"
           
           dy="0"
           dx="0">v</tspan></tspan></text>
    <text
       sodipodi:linespacing="125%"
       id="text463"
       y="14.294735"
       x="175.42805"
       
       xml:space="preserve"><tspan
         id="tspan465"
         y="14.294735"
         x="175.42805"
         sodipodi:role="line"><tspan
           id="tspan467"
           
           dy="0"
           dx="0"></tspan></tspan></text>
    <text
       sodipodi:linespacing="125%"
       id="text469"
       y="14.294735"
       x="177.27635"
       
       xml:space="preserve"><tspan
         id="tspan471"
         y="14.294735"
         x="177.27635"
         sodipodi:role="line"><tspan
           id="tspan473"
           
           dy="0"
           dx="0">y</tspan></tspan></text>
    <text
       sodipodi:linespacing="125%"
       id="text475"
       y="57.386505"
       x="149.92297"
       
       xml:space="preserve"><tspan
         id="tspan477"
         y="57.386505"
         x="149.92297"
         sodipodi:role="line"><tspan
           id="tspan479"
           
           dy="0"
           dx="0">L</tspan></tspan></text>
    <text
       sodipodi:linespacing="125%"
       id="text481"
       y="57.386505"
       x="151.27"
       
       xml:space="preserve"><tspan
         id="tspan483"
         y="57.386505"
         x="151.27"
         sodipodi:role="line"><tspan
           id="tspan485"
           
           dy="0"
           dx="0">yn</tspan></tspan></text>
    <text
       sodipodi:linespacing="125%"
       id="text487"
       y="57.386505"
       x="154.72028"
       
       xml:space="preserve"><tspan
         id="tspan489"
         y="57.386505"
         x="154.72028"
         sodipodi:role="line"><tspan
           id="tspan491"
           
           dy="0"
           dx="0">g</tspan></tspan></text>
    <text
       sodipodi:linespacing="125%"
       id="text493"
       y="57.386505"
       x="156.35153"
       
       xml:space="preserve"><tspan
         id="tspan495"
         y="57.386505"
         x="156.35153"
         sodipodi:role="line"><tspan
           id="tspan497"
           
           dy="0"
           dx="0">en</tspan></tspan></text>
    <text
       sodipodi:linespacing="125%"
       id="text499"
       y="65.780998"
       x="121.57294"
       
       xml:space="preserve"><tspan
         id="tspan501"
         y="65.780998"
         x="121.57294"
         sodipodi:role="line"><tspan
           id="tspan503"
           
           dy="0"
           dx="0">T</tspan></tspan></text>
    <text
       sodipodi:linespacing="125%"
       id="text505"
       y="65.780998"
       x="123.07328"
       
       xml:space="preserve"><tspan
         id="tspan507"
         y="65.780998"
         x="123.07328"
         sodipodi:role="line"><tspan
           id="tspan509"
           
           dy="0"
           dx="0">r</tspan></tspan></text>
    <text
       sodipodi:linespacing="125%"
       id="text511"
       y="65.780998"
       x="124.24634"
       
       xml:space="preserve"><tspan
         id="tspan513"
         y="65.780998"
         x="124.24634"
         sodipodi:role="line"><tspan
           id="tspan515"
           
           dy="0"
           dx="0">oms</tspan></tspan></text>
    <text
       sodipodi:linespacing="125%"
       id="text517"
       y="32.909103"
       x="121.54556"
       
       xml:space="preserve"><tspan
         id="tspan519"
         y="32.909103"
         x="121.54556"
         sodipodi:role="line"><tspan
           id="tspan521"
           
           dy="0"
           dx="0">K</tspan></tspan></text>
    <text
       sodipodi:linespacing="125%"
       id="text523"
       y="32.909103"
       x="123.31978"
       
       xml:space="preserve"><tspan
         id="tspan525"
         y="32.909103"
         x="123.31978"
         sodipodi:role="line"><tspan
           id="tspan527"
           
           dy="0"
           dx="0">arls</tspan></tspan></text>
    <text
       sodipodi:linespacing="125%"
       id="text529"
       y="32.909103"
       x="128.42885"
       
       xml:space="preserve"><tspan
         id="tspan531"
         y="32.909103"
         x="128.42885"
         sodipodi:role="line"><tspan
           id="tspan533"
           
           dy="0"
           dx="0"></tspan></tspan></text>
    <text
       sodipodi:linespacing="125%"
       id="text535"
       y="32.909103"
       x="130.27715"
       
       xml:space="preserve"><tspan
         id="tspan537"
         y="32.909103"
         x="130.27715"
         sodipodi:role="line"><tspan
           id="tspan539"
           
           dy="0"
           dx="0">y</tspan></tspan></text>
    <text
       sodipodi:linespacing="125%"
       id="text541"
       y="164.01048"
       x="109.57987"
       
       xml:space="preserve"><tspan
         id="tspan543"
         y="164.01048"
         x="109.57987"
         sodipodi:role="line"><tspan
           id="tspan545"
           
           dy="0"
           dx="0">Ba</tspan></tspan></text>
    <text
       sodipodi:linespacing="125%"
       id="text547"
       y="164.01048"
       x="113.18861"
       
       xml:space="preserve"><tspan
         id="tspan549"
         y="164.01048"
         x="113.18861"
         sodipodi:role="line"><tspan
           id="tspan551"
           
           dy="0"
           dx="0">r</tspan></tspan></text>
    <text
       sodipodi:linespacing="125%"
       id="text553"
       y="164.01048"
       x="114.37028"
       
       xml:space="preserve"><tspan
         id="tspan555"
         y="164.01048"
         x="114.37028"
         sodipodi:role="line"><tspan
           id="tspan557"
           
           dy="0"
           dx="0">du</tspan></tspan></text>
    <text
       sodipodi:linespacing="125%"
       id="text559"
       y="94.559258"
       x="75.856697"
       
       xml:space="preserve"><tspan
         id="tspan561"
         y="94.559258"
         x="75.856697"
         sodipodi:role="line"><tspan
           id="tspan563"
           
           dy="0"
           dx="0">Le</tspan></tspan></text>
    <text
       sodipodi:linespacing="125%"
       id="text565"
       y="94.559258"
       x="79.095085"
       
       xml:space="preserve"><tspan
         id="tspan567"
         y="94.559258"
         x="79.095085"
         sodipodi:role="line"><tspan
           id="tspan569"
           
           dy="0"
           dx="0">n</tspan></tspan></text>
    <text
       sodipodi:linespacing="125%"
       id="text571"
       y="94.559258"
       x="80.889977"
       
       xml:space="preserve"><tspan
         id="tspan573"
         y="94.559258"
         x="80.889977"
         sodipodi:role="line"><tspan
           id="tspan575"
           
           dy="0"
           dx="0">vik</tspan></tspan></text>
    <text
       sodipodi:linespacing="125%"
       id="text577"
       y="123.76006"
       x="87.367104"
       
       xml:space="preserve"><tspan
         id="tspan579"
         y="123.76006"
         x="87.367104"
         sodipodi:role="line"><tspan
           id="tspan581"
           
           dy="0"
           dx="0">Sr</tspan></tspan></text>
    <text
       sodipodi:linespacing="125%"
       id="text583"
       y="123.76006"
       x="92.085159"
       
       xml:space="preserve"><tspan
         id="tspan585"
         y="123.76006"
         x="92.085159"
         sodipodi:role="line"><tspan
           id="tspan587"
           
           dy="0"
           dx="0">r</tspan></tspan></text>
    <text
       sodipodi:linespacing="125%"
       id="text589"
       y="123.76006"
       x="93.268555"
       
       xml:space="preserve"><tspan
         id="tspan591"
         y="123.76006"
         x="93.268555"
         sodipodi:role="line"><tspan
           id="tspan593"
           
           dy="0"
           dx="0">eisa</tspan></tspan></text>
    <text
       sodipodi:linespacing="125%"
       id="text595"
       y="128.14842"
       x="73.992035"
       
       xml:space="preserve"><tspan
         id="tspan597"
         y="128.14842"
         x="73.992035"
         sodipodi:role="line"><tspan
           id="tspan599"
           
           dy="0"
           dx="0">Dy</tspan></tspan></text>
    <text
       sodipodi:linespacing="125%"
       id="text601"
       y="128.14842"
       x="77.759247"
       
       xml:space="preserve"><tspan
         id="tspan603"
         y="128.14842"
         x="77.759247"
         sodipodi:role="line"><tspan
           id="tspan605"
           
           dy="0"
           dx="0">r</tspan></tspan></text>
    <text
       sodipodi:linespacing="125%"
       id="text607"
       y="128.14842"
       x="78.932304"
       
       xml:space="preserve"><tspan
         id="tspan609"
         y="128.14842"
         x="78.932304"
         sodipodi:role="line"><tspan
           id="tspan611"
           
           dy="0"
           dx="0"></tspan></tspan></text>
    <text
       sodipodi:linespacing="125%"
       id="text613"
       y="128.14842"
       x="80.780602"
       
       xml:space="preserve"><tspan
         id="tspan615"
         y="128.14842"
         x="80.780602"
         sodipodi:role="line"><tspan
           id="tspan617"
           
           dy="0"
           dx="0">y</tspan></tspan></text>
    <text
       sodipodi:linespacing="125%"
       id="text619"
       y="141.00035"
       x="78.902328"
       
       xml:space="preserve"><tspan
         id="tspan621"
         y="141.00035"
         x="78.902328"
         sodipodi:role="line"><tspan
           id="tspan623"
           
           dy="0"
           dx="0">Salan</tspan></tspan></text>
    <text
       sodipodi:linespacing="125%"
       id="text625"
       y="141.00035"
       x="86.565948"
       
       xml:space="preserve"><tspan
         id="tspan627"
         y="141.00035"
         x="86.565948"
         sodipodi:role="line"><tspan
           id="tspan629"
           
           dy="0"
           dx="0">g</tspan></tspan></text>
    <text
       sodipodi:linespacing="125%"
       id="text631"
       y="141.00035"
       x="88.197205"
       
       xml:space="preserve"><tspan
         id="tspan633"
         y="141.00035"
         x="88.197205"
         sodipodi:role="line"><tspan
           id="tspan635"
           
           dy="0"
           dx="0">en</tspan></tspan></text>
    <text
       sodipodi:linespacing="125%"
       id="text637"
       y="155.97653"
       x="71.933937"
       
       xml:space="preserve"><tspan
         id="tspan639"
         y="155.97653"
         x="71.933937"
         sodipodi:role="line"><tspan
           id="tspan641"
           
           dy="0"
           dx="0">L</tspan></tspan></text>
    <text
       sodipodi:linespacing="125%"
       id="text643"
       y="155.97653"
       x="73.417053"
       
       xml:space="preserve"><tspan
         id="tspan645"
         y="155.97653"
         x="73.417053"
         sodipodi:role="line"><tspan
           id="tspan647"
           
           dy="0"
           dx="0">a</tspan></tspan></text>
    <text
       sodipodi:linespacing="125%"
       id="text649"
       y="155.97653"
       x="75.048302"
       
       xml:space="preserve"><tspan
         id="tspan651"
         y="155.97653"
         x="75.048302"
         sodipodi:role="line"><tspan
           id="tspan653"
           
           dy="0"
           dx="0">v</tspan></tspan></text>
    <text
       sodipodi:linespacing="125%"
       id="text655"
       y="155.97653"
       x="76.589989"
       
       xml:space="preserve"><tspan
         id="tspan657"
         y="155.97653"
         x="76.589989"
         sodipodi:role="line"><tspan
           id="tspan659"
           
           dy="0"
           dx="0">an</tspan></tspan></text>
    <text
       sodipodi:linespacing="125%"
       id="text661"
       y="155.97653"
       x="80.133263"
       
       xml:space="preserve"><tspan
         id="tspan663"
         y="155.97653"
         x="80.133263"
         sodipodi:role="line"><tspan
           id="tspan665"
           
           dy="0"
           dx="0">g</tspan></tspan></text>
    <text
       sodipodi:linespacing="125%"
       id="text667"
       y="155.97653"
       x="81.764519"
       
       xml:space="preserve"><tspan
         id="tspan669"
         y="155.97653"
         x="81.764519"
         sodipodi:role="line"><tspan
           id="tspan671"
           
           dy="0"
           dx="0">en</tspan></tspan></text>
    <text
       sodipodi:linespacing="125%"
       id="text673"
       y="166.13577"
       x="64.224846"
       
       xml:space="preserve"><tspan
         id="tspan675"
         y="166.13577"
         x="64.224846"
         sodipodi:role="line"><tspan
           id="tspan677"
           
           dy="0"
           dx="0">G</tspan></tspan></text>
    <text
       sodipodi:linespacing="125%"
       id="text679"
       y="166.13577"
       x="66.450378"
       
       xml:space="preserve"><tspan
         id="tspan681"
         y="166.13577"
         x="66.450378"
         sodipodi:role="line"><tspan
           id="tspan683"
           
           dy="0"
           dx="0">r</tspan></tspan></text>
    <text
       sodipodi:linespacing="125%"
       id="text685"
       y="166.13577"
       x="67.607933"
       
       xml:space="preserve"><tspan
         id="tspan687"
         y="166.13577"
         x="67.607933"
         sodipodi:role="line"><tspan
           id="tspan689"
           
           dy="0"
           dx="0">a</tspan></tspan></text>
    <text
       sodipodi:linespacing="125%"
       id="text691"
       y="166.13577"
       x="69.265022"
       
       xml:space="preserve"><tspan
         id="tspan693"
         y="166.13577"
         x="69.265022"
         sodipodi:role="line"><tspan
           id="tspan695"
           
           dy="0"
           dx="0">t</tspan></tspan></text>
    <text
       sodipodi:linespacing="125%"
       id="text697"
       y="166.13577"
       x="70.403625"
       
       xml:space="preserve"><tspan
         id="tspan699"
         y="166.13577"
         x="70.403625"
         sodipodi:role="line"><tspan
           id="tspan701"
           
           dy="0"
           dx="0">an</tspan></tspan></text>
    <text
       sodipodi:linespacing="125%"
       id="text703"
       y="166.13577"
       x="73.946907"
       
       xml:space="preserve"><tspan
         id="tspan705"
         y="166.13577"
         x="73.946907"
         sodipodi:role="line"><tspan
           id="tspan707"
           
           dy="0"
           dx="0">g</tspan></tspan></text>
    <text
       sodipodi:linespacing="125%"
       id="text709"
       y="166.13577"
       x="75.578163"
       
       xml:space="preserve"><tspan
         id="tspan711"
         y="166.13577"
         x="75.578163"
         sodipodi:role="line"><tspan
           id="tspan713"
           
           dy="0"
           dx="0">en</tspan></tspan></text>
    <text
       sodipodi:linespacing="125%"
       id="text715"
       y="172.6315"
       x="42.975155"
       
       xml:space="preserve"><tspan
         id="tspan717"
         y="172.6315"
         x="42.975155"
         sodipodi:role="line"><tspan
           id="tspan719"
           
           dy="0"
           dx="0">S</tspan></tspan></text>
    <text
       sodipodi:linespacing="125%"
       id="text721"
       y="172.6315"
       x="44.596073"
       
       xml:space="preserve"><tspan
         id="tspan723"
         y="172.6315"
         x="44.596073"
         sodipodi:role="line"><tspan
           id="tspan725"
           
           dy="0"
           dx="0">k</tspan></tspan></text>
    <text
       sodipodi:linespacing="125%"
       id="text727"
       y="172.6315"
       x="46.139477"
       
       xml:space="preserve"><tspan
         id="tspan729"
         y="172.6315"
         x="46.139477"
         sodipodi:role="line"><tspan
           id="tspan731"
           
           dy="0"
           dx="0">nland</tspan></tspan></text>
    <text
       sodipodi:linespacing="125%"
       id="text733"
       y="149.38571"
       x="47.367477"
       
       xml:space="preserve"><tspan
         id="tspan735"
         y="149.38571"
         x="47.367477"
         sodipodi:role="line"><tspan
           id="tspan737"
           
           dy="0"
           dx="0">Ibe</tspan></tspan></text>
    <text
       sodipodi:linespacing="125%"
       id="text739"
       y="149.38571"
       x="51.865051"
       
       xml:space="preserve"><tspan
         id="tspan741"
         y="149.38571"
         x="51.865051"
         sodipodi:role="line"><tspan
           id="tspan743"
           
           dy="0"
           dx="0">s</tspan></tspan></text>
    <text
       sodipodi:linespacing="125%"
       id="text745"
       y="149.38571"
       x="53.205193"
       
       xml:space="preserve"><tspan
         id="tspan747"
         y="149.38571"
         x="53.205193"
         sodipodi:role="line"><tspan
           id="tspan749"
           
           dy="0"
           dx="0">t</tspan></tspan></text>
    <text
       sodipodi:linespacing="125%"
       id="text751"
       y="149.38571"
       x="54.343796"
       
       xml:space="preserve"><tspan
         id="tspan753"
         y="149.38571"
         x="54.343796"
         sodipodi:role="line"><tspan
           id="tspan755"
           
           dy="0"
           dx="0">ad</tspan></tspan></text>
    <text
       sodipodi:linespacing="125%"
       id="text757"
       y="108.70723"
       x="62.320053"
       
       xml:space="preserve"><tspan
         id="tspan759"
         y="108.70723"
         x="62.320053"
         sodipodi:role="line"><tspan
           id="tspan761"
           
           dy="0"
           dx="0">T</tspan></tspan></text>
    <text
       sodipodi:linespacing="125%"
       id="text763"
       y="108.70723"
       x="63.820393"
       
       xml:space="preserve"><tspan
         id="tspan765"
         y="108.70723"
         x="63.820393"
         sodipodi:role="line"><tspan
           id="tspan767"
           
           dy="0"
           dx="0">r</tspan></tspan></text>
    <text
       sodipodi:linespacing="125%"
       id="text769"
       y="108.70723"
       x="64.977943"
       
       xml:space="preserve"><tspan
         id="tspan771"
         y="108.70723"
         x="64.977943"
         sodipodi:role="line"><tspan
           id="tspan773"
           
           dy="0"
           dx="0">an</tspan></tspan></text>
    <text
       sodipodi:linespacing="125%"
       id="text775"
       y="108.70723"
       x="68.521225"
       
       xml:space="preserve"><tspan
         id="tspan777"
         y="108.70723"
         x="68.521225"
         sodipodi:role="line"><tspan
           id="tspan779"
           
           dy="0"
           dx="0"></tspan></tspan></text>
    <text
       sodipodi:linespacing="125%"
       id="text781"
       y="108.70723"
       x="70.369522"
       
       xml:space="preserve"><tspan
         id="tspan783"
         y="108.70723"
         x="70.369522"
         sodipodi:role="line"><tspan
           id="tspan785"
           
           dy="0"
           dx="0">y</tspan></tspan></text>
    <text
       sodipodi:linespacing="125%"
       id="text787"
       y="80.467957"
       x="49.486729"
       
       xml:space="preserve"><tspan
         id="tspan789"
         y="80.467957"
         x="49.486729"
         sodipodi:role="line"><tspan
           id="tspan791"
           
           dy="0"
           dx="0">Be</tspan></tspan></text>
    <text
       sodipodi:linespacing="125%"
       id="text793"
       y="80.467957"
       x="53.160923"
       
       xml:space="preserve"><tspan
         id="tspan795"
         y="80.467957"
         x="53.160923"
         sodipodi:role="line"><tspan
           id="tspan797"
           
           dy="0"
           dx="0">r</tspan></tspan></text>
    <text
       sodipodi:linespacing="125%"
       id="text799"
       y="80.467957"
       x="54.34259"
       
       xml:space="preserve"><tspan
         id="tspan801"
         y="80.467957"
         x="54.34259"
         sodipodi:role="line"><tspan
           id="tspan803"
           
           dy="0"
           dx="0">g</tspan></tspan></text>
    <text
       sodipodi:linespacing="125%"
       id="text805"
       y="103.26311"
       x="33.719044"
       
       xml:space="preserve"><tspan
         id="tspan807"
         y="103.26311"
         x="33.719044"
         sodipodi:role="line"><tspan
           id="tspan809"
           
           dy="0"
           dx="0">T</tspan></tspan></text>
    <text
       sodipodi:linespacing="125%"
       id="text811"
       y="103.26311"
       x="35.124645"
       
       xml:space="preserve"><tspan
         id="tspan813"
         y="103.26311"
         x="35.124645"
         sodipodi:role="line"><tspan
           id="tspan815"
           
           dy="0"
           dx="0">o</tspan></tspan></text>
    <text
       sodipodi:linespacing="125%"
       id="text817"
       y="103.26311"
       x="36.984993"
       
       xml:space="preserve"><tspan
         id="tspan819"
         y="103.26311"
         x="36.984993"
         sodipodi:role="line"><tspan
           id="tspan821"
           
           dy="0"
           dx="0">r</tspan></tspan></text>
    <text
       sodipodi:linespacing="125%"
       id="text823"
       y="103.26311"
       x="38.154606"
       
       xml:space="preserve"><tspan
         id="tspan825"
         y="103.26311"
         x="38.154606"
         sodipodi:role="line"><tspan
           id="tspan827"
           
           dy="0"
           dx="0">s</tspan></tspan></text>
    <text
       sodipodi:linespacing="125%"
       id="text829"
       y="103.26311"
       x="39.534367"
       
       xml:space="preserve"><tspan
         id="tspan831"
         y="103.26311"
         x="39.534367"
         sodipodi:role="line"><tspan
           id="tspan833"
           
           dy="0"
           dx="0">k</tspan></tspan></text>
    <text
       sodipodi:linespacing="125%"
       id="text835"
       y="103.26311"
       x="41.024368"
       
       xml:space="preserve"><tspan
         id="tspan837"
         y="103.26311"
         x="41.024368"
         sodipodi:role="line"><tspan
           id="tspan839"
           
           dy="0"
           dx="0">en</tspan></tspan></text>
    <text
       sodipodi:linespacing="125%"
       id="text841"
       y="148.88617"
       x="29.848824"
       
       xml:space="preserve"><tspan
         id="tspan843"
         y="148.88617"
         x="29.848824"
         sodipodi:role="line"><tspan
           id="tspan845"
           
           dy="0"
           dx="0">Ha</tspan></tspan></text>
    <text
       sodipodi:linespacing="125%"
       id="text847"
       y="148.88617"
       x="33.736614"
       
       xml:space="preserve"><tspan
         id="tspan849"
         y="148.88617"
         x="33.736614"
         sodipodi:role="line"><tspan
           id="tspan851"
           
           dy="0"
           dx="0">r</tspan></tspan></text>
    <text
       sodipodi:linespacing="125%"
       id="text853"
       y="148.88617"
       x="34.906223"
       
       xml:space="preserve"><tspan
         id="tspan855"
         y="148.88617"
         x="34.906223"
         sodipodi:role="line"><tspan
           id="tspan857"
           
           dy="0"
           dx="0">s</tspan></tspan></text>
    <text
       sodipodi:linespacing="125%"
       id="text859"
       y="148.88617"
       x="36.246368"
       
       xml:space="preserve"><tspan
         id="tspan861"
         y="148.88617"
         x="36.246368"
         sodipodi:role="line"><tspan
           id="tspan863"
           
           dy="0"
           dx="0">t</tspan></tspan></text>
    <text
       sodipodi:linespacing="125%"
       id="text865"
       y="148.88617"
       x="37.384972"
       
       xml:space="preserve"><tspan
         id="tspan867"
         y="148.88617"
         x="37.384972"
         sodipodi:role="line"><tspan
           id="tspan869"
           
           dy="0"
           dx="0">ad</tspan></tspan></text>
    <text
       sodipodi:linespacing="125%"
       id="text871"
       y="156.88327"
       x="5.7972345"
       
       xml:space="preserve"><tspan
         id="tspan873"
         y="156.88327"
         x="5.7972345"
         sodipodi:role="line"><tspan
           id="tspan875"
           
           dy="0"
           dx="0">K</tspan></tspan></text>
    <text
       sodipodi:linespacing="125%"
       id="text877"
       y="156.88327"
       x="7.456048"
       
       xml:space="preserve"><tspan
         id="tspan879"
         y="156.88327"
         x="7.456048"
         sodipodi:role="line"><tspan
           id="tspan881"
           
           dy="0"
           dx="0">v</tspan></tspan></text>
    <text
       sodipodi:linespacing="125%"
       id="text883"
       y="156.88327"
       x="8.9977283"
       
       xml:space="preserve"><tspan
         id="tspan885"
         y="156.88327"
         x="8.9977283"
         sodipodi:role="line"><tspan
           id="tspan887"
           
           dy="0"
           dx="0"></tspan></tspan></text>
    <text
       sodipodi:linespacing="125%"
       id="text889"
       y="156.88327"
       x="11.693516"
       
       xml:space="preserve"><tspan
         id="tspan891"
         y="156.88327"
         x="11.693516"
         sodipodi:role="line"><tspan
           id="tspan893"
           
           dy="0"
           dx="0">fjo</tspan></tspan></text>
    <text
       sodipodi:linespacing="125%"
       id="text895"
       y="156.88327"
       x="15.421109"
       
       xml:space="preserve"><tspan
         id="tspan897"
         y="156.88327"
         x="15.421109"
         sodipodi:role="line"><tspan
           id="tspan899"
           
           dy="0"
           dx="0">r</tspan></tspan></text>
    <text
       sodipodi:linespacing="125%"
       id="text901"
       y="156.88327"
       x="16.602776"
       
       xml:space="preserve"><tspan
         id="tspan903"
         y="156.88327"
         x="16.602776"
         sodipodi:role="line"><tspan
           id="tspan905"
           
           dy="0"
           dx="0">d</tspan></tspan></text>
  </g>
</svg>
